<?xml version="1.0" encoding="iso-8859-1"?>
<!-- Generator: Adobe Illustrator 18.0.0, SVG Export Plug-In . SVG Version: 6.00 Build 0)  -->
<!DOCTYPE svg PUBLIC "-//W3C//DTD SVG 1.1//EN" "http://www.w3.org/Graphics/SVG/1.1/DTD/svg11.dtd">
<svg version="1.1" id="Capa_1" xmlns="http://www.w3.org/2000/svg" xmlns:xlink="http://www.w3.org/1999/xlink" x="0px" y="0px"
	 viewBox="0 0 55.178 55.178" style="enable-background:new 0 0 55.178 55.178;" xml:space="preserve">
<g>
	<path d="M20.496,35.439c-0.271,1.245,0.519,2.475,1.764,2.746c1.245,0.271,2.475-0.519,2.746-1.764
		c0.271-1.245-0.619-8.007-0.619-8.007C24.364,28.408,20.768,34.194,20.496,35.439z"/>
	<path d="M32.728,28.413c0,0-0.89,6.762-0.619,8.007c0.271,1.245,1.5,2.035,2.746,1.764c1.245-0.271,2.035-1.5,1.764-2.746
		C36.348,34.194,32.752,28.408,32.728,28.413z"/>
	<path d="M48.53,39.815c-0.922-0.545-1.473-1.509-1.473-2.578c0-0.498,0.122-0.972,0.361-1.408c0.547-0.997,0.547-2.187,0-3.183
		c-0.24-0.437-0.361-0.911-0.361-1.409c0-0.484,0.112-0.946,0.331-1.372c0.487-0.942,0.509-2.011,0.062-2.932
		c-0.261-0.536-0.393-1.106-0.393-1.696c0-0.27,0.027-0.541,0.081-0.806l0.247-1.217l-1.242,0.018l-0.086,0.005
		c-2.757,0-5-2.243-5-5c0-0.491,0.071-0.977,0.212-1.443c0.292-0.967,0.087-2.024-0.549-2.829c-0.648-0.819-1.646-1.272-2.681-1.207
		c-1.688,0.103-3.566,0.404-5.739,0.918c-0.781,0.185-1.585,0.281-2.394,0.336c0.595-4.433,3.672-7.779,7.224-7.652
		c0.572,0.029,1.016-0.411,1.036-0.963s-0.411-1.016-0.963-1.036c-3.561-0.111-6.706,2.299-8.3,5.897L28.431,7.08
		c-0.501-3.368-3.102-5.969-6.47-6.471L17.87,0l0.609,4.091c0.502,3.368,3.103,5.968,6.47,6.47l3.618,0.539
		c-0.327,0.915-0.563,1.89-0.679,2.915c-0.851-0.055-1.701-0.157-2.539-0.354c-4.625-1.09-10.471-1.912-14.675,1.436
		c-3.826,3.045-5.663,9.041-5.616,18.329c0.036,6.988,4.147,14.751,10,18.878c2.697,1.902,5.591,2.875,8.434,2.875
		c1.384,0,2.757-0.231,4.088-0.697c0.837-0.294,1.728-0.293,2.575,0.003c5.854,2.047,14.179-0.366,19.579-10.372
		C50.556,42.588,50.027,40.701,48.53,39.815z M25.243,8.583c-2.491-0.371-4.415-2.294-4.786-4.786l-0.211-1.421l1.42,0.211
		c2.492,0.371,4.416,2.295,4.786,4.787l0.212,1.42L25.243,8.583z M47.974,43.162c-3.487,6.463-10.145,11.886-17.159,9.435
		c-0.641-0.224-1.299-0.336-1.956-0.336c-0.654,0-1.307,0.111-1.94,0.333c-4.408,1.546-8.255-0.194-10.707-1.924
		c-5.271-3.718-9.12-10.974-9.152-17.254C7.014,24.78,8.605,19.3,11.92,16.661c2.756-2.194,6.754-2.519,12.97-1.054
		c1.232,0.29,2.491,0.44,3.745,0.458c0.046,0.008,0.086,0.031,0.134,0.032c0.013,0,0.025,0,0.037,0c0.052,0,0.098-0.021,0.148-0.029
		c1.289-0.005,2.569-0.152,3.808-0.445c2.061-0.488,3.827-0.772,5.4-0.869c0.389-0.019,0.745,0.141,0.99,0.451
		c0.234,0.296,0.309,0.664,0.204,1.01c-0.198,0.653-0.298,1.333-0.298,2.021c0,3.521,2.612,6.442,6,6.929c0,0.024,0,0.047,0,0.071
		c0,0.895,0.2,1.759,0.594,2.57c0.169,0.348,0.155,0.763-0.04,1.141c-0.362,0.704-0.554,1.495-0.554,2.289
		c0,0.826,0.21,1.646,0.607,2.371c0.223,0.406,0.223,0.853,0,1.259c-0.397,0.725-0.607,1.545-0.607,2.371
		c0,1.757,0.941,3.404,2.455,4.299C48.081,41.874,48.284,42.587,47.974,43.162z"/>
</g>
<g>
</g>
<g>
</g>
<g>
</g>
<g>
</g>
<g>
</g>
<g>
</g>
<g>
</g>
<g>
</g>
<g>
</g>
<g>
</g>
<g>
</g>
<g>
</g>
<g>
</g>
<g>
</g>
<g>
</g>
</svg>
