<?xml version="1.0" encoding="iso-8859-1"?>
<!-- Generator: Adobe Illustrator 18.0.0, SVG Export Plug-In . SVG Version: 6.00 Build 0)  -->
<!DOCTYPE svg PUBLIC "-//W3C//DTD SVG 1.1//EN" "http://www.w3.org/Graphics/SVG/1.1/DTD/svg11.dtd">
<svg version="1.1" id="Capa_1" xmlns="http://www.w3.org/2000/svg" xmlns:xlink="http://www.w3.org/1999/xlink" x="0px" y="0px"
	 viewBox="0 0 58.695 58.695" style="enable-background:new 0 0 58.695 58.695;" xml:space="preserve">
<g>
	<polygon points="21.551,10.109 23.844,12.402 25.258,10.988 21.551,7.281 17.844,10.988 19.258,12.402 	"/>
	<polygon points="23.844,17.402 25.258,15.988 21.551,12.281 17.844,15.988 19.258,17.402 21.551,15.109 	"/>
	<path d="M41.845,5.816l-4.29-5.792l-2.002,2.703l-2.002-2.703l-2.02,2.728L29.492,0l-1.971,2.661L25.549,0l-1.997,2.696L21.555,0
		l-3.844,5.188c-3.494,4.719-3.494,11.059,0,15.778l0.902,1.217v14.16l-2.477-2.477c-0.391-0.391-1.023-0.391-1.414,0
		s-0.391,1.023,0,1.414l3.414,3.414l-3.414,3.415c-0.391,0.391-0.391,1.023,0,1.414c0.195,0.195,0.451,0.293,0.707,0.293
		s0.512-0.098,0.707-0.293l2.456-2.457v17.628h4h2h2.005h1.995h2.002h0.993h3.017h0.986h5.002V41.719l-0.023-1.023h-0.019v-4
		c0-0.004-0.002-0.008-0.002-0.012l0.065-0.001V22.049l1.231-1.661C45.072,16.029,45.072,10.174,41.845,5.816z M33.551,3.384
		l2.683,3.623c2.701,3.646,2.701,8.544,0,12.189l-1.624,2.192v13.307h-2V22.049l1.231-1.661c3.228-4.358,3.228-10.214,0-14.571
		l-1.046-1.412L33.551,3.384z M29.492,3.359l2.683,3.623c2.701,3.646,2.701,8.544,0,12.189l-1.624,2.192v13.331h-1.942V22.024
		l1.231-1.662c3.229-4.357,3.229-10.213,0-14.571l-1.075-1.45L29.492,3.359z M25.549,3.359l0.728,0.982L26.248,4.38l1.927,2.603
		c2.701,3.646,2.701,8.544,0,12.188l-1.624,2.193v13.331h-1.937l0.003-12.674l0.781-1.055c0.022-0.03,0.04-0.061,0.062-0.091
		l0.381-0.514c3.229-4.357,3.229-10.213,0-14.571l-0.391-0.527c-0.018-0.025-0.033-0.051-0.051-0.075l-0.602-0.812L25.549,3.359z
		 M19.318,6.379l2.236-3.02l0.753,1.017L22.305,4.38l1.538,2.077c2.892,3.969,2.894,9.261,0.007,13.232l-1.241,1.676v13.331h-1.995
		V21.523l-1.295-1.747C16.351,15.77,16.351,10.385,19.318,6.379z M22.609,36.695h2.005h1.938h2.058h2.001h1.941h2.063h1.996h1.941v1
		H19.965l-1-1H22.609z M22.593,56.695h-2v-14h2V56.695z M24.593,56.695v-14h2v14H24.593z M30.593,56.695h-2v-14h2V56.695z
		 M32.593,56.695v-14h2v14H32.593z M38.593,56.695h-2v-14h2V56.695z M36.593,40.695h-2h-2h-2h-2h-2h-2h-2h-3.628l1-1h18.586v1
		H36.593z M40.237,19.196l-1.624,2.192v13.307h-2V22.049l1.231-1.661c3.228-4.358,3.228-10.214,0-14.571l-1.046-1.412l0.756-1.021
		l2.683,3.623C42.939,10.652,42.939,15.551,40.237,19.196z"/>
</g>
<g>
</g>
<g>
</g>
<g>
</g>
<g>
</g>
<g>
</g>
<g>
</g>
<g>
</g>
<g>
</g>
<g>
</g>
<g>
</g>
<g>
</g>
<g>
</g>
<g>
</g>
<g>
</g>
<g>
</g>
</svg>
