<?xml version="1.0" encoding="iso-8859-1"?>
<!-- Generator: Adobe Illustrator 18.0.0, SVG Export Plug-In . SVG Version: 6.00 Build 0)  -->
<!DOCTYPE svg PUBLIC "-//W3C//DTD SVG 1.1//EN" "http://www.w3.org/Graphics/SVG/1.1/DTD/svg11.dtd">
<svg version="1.1" id="Capa_1" xmlns="http://www.w3.org/2000/svg" xmlns:xlink="http://www.w3.org/1999/xlink" x="0px" y="0px"
	 viewBox="0 0 52.78 52.78" style="enable-background:new 0 0 52.78 52.78;" xml:space="preserve">
<g>
	<path d="M51.743,1.241c-1.508-1.162-3.468-1.524-5.522-1.018c-1.733,0.427-3.358,1.435-4.648,2.87
		c-0.186-0.149-0.371-0.298-0.57-0.44c-4.354-3.108-9.237-2.669-13.674,1.177L12.747,14.245c-3.399,2.428-6.109,5.261-8.056,8.42
		c-5.385,8.743-6.215,20.892,2.617,27.196c2.849,2.033,5.944,2.918,9.052,2.918c6.528,0,13.103-3.907,17.519-9.283
		c2.354-2.867,4.153-6.351,5.345-10.355l5.079-17.088c1.826-4.538,1.362-8.553-1.263-11.566c1.028-1.158,2.299-1.988,3.659-2.323
		c1.452-0.356,2.809-0.123,3.824,0.66c0.437,0.337,1.064,0.255,1.402-0.182C52.261,2.206,52.18,1.578,51.743,1.241z M42.417,15.395
		l-5.109,17.176c-1.116,3.747-2.789,6.996-4.974,9.656c-5.93,7.219-16.028,11.599-23.863,6.006
		c-7.834-5.591-6.975-16.566-2.076-24.519c1.806-2.931,4.334-5.57,7.515-7.842L28.564,5.399c1.665-1.441,3.904-2.788,6.463-2.788
		c1.512,0,3.134,0.471,4.813,1.669C44.363,7.509,43.755,12.059,42.417,15.395z"/>
	<path d="M38.678,5.908c-3.169-2.262-5.729-0.843-7.815,0.841c-2.344,1.895-4.833,3.538-6.959,4.896l-7.967,5.094
		c-2.76,2.147-5.006,4.584-6.677,7.245c-4.662,7.421-5.913,17.408,0.716,22.14c1.917,1.368,4.035,1.97,6.211,1.97
		c5.35,0,11.049-3.641,14.96-8.489c1.973-2.446,3.548-5.363,4.707-8.757l2.877-11.817c0.405-1.666,0.938-3.376,1.63-5.229
		C41.386,11.056,41.891,8.201,38.678,5.908z M38.488,13.101c-0.72,1.927-1.275,3.712-1.7,5.456l-2.852,11.729
		c-1.058,3.086-2.52,5.798-4.346,8.062c-4.914,6.092-12.83,10.161-18.452,6.147c-5.622-4.013-4.349-12.821-0.185-19.448
		c1.547-2.462,3.637-4.727,6.136-6.677l7.891-5.04c2.173-1.387,4.72-3.069,7.141-5.025c2.271-1.833,3.631-2.028,5.396-0.769
		C39.316,8.821,39.561,10.225,38.488,13.101z"/>
	<path d="M27.285,21.887c-4.151-2.96-12.235,2.758-15.077,6.738C9.06,33.037,9.55,38.803,13.301,41.48
		c1.265,0.903,2.759,1.365,4.344,1.365c0.728,0,1.475-0.097,2.227-0.294c2.326-0.609,4.436-2.106,5.94-4.216
		c1.522-2.132,2.828-5.487,3.329-8.549C29.761,25.989,29.102,23.184,27.285,21.887z M27.167,29.464
		c-0.454,2.782-1.625,5.809-2.981,7.709h-0.001c-1.233,1.729-2.945,2.952-4.819,3.443c-1.808,0.471-3.549,0.202-4.901-0.764
		c-2.854-2.036-3.135-6.551-0.628-10.065c2.189-3.067,7.501-6.71,10.704-6.71c0.619,0,1.159,0.136,1.583,0.438
		C27.254,24.322,27.644,26.546,27.167,29.464z"/>
	<circle cx="14.843" cy="35.045" r="1.5"/>
	<circle cx="18.869" cy="31.837" r="1.5"/>
	<circle cx="19.283" cy="37.344" r="1.5"/>
</g>
<g>
</g>
<g>
</g>
<g>
</g>
<g>
</g>
<g>
</g>
<g>
</g>
<g>
</g>
<g>
</g>
<g>
</g>
<g>
</g>
<g>
</g>
<g>
</g>
<g>
</g>
<g>
</g>
<g>
</g>
</svg>
