<?xml version="1.0" encoding="iso-8859-1"?>
<!-- Generator: Adobe Illustrator 18.0.0, SVG Export Plug-In . SVG Version: 6.00 Build 0)  -->
<!DOCTYPE svg PUBLIC "-//W3C//DTD SVG 1.1//EN" "http://www.w3.org/Graphics/SVG/1.1/DTD/svg11.dtd">
<svg version="1.1" id="Capa_1" xmlns="http://www.w3.org/2000/svg" xmlns:xlink="http://www.w3.org/1999/xlink" x="0px" y="0px"
	 viewBox="0 0 55.308 55.308" style="enable-background:new 0 0 55.308 55.308;" xml:space="preserve">
<g>
	<path d="M55.308,18.177c0-8.063-6.56-14.623-14.623-14.623c-7.819,0-14.207,6.175-14.586,13.901
		c-2.701-3.426-6.879-5.609-11.475-5.609C6.56,11.846,0,18.406,0,26.469s6.56,14.623,14.623,14.623c1.611,0,3.181-0.273,4.688-0.784
		c1.456,6.539,7.294,11.446,14.265,11.446c8.063,0,14.624-6.56,14.624-14.623c0-2.055-0.43-4.009-1.199-5.785
		C52.016,28.933,55.308,23.793,55.308,18.177z M14.623,39.092C7.663,39.092,2,33.43,2,26.469s5.663-12.623,12.623-12.623
		c6.003,0,11.19,4.305,12.361,10.13c-5.025,2.441-8.23,7.52-8.23,13.154c0,0.397,0.021,0.805,0.063,1.247
		C17.473,38.853,16.065,39.092,14.623,39.092z M33.577,49.754c-6.96,0-12.623-5.663-12.623-12.623
		c0-6.933,5.619-12.575,12.542-12.619c0.171,0.002,0.341,0.009,0.511,0.018c0.111,0.004,0.221,0.01,0.331,0.017
		c4.358,0.329,8.232,2.879,10.262,6.823l0.408,0.793c0,0,1.193,3.183,1.193,4.968C46.2,44.091,40.537,49.754,33.577,49.754z
		 M46.072,29.573c-2.416-3.978-6.666-6.711-11.574-7.019c-0.185-0.014-0.372-0.021-0.559-0.028c-0.121-0.003-0.24-0.018-0.362-0.018
		c-0.026,0-0.052,0.004-0.078,0.004c-0.041,0-0.081-0.004-0.121-0.004c-1.445,0-2.882,0.219-4.283,0.652
		c-0.686-1.581-1.033-3.254-1.033-4.983c0-6.96,5.663-12.623,12.623-12.623s12.623,5.663,12.623,12.623
		C53.308,23.048,50.437,27.504,46.072,29.573z"/>
	<path d="M35.079,30.153c-1.048-0.89-2.571-0.967-3.704-0.186l-2.841,1.964c-0.455,0.314-0.568,0.937-0.254,1.391
		c0.194,0.281,0.506,0.432,0.824,0.432c0.196,0,0.394-0.058,0.567-0.177l2.841-1.964c0.382-0.264,0.917-0.238,1.272,0.064
		l2.165,1.839c0.42,0.357,1.052,0.306,1.41-0.115c0.357-0.421,0.306-1.052-0.115-1.41L35.079,30.153z"/>
	<path d="M32.384,28.288l0.45-1.788c0.135-0.536-0.19-1.079-0.726-1.214c-0.535-0.136-1.079,0.189-1.214,0.726l-0.45,1.788
		c-0.029,0.116-0.359,0.398-0.839,0.398H27.25c-0.552,0-1,0.448-1,1s0.448,1,1,1h2.355C30.915,30.198,32.109,29.377,32.384,28.288z"
		/>
	<path d="M38.929,28.202l-2.895-0.256c-0.416-0.037-0.661-0.262-0.686-0.331l-0.126-1.445c-0.048-0.55-0.519-0.96-1.083-0.909
		c-0.55,0.048-0.957,0.533-0.909,1.083l0.126,1.446c0.097,1.107,1.173,2.031,2.502,2.149l2.894,0.256
		c0.03,0.002,0.06,0.004,0.089,0.004c0.513,0,0.949-0.392,0.995-0.912C39.886,28.736,39.479,28.25,38.929,28.202z"/>
	<path d="M16.238,19.651c-1.048-0.891-2.572-0.967-3.704-0.186l-2.841,1.964c-0.455,0.314-0.568,0.937-0.254,1.391
		c0.194,0.281,0.506,0.432,0.824,0.432c0.196,0,0.394-0.058,0.567-0.177l2.841-1.964c0.383-0.263,0.918-0.237,1.271,0.064
		l2.166,1.839c0.422,0.357,1.052,0.307,1.41-0.115c0.357-0.421,0.306-1.052-0.115-1.41L16.238,19.651z"/>
	<path d="M13.543,17.786l0.45-1.788c0.135-0.536-0.19-1.079-0.726-1.214c-0.536-0.134-1.079,0.189-1.214,0.726l-0.45,1.788
		c-0.029,0.116-0.359,0.398-0.839,0.398H8.41c-0.552,0-1,0.448-1,1s0.448,1,1,1h2.355C12.074,19.696,13.269,18.875,13.543,17.786z"
		/>
	<path d="M17.018,19.436l2.894,0.256c0.03,0.002,0.06,0.004,0.089,0.004c0.513,0,0.949-0.392,0.995-0.912
		c0.049-0.55-0.358-1.036-0.908-1.084l-2.895-0.256c-0.416-0.037-0.661-0.262-0.686-0.332l-0.126-1.445
		c-0.048-0.549-0.519-0.967-1.083-0.909c-0.55,0.048-0.957,0.533-0.909,1.083l0.126,1.445
		C14.613,18.394,15.688,19.318,17.018,19.436z"/>
	<path d="M42.238,11.153c-1.048-0.891-2.572-0.967-3.704-0.186l-2.841,1.964c-0.455,0.314-0.568,0.937-0.254,1.391
		c0.194,0.281,0.506,0.432,0.824,0.432c0.196,0,0.394-0.058,0.567-0.177l2.841-1.964c0.383-0.264,0.918-0.237,1.271,0.064
		l2.166,1.839c0.421,0.357,1.052,0.306,1.41-0.115c0.357-0.421,0.306-1.052-0.115-1.41L42.238,11.153z"/>
	<path d="M39.543,9.288l0.45-1.788c0.135-0.536-0.19-1.079-0.726-1.214c-0.537-0.137-1.079,0.189-1.214,0.726l-0.45,1.788
		c-0.029,0.116-0.359,0.398-0.839,0.398H34.41c-0.552,0-1,0.448-1,1s0.448,1,1,1h2.355C38.074,11.198,39.269,10.377,39.543,9.288z"
		/>
	<path d="M46.088,9.202l-2.895-0.256c-0.416-0.037-0.661-0.262-0.686-0.332l-0.126-1.445c-0.048-0.55-0.521-0.966-1.083-0.909
		c-0.55,0.048-0.957,0.533-0.909,1.083l0.126,1.445c0.097,1.107,1.173,2.031,2.502,2.149l2.894,0.256
		c0.03,0.002,0.06,0.004,0.089,0.004c0.513,0,0.949-0.392,0.995-0.912C47.045,9.736,46.638,9.25,46.088,9.202z"/>
</g>
<g>
</g>
<g>
</g>
<g>
</g>
<g>
</g>
<g>
</g>
<g>
</g>
<g>
</g>
<g>
</g>
<g>
</g>
<g>
</g>
<g>
</g>
<g>
</g>
<g>
</g>
<g>
</g>
<g>
</g>
</svg>
