<?xml version="1.0" encoding="iso-8859-1"?>
<!-- Generator: Adobe Illustrator 18.0.0, SVG Export Plug-In . SVG Version: 6.00 Build 0)  -->
<!DOCTYPE svg PUBLIC "-//W3C//DTD SVG 1.1//EN" "http://www.w3.org/Graphics/SVG/1.1/DTD/svg11.dtd">
<svg version="1.1" id="Capa_1" xmlns="http://www.w3.org/2000/svg" xmlns:xlink="http://www.w3.org/1999/xlink" x="0px" y="0px"
	 viewBox="0 0 59.964 59.964" style="enable-background:new 0 0 59.964 59.964;" xml:space="preserve">
<path d="M38.052,50.607c-3.738-0.264-5.07-3.554-5.07-6.545V43.12c0-0.88,0.51-1.665,1.3-2.001
	c6.755-2.874,11.473-10.074,11.473-17.509c0-0.018-0.008-1.716-0.701-2.192l-0.178-0.12c0.064-0.807,0.112-1.618,0.107-2.433
	c-0.021-3.442-1.088-7.396-1.088-7.396l-0.191-0.585C41.317,3.62,36.071,0.603,31.792,0.09c-0.007-0.001-0.015-0.002-0.022-0.003
	C31.324,0.034,30.886,0,30.465,0c-4.938,0-11.403,4.419-13.66,12.607l-0.23,0.836c0,0-0.64,3.161-0.626,5.421
	c0.005,0.854-0.186,1.248-0.113,2.1c-0.075-0.036-0.492,0.156-0.492,0.156l-0.434,0.298c-0.693,0.477-0.701,2.175-0.701,2.192
	c0,7.435,4.718,14.635,11.473,17.509c0.79,0.336,1.3,1.121,1.3,2.001v0.942c0,2.991-1.332,6.281-5.07,6.545
	c-6.077,0.425-7.103,1.674-7.102,4.358c0,3.624,4.111,4.979,15.174,4.998c11.059-0.02,15.17-1.374,15.17-5.046
	C45.155,52.281,44.129,51.032,38.052,50.607z M42.982,18.864c0,1.175-0.079,2.343-0.222,3.494l-0.001,0.002l-0.039,0.291
	c-0.036,0.266-0.073,0.517-0.111,0.759c-0.018,0.108-0.035,0.216-0.054,0.323c-0.026,0.154-0.051,0.311-0.078,0.455
	c-0.827,0.283-1.689,0.532-2.578,0.749c-0.025,0.006-0.048,0.013-0.072,0.019c-0.263,0.064-0.535,0.118-0.803,0.176
	c-0.198,0.043-0.393,0.09-0.594,0.13c-0.073,0.015-0.15,0.025-0.223,0.039c-0.874,0.166-1.768,0.305-2.681,0.409
	c-0.054,0.006-0.11,0.01-0.164,0.016c-1.435,0.157-2.911,0.24-4.412,0.24l-0.587-0.013l-0.009,0
	c-4.344-0.064-8.552-0.814-11.966-2.15c-0.291-1.627-0.438-3.285-0.438-4.939c0-1.854,0.254-3.552,0.67-5.114l3.944-2.366
	c0.791,1.613,2.265,4.603,2.562,5.097c0.199,0.332,0.549,0.54,0.936,0.557c0.355,0.015,1.007,0.043,2.947-2.438l4.17,5.212
	l3.976-7.95l2.721,3.628l2.258-2.258C42.693,15.164,42.982,17.114,42.982,18.864z M30.465,2c0.25,0,0.496,0.01,0.739,0.029
	c0.053,0.004,0.108,0.013,0.161,0.018c4.79,0.454,8.204,4.49,10.043,9.079l-1.318,1.318l-3.279-4.372l-4.024,8.05l-3.845-4.806
	l-0.77,1.063c-0.554,0.765-1.27,1.655-1.786,2.209c-0.637-1.254-1.76-3.533-2.506-5.061l-0.479-0.979l-3.704,2.222
	C22.355,5.054,27.43,2,30.465,2z M29.984,57.964c-11.809-0.021-13.174-1.721-13.174-3.047c0-1.215-0.001-1.948,5.242-2.315
	c4.21-0.296,6.93-3.647,6.93-8.539V43.12c0-1.683-0.988-3.19-2.517-3.841c-5.558-2.365-9.572-8.011-10.177-14.084
	c0.336,0.414,5.985,2.644,13.701,2.767l0.37-0.009l0.222,0.006c0.122,0.003,0.243,0.007,0.366,0.007
	c0.573,0,1.142-0.011,1.708-0.033c0.193-0.008,0.383-0.024,0.576-0.034c0.37-0.02,0.742-0.037,1.108-0.066
	c0.236-0.019,0.467-0.047,0.701-0.069c0.318-0.031,0.639-0.057,0.953-0.095c0.246-0.03,0.486-0.069,0.73-0.103
	c0.297-0.041,0.597-0.079,0.89-0.126c0.239-0.039,0.471-0.087,0.707-0.13c0.292-0.053,0.587-0.103,0.875-0.163
	c0.225-0.047,0.443-0.102,0.665-0.153c0.291-0.066,0.585-0.129,0.87-0.202c0.207-0.053,0.407-0.114,0.611-0.17
	c0.293-0.081,0.589-0.159,0.875-0.247c0.184-0.057,0.361-0.121,0.543-0.18c0.276-0.091,0.557-0.177,0.827-0.275
	c-0.839,5.794-4.753,11.09-10.089,13.36c-1.528,0.65-2.517,2.158-2.517,3.841v0.942c0,4.892,2.72,8.243,6.93,8.539
	c5.243,0.367,5.242,1.101,5.242,2.364C43.154,56.243,41.789,57.942,29.984,57.964z"/>
<g>
</g>
<g>
</g>
<g>
</g>
<g>
</g>
<g>
</g>
<g>
</g>
<g>
</g>
<g>
</g>
<g>
</g>
<g>
</g>
<g>
</g>
<g>
</g>
<g>
</g>
<g>
</g>
<g>
</g>
</svg>
