<?xml version="1.0" encoding="iso-8859-1"?>
<!-- Generator: Adobe Illustrator 18.0.0, SVG Export Plug-In . SVG Version: 6.00 Build 0)  -->
<!DOCTYPE svg PUBLIC "-//W3C//DTD SVG 1.1//EN" "http://www.w3.org/Graphics/SVG/1.1/DTD/svg11.dtd">
<svg version="1.1" id="Capa_1" xmlns="http://www.w3.org/2000/svg" xmlns:xlink="http://www.w3.org/1999/xlink" x="0px" y="0px"
	 viewBox="0 0 54.209 54.209" style="enable-background:new 0 0 54.209 54.209;" xml:space="preserve">
<g>
	<path d="M54.203,29.135L54,27.187v-1.948c0-0.596-0.179-1.076-0.531-1.426c-0.593-0.589-1.419-0.587-2.212-0.575l-24.006,0
		L6.447,1.943C5.306,0.802,3.648,0.651,2.583,1.56L2.327,1.681L2.205,1.804c-1.1,1.101-1.101,3.343-0.009,4.435l16.6,17L3,23.239
		H2.744c-0.796,0-1.62-0.015-2.212,0.575C0.179,24.163,0,24.643,0,25.239v2c0,0.033,0.008,0.07,0.009,0.103l-0.004,0l0.023,0.217
		c0.01,0.115,0.015,0.228,0.036,0.348l0.146,1.404c0.045,12.969,12.138,23.929,26.998,23.929c14.888,0,27-11.001,27-24.001
		L54.203,29.135z M51.272,25.239c0.225,0,0.54-0.006,0.728,0.018v1.982c0,0.82-0.68,1.956-1,2h-7v-4h7H51.272z M35.5,27.197
		c-1.93,0-3.5,1.561-3.5,3.479v2.479c0,0.815-0.673,1.479-1.5,1.479S29,33.972,29,33.156v-7.918h0.204l0,0l12.796,0v13.703
		c0,0.815-0.673,1.479-1.5,1.479S39,39.757,39,38.942v-8.265C39,28.758,37.43,27.197,35.5,27.197z M3.619,4.833
		c-0.295-0.295-0.322-1.122-0.08-1.513L3.731,3.23l0.123-0.123c0.278-0.276,0.834-0.095,1.17,0.242l19.429,19.889h-2.862
		L3.619,4.833z M2.728,25.238l18.021,0l0.001,0H27v4H3.003c-0.275-0.037-0.805-0.865-0.958-1.617L2,27.187v-1.93
		C2.189,25.233,2.502,25.235,2.728,25.238z M27.209,51.239c-13.062,0-23.809-8.98-24.902-20.131c0.22,0.08,0.45,0.13,0.693,0.13h24
		v1.918c0,1.918,1.57,3.479,3.5,3.479s3.5-1.561,3.5-3.479v-2.479c0-0.815,0.673-1.479,1.5-1.479s1.5,0.664,1.5,1.479v8.265
		c0,1.918,1.57,3.479,3.5,3.479S44,40.86,44,38.942v-7.703h7c0.412,0,0.788-0.137,1.13-0.351
		C51.158,42.14,40.357,51.239,27.209,51.239z"/>
	<path d="M26.37,47.467c-5.445-0.558-10.426-2.707-14.025-6.052c-0.403-0.374-1.037-0.353-1.413,0.052
		c-0.376,0.404-0.353,1.037,0.052,1.413c3.916,3.639,9.307,5.975,15.182,6.577c0.035,0.003,0.069,0.005,0.103,0.005
		c0.507,0,0.941-0.383,0.994-0.898C27.319,48.015,26.919,47.524,26.37,47.467z"/>
	<path d="M8.161,37.213c-0.331-0.442-0.957-0.534-1.4-0.202c-0.442,0.331-0.532,0.958-0.202,1.399
		c0.354,0.474,0.753,0.911,1.188,1.302c0.191,0.172,0.43,0.257,0.668,0.257c0.274,0,0.546-0.111,0.744-0.331
		c0.369-0.411,0.336-1.043-0.075-1.412C8.748,37.922,8.437,37.581,8.161,37.213z"/>
</g>
<g>
</g>
<g>
</g>
<g>
</g>
<g>
</g>
<g>
</g>
<g>
</g>
<g>
</g>
<g>
</g>
<g>
</g>
<g>
</g>
<g>
</g>
<g>
</g>
<g>
</g>
<g>
</g>
<g>
</g>
</svg>
