<?xml version="1.0" encoding="iso-8859-1"?>
<!-- Generator: Adobe Illustrator 18.0.0, SVG Export Plug-In . SVG Version: 6.00 Build 0)  -->
<!DOCTYPE svg PUBLIC "-//W3C//DTD SVG 1.1//EN" "http://www.w3.org/Graphics/SVG/1.1/DTD/svg11.dtd">
<svg version="1.1" id="Capa_1" xmlns="http://www.w3.org/2000/svg" xmlns:xlink="http://www.w3.org/1999/xlink" x="0px" y="0px"
	 viewBox="0 0 51 51" style="enable-background:new 0 0 51 51;" xml:space="preserve">
<g>
	<path d="M18.845,19.55c-0.032,0.029-0.06,0.062-0.091,0.091c-0.2,0.183-0.391,0.373-0.575,0.572
		c-0.054,0.058-0.107,0.116-0.16,0.176c-0.178,0.201-0.347,0.409-0.508,0.624c-0.044,0.059-0.089,0.116-0.132,0.176
		c-0.163,0.228-0.316,0.463-0.46,0.705c-0.03,0.05-0.062,0.098-0.09,0.149c-0.15,0.26-0.286,0.529-0.412,0.803
		c-0.016,0.035-0.035,0.069-0.051,0.105c-0.13,0.292-0.246,0.591-0.348,0.897c-0.007,0.021-0.016,0.041-0.023,0.062
		c-0.102,0.312-0.188,0.629-0.259,0.953c-0.004,0.018-0.01,0.034-0.013,0.052c-0.067,0.312-0.117,0.63-0.154,0.953
		c-0.003,0.028-0.01,0.056-0.013,0.084C15.52,26.295,15.5,26.646,15.5,27c0,5.514,4.486,10,10,10c0.323,0,0.644-0.018,0.963-0.049
		c0.141-0.014,0.279-0.039,0.418-0.058c0.171-0.024,0.343-0.045,0.512-0.078c0.174-0.033,0.344-0.078,0.515-0.12
		c0.129-0.032,0.258-0.062,0.386-0.099c0.187-0.054,0.369-0.118,0.551-0.183c0.107-0.038,0.214-0.075,0.319-0.117
		c0.19-0.075,0.376-0.158,0.56-0.245c0.093-0.043,0.185-0.087,0.277-0.134c0.189-0.096,0.373-0.198,0.555-0.305
		c0.082-0.048,0.163-0.097,0.244-0.148c0.185-0.116,0.365-0.237,0.541-0.365c0.072-0.052,0.143-0.106,0.214-0.16
		c0.178-0.136,0.351-0.277,0.52-0.424c0.027-0.023,0.055-0.043,0.082-0.067c0.01-0.009,0.016-0.022,0.027-0.032
		C34.214,32.586,35.5,29.943,35.5,27c0-5.514-4.486-10-10-10c-2.546,0-4.865,0.964-6.633,2.537
		C18.861,19.543,18.851,19.544,18.845,19.55z M17.5,27c0-0.268,0.014-0.532,0.04-0.794c0.184-1.823,0.997-3.54,2.303-4.849
		C22.527,21.87,24.5,24.222,24.5,27c0,3.159,1.892,5.908,4.656,7.107c-0.014,0.007-0.028,0.013-0.041,0.02
		c-0.243,0.124-0.493,0.234-0.747,0.332c-0.058,0.022-0.118,0.044-0.177,0.065c-0.22,0.079-0.444,0.147-0.67,0.207
		c-0.074,0.02-0.148,0.04-0.223,0.057c-0.223,0.052-0.449,0.091-0.676,0.123c-0.074,0.01-0.146,0.025-0.221,0.034
		C26.103,34.98,25.803,35,25.5,35C21.089,35,17.5,31.411,17.5,27z M33.5,27c0,2.19-0.886,4.177-2.318,5.623
		C28.489,32.117,26.5,29.784,26.5,27c0-3.16-1.896-5.906-4.662-7.104C22.937,19.327,24.18,19,25.5,19C29.911,19,33.5,22.589,33.5,27
		z"/>
	<path d="M38.777,2.896C38.108,2.63,37.5,1.73,37.5,1c0-0.553-0.447-1-1-1h-22c-0.553,0-1,0.458-1,1.011
		c0,0.72-0.608,1.619-1.277,1.886C10.568,3.559,9.5,5.137,9.5,6.918v37.164c0,1.781,1.068,3.359,2.723,4.021
		C12.892,48.37,13.5,49.27,13.5,50c0,0.553,0.447,1,1,1h22c0.553,0,1-0.458,1-1.011c0-0.72,0.608-1.619,1.277-1.886
		c1.654-0.662,2.723-2.24,2.723-4.021V6.918C41.5,5.137,40.432,3.559,38.777,2.896z M39.5,44.082c0,0.959-0.575,1.809-1.465,2.164
		c-1.115,0.445-2.04,1.553-2.388,2.754H15.354c-0.347-1.197-1.273-2.308-2.39-2.754c-0.89-0.355-1.465-1.205-1.465-2.164V6.918
		c0-0.959,0.575-1.809,1.465-2.164C14.08,4.309,15.005,3.201,15.353,2h20.293c0.347,1.197,1.273,2.308,2.39,2.754
		c0.89,0.355,1.465,1.205,1.465,2.164V44.082z"/>
	<path d="M14.5,8h5c0.553,0,1-0.447,1-1s-0.447-1-1-1h-5c-0.553,0-1,0.447-1,1S13.947,8,14.5,8z"/>
	<path d="M36.5,6h-13c-0.553,0-1,0.447-1,1s0.447,1,1,1h13c0.553,0,1-0.447,1-1S37.053,6,36.5,6z"/>
	<path d="M19.5,44h-5c-0.553,0-1,0.447-1,1s0.447,1,1,1h5c0.553,0,1-0.447,1-1S20.053,44,19.5,44z"/>
	<path d="M36.5,44h-13c-0.553,0-1,0.447-1,1s0.447,1,1,1h13c0.553,0,1-0.447,1-1S37.053,44,36.5,44z"/>
</g>
<g>
</g>
<g>
</g>
<g>
</g>
<g>
</g>
<g>
</g>
<g>
</g>
<g>
</g>
<g>
</g>
<g>
</g>
<g>
</g>
<g>
</g>
<g>
</g>
<g>
</g>
<g>
</g>
<g>
</g>
</svg>
