<?xml version="1.0" encoding="iso-8859-1"?>
<!-- Generator: Adobe Illustrator 18.0.0, SVG Export Plug-In . SVG Version: 6.00 Build 0)  -->
<!DOCTYPE svg PUBLIC "-//W3C//DTD SVG 1.1//EN" "http://www.w3.org/Graphics/SVG/1.1/DTD/svg11.dtd">
<svg version="1.1" id="Capa_1" xmlns="http://www.w3.org/2000/svg" xmlns:xlink="http://www.w3.org/1999/xlink" x="0px" y="0px"
	 viewBox="0 0 57.31 57.31" style="enable-background:new 0 0 57.31 57.31;" xml:space="preserve">
<g>
	<path d="M57.211,17.581c-0.239-0.497-0.837-0.706-1.335-0.466c-0.177,0.085-17.648,8.602-29.85,21.529l-0.89-0.89
		C37.314,25.637,54.605,12.59,54.79,12.45c0.441-0.332,0.529-0.959,0.197-1.4c-0.331-0.44-0.956-0.53-1.4-0.198
		c-0.186,0.14-17.578,13.264-29.865,25.487l-2.698-2.698C33.31,21.446,47.039,4.686,47.185,4.506
		c0.35-0.428,0.286-1.058-0.142-1.407c-0.427-0.35-1.057-0.286-1.407,0.142c-0.146,0.178-13.818,16.87-26.027,28.986l-0.897-0.897
		C31.589,19.132,40.154,1.658,40.239,1.482c0.241-0.497,0.034-1.095-0.463-1.336c-0.496-0.241-1.095-0.034-1.336,0.463
		c-0.084,0.174-8.527,17.388-21.167,29.331c-0.39-0.271-0.921-0.251-1.269,0.096c-0.298,0.298-0.365,0.735-0.209,1.1
		c-0.394,0.262-0.812,0.509-1.264,0.731c-0.01,0.005-0.023,0.011-0.033,0.015c-0.224,0.021-0.444,0.104-0.615,0.275
		c-0.004,0.004-0.005,0.009-0.008,0.013c-0.621,0.275-1.395,0.593-2.259,0.947c-3.852,1.578-9.127,3.739-10.797,6.228
		c-1.565,2.334-0.866,4.879,1.919,6.982c0.001,0.001,0.003,0.001,0.004,0.002c-0.602,0.966-0.853,1.908-0.702,2.805
		c0.168,0.992,0.805,1.879,1.843,2.566c0.352,0.232,0.681,0.5,0.976,0.793c0.292,0.293,0.561,0.622,0.795,0.977
		c0.687,1.038,1.574,1.675,2.566,1.843c0.18,0.03,0.36,0.045,0.544,0.045c0.765,0,1.561-0.282,2.372-0.81
		c1.362,1.794,2.907,2.716,4.46,2.716c0.842,0,1.686-0.271,2.503-0.819c2.489-1.669,4.649-6.945,6.228-10.797
		c0.373-0.912,0.708-1.727,0.993-2.364c0.051-0.081,0.092-0.162,0.117-0.251c0.047-0.101,0.097-0.212,0.141-0.301
		c0.204-0.415,0.434-0.794,0.671-1.161c0.116,0.045,0.239,0.07,0.362,0.07c0.256,0,0.512-0.098,0.707-0.293
		c0.347-0.347,0.368-0.877,0.098-1.267C39.361,27.394,56.572,19,56.745,18.916C57.242,18.676,57.451,18.078,57.211,17.581z
		 M24.204,41.064l-1.17-1.17c0.23-0.239,0.461-0.478,0.696-0.719l1.021,1.021C24.559,40.474,24.377,40.763,24.204,41.064z
		 M18.876,35.737c0.239-0.23,0.479-0.46,0.72-0.695l2.718,2.718c-0.235,0.24-0.466,0.48-0.696,0.719L18.876,35.737z M16.314,33.174
		c0.299-0.176,0.584-0.362,0.859-0.556l1.009,1.009c-0.241,0.234-0.481,0.465-0.72,0.695L16.314,33.174z M2.479,40.46
		c1.331-1.983,6.484-4.094,9.896-5.491c0.764-0.313,1.452-0.597,2.049-0.856l1.521,1.521c-0.38,0.287-0.776,0.565-1.197,0.827
		c-2.413,1.5-7.991,5.387-10.769,8.311c-0.014-0.012-0.021-0.029-0.036-0.04C1.07,42.562,2.131,40.98,2.479,40.46z M8.553,53.342
		c-0.546-0.092-0.971-0.581-1.231-0.975c-0.309-0.465-0.661-0.897-1.05-1.288c-0.392-0.39-0.824-0.742-1.285-1.046
		c-0.572-0.379-0.9-0.793-0.975-1.231c-0.084-0.498,0.144-1.105,0.677-1.806c1.974-2.59,8.213-7.034,11.115-8.837
		c0.554-0.344,1.073-0.714,1.566-1.1l2.926,2.926c-0.385,0.493-0.755,1.013-1.1,1.567c-1.804,2.902-6.248,9.142-8.836,11.114
		C9.66,53.198,9.059,53.428,8.553,53.342z M16.986,54.785c-0.52,0.35-2.103,1.409-4.272-1.463c-0.01-0.013-0.026-0.019-0.036-0.032
		c0.5-0.482,1.027-1.045,1.565-1.656c-0.327,0.393-0.319,0.971,0.049,1.34l1,1c0.195,0.195,0.451,0.293,0.707,0.293
		c0.256,0,0.512-0.098,0.707-0.293c0.391-0.391,0.391-1.023,0-1.414l-1-1c-0.38-0.38-0.985-0.383-1.378-0.024
		c2.568-2.94,5.351-6.972,6.567-8.928c0.261-0.421,0.539-0.817,0.826-1.197l1.556,1.556c-0.245,0.569-0.51,1.214-0.801,1.925
		C21.08,48.301,18.969,53.455,16.986,54.785z"/>
	<path d="M23.693,33.662c0.195,0.195,0.451,0.293,0.707,0.293s0.512-0.098,0.707-0.293L51.36,7.409c0.391-0.391,0.391-1.023,0-1.414
		s-1.023-0.391-1.414,0L23.693,32.248C23.303,32.638,23.303,33.271,23.693,33.662z"/>
	<path d="M6.706,47.559c-0.391-0.391-1.023-0.391-1.414,0s-0.391,1.023,0,1.414l3,3c0.195,0.195,0.451,0.293,0.707,0.293
		s0.512-0.098,0.707-0.293c0.391-0.391,0.391-1.023,0-1.414L6.706,47.559z"/>
	<path d="M4.292,42.973c0.195,0.195,0.451,0.293,0.707,0.293s0.512-0.098,0.707-0.293c0.391-0.391,0.391-1.023,0-1.414l-1-1
		c-0.391-0.391-1.023-0.391-1.414,0s-0.391,1.023,0,1.414L4.292,42.973z"/>
</g>
<g>
</g>
<g>
</g>
<g>
</g>
<g>
</g>
<g>
</g>
<g>
</g>
<g>
</g>
<g>
</g>
<g>
</g>
<g>
</g>
<g>
</g>
<g>
</g>
<g>
</g>
<g>
</g>
<g>
</g>
</svg>
