<?xml version="1.0" encoding="iso-8859-1"?>
<!-- Generator: Adobe Illustrator 18.0.0, SVG Export Plug-In . SVG Version: 6.00 Build 0)  -->
<!DOCTYPE svg PUBLIC "-//W3C//DTD SVG 1.1//EN" "http://www.w3.org/Graphics/SVG/1.1/DTD/svg11.dtd">
<svg version="1.1" id="Capa_1" xmlns="http://www.w3.org/2000/svg" xmlns:xlink="http://www.w3.org/1999/xlink" x="0px" y="0px"
	 viewBox="0 0 56 56" style="enable-background:new 0 0 56 56;" xml:space="preserve">
<g>
	<path d="M46,7h-2.42l0.666-3H33.899C33.434,1.721,31.414,0,29,0h-8c-2.414,0-4.434,1.721-4.899,4H6.137C4.407,4,3,5.407,3,7.137
		c0,1.418,0.976,2.666,2.374,3.035c6.427,1.697,6.964,16.288,6.628,21.767L11.937,33H16v2h-3.719L7.445,49.378
		c-0.25,0.952-0.225,1.927,0.045,2.838c0.003,0.009,0.004,0.017,0.007,0.026c0.084,0.279,0.194,0.55,0.325,0.814
		c0.03,0.061,0.062,0.119,0.095,0.179c0.115,0.21,0.242,0.415,0.386,0.611c0.047,0.063,0.094,0.125,0.143,0.186
		c0.145,0.18,0.302,0.348,0.466,0.505c0.063,0.06,0.125,0.119,0.191,0.176c0.201,0.175,0.411,0.336,0.634,0.477
		c0.037,0.023,0.076,0.042,0.114,0.064c0.218,0.13,0.445,0.243,0.679,0.34c0.048,0.02,0.094,0.042,0.143,0.061
		c0.263,0.1,0.535,0.177,0.813,0.233c0.056,0.011,0.112,0.02,0.168,0.029C11.947,55.966,12.245,56,12.55,56h24.9
		c0.304,0,0.602-0.034,0.895-0.083c0.057-0.01,0.113-0.018,0.169-0.029c0.278-0.057,0.55-0.134,0.812-0.233
		c0.049-0.019,0.096-0.041,0.145-0.061c0.233-0.096,0.458-0.208,0.675-0.337c0.039-0.023,0.08-0.043,0.119-0.067
		c0.221-0.14,0.43-0.3,0.63-0.474c0.068-0.058,0.132-0.119,0.196-0.18c0.159-0.153,0.311-0.316,0.452-0.49
		c0.056-0.069,0.109-0.138,0.162-0.21c0.138-0.189,0.261-0.386,0.372-0.588c0.036-0.066,0.072-0.132,0.105-0.2
		c0.125-0.254,0.231-0.514,0.313-0.783c0.009-0.03,0.015-0.06,0.023-0.09c0.079-0.279,0.136-0.564,0.167-0.854
		c0.002-0.022,0.01-0.041,0.012-0.063c0.001-0.005-0.002-0.01-0.002-0.015c0.059-0.629,0.01-1.278-0.161-1.927L37.719,35H34v-2
		h3.802l4-18h2.457C44.668,15,45,15.332,45,15.741V25c0,2.206,1.794,4,4,4s4-1.794,4-4V14C53,10.141,49.859,7,46,7z M21,2h8
		c1.304,0,2.416,0.836,2.829,2H18.171C18.584,2.836,19.696,2,21,2z M12.55,54c-0.228,0-0.449-0.031-0.667-0.076
		c-0.053-0.011-0.106-0.022-0.158-0.036c-0.21-0.054-0.416-0.123-0.609-0.217c-0.019-0.01-0.036-0.022-0.055-0.032
		c-0.182-0.093-0.353-0.205-0.515-0.332c-0.034-0.027-0.07-0.052-0.103-0.081c-0.169-0.143-0.326-0.302-0.466-0.48
		c-0.021-0.026-0.038-0.055-0.058-0.082c-0.117-0.158-0.216-0.325-0.301-0.498c-0.023-0.046-0.049-0.09-0.07-0.137
		c-0.004-0.01-0.006-0.021-0.01-0.03h30.925c-0.005,0.012-0.007,0.026-0.012,0.038c-0.017,0.04-0.04,0.076-0.059,0.115
		c-0.088,0.18-0.191,0.354-0.313,0.519c-0.018,0.024-0.033,0.049-0.051,0.073c-0.141,0.18-0.3,0.341-0.47,0.485
		c-0.032,0.026-0.065,0.051-0.097,0.076c-0.164,0.128-0.339,0.242-0.523,0.336c-0.017,0.009-0.033,0.02-0.05,0.029
		c-0.194,0.094-0.401,0.163-0.611,0.218c-0.052,0.013-0.104,0.025-0.157,0.036C37.9,53.969,37.678,54,37.45,54H12.55z M36.282,37
		l4.338,12.888c0.01,0.037,0.008,0.075,0.016,0.112H9.354c0.004-0.016,0.002-0.032,0.007-0.048L13.719,37H16h18H36.282z M32,35H18
		v-2h14V35z M36.198,31H34H16h-1.956c0.134-4.383,0.064-20.59-8.16-22.762C5.355,8.099,5,7.656,5,7.137C5,6.51,5.51,6,6.137,6H16h18
		h7.753l-0.222,1H39c-2.206,0-4,1.794-4,4s1.794,4,4,4h0.753L36.198,31z M51,25c0,1.103-0.897,2-2,2s-2-0.897-2-2v-9.259
		C47,14.229,45.771,13,44.259,13h-2.012H39c-1.103,0-2-0.897-2-2s0.897-2,2-2h4.136H46c2.757,0,5,2.243,5,5V25z"/>
	<path d="M14.926,39.681l-2.692,8c-0.176,0.523,0.105,1.091,0.629,1.268C12.969,48.983,13.077,49,13.182,49
		c0.417,0,0.807-0.264,0.948-0.681l2.692-8c0.176-0.523-0.105-1.091-0.629-1.268C15.665,38.877,15.102,39.158,14.926,39.681z"/>
	<path d="M35.869,48.314c0.141,0.417,0.53,0.681,0.948,0.681c0.105,0,0.213-0.017,0.319-0.052c0.523-0.177,0.805-0.744,0.629-1.268
		l-2.69-7.995c-0.176-0.521-0.742-0.802-1.267-0.629c-0.523,0.177-0.805,0.744-0.629,1.268L35.869,48.314z"/>
	<path d="M36.23,17.023c-0.539-0.116-1.073,0.222-1.193,0.76l-2.223,10c-0.12,0.539,0.22,1.073,0.759,1.193
		C33.647,28.992,33.72,29,33.792,29c0.458,0,0.872-0.317,0.975-0.783l2.223-10C37.11,17.678,36.77,17.144,36.23,17.023z"/>
	<path d="M14.833,8.014c-0.545,0.093-0.911,0.609-0.819,1.153l3.223,19C17.319,28.655,17.743,29,18.222,29
		c0.055,0,0.112-0.005,0.168-0.014c0.545-0.093,0.911-0.609,0.819-1.153l-3.223-19C15.894,8.289,15.376,7.93,14.833,8.014z"/>
	<path d="M22,49.002c0.552,0,1-0.447,1-1V40c0-0.553-0.448-1-1-1s-1,0.447-1,1v8.002C21,48.555,21.448,49.002,22,49.002z"/>
	<path d="M29,49.002c0.552,0,1-0.447,1-1V40c0-0.553-0.448-1-1-1s-1,0.447-1,1v8.002C28,48.555,28.448,49.002,29,49.002z"/>
	<path d="M23,8c-0.552,0-1,0.447-1,1v19c0,0.553,0.448,1,1,1s1-0.447,1-1V9C24,8.447,23.552,8,23,8z"/>
	<path d="M29,8c-0.552,0-1,0.447-1,1v19c0,0.553,0.448,1,1,1s1-0.447,1-1V9C30,8.447,29.552,8,29,8z"/>
</g>
<g>
</g>
<g>
</g>
<g>
</g>
<g>
</g>
<g>
</g>
<g>
</g>
<g>
</g>
<g>
</g>
<g>
</g>
<g>
</g>
<g>
</g>
<g>
</g>
<g>
</g>
<g>
</g>
<g>
</g>
</svg>
