<?xml version="1.0" encoding="iso-8859-1"?>
<!-- Generator: Adobe Illustrator 18.0.0, SVG Export Plug-In . SVG Version: 6.00 Build 0)  -->
<!DOCTYPE svg PUBLIC "-//W3C//DTD SVG 1.1//EN" "http://www.w3.org/Graphics/SVG/1.1/DTD/svg11.dtd">
<svg version="1.1" id="Capa_1" xmlns="http://www.w3.org/2000/svg" xmlns:xlink="http://www.w3.org/1999/xlink" x="0px" y="0px"
	 viewBox="0 0 56 56" style="enable-background:new 0 0 56 56;" xml:space="preserve">
<g>
	<path d="M44.78,10.116C44.919,9.77,45,9.395,45,9V8c0-1.654-1.346-3-3-3H24.566l-2.709-4.515C21.677,0.185,21.351,0,21,0h-4
		c-0.552,0-1,0.447-1,1v4h-2c-1.654,0-3,1.346-3,3v1c0,0.395,0.081,0.77,0.22,1.116C9.945,10.461,9,11.617,9,13v6
		c0,1.654,1.346,3,3,3h0.18l0.6,3H12c-0.283,0-0.552,0.119-0.741,0.329c-0.19,0.209-0.282,0.489-0.254,0.771l2,20
		C13.056,46.61,13.486,47,14,47h1.052l0.955,8.117C16.066,55.62,16.493,56,17,56h23c0.51,0,0.937-0.383,0.994-0.89L41.895,47H43
		c0.533,0,0.972-0.418,0.999-0.95l1-20c0.014-0.273-0.085-0.541-0.274-0.739C44.536,25.112,44.274,25,44,25h-0.78l0.6-3H44
		c1.654,0,3-1.346,3-3v-6C47,11.617,46.055,10.461,44.78,10.116z M18,2h2.434l1.8,3H18V2z M13,8c0-0.552,0.449-1,1-1h28
		c0.551,0,1,0.448,1,1v1c0,0.552-0.449,1-1,1H14c-0.551,0-1-0.448-1-1V8z M39.105,54H17.889l-0.824-7h22.817L39.105,54z M42.049,45
		H41H15.941h-1.036l-1.8-18H14h28h0.949L42.049,45z M41.18,25H14.82l-0.6-3H41.78L41.18,25z M45,19c0,0.552-0.449,1-1,1h-1H13h-1
		c-0.551,0-1-0.448-1-1v-6c0-0.552,0.449-1,1-1h2h28h2c0.551,0,1,0.448,1,1V19z"/>
	<path d="M28,29c-5.607,0-10,3.075-10,7s4.393,7,10,7s10-3.075,10-7S33.607,29,28,29z M28,41c-4.336,0-8-2.29-8-5s3.664-5,8-5
		s8,2.29,8,5S32.336,41,28,41z"/>
</g>
<g>
</g>
<g>
</g>
<g>
</g>
<g>
</g>
<g>
</g>
<g>
</g>
<g>
</g>
<g>
</g>
<g>
</g>
<g>
</g>
<g>
</g>
<g>
</g>
<g>
</g>
<g>
</g>
<g>
</g>
</svg>
