<?xml version="1.0" encoding="iso-8859-1"?>
<!-- Generator: Adobe Illustrator 18.0.0, SVG Export Plug-In . SVG Version: 6.00 Build 0)  -->
<!DOCTYPE svg PUBLIC "-//W3C//DTD SVG 1.1//EN" "http://www.w3.org/Graphics/SVG/1.1/DTD/svg11.dtd">
<svg version="1.1" id="Capa_1" xmlns="http://www.w3.org/2000/svg" xmlns:xlink="http://www.w3.org/1999/xlink" x="0px" y="0px"
	 viewBox="0 0 53 53" style="enable-background:new 0 0 53 53;" xml:space="preserve">
<path d="M46.637,5.562l-3.091-0.838C39.313,3.577,35.2,2.879,31.318,2.651c-3.449-0.203-6.942-0.196-10.384,0.022
	c-4.075,0.258-8.403,1.059-12.864,2.38L6.352,5.562C2.487,5.616,0,7.762,0,11.061s2.487,5.445,6.352,5.499l1.719,0.51
	c0.542,0.161,1.075,0.289,1.613,0.434c0.009,0.003,0.015,0.01,0.025,0.013c0.019,0.006,0.037,0.004,0.056,0.008
	c3.861,1.036,7.615,1.699,11.171,1.924c1.351,0.085,2.708,0.128,4.065,0.148v3.963c0,0.011,0.006,0.021,0.006,0.032
	c0.002,0.075,0.025,0.144,0.044,0.216c0.014,0.056,0.02,0.113,0.044,0.164c0.026,0.057,0.068,0.104,0.105,0.155
	c0.038,0.054,0.069,0.11,0.117,0.155c0.04,0.038,0.092,0.062,0.139,0.094c0.062,0.042,0.12,0.085,0.191,0.112
	c0.011,0.004,0.018,0.013,0.029,0.017C27.582,25.165,28,25.852,28,26.061s-0.418,0.896-2.326,1.555
	C22.638,28.664,22,30.068,22,31.061s0.638,2.396,3.674,3.445C27.582,35.165,28,35.852,28,36.061s-0.418,0.896-2.326,1.555
	C22.638,38.664,22,40.068,22,41.061s0.638,2.396,3.674,3.445c0.007,0.002,0.014,0.001,0.021,0.003
	c0.005,0.002,0.008,0.006,0.013,0.007c0.799,0.244,1.293,0.638,1.512,1.206c0.314,0.817,0.065,2.036-0.668,3.26
	c-0.284,0.474-0.131,1.088,0.344,1.371c0.16,0.097,0.338,0.143,0.513,0.143c0.34,0,0.671-0.173,0.858-0.486
	c1.063-1.772,1.362-3.598,0.819-5.006c-0.305-0.793-1.032-1.846-2.752-2.384c-0.003-0.001-0.005-0.004-0.008-0.005
	C24.418,41.956,24,41.27,24,41.061s0.418-0.896,2.326-1.555C29.362,38.457,30,37.054,30,36.061s-0.638-2.396-3.674-3.445
	C24.418,31.956,24,31.27,24,31.061s0.418-0.896,2.326-1.555C29.362,28.457,30,27.054,30,26.061c0-0.912-0.562-2.167-3-3.178v-3.28
	c2.39-0.02,4.782-0.125,7.154-0.344c2.555-0.237,5.255-0.738,8.028-1.49l4.454-1.208C50.508,16.511,53,14.364,53,11.061
	S50.508,5.611,46.637,5.562z M31.201,4.647c2.406,0.142,4.916,0.491,7.485,1.004c-1.027,1.587-2.665,5.455,0.926,10.697
	c-1.24,0.282-2.458,0.508-3.648,0.679c-0.401-7.174-6.728-7.46-6.833-7.46c-0.001,0-0.002,0-0.001,0
	c-4.947-0.557-5.938-4.216-6.094-4.992C25.753,4.468,28.491,4.487,31.201,4.647z M2,11.061c0-2.84,2.633-3.389,4-3.483v6.965
	C4.633,14.45,2,13.901,2,11.061z M8,14.962V7.147l0.639-0.176c2.823-0.837,5.579-1.435,8.252-1.833
	c-0.049,1.235-0.362,2.831-1.017,3.224c-0.389,0.23-1.012-0.033-1.466-0.294c-0.938-0.538-1.694-0.39-2.165-0.174
	c-1.614,0.747-2.203,3.279-2.805,6.514c-0.06,0.32-0.118,0.628-0.174,0.913c-0.21-0.06-0.415-0.106-0.625-0.168L8,14.962z
	 M18.176,17.179c0.473-0.674,1.26-1.037,2.033-0.853c0.498,0.119,1.476,0.446,1.769,1.167c-0.305-0.016-0.612-0.021-0.917-0.04
	C20.114,17.394,19.151,17.3,18.176,17.179z M26.435,17.605c-0.133-0.065-0.277-0.109-0.435-0.109c-0.155,0-0.297,0.042-0.428,0.105
	c-0.513-0.005-1.026-0.003-1.538-0.017c-0.163-1.504-1.387-2.73-3.359-3.203c-1.892-0.454-3.813,0.637-4.584,2.479
	c-1.603-0.264-3.233-0.599-4.892-1.019c0.067-0.327,0.134-0.684,0.205-1.068c0.262-1.403,0.873-4.691,1.678-5.063
	c0.08-0.036,0.241,0.041,0.331,0.092c1.668,0.958,2.818,0.677,3.49,0.273c1.796-1.077,1.99-4.049,1.997-5.201
	c0.714-0.078,1.43-0.158,2.129-0.202c0.001,0.006-0.002,0.011-0.001,0.017c0.272,2.098,2.271,6.232,7.975,6.871
	c0.197,0.003,4.733,0.16,4.978,5.704c-0.003,0-0.006,0.001-0.009,0.001C31.473,17.497,28.953,17.601,26.435,17.605z M41.704,15.826
	c-4.429-5.857-1.149-9.401-0.992-9.563c0.045-0.046,0.066-0.103,0.101-0.154c0.734,0.173,1.467,0.343,2.21,0.544L45,7.19v7.767
	L41.704,15.826z M47,14.543V7.578c1.367,0.093,4,0.643,4,3.483S48.367,14.45,47,14.543z"/>
<g>
</g>
<g>
</g>
<g>
</g>
<g>
</g>
<g>
</g>
<g>
</g>
<g>
</g>
<g>
</g>
<g>
</g>
<g>
</g>
<g>
</g>
<g>
</g>
<g>
</g>
<g>
</g>
<g>
</g>
</svg>
