<?xml version="1.0" encoding="iso-8859-1"?>
<!-- Generator: Adobe Illustrator 18.0.0, SVG Export Plug-In . SVG Version: 6.00 Build 0)  -->
<!DOCTYPE svg PUBLIC "-//W3C//DTD SVG 1.1//EN" "http://www.w3.org/Graphics/SVG/1.1/DTD/svg11.dtd">
<svg version="1.1" id="Capa_1" xmlns="http://www.w3.org/2000/svg" xmlns:xlink="http://www.w3.org/1999/xlink" x="0px" y="0px"
	 viewBox="0 0 60.001 60.001" style="enable-background:new 0 0 60.001 60.001;" xml:space="preserve">
<g>
	<path d="M59.708,57.294l-14.85-14.85c1.146-1.146,1.626-2.546,1.386-4.047c-0.204-1.276-0.928-2.566-2.093-3.73L15.867,6.382
		c-1.667-1.668-3.852-2.217-5.79-1.678L8.872,2.053C8.565,1.377,7.867,0.954,7.145,1.004C6.403,1.042,5.773,1.523,5.537,2.228
		L4.885,4.183l-3.961,2.2C0.239,6.764-0.111,7.508,0.031,8.278c0.143,0.77,0.736,1.339,1.511,1.449l3.484,0.498
		c-0.35,1.881,0.197,3.897,1.648,5.349l28.284,28.284c1.13,1.13,2.637,1.752,4.243,1.752s3.113-0.622,4.242-1.752l14.85,14.85
		c0.195,0.195,0.451,0.293,0.707,0.293s0.512-0.098,0.707-0.293C60.099,58.317,60.099,57.685,59.708,57.294z M5.74,8.308
		l-3.31-0.474l3.496-1.941c0.392-0.218,0.687-0.572,0.83-1.001l0.512-1.534l1.008,2.22C8.059,5.735,7.859,5.905,7.675,6.089l-1,1
		c-0.25,0.25-0.467,0.528-0.668,0.819C5.949,7.991,5.893,8.073,5.84,8.158C5.809,8.209,5.77,8.255,5.74,8.308z M39.202,43.61
		c-1.072,0-2.077-0.414-2.829-1.166L8.089,14.16c-0.751-0.752-1.165-1.756-1.165-2.828c0-0.518,0.101-1.018,0.286-1.483l0.027-0.065
		c0.121-0.289,0.28-0.551,0.457-0.798C7.815,8.819,7.94,8.653,8.089,8.504l1-1C9.224,7.369,9.37,7.259,9.516,7.151
		c0.147-0.102,0.308-0.199,0.493-0.293l0.273-0.14c0.395-0.156,0.811-0.239,1.235-0.239c1.012,0,2.062,0.442,2.936,1.316
		l28.284,28.285c0.853,0.853,1.396,1.787,1.532,2.633c0.139,0.865-0.132,1.623-0.825,2.316l-1.414,1.414
		C41.278,43.196,40.275,43.61,39.202,43.61z"/>
	<path d="M27.399,27.77c-0.391-0.391-1.023-0.391-1.414,0s-0.391,1.023,0,1.414l5.65,5.649c0.195,0.195,0.451,0.293,0.707,0.293
		s0.512-0.098,0.707-0.293c0.391-0.391,0.391-1.023,0-1.414L27.399,27.77z"/>
	<path d="M19.586,15.307c-0.391-0.391-1.023-0.391-1.414,0s-0.391,1.023,0,1.414l3.463,3.463c0.195,0.195,0.451,0.293,0.707,0.293
		s0.512-0.098,0.707-0.293c0.391-0.391,0.391-1.023,0-1.414L19.586,15.307z"/>
	<path d="M17.622,13.343l-1.224-1.224c-0.391-0.391-1.023-0.391-1.414,0s-0.391,1.023,0,1.414l1.224,1.224
		c0.195,0.195,0.451,0.293,0.707,0.293s0.512-0.098,0.707-0.293C18.013,14.366,18.013,13.734,17.622,13.343z"/>
</g>
<g>
</g>
<g>
</g>
<g>
</g>
<g>
</g>
<g>
</g>
<g>
</g>
<g>
</g>
<g>
</g>
<g>
</g>
<g>
</g>
<g>
</g>
<g>
</g>
<g>
</g>
<g>
</g>
<g>
</g>
</svg>
