<?xml version="1.0" encoding="iso-8859-1"?>
<!-- Generator: Adobe Illustrator 18.0.0, SVG Export Plug-In . SVG Version: 6.00 Build 0)  -->
<!DOCTYPE svg PUBLIC "-//W3C//DTD SVG 1.1//EN" "http://www.w3.org/Graphics/SVG/1.1/DTD/svg11.dtd">
<svg version="1.1" id="Capa_1" xmlns="http://www.w3.org/2000/svg" xmlns:xlink="http://www.w3.org/1999/xlink" x="0px" y="0px"
	 viewBox="0 0 59.002 59.002" style="enable-background:new 0 0 59.002 59.002;" xml:space="preserve">
<g>
	<path d="M25.986,32.933c-0.037,0.552,0.379,1.028,0.931,1.065c0.023,0.001,0.045,0.002,0.068,0.002
		c0.521,0,0.961-0.404,0.997-0.933c0.618-9.201-4.638-10.027-4.862-10.059c-0.542-0.068-1.032,0.301-1.115,0.84
		s0.29,1.047,0.828,1.14C22.981,25.015,26.472,25.7,25.986,32.933z"/>
	<path d="M29.111,53.009c-4.252-0.547-4.154-4.498-4.129-4.947c0.034-0.55-0.384-1.022-0.934-1.059
		c-0.543-0.019-1.027,0.382-1.063,0.934c-0.14,2.161,0.907,6.418,5.871,7.057c0.043,0.005,0.086,0.008,0.129,0.008
		c0.495,0,0.925-0.368,0.99-0.872C30.046,53.581,29.659,53.08,29.111,53.009z"/>
	<path d="M35.19,28.964c-1.86,1.839-1.214,5.101-1.186,5.238C34.102,34.675,34.518,35,34.982,35c0.066,0,0.133-0.007,0.201-0.021
		c0.54-0.109,0.89-0.637,0.781-1.178c-0.13-0.649-0.269-2.529,0.636-3.419c0.605-0.595,1.674-0.733,3.171-0.404
		c0.542,0.119,1.072-0.226,1.19-0.765c0.118-0.54-0.225-1.072-0.764-1.19C37.991,27.545,36.307,27.86,35.19,28.964z"/>
	<path d="M51.613,28.2c-0.297-0.222-5.612-4.124-11.895-4.595l-0.001-1.653C39.223,11.855,37.74,6.919,37.677,6.714
		c-0.006-0.021-0.021-0.063-0.029-0.083c-2.513-6.604-7.718-6.643-7.92-6.63c-0.218-0.004-5.423,0.021-7.966,6.711
		c-0.045,0.143-1.055,3.477-1.692,10.307c-6.025-0.232-12.109,2.252-12.466,2.4c-0.44,0.184-0.69,0.652-0.597,1.119
		c0.093,0.468,0.503,0.805,0.98,0.805c3.219,0,5.915,1.21,8.013,3.596c1.926,2.192,2.987,5.128,2.987,8.268v12.458
		c0,5.537,1.467,9.411,4.361,11.515c1.872,1.36,4.124,1.823,6.355,1.823c3.436,0,6.821-1.098,8.688-1.703
		c0.63-0.204,1.036-0.806,0.988-1.463c-0.026-0.355-0.187-0.668-0.425-0.906c-0.139-3.094-0.545-18.994,5.457-23.897
		c1.717-1.402,3.793-1.749,6.347-1.066c0.459,0.126,0.949-0.098,1.159-0.529C52.124,29.006,51.998,28.486,51.613,28.2z
		 M23.05,10.001h1.937v2h-2.286C22.821,11.237,22.939,10.576,23.05,10.001z M23.659,7.342c0.189-0.496,0.399-0.933,0.617-1.341
		h0.712v2h-1.503C23.592,7.564,23.659,7.342,23.659,7.342z M27.087,19.043c-0.033-0.022-0.068-0.04-0.101-0.062v-0.98h2v2h-0.69
		c-0.125-0.116-0.265-0.217-0.397-0.326c-0.021-0.018-0.044-0.034-0.066-0.051C27.59,19.425,27.353,19.22,27.087,19.043z
		 M34.987,14.001h2c0.013,0,0.024-0.007,0.038-0.008c0.081,0.626,0.161,1.291,0.236,2.008h-2.274V14.001z M32.987,16.001h-2v-2h2
		V16.001z M36.74,12.001h-1.753v-2h1.404C36.502,10.575,36.62,11.238,36.74,12.001z M32.987,12.001h-2v-2h2V12.001z M30.987,8.001
		v-2h2v2H30.987z M28.987,8.001h-2v-2h2V8.001z M28.987,10.001v2h-2v-2H28.987z M28.987,14.001v2h-2v-2H28.987z M31.625,24.573
		c-0.14,0.064-0.277,0.133-0.409,0.209c-0.074-0.237-0.163-0.461-0.248-0.688c0.003-0.032,0.019-0.06,0.019-0.094v-2h2v2.062
		C32.522,24.204,32.067,24.373,31.625,24.573z M30.987,20.001v-2h2v2H30.987z M34.987,18.001h2.463c0.054,0.639,0.106,1.302,0.152,2
		h-2.615V18.001z M34.987,8.001v-2c0.055,0,0.103-0.023,0.156-0.031c0.223,0.413,0.437,0.854,0.63,1.358
		c0.024,0.08,0.089,0.306,0.181,0.674H34.987z M32.987,4.001h-2V2.244c0.57,0.183,1.273,0.503,2,1.074V4.001z M28.987,4.001h-2v-1
		c0-0.021-0.01-0.038-0.012-0.058c0.78-0.5,1.503-0.738,2.012-0.847V4.001z M24.987,14.001v2h-2.808
		c0.076-0.713,0.155-1.376,0.236-2H24.987z M37.525,23.592c-0.872-0.065-1.716-0.031-2.538,0.069v-1.66h2.732v1.579
		C37.654,23.584,37.59,23.588,37.525,23.592z M24.523,55.56c-2.347-1.706-3.537-5.035-3.537-9.896v-6.321v-6.137
		c0-3.626-1.238-7.03-3.485-9.588c-1.505-1.712-3.267-2.914-5.267-3.599c2.411-0.633,5.619-1.214,8.637-0.946
		c0.021,0.003,0.041,0.013,0.063,0.015c1.208,0.112,2.286,0.352,3.247,0.712c0.035,0.013,0.07,0.024,0.104,0.037
		c0.431,0.167,0.831,0.365,1.212,0.583c0.076,0.044,0.152,0.088,0.227,0.135c0.297,0.183,0.57,0.391,0.836,0.607
		c0.095,0.078,0.199,0.146,0.29,0.228c0.329,0.296,0.634,0.618,0.911,0.97c0.054,0.069,0.098,0.148,0.15,0.219
		c0.221,0.302,0.429,0.619,0.615,0.96c0.06,0.11,0.112,0.227,0.169,0.341c0.169,0.343,0.324,0.699,0.459,1.079
		c0.035,0.097,0.069,0.196,0.102,0.295c0.15,0.461,0.281,0.943,0.384,1.457c0.223,1.1,0.348,2.302,0.348,3.632v9
		c0,0.005,0,0.01,0,0.015l0.002,6.244c-0.004,0.056-0.003,0.12-0.006,0.178c0,0.001,0,0.003-0.001,0.004c0,0.004,0,0.014,0,0.018
		c-0.077,1.851,0.336,4.599,1.843,6.872c0.084,0.129,0.181,0.254,0.273,0.38c0.08,0.109,0.159,0.218,0.245,0.324
		c0.131,0.164,0.273,0.322,0.419,0.479c0.06,0.064,0.122,0.126,0.184,0.189c0.165,0.166,0.335,0.328,0.518,0.483
		c0.045,0.038,0.095,0.073,0.142,0.11c0.317,0.256,0.664,0.492,1.039,0.71c0.143,0.084,0.282,0.17,0.433,0.247
		c0.143,0.072,0.296,0.135,0.447,0.2c0.131,0.058,0.253,0.122,0.39,0.175C32.692,56.908,27.74,57.899,24.523,55.56z M43.144,29.484
		c-6.329,5.17-6.385,19.897-6.224,24.717c-0.305-0.103-0.596-0.218-0.864-0.35c-0.066-0.032-0.123-0.072-0.187-0.106
		c-0.221-0.118-0.434-0.241-0.63-0.377c-0.074-0.051-0.142-0.106-0.213-0.159c-0.177-0.133-0.346-0.27-0.503-0.416
		c-0.057-0.053-0.113-0.106-0.167-0.161c-0.166-0.165-0.322-0.336-0.466-0.513c-0.03-0.037-0.062-0.073-0.092-0.111
		c-1.437-1.847-1.751-4.195-1.808-5.458c-0.002-0.049-0.003-0.092-0.004-0.138c-0.003-0.081-0.005-0.16-0.006-0.229
		c-0.001-0.088-0.001-0.173,0-0.242c0,0,0-0.001,0-0.002l0.005-0.019c0.022-0.084,0.034-0.171,0.034-0.258V30.343
		c0-0.378-0.009-0.745-0.028-1.102c-0.061-1.187,0.664-2.275,1.846-2.775c1.397-0.589,2.834-0.848,4.252-0.885
		c0.08-0.002,0.161-0.007,0.241-0.007c3.222-0.028,6.322,1.085,8.575,2.178C45.525,27.987,44.269,28.566,43.144,29.484z"/>
</g>
<g>
</g>
<g>
</g>
<g>
</g>
<g>
</g>
<g>
</g>
<g>
</g>
<g>
</g>
<g>
</g>
<g>
</g>
<g>
</g>
<g>
</g>
<g>
</g>
<g>
</g>
<g>
</g>
<g>
</g>
</svg>
