<?xml version="1.0" encoding="iso-8859-1"?>
<!-- Generator: Adobe Illustrator 18.0.0, SVG Export Plug-In . SVG Version: 6.00 Build 0)  -->
<!DOCTYPE svg PUBLIC "-//W3C//DTD SVG 1.1//EN" "http://www.w3.org/Graphics/SVG/1.1/DTD/svg11.dtd">
<svg version="1.1" id="Capa_1" xmlns="http://www.w3.org/2000/svg" xmlns:xlink="http://www.w3.org/1999/xlink" x="0px" y="0px"
	 viewBox="0 0 55 55" style="enable-background:new 0 0 55 55;" xml:space="preserve">
<g>
	<path d="M27.518,13.521c0.195,0.195,0.451,0.293,0.707,0.293s0.512-0.098,0.707-0.293c0.391-0.391,0.391-1.023,0-1.414
		c-1.239-1.239-1.239-3.254,0-4.493c2.018-2.019,2.018-5.303,0-7.321c-0.391-0.391-1.023-0.391-1.414,0s-0.391,1.023,0,1.414
		c1.238,1.238,1.238,3.255,0,4.493C25.499,8.219,25.499,11.503,27.518,13.521z"/>
	<path d="M19,11.067c0,0.927,0.361,1.799,1.018,2.454c0.195,0.195,0.451,0.293,0.707,0.293s0.512-0.098,0.708-0.293
		c0.39-0.391,0.39-1.023,0-1.414C21.153,11.829,21,11.46,21,11.067c0-0.394,0.153-0.763,0.432-1.041
		c1.354-1.354,1.354-3.556,0-4.909c-0.391-0.391-1.023-0.391-1.414,0s-0.391,1.023,0,1.414c0.574,0.574,0.574,1.507,0,2.081
		C19.361,9.268,19,10.14,19,11.067z"/>
	<path d="M34,11.067c0,0.927,0.361,1.799,1.018,2.454c0.195,0.195,0.451,0.293,0.707,0.293s0.512-0.098,0.708-0.293
		c0.39-0.391,0.39-1.023,0-1.414C36.153,11.829,36,11.46,36,11.067c0-0.394,0.153-0.763,0.432-1.041
		c1.354-1.354,1.354-3.556,0-4.909c-0.391-0.391-1.023-0.391-1.414,0s-0.391,1.023,0,1.414c0.574,0.574,0.574,1.507,0,2.081
		C34.361,9.268,34,10.14,34,11.067z"/>
	<path d="M18.001,30c0.204,0,0.411-0.063,0.588-0.192c0.446-0.325,0.544-0.951,0.218-1.397c-1.045-1.432-1.476-3.327-1.153-5.071
		c0.101-0.543-0.258-1.064-0.801-1.165c-0.546-0.104-1.065,0.259-1.166,0.802c-0.427,2.308,0.122,4.718,1.505,6.614
		C17.388,29.857,17.692,30,18.001,30z"/>
	<path d="M40.332,40.119L40.332,40.119c-0.072-0.012-0.146-0.017-0.218-0.028c0.01-0.016,0.019-0.031,0.029-0.047
		c0.136,0.008,0.261,0.033,0.403,0.033c3.429,0,8.124-2.312,9.303-7.313c0.55-2.33,0.415-4.065-0.412-5.306
		c-1.023-1.534-2.802-1.923-4.451-2.201c0.076-3.262-0.579-5.671-1.17-6.839C43.637,18.067,43.097,17,42.126,17H13.033
		c-0.971,0-1.511,1.067-1.689,1.418c-1.302,2.572-2.922,11.151,3.686,21.649c-0.07,0.01-0.14,0.015-0.21,0.027
		C10.779,40.815,4,42.551,4,46.065C4,50.574,15.64,55,27.5,55S51,50.574,51,46.065C51,42.579,44.316,40.844,40.332,40.119z
		 M44.851,27.262c1.256,0.218,2.382,0.497,2.921,1.306c0.496,0.742,0.539,2,0.13,3.736c-0.866,3.673-4.117,5.396-6.571,5.714
		C43.507,34.016,44.511,30.349,44.851,27.262z M13.306,19h28.547c1.061,1.377,3.222,10.356-4.229,21.243l-0.005,0.001l-0.318,0.454
		c-0.14,0.199-0.277,0.397-0.424,0.597c-2.158,2.939-5.631,4.697-9.291,4.703h-0.007c-3.662-0.004-7.137-1.763-9.296-4.703
		c-0.152-0.207-0.294-0.412-0.437-0.617l-0.319-0.458l-0.006-0.001C10.087,29.343,12.246,20.376,13.306,19z M27.5,53
		C15.079,53,6,48.439,6,46.065c0-0.951,2.442-2.802,9.173-4.003c0.229-0.041,0.459-0.062,0.692-0.062
		c0.161,0,0.323,0.01,0.485,0.029c0.104,0.149,0.21,0.299,0.32,0.449c0.298,0.406,0.62,0.788,0.959,1.154
		c0.106,0.115,0.222,0.219,0.333,0.33c0.241,0.243,0.485,0.482,0.743,0.706c0.138,0.119,0.281,0.229,0.423,0.342
		c0.248,0.198,0.499,0.389,0.759,0.569c0.154,0.106,0.311,0.207,0.47,0.307c0.265,0.167,0.535,0.325,0.811,0.473
		c0.162,0.087,0.325,0.174,0.49,0.254c0.291,0.142,0.588,0.269,0.889,0.389c0.16,0.064,0.317,0.132,0.479,0.19
		c0.34,0.122,0.686,0.223,1.036,0.318c0.13,0.035,0.257,0.079,0.388,0.11c0.482,0.115,0.969,0.209,1.464,0.271V48h1.654
		c0.008,0,0.016,0,0.025,0h1.654v-0.105c0.493-0.062,0.98-0.155,1.46-0.27c0.141-0.033,0.276-0.08,0.416-0.118
		c0.339-0.093,0.676-0.191,1.006-0.309c0.169-0.061,0.333-0.131,0.5-0.198c0.293-0.118,0.583-0.242,0.867-0.38
		c0.172-0.083,0.339-0.173,0.507-0.263c0.27-0.145,0.534-0.299,0.793-0.463c0.163-0.103,0.325-0.206,0.484-0.316
		c0.255-0.176,0.501-0.364,0.745-0.558c0.146-0.116,0.294-0.229,0.435-0.352c0.253-0.219,0.492-0.454,0.729-0.692
		c0.114-0.115,0.234-0.223,0.345-0.343c0.33-0.358,0.644-0.732,0.936-1.127c0.006-0.009,0.014-0.016,0.02-0.024
		c0.105-0.143,0.206-0.285,0.305-0.427c0.396-0.049,0.792-0.037,1.181,0.033h0C46.596,43.291,49,45.126,49,46.065
		C49,48.439,39.921,53,27.5,53z"/>
</g>
<g>
</g>
<g>
</g>
<g>
</g>
<g>
</g>
<g>
</g>
<g>
</g>
<g>
</g>
<g>
</g>
<g>
</g>
<g>
</g>
<g>
</g>
<g>
</g>
<g>
</g>
<g>
</g>
<g>
</g>
</svg>
