<?xml version="1.0" encoding="iso-8859-1"?>
<!-- Generator: Adobe Illustrator 18.0.0, SVG Export Plug-In . SVG Version: 6.00 Build 0)  -->
<!DOCTYPE svg PUBLIC "-//W3C//DTD SVG 1.1//EN" "http://www.w3.org/Graphics/SVG/1.1/DTD/svg11.dtd">
<svg version="1.1" id="Capa_1" xmlns="http://www.w3.org/2000/svg" xmlns:xlink="http://www.w3.org/1999/xlink" x="0px" y="0px"
	 viewBox="0 0 52.383 52.383" style="enable-background:new 0 0 52.383 52.383;" xml:space="preserve">
<g>
	<path d="M30.19,6.676c0.552,0,1-0.447,1-1s-0.448-1-1-1c-0.713,0-1.293-0.58-1.293-1.293c0-0.553-0.448-1-1-1s-1,0.447-1,1
		C26.897,5.198,28.374,6.676,30.19,6.676z"/>
	<path d="M50.276,30.482c-0.357-0.208-0.729-0.38-1.109-0.529c0.013-0.196,0.023-0.386,0.023-0.571c0-4.529-2.983-8.399-7.244-9.605
		c0.162-0.617,0.244-1.251,0.244-1.895c0-4.036-3.206-7.328-7.204-7.485c0.079-0.463,0.13-0.937,0.13-1.422
		C35.116,4.026,31.601,0,27.28,0h-1.14c-4.321,0-7.836,4.026-7.836,8.976c0,0.485,0.05,0.958,0.129,1.42
		c-4.016,0.137-7.243,3.438-7.243,7.487c0,0.569,0.063,1.129,0.188,1.675c-4.682,0.855-8.188,4.95-8.188,9.825
		c0,0.186,0.01,0.377,0.023,0.573c-0.377,0.148-0.746,0.32-1.101,0.525c-1.062,0.617-1.577,1.911-1.252,3.147l0.117,0.445
		c1.058,4.036,2.759,7.849,5.057,11.333c2.093,3.174,5.197,5.547,8.738,6.682c0.625,0.2,1.076,0.294,1.418,0.294h20
		c0.349,0,0.791-0.093,1.437-0.301c3.539-1.143,6.636-3.515,8.722-6.679c2.295-3.48,3.996-7.29,5.054-11.322l0.12-0.457
		C51.846,32.391,51.333,31.1,50.276,30.482z M26.14,2h1.14c3.218,0,5.836,3.129,5.836,6.976c0,0.662-0.101,1.301-0.288,1.903
		l-0.008,0.022c-0.029,0.091-0.065,0.177-0.098,0.266c-0.227,0.622-0.545,1.194-0.936,1.702c-0.006,0.008-0.013,0.017-0.019,0.025
		c-0.591,0.761-1.345,1.378-2.199,1.807c-0.016,0.008-0.031,0.015-0.047,0.023c-0.546,0.269-1.132,0.458-1.742,0.562
		c-0.056,0.01-0.113,0.018-0.17,0.026c-0.296,0.042-0.595,0.071-0.9,0.071c-0.304,0-0.604-0.028-0.899-0.071
		c-0.057-0.008-0.114-0.016-0.171-0.026c-0.609-0.104-1.196-0.293-1.741-0.562c-0.016-0.008-0.032-0.015-0.048-0.023
		c-0.57-0.286-1.095-0.655-1.557-1.096l-0.001-0.001c-0.23-0.22-0.444-0.457-0.64-0.71c-0.007-0.01-0.014-0.019-0.022-0.029
		c-0.389-0.507-0.707-1.077-0.933-1.698c-0.028-0.077-0.059-0.152-0.085-0.231l-0.022-0.06c-0.187-0.601-0.288-1.239-0.288-1.901
		C20.304,5.129,22.922,2,26.14,2z M5.191,29.45c0-0.022,0-0.045,0-0.067c0-4.243,3.322-7.747,7.563-7.977l1.42-0.077l-0.553-1.311
		c-0.286-0.677-0.43-1.395-0.43-2.136c0-3.032,2.467-5.5,5.5-5.5c0.063,0,0.175,0.004,0.353,0.023c0,0.001,0.001,0.002,0.002,0.003
		c0.161,0.359,0.349,0.704,0.557,1.034c0.012,0.019,0.023,0.039,0.035,0.058c0.212,0.33,0.444,0.644,0.698,0.94
		c0.008,0.009,0.016,0.017,0.024,0.027c0.247,0.286,0.514,0.553,0.797,0.803c0.016,0.014,0.031,0.029,0.047,0.043
		c0.58,0.505,1.229,0.928,1.931,1.26c0.027,0.013,0.053,0.026,0.08,0.038c0.672,0.309,1.391,0.529,2.143,0.652
		c0.08,0.013,0.159,0.026,0.239,0.037c0.365,0.049,0.735,0.082,1.113,0.082c0.378,0,0.748-0.034,1.113-0.082
		c0.081-0.011,0.16-0.024,0.24-0.037c0.752-0.123,1.471-0.343,2.142-0.652c0.027-0.013,0.054-0.026,0.082-0.039
		c0.702-0.332,1.35-0.755,1.929-1.259c0.018-0.015,0.034-0.032,0.052-0.047c0.281-0.249,0.546-0.514,0.792-0.798
		c0.009-0.01,0.019-0.02,0.028-0.031c0.253-0.295,0.484-0.608,0.695-0.936c0.013-0.021,0.026-0.043,0.039-0.064
		c0.207-0.329,0.393-0.672,0.554-1.029c0.001-0.001,0.001-0.003,0.002-0.004c0.156-0.018,0.255-0.021,0.313-0.021
		c3.033,0,5.5,2.468,5.5,5.5c0,0.767-0.159,1.514-0.472,2.222l-0.524,1.185l1.28,0.207c3.892,0.628,6.716,3.945,6.716,7.887
		c0,0.021,0,0.044,0,0.065c-0.021-0.003-0.043-0.002-0.064-0.005c-0.035-0.004-0.07-0.004-0.106-0.008
		c-0.3-0.03-0.599-0.042-0.898-0.039c-0.087,0.001-0.174,0.003-0.261,0.007c-0.278,0.012-0.555,0.036-0.829,0.076
		c-0.062,0.009-0.124,0.013-0.185,0.023c-0.314,0.052-0.622,0.126-0.927,0.214c-0.109,0.031-0.216,0.07-0.324,0.106
		c-0.208,0.07-0.413,0.148-0.615,0.235c-0.113,0.048-0.225,0.094-0.336,0.148c-0.281,0.135-0.555,0.285-0.82,0.453
		c-0.017,0.011-0.036,0.018-0.053,0.029c-0.341,0.223-0.808,0.229-1.136,0.013c-0.119-0.078-0.247-0.134-0.369-0.205
		c-0.131-0.076-0.261-0.152-0.395-0.22c-0.279-0.143-0.563-0.263-0.852-0.371c-0.097-0.036-0.191-0.077-0.289-0.109
		c-0.391-0.129-0.788-0.23-1.19-0.297c-0.002,0-0.005-0.001-0.007-0.001c-1.279-0.213-2.591-0.111-3.833,0.299
		c-0.098,0.032-0.192,0.074-0.288,0.11c-0.289,0.108-0.573,0.228-0.851,0.371c-0.138,0.07-0.27,0.148-0.404,0.227
		c-0.124,0.073-0.255,0.13-0.376,0.21c-0.336,0.223-0.74,0.223-1.078,0c-0.121-0.08-0.251-0.137-0.374-0.21
		c-0.135-0.079-0.269-0.158-0.408-0.228c-0.277-0.142-0.56-0.262-0.848-0.37c-0.097-0.036-0.192-0.078-0.29-0.11
		c-1.638-0.542-3.4-0.541-5.037,0.002c-0.095,0.031-0.187,0.072-0.281,0.107c-0.291,0.109-0.577,0.23-0.856,0.373
		c-0.138,0.071-0.272,0.149-0.407,0.228c-0.124,0.073-0.255,0.131-0.376,0.211c-0.335,0.222-0.736,0.225-1.071,0.003
		c-0.126-0.083-0.261-0.142-0.39-0.217c-0.133-0.077-0.265-0.154-0.401-0.223c-0.288-0.147-0.582-0.27-0.882-0.381
		c-0.089-0.032-0.176-0.071-0.266-0.1c-1.662-0.547-3.449-0.547-5.109,0.003c-0.086,0.028-0.168,0.066-0.253,0.097
		c-0.303,0.112-0.601,0.237-0.893,0.386c-0.137,0.07-0.269,0.149-0.403,0.227c-0.133,0.078-0.273,0.14-0.403,0.226
		c-0.321,0.212-0.705,0.211-1.03-0.004c-0.135-0.089-0.281-0.156-0.42-0.237c-0.113-0.065-0.223-0.131-0.339-0.191
		c-0.292-0.15-0.591-0.278-0.896-0.39c-0.09-0.033-0.177-0.074-0.269-0.105c-0.406-0.134-0.819-0.242-1.239-0.312
		c-0.002,0-0.004,0-0.005,0c-0.408-0.067-0.819-0.096-1.232-0.102c-0.037,0-0.074-0.009-0.111-0.009
		c-0.188,0-0.377,0.022-0.566,0.035c-0.126,0.009-0.252,0.009-0.377,0.024C5.242,29.448,5.216,29.447,5.191,29.45z M49.588,33.116
		l-0.12,0.457c-1.002,3.821-2.614,7.431-4.789,10.729c-1.837,2.786-4.56,4.873-7.667,5.877c-0.621,0.2-0.814,0.204-0.822,0.204h-20
		c-0.008,0-0.2-0.003-0.808-0.198c-3.109-0.996-5.836-3.084-7.679-5.879c-2.178-3.301-3.79-6.914-4.792-10.739l-0.117-0.445
		c-0.095-0.363,0.04-0.745,0.322-0.909c0.474-0.275,0.979-0.475,1.498-0.613c0.15-0.04,0.302-0.066,0.453-0.094
		c0.126-0.024,0.252-0.051,0.379-0.067c0.136-0.017,0.273-0.022,0.41-0.03C5.998,31.4,6.139,31.39,6.28,31.392
		c0.135,0.001,0.269,0.013,0.404,0.023c0.138,0.01,0.276,0.021,0.413,0.04c0.142,0.021,0.283,0.05,0.423,0.08
		c0.124,0.027,0.248,0.054,0.371,0.088c0.147,0.041,0.292,0.09,0.435,0.142c0.113,0.041,0.225,0.083,0.335,0.131
		c0.142,0.061,0.281,0.128,0.418,0.2c0.112,0.058,0.221,0.12,0.33,0.186c0.404,0.244,0.788,0.527,1.131,0.865l0.702,0.691
		l0.702-0.69c0.294-0.29,0.612-0.543,0.946-0.761c0.025-0.016,0.052-0.027,0.078-0.043c0.293-0.185,0.599-0.342,0.913-0.473
		c0.07-0.029,0.141-0.054,0.212-0.081c0.306-0.114,0.617-0.208,0.935-0.272c0.037-0.008,0.073-0.018,0.11-0.024
		c0.744-0.137,1.508-0.137,2.253-0.001c0.042,0.008,0.082,0.019,0.124,0.027c0.314,0.064,0.623,0.157,0.926,0.27
		c0.07,0.026,0.14,0.05,0.208,0.078c0.332,0.138,0.655,0.3,0.962,0.498c0.008,0.005,0.018,0.009,0.026,0.014
		c0.338,0.22,0.658,0.475,0.955,0.768l0.705,0.694l0.702-0.698c0.293-0.292,0.609-0.547,0.942-0.766
		c0.009-0.006,0.019-0.01,0.028-0.016c0.301-0.196,0.619-0.357,0.944-0.494c0.072-0.031,0.145-0.055,0.217-0.083
		c0.293-0.11,0.592-0.201,0.896-0.264c0.047-0.01,0.093-0.022,0.14-0.031c0.729-0.134,1.477-0.134,2.206,0
		c0.045,0.008,0.09,0.02,0.135,0.03c0.308,0.064,0.61,0.155,0.907,0.267c0.068,0.026,0.137,0.049,0.204,0.077
		c0.697,0.293,1.353,0.714,1.92,1.279l0.706,0.702l0.706-0.702c0.566-0.564,1.221-0.985,1.918-1.277
		c0.069-0.029,0.14-0.053,0.209-0.08c0.294-0.111,0.594-0.201,0.898-0.264c0.047-0.01,0.094-0.022,0.142-0.031
		c0.727-0.133,1.473-0.133,2.2,0c0.049,0.009,0.097,0.021,0.146,0.032c0.306,0.064,0.607,0.154,0.903,0.266
		c0.066,0.025,0.133,0.047,0.198,0.074c0.699,0.293,1.357,0.715,1.925,1.281l0.704,0.7l0.706-0.698
		c0.35-0.347,0.741-0.638,1.155-0.885c0.099-0.06,0.201-0.114,0.302-0.167c0.145-0.076,0.291-0.148,0.441-0.212
		c0.096-0.041,0.193-0.075,0.291-0.111c0.156-0.057,0.314-0.112,0.474-0.156c0.104-0.028,0.209-0.05,0.313-0.072
		c0.157-0.035,0.314-0.068,0.473-0.09c0.115-0.016,0.231-0.022,0.346-0.032c0.153-0.013,0.306-0.026,0.461-0.027
		c0.118-0.001,0.236,0.009,0.354,0.015c0.155,0.008,0.311,0.013,0.466,0.033c0.106,0.013,0.209,0.038,0.314,0.057
		c0.168,0.03,0.336,0.058,0.502,0.103c0.514,0.137,1.014,0.337,1.482,0.61C49.549,32.374,49.683,32.755,49.588,33.116z"/>
</g>
<g>
</g>
<g>
</g>
<g>
</g>
<g>
</g>
<g>
</g>
<g>
</g>
<g>
</g>
<g>
</g>
<g>
</g>
<g>
</g>
<g>
</g>
<g>
</g>
<g>
</g>
<g>
</g>
<g>
</g>
</svg>
