<?xml version="1.0" encoding="iso-8859-1"?>
<!-- Generator: Adobe Illustrator 18.0.0, SVG Export Plug-In . SVG Version: 6.00 Build 0)  -->
<!DOCTYPE svg PUBLIC "-//W3C//DTD SVG 1.1//EN" "http://www.w3.org/Graphics/SVG/1.1/DTD/svg11.dtd">
<svg version="1.1" id="Capa_1" xmlns="http://www.w3.org/2000/svg" xmlns:xlink="http://www.w3.org/1999/xlink" x="0px" y="0px"
	 viewBox="0 0 53.042 53.042" style="enable-background:new 0 0 53.042 53.042;" xml:space="preserve">
<linearGradient id="SVGID_1_" gradientUnits="userSpaceOnUse" x1="1.663" y1="26.521" x2="51.379" y2="26.521">
	<stop  offset="0" style="stop-color:#FFFFFF"/>
	<stop  offset="1" style="stop-color:#000000"/>
</linearGradient>
<path style="fill:url(#SVGID_1_);" d="M51.374,19.042V18c0-4.701-2.771-7.031-4.796-8.733c-0.191-0.161-0.621-0.503-0.947-0.88
	c-0.152-0.244-0.182-0.5-0.173-0.693c0.022-0.492,0.289-0.977,0.714-1.295c0.035-0.026,0.06-0.061,0.093-0.089
	c0.122-0.101,0.237-0.208,0.342-0.326c0.044-0.05,0.086-0.101,0.127-0.154c0.097-0.124,0.181-0.256,0.258-0.394
	c0.029-0.052,0.06-0.103,0.085-0.157c0.073-0.153,0.129-0.313,0.175-0.478c0.013-0.047,0.033-0.092,0.044-0.141
	C47.344,4.447,47.374,4.227,47.374,4V3c0-1.654-1.346-3-3-3h-11c-1.654,0-3,1.346-3,3v1c0,0.23,0.032,0.452,0.081,0.667
	c0.012,0.051,0.032,0.098,0.046,0.148c0.048,0.168,0.106,0.329,0.181,0.484c0.024,0.05,0.052,0.097,0.079,0.146
	c0.085,0.153,0.181,0.296,0.29,0.431c0.03,0.037,0.059,0.075,0.092,0.111c0.142,0.16,0.298,0.305,0.471,0.432
	c0.004,0.003,0.007,0.007,0.011,0.01c0.416,0.299,0.709,0.763,0.764,1.212c0.04,0.322-0.041,0.604-0.237,0.836
	c-0.057,0.064-0.117,0.127-0.184,0.185c-0.227,0.195-0.466,0.393-0.711,0.596c-2.062,1.704-4.884,4.037-4.884,8.743v11.283
	c-0.006-0.005-0.011-0.011-0.018-0.016c-1.774-1.501-2.395-2.836-2.614-3.595c0.981-0.494,1.663-1.5,1.663-2.671
	c0-1.654-1.346-3-3-3h-12c-1.654,0-3,1.346-3,3c0,1.247,0.765,2.316,1.849,2.769c-0.244,0.773-0.886,2.06-2.585,3.498
	c-3.865,3.272-5.203,7.995-4.983,12.197c0.004,0.088,0.006,0.175,0.012,0.262c0.032,0.478,0.085,0.947,0.156,1.407
	c0.019,0.124,0.044,0.246,0.066,0.369c0.075,0.418,0.164,0.828,0.269,1.225c0.017,0.065,0.03,0.131,0.049,0.196
	c0.096,0.343,0.201,0.679,0.318,1.002c0.047,0.131,0.102,0.255,0.152,0.383c0.014,0.036,0.023,0.074,0.037,0.11l0.253,0.624h0.024
	c1.743,3.748,4.916,5.97,8.689,6h4.909h4.7c2.214-0.018,4.22-0.797,5.855-2.192c0.865,1.315,2.341,2.15,3.979,2.15h15.437
	c2.637,0,4.781-2.145,4.781-4.78v-3.178h0.005v-26H51.374z M4.317,44.875c-0.086-0.263-0.161-0.531-0.23-0.8
	c-0.037-0.148-0.076-0.295-0.108-0.446c-0.036-0.163-0.062-0.328-0.091-0.492c-0.137-0.781-0.217-1.593-0.219-2.422
	c0-0.003,0-0.005,0-0.008c-0.002-0.948,0.089-1.915,0.28-2.871c0.005-0.023,0.008-0.046,0.012-0.068
	c0.051-0.252,0.115-0.502,0.181-0.751c0.036-0.135,0.073-0.27,0.113-0.404C4.314,36.406,4.379,36.202,4.449,36
	c0.073-0.207,0.154-0.411,0.237-0.614c0.047-0.115,0.09-0.231,0.14-0.344h8.549c0.552,0,1,0.448,1,1v8c0,0.552-0.448,1-1,1H4.371
	C4.352,44.987,4.335,44.931,4.317,44.875z M28.187,46.183c-0.106,0.229-0.217,0.453-0.336,0.669
	c-0.045,0.082-0.094,0.159-0.14,0.238c-0.292,0.499-0.614,0.965-0.972,1.38l-0.25,0.289c-1.38,1.459-3.155,2.266-5.176,2.282H11.72
	c-2.713-0.022-4.973-1.468-6.433-4h8.088c1.654,0,3-1.346,3-3v-8c0-1.654-1.346-3-3-3H5.937c0.562-0.816,1.231-1.576,2.025-2.248
	C10.224,28.879,11,27.084,11.266,26h1.271c0.553,0,1-0.447,1-1s-0.447-1-1-1h-2.131c-0.552,0-1-0.448-1-1s0.448-1,1-1h12
	c0.552,0,1,0.448,1,1s-0.448,1-1,1h-4.753c-0.553,0-1,0.447-1,1s0.447,1,1,1h4.108c0.266,1.084,1.041,2.879,3.303,4.794
	c0.518,0.438,0.981,0.916,1.398,1.42l0.132,0.164c0.234,0.292,0.449,0.594,0.652,0.901c0.076,0.116,0.146,0.236,0.217,0.355
	c0.102,0.166,0.2,0.333,0.294,0.502c0.131,0.243,0.256,0.488,0.37,0.737c0.011,0.025,0.023,0.049,0.034,0.074
	c1.102,2.45,1.401,5.191,1.068,7.654c-0.001,0.008-0.002,0.016-0.003,0.024c-0.034,0.248-0.078,0.491-0.125,0.733
	c-0.038,0.186-0.077,0.372-0.122,0.554c-0.022,0.091-0.043,0.183-0.066,0.273c-0.143,0.533-0.323,1.043-0.526,1.535
	C28.322,45.876,28.257,46.032,28.187,46.183z M49.374,43.042h-9v-22h9V43.042z M44.541,10.157c0.239,0.21,0.491,0.422,0.75,0.64
	c1.914,1.609,4.083,3.434,4.083,7.203v1.042h-11v26h11v3.178c0,1.533-1.248,2.78-2.781,2.78H31.155
	c-1.113,0-2.097-0.666-2.535-1.668c0.659-0.849,1.218-1.831,1.662-2.931c0.02-0.049,0.039-0.098,0.059-0.148
	c0.043-0.11,0.09-0.215,0.13-0.327c0.07-0.194,0.131-0.399,0.193-0.6c0.015-0.049,0.033-0.098,0.047-0.148
	c1.226-4.095,0.876-9.584-2.338-13.778V18c0-3.765,2.209-5.591,4.158-7.202c0.256-0.212,0.505-0.418,0.742-0.622
	c0.146-0.125,0.276-0.258,0.398-0.401c0.561-0.659,0.81-1.503,0.702-2.377C34.359,7.263,34.313,7.133,34.28,7h0.372
	c0.553,0,1-0.447,1-1s-0.447-1-1-1h-1.278c-0.245,0-0.462-0.099-0.636-0.245c-0.035-0.029-0.069-0.058-0.099-0.09
	c-0.068-0.075-0.126-0.157-0.169-0.25c-0.01-0.022-0.017-0.046-0.026-0.069c-0.04-0.109-0.07-0.223-0.07-0.345V3
	c0-0.552,0.448-1,1-1h11c0.552,0,1,0.448,1,1v1c0,0.149-0.038,0.29-0.1,0.42c-0.016,0.034-0.042,0.06-0.062,0.091
	c-0.056,0.091-0.123,0.175-0.208,0.246C44.832,4.902,44.617,5,44.374,5h-5.723c-0.553,0-1,0.447-1,1s0.447,1,1,1h4.907
	c-0.045,0.199-0.089,0.399-0.099,0.603c-0.044,0.978,0.324,1.871,1.063,2.539"/>
<g>
</g>
<g>
</g>
<g>
</g>
<g>
</g>
<g>
</g>
<g>
</g>
<g>
</g>
<g>
</g>
<g>
</g>
<g>
</g>
<g>
</g>
<g>
</g>
<g>
</g>
<g>
</g>
<g>
</g>
</svg>
