<?xml version="1.0" encoding="iso-8859-1"?>
<!-- Generator: Adobe Illustrator 18.0.0, SVG Export Plug-In . SVG Version: 6.00 Build 0)  -->
<!DOCTYPE svg PUBLIC "-//W3C//DTD SVG 1.1//EN" "http://www.w3.org/Graphics/SVG/1.1/DTD/svg11.dtd">
<svg version="1.1" id="Capa_1" xmlns="http://www.w3.org/2000/svg" xmlns:xlink="http://www.w3.org/1999/xlink" x="0px" y="0px"
	 viewBox="0 0 55.188 55.188" style="enable-background:new 0 0 55.188 55.188;" xml:space="preserve">
<g>
	<path d="M44.282,29.695c-0.135-0.534-0.672-0.858-1.215-0.725c-0.535,0.136-0.86,0.679-0.725,1.215
		c0.772,3.056,0.758,6.341-0.041,9.501c-0.135,0.535,0.189,1.079,0.725,1.215c0.083,0.021,0.165,0.03,0.246,0.03
		c0.447,0,0.854-0.302,0.969-0.755C45.12,36.696,45.134,33.072,44.282,29.695z"/>
	<path d="M42.272,24.692c-0.548-0.964-1.18-1.888-1.878-2.746c-0.349-0.428-0.979-0.492-1.407-0.144
		c-0.428,0.349-0.493,0.979-0.144,1.407c0.628,0.771,1.197,1.603,1.69,2.471c0.185,0.324,0.522,0.506,0.871,0.506
		c0.167,0,0.337-0.042,0.493-0.131C42.376,25.783,42.544,25.173,42.272,24.692z"/>
	<path d="M31.872,13.755c0.299-1.917,1.06-3.663,2.219-5.012c1.375-1.602,3.127-2.435,4.967-2.381
		c0.575,0.04,1.016-0.41,1.036-0.962c0.02-0.553-0.411-1.017-0.963-1.036c-2.441-0.094-4.776,1.002-6.557,3.076
		c-0.71,0.826-1.291,1.776-1.745,2.803L30.357,7.08c-0.502-3.368-3.102-5.968-6.47-6.47L19.796,0l0.609,4.092
		c0.502,3.368,3.102,5.969,6.471,6.471l3.61,0.537c-0.269,0.758-0.465,1.554-0.592,2.374c-1.949-0.228-3.63-0.285-4.8-0.285
		c-10.959,0-19.971,8.442-20.907,19.162c-0.062,0.604-0.093,1.218-0.093,1.838s0.032,1.234,0.093,1.838
		c0.936,10.72,9.948,19.162,20.907,19.162c12.105,0,26-2.387,26-21C51.094,19.658,40.03,15.123,31.872,13.755z M27.17,8.584
		c-2.492-0.371-4.416-2.295-4.787-4.787l-0.211-1.42l1.42,0.212c2.492,0.371,4.416,2.295,4.787,4.786l0.212,1.421L27.17,8.584z
		 M6.094,34.188c0-8.822,7.178-16,16-16s16,7.178,16,16s-7.178,16-16,16S6.094,43.011,6.094,34.188z M25.094,53.188
		c-2.739,0-5.338-0.594-7.692-1.642c1.499,0.406,3.067,0.642,4.692,0.642c9.925,0,18-8.075,18-18s-8.075-18-18-18
		c-1.625,0-3.193,0.236-4.692,0.642c2.354-1.048,4.953-1.642,7.692-1.642c1.306,0,2.927,0.063,4.703,0.263
		c0.138,0.365,0.484,0.631,0.899,0.646c0.013,0.001,0.025,0.001,0.037,0.001c0.325,0,0.603-0.167,0.786-0.411
		c7.832,1.252,17.575,5.433,17.575,18.501C49.094,50.931,36.962,53.188,25.094,53.188z"/>
	<path d="M22.094,27.311c-0.552,0-1,0.447-1,1v3.464l-2.45-2.45c-0.391-0.391-1.023-0.391-1.414,0s-0.391,1.023,0,1.414l2.449,2.449
		h-3.464c-0.552,0-1,0.447-1,1s0.448,1,1,1h3.465l-2.45,2.45c-0.391,0.391-0.391,1.023,0,1.414c0.195,0.195,0.451,0.293,0.707,0.293
		s0.512-0.098,0.707-0.293l2.45-2.45v3.464c0,0.553,0.448,1,1,1s1-0.447,1-1v-3.464l2.45,2.45c0.195,0.195,0.451,0.293,0.707,0.293
		s0.512-0.098,0.707-0.293c0.391-0.391,0.391-1.023,0-1.414l-2.45-2.45h3.465c0.552,0,1-0.447,1-1s-0.448-1-1-1h-3.464l2.449-2.449
		c0.391-0.391,0.391-1.023,0-1.414s-1.023-0.391-1.414,0l-2.45,2.45v-3.464C23.094,27.758,22.646,27.311,22.094,27.311z"/>
	<circle cx="27.094" cy="23.189" r="1"/>
	<circle cx="33.094" cy="29.189" r="1"/>
	<circle cx="33.094" cy="39.189" r="1"/>
	<circle cx="27.094" cy="45.189" r="1"/>
	<circle cx="25.094" cy="41.189" r="1"/>
	<circle cx="29.094" cy="37.189" r="1"/>
	<circle cx="29.094" cy="31.189" r="1"/>
	<circle cx="25.094" cy="27.189" r="1"/>
	<circle cx="19.094" cy="27.189" r="1"/>
	<circle cx="15.094" cy="31.189" r="1"/>
	<circle cx="15.094" cy="37.189" r="1"/>
	<circle cx="19.094" cy="41.189" r="1"/>
	<circle cx="17.094" cy="45.189" r="1"/>
	<circle cx="11.094" cy="39.189" r="1"/>
	<circle cx="11.094" cy="29.189" r="1"/>
	<circle cx="17.094" cy="23.189" r="1"/>
	<circle cx="13.094" cy="25.189" r="1"/>
	<circle cx="31.094" cy="25.189" r="1"/>
	<circle cx="13.094" cy="43.189" r="1"/>
	<circle cx="30.094" cy="42.189" r="1"/>
	<circle cx="22.094" cy="46.189" r="1"/>
	<circle cx="22.094" cy="22.189" r="1"/>
	<circle cx="34.094" cy="34.189" r="1"/>
	<circle cx="10.094" cy="34.189" r="1"/>
</g>
<g>
</g>
<g>
</g>
<g>
</g>
<g>
</g>
<g>
</g>
<g>
</g>
<g>
</g>
<g>
</g>
<g>
</g>
<g>
</g>
<g>
</g>
<g>
</g>
<g>
</g>
<g>
</g>
<g>
</g>
</svg>
