<?xml version="1.0" encoding="iso-8859-1"?>
<!-- Generator: Adobe Illustrator 18.0.0, SVG Export Plug-In . SVG Version: 6.00 Build 0)  -->
<!DOCTYPE svg PUBLIC "-//W3C//DTD SVG 1.1//EN" "http://www.w3.org/Graphics/SVG/1.1/DTD/svg11.dtd">
<svg version="1.1" id="Capa_1" xmlns="http://www.w3.org/2000/svg" xmlns:xlink="http://www.w3.org/1999/xlink" x="0px" y="0px"
	 viewBox="0 0 57 57" style="enable-background:new 0 0 57 57;" xml:space="preserve">
<g>
	<path d="M52.981,17.524c-0.453-1.67-1.535-3.065-3.045-3.931s-3.263-1.093-4.931-0.639L44.839,13l-6.269,4.331
		c0.626-0.841,1.146-2.084,1.146-4.399C39.716,2.243,34.136,0,29.455,0c-9.611,0-10.723,7.419-10.723,13
		c0,2.292,0.923,3.759,1.553,4.627l-8.017-5.087l-0.274-0.12c-3.454-0.939-7.036,1.11-7.976,4.569
		c-0.934,3.434,1.082,6.986,4.497,7.956l5.878,2.544c2.005,1.245,5.049,3.995,3.565,8.671l-4.665,8.143
		c-3.115,0.976-5.051,4.142-4.45,7.404C9.408,54.774,12.173,57,15.419,57h1.813c0.07,0,0.14-0.004,0.209-0.009l0.128-0.007
		c0.082-0.003,0.162-0.007,0.241-0.014c0.323-0.029,0.653-0.086,1.034-0.181l0.189-0.05c0.303-0.088,0.61-0.204,0.909-0.343
		c0.095-0.043,0.186-0.086,0.28-0.135c0.267-0.14,0.523-0.299,0.765-0.471c0.109-0.077,0.216-0.155,0.313-0.235
		c0.226-0.182,0.436-0.379,0.634-0.587c0.091-0.096,0.181-0.191,0.267-0.293c0.198-0.236,0.382-0.493,0.537-0.747l5.65-8.002
		c0.393-0.557,1.294-0.557,1.685,0l5.527,7.823c0.038,0.064,0.079,0.122,0.1,0.141c0.18,0.292,0.363,0.549,0.562,0.785
		c0.086,0.102,0.176,0.197,0.267,0.292c0.198,0.209,0.408,0.406,0.628,0.583c0.104,0.085,0.21,0.163,0.316,0.238
		c0.244,0.174,0.501,0.333,0.77,0.474c0.093,0.048,0.184,0.091,0.273,0.132c0.304,0.141,0.611,0.257,0.909,0.343l0.247,0.064
		c0.328,0.082,0.658,0.139,0.979,0.168c0.082,0.007,0.162,0.011,0.244,0.014l0.128,0.007C41.093,56.996,41.162,57,41.233,57h1.813
		c3.246,0,6.012-2.226,6.575-5.293c0.601-3.263-1.335-6.429-4.45-7.404l-4.665-8.143c-1.463-4.612,1.501-7.354,3.452-8.599
		l4.536-2.085c1.633-0.466,2.997-1.536,3.848-3.021C53.207,20.944,53.435,19.193,52.981,17.524z M6.393,20.926
		c-0.6-1.047-0.758-2.259-0.444-3.413c0.313-1.153,1.063-2.119,2.109-2.719c1.006-0.577,2.162-0.746,3.273-0.479l0.158,0.101
		l-3.299,8.247C7.448,22.268,6.824,21.678,6.393,20.926z M16.045,43.524l8.57,4.285l-0.79,1.119l-8.454-4.227L16.045,43.524z
		 M21.17,52.69l-0.109,0.154c-0.118,0.19-0.245,0.374-0.39,0.545c-0.059,0.07-0.121,0.135-0.185,0.202
		c-0.138,0.145-0.283,0.281-0.444,0.411c-0.068,0.056-0.138,0.106-0.211,0.158c-0.17,0.121-0.347,0.231-0.531,0.327
		c-0.062,0.032-0.123,0.062-0.191,0.093c-0.203,0.094-0.413,0.175-0.636,0.239l-0.167,0.043c-0.219,0.055-0.442,0.095-0.676,0.115
		L15.419,55c-2.244,0-4.226-1.571-4.608-3.654c-0.419-2.273,0.947-4.463,3.122-5.127l8.726,4.363L21.17,52.69z M34.29,48.432
		l8.147-4.888l0.709,1.242l-8.029,4.817L34.29,48.432z M47.655,51.346C47.272,53.429,45.29,55,43.046,55l-1.887-0.004l-0.327-0.018
		c-0.23-0.021-0.454-0.061-0.732-0.13l-0.112-0.03c-0.218-0.063-0.428-0.144-0.636-0.239c-0.063-0.029-0.125-0.059-0.185-0.09
		c-0.187-0.097-0.363-0.207-0.536-0.33c-0.07-0.05-0.14-0.101-0.214-0.161c-0.155-0.125-0.301-0.262-0.438-0.407
		c-0.063-0.066-0.126-0.131-0.185-0.201c-0.145-0.171-0.271-0.354-0.393-0.55c-0.032-0.053-0.068-0.102-0.12-0.171l-1.008-1.427
		l8.331-4.998C46.737,46.934,48.069,49.098,47.655,51.346z M43.062,25.772l-0.115,0.063c-1.978,1.246-6.355,4.816-4.311,11.044
		l2.81,4.927l-8.313,4.987l-1.426-2.02c-0.566-0.803-1.492-1.283-2.476-1.283s-1.909,0.48-2.477,1.284l-0.975,1.382l-8.74-4.37
		l2.706-4.722l0.083-0.185c2.073-6.314-2.421-9.888-4.449-11.131l-5.341-2.322l3.168-7.921l6.783,4.304l0.139,0.073
		c0.643,0.276,1.378,0.176,1.921-0.266c0.54-0.441,0.786-1.141,0.642-1.823c-0.082-0.39-0.313-0.702-0.607-1.097
		c-0.538-0.724-1.352-1.816-1.352-3.697c0-5.439,1.036-11,8.723-11c5.559,0,8.261,3.576,8.261,10.932
		c0,2.52-0.697,3.212-1.206,3.718c-0.291,0.289-0.622,0.617-0.734,1.141c-0.15,0.699,0.102,1.41,0.657,1.855
		c0.552,0.442,1.295,0.534,1.939,0.235l5.343-3.679l3.775,7.55L43.062,25.772z M50.607,21.461c-0.332,0.58-0.784,1.056-1.311,1.429
		l-3.917-7.834l0.308-0.212c1.104-0.257,2.254-0.089,3.255,0.484c1.047,0.6,1.796,1.565,2.109,2.719
		C51.365,19.202,51.206,20.414,50.607,21.461z"/>
	<path d="M29.233,33c-1.93,0-3.5,1.57-3.5,3.5s1.57,3.5,3.5,3.5s3.5-1.57,3.5-3.5S31.162,33,29.233,33z M29.233,38
		c-0.827,0-1.5-0.673-1.5-1.5s0.673-1.5,1.5-1.5s1.5,0.673,1.5,1.5S30.06,38,29.233,38z"/>
	<path d="M29.233,24c-1.93,0-3.5,1.57-3.5,3.5s1.57,3.5,3.5,3.5s3.5-1.57,3.5-3.5S31.162,24,29.233,24z M29.233,29
		c-0.827,0-1.5-0.673-1.5-1.5s0.673-1.5,1.5-1.5s1.5,0.673,1.5,1.5S30.06,29,29.233,29z"/>
	<circle cx="32.733" cy="8" r="2"/>
	<circle cx="25.733" cy="8" r="2"/>
	<path d="M33.733,12c-0.553,0-1,0.447-1,1c0,1.198-1.733,2.375-3.489,2.375c-1.805-0.019-3.511-1.173-3.511-2.375
		c0-0.553-0.447-1-1-1s-1,0.447-1,1c0,2.583,2.839,4.348,5.5,4.375c2.602,0,5.5-1.797,5.5-4.375C34.733,12.447,34.285,12,33.733,12z
		"/>
</g>
<g>
</g>
<g>
</g>
<g>
</g>
<g>
</g>
<g>
</g>
<g>
</g>
<g>
</g>
<g>
</g>
<g>
</g>
<g>
</g>
<g>
</g>
<g>
</g>
<g>
</g>
<g>
</g>
<g>
</g>
</svg>
