<?xml version="1.0" encoding="iso-8859-1"?>
<!-- Generator: Adobe Illustrator 18.0.0, SVG Export Plug-In . SVG Version: 6.00 Build 0)  -->
<!DOCTYPE svg PUBLIC "-//W3C//DTD SVG 1.1//EN" "http://www.w3.org/Graphics/SVG/1.1/DTD/svg11.dtd">
<svg version="1.1" id="Capa_1" xmlns="http://www.w3.org/2000/svg" xmlns:xlink="http://www.w3.org/1999/xlink" x="0px" y="0px"
	 viewBox="0 0 57 57" style="enable-background:new 0 0 57 57;" xml:space="preserve">
<g>
	<circle cx="26.5" cy="27.5" r="1"/>
	<circle cx="18.844" cy="24.813" r="1"/>
	<circle cx="28.5" cy="32.5" r="1"/>
	<circle cx="36.312" cy="27.063" r="1"/>
	<circle cx="21.344" cy="29.063" r="1"/>
	<circle cx="30.5" cy="26.5" r="1"/>
	<path d="M29.5,50.012V36.946c3.68-0.265,7.114-1.963,9.538-4.783c2.644-3.073,3.811-7.136,3.204-11.144L39.508,2.98
		c-0.022-0.146-0.086-0.279-0.172-0.399C38.022,0.034,28.917,0,28.5,0c-0.415,0-9.443,0.034-10.818,2.549
		c-0.099,0.131-0.168,0.286-0.193,0.454L14.94,19.817c-0.05,0.151-0.082,0.307-0.082,0.472c0,0.011,0.005,0.021,0.006,0.033
		l-0.106,0.698c-0.607,4.008,0.56,8.07,3.204,11.144c2.424,2.819,5.858,4.518,9.538,4.783v13.066c-3.2,0.071-11,0.545-11,3.488
		c0,3.331,9.996,3.5,12,3.5s12-0.169,12-3.5C40.5,50.557,32.7,50.083,29.5,50.012z M37.008,3.168
		c-0.009,0.003-0.018,0.006-0.028,0.009c-0.133,0.043-0.284,0.087-0.458,0.131c-0.014,0.004-0.031,0.007-0.046,0.011
		c-0.18,0.045-0.38,0.09-0.604,0.134c-0.008,0.001-0.014,0.003-0.022,0.005c-0.222,0.044-0.471,0.086-0.736,0.127
		c-0.041,0.006-0.081,0.013-0.122,0.019c-0.267,0.04-0.555,0.079-0.865,0.115c-0.042,0.005-0.088,0.01-0.131,0.014
		c-0.318,0.036-0.654,0.069-1.017,0.099c-0.014,0.001-0.027,0.003-0.041,0.004c-0.364,0.03-0.757,0.055-1.167,0.078
		c-0.074,0.004-0.147,0.008-0.223,0.012c-0.408,0.021-0.838,0.037-1.291,0.05c-0.08,0.002-0.164,0.004-0.246,0.005
		C29.53,3.992,29.032,4,28.5,4c-0.529,0-1.025-0.008-1.504-0.018c-0.087-0.002-0.176-0.004-0.262-0.006
		c-0.452-0.012-0.881-0.029-1.288-0.049c-0.076-0.004-0.149-0.008-0.223-0.012c-0.403-0.022-0.79-0.047-1.148-0.077
		c-0.009-0.001-0.019-0.001-0.027-0.002c-0.368-0.03-0.706-0.065-1.027-0.101c-0.057-0.006-0.115-0.013-0.171-0.019
		c-0.304-0.036-0.588-0.073-0.85-0.113c-0.043-0.006-0.082-0.013-0.124-0.019c-0.259-0.04-0.503-0.082-0.72-0.125
		c-0.005-0.001-0.01-0.002-0.015-0.003c-0.223-0.044-0.42-0.089-0.6-0.133c-0.027-0.007-0.055-0.013-0.081-0.02
		c-0.169-0.043-0.32-0.086-0.45-0.128c-0.006-0.002-0.011-0.004-0.017-0.006C21.248,2.638,24.304,2,28.5,2
		C32.695,2,35.752,2.638,37.008,3.168z M19.208,5.004c0.011,0.004,0.026,0.008,0.038,0.012c0.173,0.064,0.361,0.126,0.57,0.187
		c0.006,0.002,0.014,0.004,0.02,0.006c0.212,0.061,0.444,0.119,0.697,0.175c0.016,0.003,0.03,0.007,0.046,0.011
		c0.247,0.054,0.518,0.105,0.807,0.154c0.037,0.006,0.072,0.013,0.11,0.019c0.284,0.046,0.592,0.089,0.918,0.13
		c0.053,0.007,0.105,0.013,0.158,0.019c0.33,0.039,0.681,0.074,1.055,0.106c0.062,0.005,0.125,0.01,0.188,0.015
		c0.384,0.031,0.79,0.058,1.222,0.08c0.062,0.003,0.127,0.006,0.191,0.009c0.451,0.022,0.923,0.04,1.428,0.052
		c0.049,0.001,0.101,0.002,0.151,0.003C27.341,5.993,27.901,6,28.5,6s1.159-0.007,1.694-0.019c0.049-0.001,0.102-0.002,0.151-0.003
		c0.505-0.012,0.978-0.03,1.429-0.052c0.063-0.003,0.128-0.006,0.19-0.009c0.432-0.023,0.838-0.05,1.222-0.08
		c0.063-0.005,0.126-0.01,0.188-0.015c0.374-0.032,0.726-0.067,1.056-0.106c0.054-0.006,0.105-0.013,0.158-0.019
		c0.326-0.04,0.634-0.083,0.918-0.13c0.037-0.006,0.072-0.012,0.109-0.019c0.289-0.049,0.56-0.1,0.808-0.154
		c0.016-0.003,0.029-0.007,0.045-0.01c0.253-0.056,0.486-0.115,0.698-0.175c0.006-0.002,0.013-0.003,0.019-0.005
		c0.21-0.06,0.397-0.123,0.571-0.187c0.011-0.004,0.026-0.008,0.037-0.012l1.97,13.002c-3.143-1.269-8.669-1.606-11.294-1.606
		c-2.606,0-8.072,0.331-11.226,1.577L19.208,5.004z M39.886,20.254c-0.979,0.532-4.439,1.346-11.418,1.346
		c-6.979,0-10.439-0.813-11.418-1.346c1.088-0.744,5.302-1.854,11.418-1.854C34.585,18.4,38.798,19.51,39.886,20.254z
		 M19.478,30.859c-2.066-2.403-3.064-5.51-2.829-8.644c2.572,1.102,7.482,1.385,11.819,1.385c4.373,0,9.326-0.289,11.88-1.413
		c0.243,3.144-0.754,6.263-2.826,8.673C35.259,33.491,31.971,35,28.5,35S21.741,33.491,19.478,30.859z M28.5,55
		c-5.589,0-8.952-0.907-9.843-1.5c0.837-0.557,3.853-1.39,8.843-1.49v1.131c0,0.553,0.448,1,1,1s1-0.447,1-1V52.01
		c4.991,0.1,8.006,0.933,8.843,1.49C37.452,54.093,34.089,55,28.5,55z"/>
</g>
<g>
</g>
<g>
</g>
<g>
</g>
<g>
</g>
<g>
</g>
<g>
</g>
<g>
</g>
<g>
</g>
<g>
</g>
<g>
</g>
<g>
</g>
<g>
</g>
<g>
</g>
<g>
</g>
<g>
</g>
</svg>
