<?xml version="1.0" encoding="iso-8859-1"?>
<!-- Generator: Adobe Illustrator 18.0.0, SVG Export Plug-In . SVG Version: 6.00 Build 0)  -->
<!DOCTYPE svg PUBLIC "-//W3C//DTD SVG 1.1//EN" "http://www.w3.org/Graphics/SVG/1.1/DTD/svg11.dtd">
<svg version="1.1" id="Capa_1" xmlns="http://www.w3.org/2000/svg" xmlns:xlink="http://www.w3.org/1999/xlink" x="0px" y="0px"
	 viewBox="0 0 60 60" style="enable-background:new 0 0 60 60;" xml:space="preserve">
<g>
	<path d="M43.774,13.963L44,7c0-2.404-3.01-4-5-4c-0.806,0-1.557,0.239-2.185,0.65C36.225,1.547,34.29,0,32,0
		c-2.13,0-3.676,0.692-4.446,1.923C26.86,1.347,25.97,1,25,1c-1.14,0-2.062,0.347-2.74,1.03c-0.376,0.378-0.641,0.821-0.827,1.293
		c-0.469-0.253-1.042-0.353-1.714-0.322C17.563,3.118,16,4.799,16,7v5c0,1.907,1.142,3.407,2.772,3.852
		c0.078,4.823,0.732,12.422,3.259,22.339c0.021,0.113,2.179,11.449-0.313,16.395c-0.343,0.683-0.422,1.454-0.222,2.173
		c0.213,0.765,0.716,1.38,1.416,1.731c0.648,0.326,1.478,0.617,2.465,0.866c1.7,0.428,3.554,0.645,5.51,0.645h0.771
		c1.956,0,3.81-0.217,5.51-0.645c0.987-0.249,1.816-0.54,2.465-0.866c0.7-0.352,1.203-0.967,1.416-1.731
		c0.2-0.719,0.121-1.49-0.222-2.173c-2.431-4.823-0.435-15.75-0.318-16.368C43.398,26.861,43.841,18.557,43.774,13.963z M18,12V7
		c0-1.139,0.734-1.942,1.826-2.001c0.567-0.029,0.897-0.051,1.172,1.106c-0.002,0.216-0.001,0.421,0.001,0.613L21,7
		c0,0.553,0.447,1,1,1s1-0.447,1-1V6.033c0.017-0.938,0.122-2.034,0.679-2.594C23.972,3.144,24.404,3,25,3c1.103,0,2,0.897,2,2
		c0,0.553,0.447,1,1,1s1-0.447,1-1V4c0-0.495,0-2,3-2c1.654,0,3,1.346,3,3v2c0,0.553,0.447,1,1,1s1-0.447,1-1c0-1.103,0.897-2,2-2
		c1.212,0,3,1.054,3.001,1.968l-0.069,2.12l-3.665,0.624c-0.765,0.13-1.591,0.241-2.602,0.35l-0.893,0.096v0.898V15
		c0,1.103-0.897,2-2,2s-2-0.897-2-2v-3.716v-0.97l-0.97-0.03c-2.217-0.067-4.4-0.299-6.489-0.688l-4.141-0.771l-0.149,1.03
		c-0.002,0.014-0.006,0.039-0.01,0.073c-0.001,0.007-0.002,0.013-0.003,0.022c-0.047,0.357-0.194,1.624-0.236,3.733
		C18.264,13.31,18,12.652,18,12z M39.122,56.222c-0.042,0.151-0.144,0.358-0.388,0.48c-0.518,0.261-1.209,0.501-2.055,0.714
		C35.14,57.804,33.45,58,31.658,58h-0.771c-1.792,0-3.481-0.196-5.021-0.584c-0.846-0.213-1.537-0.453-2.055-0.714
		c-0.244-0.122-0.346-0.329-0.388-0.48c-0.065-0.235-0.036-0.504,0.082-0.736c0.371-0.737,0.652-1.583,0.863-2.494
		c0.37,0.116,0.787,0.235,1.278,0.358c1.595,0.402,3.337,0.606,5.177,0.606h0.723c1.84,0,3.582-0.204,5.2-0.612
		c0.503-0.126,0.989-0.249,1.427-0.376c0.212,0.92,0.494,1.774,0.868,2.517C39.158,55.718,39.187,55.986,39.122,56.222z
		 M38.563,37.753l-0.013,0.057c-0.074,0.382-1.412,7.432-0.72,13.174c-0.469,0.143-1.068,0.293-1.598,0.427
		c-1.437,0.362-3.014,0.546-4.688,0.546h-0.723c-1.675,0-3.252-0.184-4.688-0.546c-0.634-0.159-1.091-0.295-1.422-0.407
		c0.698-5.748-0.646-12.825-0.73-13.25c-3.593-14.104-3.309-23.553-3.08-26.57l2.047,0.381c1.883,0.35,3.838,0.578,5.824,0.681V15
		c0,2.206,1.794,4,4,4s4-1.794,4-4v-3.053c0.669-0.082,1.264-0.168,1.83-0.265l3.041-0.517
		C41.875,14.158,42.171,23.59,38.563,37.753z"/>
	<path d="M31.5,21c-3.968,0-6.5,6.812-6.5,11.5c0,4.977,2.593,12.5,6.5,12.5S38,37.477,38,32.5C38,27.812,35.468,21,31.5,21z
		 M31.5,43c-2.019,0-4.5-5.79-4.5-10.5c0-4.528,2.355-9.5,4.5-9.5s4.5,4.972,4.5,9.5C36,37.21,33.519,43,31.5,43z"/>
</g>
<g>
</g>
<g>
</g>
<g>
</g>
<g>
</g>
<g>
</g>
<g>
</g>
<g>
</g>
<g>
</g>
<g>
</g>
<g>
</g>
<g>
</g>
<g>
</g>
<g>
</g>
<g>
</g>
<g>
</g>
</svg>
