<?xml version="1.0" encoding="iso-8859-1"?>
<!-- Generator: Adobe Illustrator 18.0.0, SVG Export Plug-In . SVG Version: 6.00 Build 0)  -->
<!DOCTYPE svg PUBLIC "-//W3C//DTD SVG 1.1//EN" "http://www.w3.org/Graphics/SVG/1.1/DTD/svg11.dtd">
<svg version="1.1" id="Capa_1" xmlns="http://www.w3.org/2000/svg" xmlns:xlink="http://www.w3.org/1999/xlink" x="0px" y="0px"
	 viewBox="0 0 56 56" style="enable-background:new 0 0 56 56;" xml:space="preserve">
<g>
	<circle cx="25" cy="27" r="1"/>
	<circle cx="28" cy="34" r="1"/>
	<circle cx="30.5" cy="28.5" r="1.5"/>
	<path d="M29,49.012V41.83c7.613-2.365,8.827-31.52,8.998-37.74C38,4.06,38,4.03,38,4c0-2.759-5.848-4-10-4S18,1.241,18,4
		c0,0.03,0,0.06,0.002,0.09c0.171,6.219,1.385,35.375,8.998,37.74v7.182c-3.2,0.071-11,0.545-11,3.488c0,3.331,9.996,3.5,12,3.5
		s12-0.169,12-3.5C40,49.557,32.2,49.083,29,49.012z M28,14.418c-2.259,0-5.379,0.429-7.262,1.471
		c-0.304-3.175-0.522-6.376-0.651-9.402C20.113,6.5,20.144,6.51,20.17,6.523c0.213,0.103,0.437,0.2,0.672,0.292
		c0.087,0.034,0.177,0.065,0.266,0.097c0.19,0.069,0.383,0.135,0.583,0.197c0.1,0.031,0.199,0.061,0.301,0.09
		c0.211,0.061,0.427,0.117,0.646,0.171c0.089,0.022,0.177,0.045,0.267,0.066c0.311,0.071,0.626,0.137,0.947,0.194
		c0.007,0.001,0.014,0.002,0.021,0.003c0.313,0.056,0.629,0.104,0.946,0.146c0.1,0.014,0.2,0.025,0.3,0.037
		c0.228,0.028,0.454,0.053,0.68,0.074c0.111,0.01,0.22,0.02,0.33,0.029c0.226,0.018,0.45,0.033,0.672,0.044
		c0.095,0.005,0.191,0.011,0.285,0.015C27.397,7.992,27.704,8,28,8s0.603-0.008,0.914-0.021c0.094-0.004,0.19-0.01,0.285-0.015
		c0.222-0.012,0.446-0.026,0.672-0.044c0.11-0.009,0.22-0.019,0.33-0.029c0.226-0.021,0.453-0.047,0.68-0.074
		c0.1-0.012,0.2-0.023,0.3-0.037c0.317-0.043,0.633-0.091,0.946-0.146c0.007-0.001,0.014-0.002,0.021-0.003
		c0.32-0.057,0.636-0.123,0.947-0.194c0.091-0.021,0.178-0.044,0.267-0.066c0.219-0.053,0.435-0.11,0.646-0.171
		c0.102-0.029,0.201-0.059,0.301-0.09c0.2-0.062,0.393-0.128,0.583-0.197c0.089-0.032,0.18-0.063,0.266-0.097
		c0.234-0.092,0.459-0.189,0.672-0.292c0.026-0.013,0.057-0.023,0.083-0.036c-0.129,3.026-0.347,6.227-0.65,9.402
		C33.38,14.848,30.259,14.418,28,14.418z M34.874,18.051c-0.412,0.594-3.231,1.632-6.874,1.632s-6.462-1.038-6.874-1.632
		c0.411-0.594,3.23-1.633,6.874-1.633S34.463,17.457,34.874,18.051z M28,2c4.567,0,7.751,1.37,7.994,1.998
		c-0.007,0.02-0.023,0.042-0.037,0.063c-0.012,0.019-0.019,0.037-0.036,0.058C35.9,4.144,35.869,4.172,35.84,4.2
		c-0.02,0.019-0.036,0.038-0.06,0.058c-0.036,0.03-0.083,0.063-0.128,0.094c-0.027,0.019-0.049,0.037-0.079,0.057
		c-0.052,0.034-0.115,0.07-0.177,0.105c-0.031,0.018-0.058,0.036-0.092,0.054c-0.07,0.038-0.151,0.077-0.231,0.116
		C35.04,4.7,35.011,4.716,34.975,4.732c-0.084,0.039-0.179,0.078-0.272,0.118c-0.04,0.017-0.076,0.033-0.117,0.05
		c-0.098,0.039-0.206,0.078-0.313,0.117c-0.045,0.016-0.085,0.033-0.131,0.049c-0.113,0.039-0.235,0.078-0.356,0.116
		c-0.048,0.015-0.092,0.031-0.142,0.046c-0.127,0.039-0.263,0.076-0.399,0.113c-0.051,0.014-0.098,0.029-0.15,0.042
		c-0.136,0.036-0.282,0.069-0.426,0.103c-0.059,0.014-0.114,0.028-0.174,0.042c-0.147,0.033-0.303,0.063-0.457,0.093
		c-0.064,0.012-0.123,0.026-0.188,0.038c-0.153,0.028-0.313,0.053-0.473,0.078c-0.074,0.012-0.143,0.025-0.218,0.036
		c-0.166,0.024-0.339,0.045-0.511,0.066c-0.074,0.009-0.145,0.02-0.22,0.028c-0.174,0.019-0.355,0.034-0.534,0.049
		c-0.08,0.007-0.157,0.016-0.238,0.022c-0.211,0.016-0.429,0.026-0.649,0.036c-0.054,0.002-0.105,0.007-0.159,0.009
		C28.569,5.995,28.287,6,28,6c-4.599,0-7.796-1.39-7.996-1.992C20.215,3.385,23.408,2,28,2z M21.24,20.463
		c1.902,0.859,4.692,1.219,6.76,1.219c2.068,0,4.859-0.36,6.761-1.219C33.457,30.927,31.18,40,28,40
		C24.82,40,22.544,30.927,21.24,20.463z M28,54c-5.589,0-8.952-0.907-9.843-1.5c0.837-0.557,3.853-1.39,8.843-1.49V52
		c0,0.553,0.448,1,1,1s1-0.447,1-1v-0.99c4.991,0.1,8.006,0.933,8.843,1.49C36.952,53.093,33.589,54,28,54z"/>
</g>
<g>
</g>
<g>
</g>
<g>
</g>
<g>
</g>
<g>
</g>
<g>
</g>
<g>
</g>
<g>
</g>
<g>
</g>
<g>
</g>
<g>
</g>
<g>
</g>
<g>
</g>
<g>
</g>
<g>
</g>
</svg>
