<?xml version="1.0" encoding="iso-8859-1"?>
<!-- Generator: Adobe Illustrator 18.0.0, SVG Export Plug-In . SVG Version: 6.00 Build 0)  -->
<!DOCTYPE svg PUBLIC "-//W3C//DTD SVG 1.1//EN" "http://www.w3.org/Graphics/SVG/1.1/DTD/svg11.dtd">
<svg version="1.1" id="Capa_1" xmlns="http://www.w3.org/2000/svg" xmlns:xlink="http://www.w3.org/1999/xlink" x="0px" y="0px"
	 viewBox="0 0 59 59" style="enable-background:new 0 0 59 59;" xml:space="preserve">
<g>
	<path d="M43.548,19.417c1.164-0.7,1.952-1.963,1.952-3.417c0-1.6-0.95-2.972-2.309-3.612C41.865,5.185,36.181,0,29.5,0
		S17.135,5.185,15.809,12.388C14.45,13.028,13.5,14.4,13.5,16c0,1.455,0.788,2.717,1.952,3.417l-3.539,34.511
		c-0.133,1.293,0.291,2.588,1.162,3.553S15.19,59,16.491,59h0.034h25.951h0.034c1.3,0,2.545-0.554,3.417-1.519
		s1.294-2.26,1.162-3.553L43.548,19.417z M29.5,2c5.479,0,10.192,4.14,11.579,10H17.921C19.308,6.14,24.021,2,29.5,2z M17.5,14h24
		c1.103,0,2,0.897,2,2s-0.897,2-2,2h-24c-1.103,0-2-0.897-2-2S16.397,14,17.5,14z M41.5,20h0.097l0.992,9.676l-1.09-1.09
		l-2.707,2.707c-0.391,0.391-0.391,1.023,0,1.414s1.023,0.391,1.414,0l1.293-1.293l1.293,1.293c0.034,0.034,0.078,0.049,0.115,0.077
		l1.053,10.263L41.5,40.586l-2.707,2.707c-0.391,0.391-0.391,1.023,0,1.414s1.023,0.391,1.414,0l1.293-1.293l1.293,1.293
		C42.988,44.902,43.244,45,43.5,45c0.228,0,0.451-0.09,0.636-0.246L44.982,53H14.018l0.846-8.246
		c0.393,0.33,0.974,0.323,1.343-0.047l1.293-1.293l1.293,1.293C18.988,44.902,19.244,45,19.5,45s0.512-0.098,0.707-0.293
		c0.391-0.391,0.391-1.023,0-1.414L17.5,40.586l-2.461,2.461l1.053-10.263c0.037-0.028,0.081-0.043,0.115-0.077l1.293-1.293
		l1.293,1.293C18.988,32.902,19.244,33,19.5,33s0.512-0.098,0.707-0.293c0.391-0.391,0.391-1.023,0-1.414L17.5,28.586l-1.09,1.09
		L17.403,20H17.5H41.5z M16.524,57c-0.75,0-1.438-0.308-1.938-0.866C14.29,55.803,14.088,55.415,13.99,55h31.02
		c-0.098,0.415-0.299,0.803-0.596,1.134C43.914,56.692,43.226,57,42.476,57H16.524z"/>
	<path d="M20.207,26.707l1.293-1.293l1.293,1.293C22.988,26.902,23.244,27,23.5,27s0.512-0.098,0.707-0.293
		c0.391-0.391,0.391-1.023,0-1.414L21.5,22.586l-2.707,2.707c-0.391,0.391-0.391,1.023,0,1.414S19.816,27.098,20.207,26.707z"/>
	<path d="M28.207,26.707l1.293-1.293l1.293,1.293C30.988,26.902,31.244,27,31.5,27s0.512-0.098,0.707-0.293
		c0.391-0.391,0.391-1.023,0-1.414L29.5,22.586l-2.707,2.707c-0.391,0.391-0.391,1.023,0,1.414S27.816,27.098,28.207,26.707z"/>
	<path d="M36.207,26.707l1.293-1.293l1.293,1.293C38.988,26.902,39.244,27,39.5,27s0.512-0.098,0.707-0.293
		c0.391-0.391,0.391-1.023,0-1.414L37.5,22.586l-2.707,2.707c-0.391,0.391-0.391,1.023,0,1.414S35.816,27.098,36.207,26.707z"/>
	<path d="M22.793,38.707C22.988,38.902,23.244,39,23.5,39s0.512-0.098,0.707-0.293c0.391-0.391,0.391-1.023,0-1.414L21.5,34.586
		l-2.707,2.707c-0.391,0.391-0.391,1.023,0,1.414s1.023,0.391,1.414,0l1.293-1.293L22.793,38.707z"/>
	<path d="M28.207,38.707l1.293-1.293l1.293,1.293C30.988,38.902,31.244,39,31.5,39s0.512-0.098,0.707-0.293
		c0.391-0.391,0.391-1.023,0-1.414L29.5,34.586l-2.707,2.707c-0.391,0.391-0.391,1.023,0,1.414S27.816,39.098,28.207,38.707z"/>
	<path d="M34.793,37.293c-0.391,0.391-0.391,1.023,0,1.414s1.023,0.391,1.414,0l1.293-1.293l1.293,1.293
		C38.988,38.902,39.244,39,39.5,39s0.512-0.098,0.707-0.293c0.391-0.391,0.391-1.023,0-1.414L37.5,34.586L34.793,37.293z"/>
	<path d="M21.5,46.586l-2.707,2.707c-0.391,0.391-0.391,1.023,0,1.414s1.023,0.391,1.414,0l1.293-1.293l1.293,1.293
		C22.988,50.902,23.244,51,23.5,51s0.512-0.098,0.707-0.293c0.391-0.391,0.391-1.023,0-1.414L21.5,46.586z"/>
	<path d="M29.5,46.586l-2.707,2.707c-0.391,0.391-0.391,1.023,0,1.414s1.023,0.391,1.414,0l1.293-1.293l1.293,1.293
		C30.988,50.902,31.244,51,31.5,51s0.512-0.098,0.707-0.293c0.391-0.391,0.391-1.023,0-1.414L29.5,46.586z"/>
	<path d="M34.793,49.293c-0.391,0.391-0.391,1.023,0,1.414s1.023,0.391,1.414,0l1.293-1.293l1.293,1.293
		C38.988,50.902,39.244,51,39.5,51s0.512-0.098,0.707-0.293c0.391-0.391,0.391-1.023,0-1.414L37.5,46.586L34.793,49.293z"/>
	<path d="M22.793,32.707c0.391,0.391,1.023,0.391,1.414,0l1.293-1.293l1.293,1.293C26.988,32.902,27.244,33,27.5,33
		s0.512-0.098,0.707-0.293c0.391-0.391,0.391-1.023,0-1.414L25.5,28.586l-2.707,2.707C22.402,31.684,22.402,32.316,22.793,32.707z"
		/>
	<path d="M30.793,32.707c0.391,0.391,1.023,0.391,1.414,0l1.293-1.293l1.293,1.293C34.988,32.902,35.244,33,35.5,33
		s0.512-0.098,0.707-0.293c0.391-0.391,0.391-1.023,0-1.414L33.5,28.586l-2.707,2.707C30.402,31.684,30.402,32.316,30.793,32.707z"
		/>
	<path d="M27.5,45c0.256,0,0.512-0.098,0.707-0.293c0.391-0.391,0.391-1.023,0-1.414L25.5,40.586l-2.707,2.707
		c-0.391,0.391-0.391,1.023,0,1.414s1.023,0.391,1.414,0l1.293-1.293l1.293,1.293C26.988,44.902,27.244,45,27.5,45z"/>
	<path d="M35.5,45c0.256,0,0.512-0.098,0.707-0.293c0.391-0.391,0.391-1.023,0-1.414L33.5,40.586l-2.707,2.707
		c-0.391,0.391-0.391,1.023,0,1.414s1.023,0.391,1.414,0l1.293-1.293l1.293,1.293C34.988,44.902,35.244,45,35.5,45z"/>
</g>
<g>
</g>
<g>
</g>
<g>
</g>
<g>
</g>
<g>
</g>
<g>
</g>
<g>
</g>
<g>
</g>
<g>
</g>
<g>
</g>
<g>
</g>
<g>
</g>
<g>
</g>
<g>
</g>
<g>
</g>
</svg>
