<?xml version="1.0" encoding="iso-8859-1"?>
<!-- Generator: Adobe Illustrator 18.0.0, SVG Export Plug-In . SVG Version: 6.00 Build 0)  -->
<!DOCTYPE svg PUBLIC "-//W3C//DTD SVG 1.1//EN" "http://www.w3.org/Graphics/SVG/1.1/DTD/svg11.dtd">
<svg version="1.1" id="Capa_1" xmlns="http://www.w3.org/2000/svg" xmlns:xlink="http://www.w3.org/1999/xlink" x="0px" y="0px"
	 viewBox="0 0 60 60" style="enable-background:new 0 0 60 60;" xml:space="preserve">
<g>
	<path d="M54.92,55.201C54.553,53.347,52.849,52,50.868,52L48.16,33.99c1.682-0.113,3.154-1.201,3.64-2.722
		c0.401-1.258,0.193-2.577-0.568-3.621C50.478,26.616,49.27,26,48,26h-1.05c-0.484-8.071-6.744-14.182-15.206-14.922
		C32.035,11.027,32.429,11,33,11h13.5c2.81,0,4.227-0.008,4.461-2.264C52.723,8.125,54,6.467,54,4.5C54,2.019,51.981,0,49.5,0
		S45,2.019,45,4.5c0,2.212,1.607,4.046,3.714,4.42C48.221,8.999,47.253,9,46.5,9H33c-2.772,0-3.656,0.897-3.908,2.04
		C20.214,11.442,13.549,17.668,13.05,26h-0.918c-1.991,0-3.697,1.356-4.057,3.225c-0.236,1.221,0.061,2.444,0.813,3.356
		c0.695,0.843,1.731,1.35,2.951,1.412L9.139,52H9.132c-1.98,0-3.685,1.347-4.052,3.2c-0.236,1.188,0.065,2.403,0.828,3.332
		C6.674,59.465,7.801,60,9,60h42c1.199,0,2.326-0.535,3.092-1.468C54.854,57.604,55.156,56.389,54.92,55.201z M47,4.5
		C47,3.121,48.121,2,49.5,2S52,3.121,52,4.5S50.879,7,49.5,7S47,5.879,47,4.5z M30,13c8.19,0,14.451,5.521,14.966,13H15.034
		C15.549,18.521,21.81,13,30,13z M52.546,57.264C52.161,57.731,51.599,58,51,58H9c-0.599,0-1.161-0.269-1.546-0.736
		c-0.387-0.472-0.533-1.065-0.413-1.674C7.221,54.684,8.12,54,9.132,54h1.729l2.994-19.961c0.076-0.512-0.073-1.03-0.411-1.422
		C13.106,32.225,12.617,32,12,32c-0.644,0-1.2-0.246-1.568-0.692c-0.378-0.456-0.517-1.062-0.393-1.705
		C10.215,28.689,11.114,28,12.132,28H13h34h1c0.634,0,1.237,0.31,1.616,0.827c0.388,0.53,0.486,1.182,0.277,1.834
		C49.643,31.449,48.81,32,47.868,32c-0.51,0-0.993,0.222-1.325,0.608c-0.332,0.386-0.479,0.896-0.403,1.398L49.139,54h1.729
		c1.012,0,1.911,0.684,2.091,1.591C53.079,56.198,52.933,56.792,52.546,57.264z"/>
	<path d="M16.117,36l-2.25,18h32.266l-2.25-18H16.117z M42.117,38l0.75,6H17.133l0.75-6H42.117z M16.133,52l0.75-6h26.234l0.75,6
		H16.133z"/>
	<path d="M27,42h5c0.553,0,1-0.447,1-1s-0.447-1-1-1h-5c-0.553,0-1,0.447-1,1S26.447,42,27,42z"/>
	<path d="M32,48h-5c-0.553,0-1,0.447-1,1s0.447,1,1,1h5c0.553,0,1-0.447,1-1S32.553,48,32,48z"/>
	<path d="M21.567,17.189c-1.103,0.801-1.937,1.814-2.479,3.015c-0.228,0.504-0.004,1.096,0.499,1.323
		c0.134,0.061,0.273,0.089,0.411,0.089c0.381,0,0.745-0.219,0.912-0.588c0.397-0.88,1.014-1.626,1.832-2.22
		c0.446-0.324,0.546-0.95,0.222-1.397C22.64,16.965,22.017,16.863,21.567,17.189z"/>
	<path d="M30,15c-1.11,0-2.169,0.073-3.146,0.218c-0.546,0.081-0.924,0.589-0.843,1.136c0.073,0.496,0.5,0.854,0.988,0.854
		c0.049,0,0.098-0.004,0.147-0.011C28.027,17.066,28.987,17,30,17c0.553,0,1-0.447,1-1S30.553,15,30,15z"/>
	<path d="M31,34h6c0.553,0,1-0.447,1-1s-0.447-1-1-1h-6c-0.553,0-1,0.447-1,1S30.447,34,31,34z"/>
	<path d="M41,34h2c0.553,0,1-0.447,1-1s-0.447-1-1-1h-2c-0.553,0-1,0.447-1,1S40.447,34,41,34z"/>
</g>
<g>
</g>
<g>
</g>
<g>
</g>
<g>
</g>
<g>
</g>
<g>
</g>
<g>
</g>
<g>
</g>
<g>
</g>
<g>
</g>
<g>
</g>
<g>
</g>
<g>
</g>
<g>
</g>
<g>
</g>
</svg>
