<?xml version="1.0" encoding="iso-8859-1"?>
<!-- Generator: Adobe Illustrator 18.0.0, SVG Export Plug-In . SVG Version: 6.00 Build 0)  -->
<!DOCTYPE svg PUBLIC "-//W3C//DTD SVG 1.1//EN" "http://www.w3.org/Graphics/SVG/1.1/DTD/svg11.dtd">
<svg version="1.1" id="Capa_1" xmlns="http://www.w3.org/2000/svg" xmlns:xlink="http://www.w3.org/1999/xlink" x="0px" y="0px"
	 viewBox="0 0 56 56" style="enable-background:new 0 0 56 56;" xml:space="preserve">
<g>
	<circle cx="18.264" cy="29.609" r="1"/>
	<circle cx="18.28" cy="34.609" r="1"/>
	<circle cx="22.466" cy="30.195" r="1"/>
	<circle cx="15.065" cy="45" r="1"/>
	<circle cx="21.065" cy="50" r="1"/>
	<circle cx="16.065" cy="50" r="1"/>
	<circle cx="14.065" cy="38" r="1"/>
	<circle cx="17.065" cy="40" r="1"/>
	<circle cx="14.065" cy="33" r="1"/>
	<circle cx="14.065" cy="27" r="1"/>
	<circle cx="33.065" cy="26" r="1"/>
	<circle cx="28.065" cy="27" r="1"/>
	<circle cx="19.065" cy="25" r="1"/>
	<circle cx="35.065" cy="22" r="1"/>
	<circle cx="38.065" cy="25" r="1"/>
	<circle cx="43.065" cy="23" r="1"/>
	<circle cx="41.065" cy="29" r="1"/>
	<circle cx="24.453" cy="26.189" r="1"/>
	<path d="M39.343,32.743l-4.86-4.86l-6.662,1.813l-1.514,5.567l-5.539,1.506l-1.812,6.661l4.86,4.86l5.55-1.509l4.017,4.017
		l6.662-1.813l1.812-6.661L37.831,38.3L39.343,32.743z M29.45,31.324l4.438-1.207l3.22,3.22l-1.203,4.424l-4.452,1.211l-3.209-3.209
		L29.45,31.324z M21.191,42.836l1.207-4.438l4.438-1.206l3.197,3.197l-1.217,4.47l-4.405,1.197L21.191,42.836z M38.415,47.356
		l-4.438,1.207l-3.196-3.197l1.212-4.456l4.42-1.203l3.209,3.209L38.415,47.356z"/>
	<path d="M43.286,10.39c-1.898-0.679-2.887-1.11-3.136-1.855c1.869-0.45,3.262-2.137,3.262-4.142V4.26c0-2.349-1.911-4.26-4.26-4.26
		H16.847c-2.349,0-4.26,1.911-4.26,4.26v0.133c0,1.992,1.375,3.669,3.265,4.133c-0.244,0.751-1.232,1.183-3.139,1.864
		c-2.861,1.023-6.779,2.425-6.779,7.709v1.749c0,0.332,0.165,0.642,0.439,0.828c0.274,0.185,0.624,0.224,0.932,0.101l0.846-0.338
		v25.267C8.152,51.382,12.77,56,18.447,56h19.106c5.677,0,10.295-4.618,10.295-10.295V22.37c0.224-0.058,0.446-0.131,0.656-0.244
		c0.963-0.516,1.561-1.514,1.561-2.605v-1.422C50.065,12.814,46.147,11.413,43.286,10.39z M45.848,45.705
		c0,4.574-3.721,8.295-8.295,8.295H18.447c-4.574,0-8.295-3.721-8.295-8.295V19.638l1.151-0.46c0.437-0.176,0.931-0.008,1.174,0.396
		l1.354,2.256c0.43,0.716,1.146,1.219,1.966,1.38c0.188,0.036,0.378,0.055,0.567,0.055c0.012,0,0.024-0.003,0.036-0.003
		c0.026,0,0.052-0.005,0.079-0.006c0.161-0.006,0.32-0.026,0.478-0.058c0.053-0.011,0.105-0.025,0.158-0.039
		c0.133-0.035,0.263-0.079,0.391-0.133c0.05-0.021,0.101-0.04,0.15-0.063c0.168-0.082,0.332-0.175,0.484-0.289l1.344-1.008
		c0.378-0.282,0.915-0.245,1.248,0.089l0.533,0.533c0.606,0.606,1.441,0.926,2.299,0.857c0.855-0.061,1.641-0.488,2.155-1.175
		l0.409-0.545c0.365-0.484,1.114-0.553,1.58,0.068c0.585,0.779,1.513,1.224,2.489,1.179c0.974-0.041,1.864-0.56,2.381-1.386
		l1.933-3.094c0.197-0.315,0.532-0.495,0.905-0.444c0.37,0.037,0.669,0.267,0.799,0.614l0.682,1.82
		c0.385,1.026,1.263,1.732,2.349,1.888c1.086,0.152,2.125-0.274,2.785-1.154l0.072-0.097c0.304-0.405,0.872-0.503,1.294-0.222
		l2.073,1.382c0.121,0.081,0.246,0.15,0.377,0.211V45.705z M48.065,19.521c0,0.517-0.353,0.761-0.505,0.842
		c-0.081,0.044-0.236,0.104-0.426,0.112l-0.152-0.021c-0.071-0.01-0.132-0.025-0.19-0.043c-0.07-0.025-0.14-0.046-0.212-0.095
		l-2.073-1.382c-0.326-0.218-0.68-0.362-1.043-0.436c-1.089-0.224-2.256,0.181-2.963,1.124l-0.072,0.097
		c-0.307,0.409-0.733,0.395-0.9,0.373c-0.168-0.024-0.58-0.133-0.759-0.61l-0.682-1.82c-0.398-1.061-1.345-1.789-2.473-1.902
		c-1.122-0.104-2.2,0.414-2.801,1.374l-1.933,3.094c-0.17,0.271-0.45,0.435-0.77,0.448c-0.311,0-0.613-0.126-0.855-0.448
		c-0.563-0.752-1.425-1.183-2.364-1.183s-1.801,0.431-2.364,1.183l-0.409,0.544c-0.169,0.226-0.417,0.36-0.697,0.381
		c-0.28,0.018-0.545-0.078-0.743-0.277l-0.533-0.533c-1.033-1.032-2.694-1.152-3.863-0.274l-1.343,1.008
		c-0.22,0.164-0.49,0.223-0.757,0.173c-0.269-0.053-0.495-0.211-0.636-0.446l-1.354-2.256c-0.123-0.205-0.273-0.382-0.433-0.546
		c-0.041-0.042-0.083-0.081-0.126-0.12c-0.152-0.138-0.314-0.262-0.489-0.364c-0.02-0.011-0.037-0.027-0.057-0.038
		c-0.193-0.107-0.398-0.185-0.609-0.246c-0.056-0.016-0.112-0.028-0.17-0.041c-0.182-0.041-0.367-0.066-0.555-0.072
		c-0.03-0.001-0.059-0.011-0.089-0.011c-0.012,0-0.025,0.003-0.037,0.003c-0.113,0.001-0.226,0.018-0.339,0.032
		c-0.066,0.009-0.132,0.009-0.198,0.022c-0.179,0.035-0.357,0.086-0.532,0.156l-2.625,1.051v-0.272c0-3.875,2.648-4.822,5.453-5.826
		c1.96-0.701,4.137-1.506,4.46-3.62h2.489c0.552,0,1-0.447,1-1s-0.448-1-1-1h-3.423c-0.012,0-0.021,0.006-0.033,0.007
		c-0.011,0-0.022-0.007-0.033-0.007c-1.246,0-2.26-1.014-2.26-2.26V4.26c0-1.246,1.014-2.26,2.26-2.26h22.306
		c1.246,0,2.26,1.014,2.26,2.26v0.133c0,1.246-1.014,2.26-2.326,2.26H26.862c-0.552,0-1,0.447-1,1s0.448,1,1,1h11.29
		c0.323,2.115,2.5,2.919,4.46,3.62c2.804,1.004,5.453,1.951,5.453,5.826V19.521z"/>
</g>
<g>
</g>
<g>
</g>
<g>
</g>
<g>
</g>
<g>
</g>
<g>
</g>
<g>
</g>
<g>
</g>
<g>
</g>
<g>
</g>
<g>
</g>
<g>
</g>
<g>
</g>
<g>
</g>
<g>
</g>
</svg>
