<?xml version="1.0" encoding="iso-8859-1"?>
<!-- Generator: Adobe Illustrator 18.0.0, SVG Export Plug-In . SVG Version: 6.00 Build 0)  -->
<!DOCTYPE svg PUBLIC "-//W3C//DTD SVG 1.1//EN" "http://www.w3.org/Graphics/SVG/1.1/DTD/svg11.dtd">
<svg version="1.1" id="Capa_1" xmlns="http://www.w3.org/2000/svg" xmlns:xlink="http://www.w3.org/1999/xlink" x="0px" y="0px"
	 viewBox="0 0 60.011 60.011" style="enable-background:new 0 0 60.011 60.011;" xml:space="preserve">
<g>
	<path d="M14.547,46.228c0-0.618,0.503-1.121,1.121-1.121c1.721,0,3.121-1.4,3.121-3.122c0-0.618,0.503-1.121,1.121-1.121
		c1.722,0,3.122-1.4,3.122-3.121c0-0.618,0.503-1.121,1.121-1.121c1.721,0,3.121-1.4,3.121-3.122c0-0.618,0.503-1.121,1.121-1.121
		c1.721,0,3.121-1.4,3.121-3.121c0-0.618,0.503-1.121,1.122-1.121c1.721,0,3.121-1.4,3.121-3.121c0-0.619,0.503-1.122,1.121-1.122
		c1.721,0,3.121-1.4,3.121-3.121c0-0.618,0.503-1.121,1.122-1.121c1.721,0,3.121-1.4,3.121-3.121c0-0.619,0.503-1.122,1.121-1.122
		c1.721,0,3.121-1.4,3.121-3.121c0-0.618,0.503-1.121,1.122-1.121c1.721,0,3.121-1.4,3.121-3.121c0-0.619,0.503-1.122,1.121-1.122
		c0.553,0,1-0.447,1-1s-0.447-1-1-1c-1.721,0-3.121,1.4-3.121,3.122c0,0.618-0.503,1.121-1.121,1.121
		c-1.722,0-3.122,1.4-3.122,3.121c0,0.618-0.503,1.121-1.121,1.121c-1.721,0-3.121,1.4-3.121,3.122c0,0.618-0.503,1.121-1.121,1.121
		c-1.722,0-3.122,1.4-3.122,3.121c0,0.618-0.503,1.121-1.121,1.121c-1.721,0-3.121,1.4-3.121,3.122c0,0.618-0.503,1.121-1.121,1.121
		c-1.722,0-3.122,1.4-3.122,3.121c0,0.618-0.503,1.121-1.121,1.121c-1.721,0-3.121,1.4-3.121,3.121c0,0.619-0.503,1.122-1.121,1.122
		c-1.721,0-3.121,1.4-3.121,3.121c0,0.618-0.503,1.121-1.122,1.121c-1.721,0-3.121,1.4-3.121,3.121c0,0.619-0.503,1.122-1.121,1.122
		c-1.721,0-3.121,1.4-3.121,3.121c0,0.618-0.503,1.121-1.122,1.121c-1.721,0-3.121,1.4-3.121,3.121c0,0.619-0.503,1.122-1.121,1.122
		c-1.721,0-3.121,1.4-3.121,3.121c0,0.553,0.447,1,1,1s1-0.447,1-1c0-0.618,0.503-1.121,1.121-1.121c1.721,0,3.121-1.4,3.121-3.122
		c0-0.618,0.503-1.121,1.121-1.121C13.147,49.349,14.547,47.949,14.547,46.228z"/>
	<path d="M58.952,12.396l-0.164-0.215c-0.101-0.101-0.218-0.179-0.336-0.253c0.884-1.262,1.365-2.763,1.365-4.344
		c0-2.032-0.786-3.938-2.214-5.365c-2.826-2.827-7.34-2.945-10.318-0.374c-0.094-0.192-0.208-0.373-0.364-0.53L46.703,1.15
		c-0.339-0.193-8.445-4.559-19.187,6.184L7.139,27.712C-3.365,38.488,0.772,46.535,0.953,46.873l0.174,0.233
		c0.162,0.162,0.353,0.281,0.556,0.375c-2.277,2.919-2.176,7.507,0.348,10.308c1.479,1.479,3.423,2.219,5.366,2.219
		c1.942,0,3.886-0.739,5.365-2.219l0.552-0.552c0.059,0.081,0.109,0.167,0.181,0.239l0.214,0.163
		c0.156,0.088,1.94,1.059,4.854,1.059c3.438,0,8.447-1.353,14.201-7.106l20.139-20.14C63.533,20.822,59.144,12.736,58.952,12.396z
		 M8.562,29.117L28.93,8.748c8.791-8.79,15.315-6.526,16.579-5.959c0.016,0.24-0.154,0.853-0.767,1.465L4.068,44.928
		c-0.611,0.611-1.214,0.765-1.454,0.776C2.066,44.41-0.017,37.919,8.562,29.117z M11.349,56.375c-2.18,2.18-5.725,2.179-7.867,0.038
		c-1.734-1.927-2.148-5.593-0.036-7.94l44.84-44.84c1.051-1.051,2.454-1.629,3.951-1.629c1.498,0,2.901,0.578,3.952,1.629
		c1.05,1.05,1.628,2.453,1.628,3.951s-0.578,2.901-1.628,3.951l-0.48,0.48c-0.435,0.22-0.863,0.52-1.253,0.911L14.239,53.142
		c-0.391,0.391-0.69,0.819-0.911,1.254L11.349,56.375z M51.49,30.037l-20.139,20.14c-8.696,8.697-15.198,6.392-16.446,5.824
		c-0.008-0.094,0.026-0.258,0.094-0.447l41.881-41.881c0.188-0.068,0.348-0.102,0.431-0.089
		C57.878,14.829,60.191,21.335,51.49,30.037z"/>
	<circle cx="47.099" cy="27.504" r="1.5"/>
	<circle cx="32.099" cy="44.504" r="1.5"/>
	<circle cx="43.599" cy="35.004" r="1"/>
	<circle cx="23.599" cy="51.004" r="1"/>
	<circle cx="53.599" cy="23.004" r="1"/>
	<circle cx="36.599" cy="37.004" r="1"/>
	<circle cx="30.599" cy="11.004" r="1.5"/>
	<circle cx="15.599" cy="28.004" r="1.5"/>
	<circle cx="27.099" cy="18.504" r="1"/>
	<circle cx="7.099" cy="34.504" r="1"/>
	<circle cx="37.099" cy="6.504" r="1"/>
	<circle cx="20.099" cy="20.504" r="1"/>
</g>
<g>
</g>
<g>
</g>
<g>
</g>
<g>
</g>
<g>
</g>
<g>
</g>
<g>
</g>
<g>
</g>
<g>
</g>
<g>
</g>
<g>
</g>
<g>
</g>
<g>
</g>
<g>
</g>
<g>
</g>
</svg>
