<?xml version="1.0" encoding="iso-8859-1"?>
<!-- Generator: Adobe Illustrator 18.0.0, SVG Export Plug-In . SVG Version: 6.00 Build 0)  -->
<!DOCTYPE svg PUBLIC "-//W3C//DTD SVG 1.1//EN" "http://www.w3.org/Graphics/SVG/1.1/DTD/svg11.dtd">
<svg version="1.1" id="Capa_1" xmlns="http://www.w3.org/2000/svg" xmlns:xlink="http://www.w3.org/1999/xlink" x="0px" y="0px"
	 viewBox="0 0 59.245 59.245" style="enable-background:new 0 0 59.245 59.245;" xml:space="preserve">
<g>
	<path d="M6.705,48.423c-0.399-0.381-1.033-0.368-1.414,0.033c-0.852,0.893-1.96,3.203-0.055,5.562
		c0.198,0.244,0.487,0.371,0.778,0.371c0.221,0,0.443-0.072,0.628-0.222c0.43-0.348,0.497-0.978,0.149-1.407
		c-1.215-1.504-0.258-2.7-0.049-2.929C7.119,49.432,7.103,48.803,6.705,48.423z"/>
	<path d="M48.52,5.234c-0.43,0.348-0.497,0.977-0.149,1.406c0.197,0.245,0.487,0.372,0.778,0.372c0.221,0,0.443-0.072,0.628-0.222
		c1.507-1.216,2.703-0.257,2.93-0.049c0.399,0.374,1.029,0.358,1.408-0.039c0.381-0.399,0.367-1.032-0.033-1.414
		C53.19,4.438,50.879,3.331,48.52,5.234z"/>
	<path d="M20.157,42.489c-0.552,0-1,0.447-1,1v1.414c0,0.553,0.448,1,1,1s1-0.447,1-1v-1.414
		C21.157,42.937,20.709,42.489,20.157,42.489z"/>
	<path d="M17.328,48.146c-0.552,0-1,0.447-1,1v1.414c0,0.553,0.448,1,1,1s1-0.447,1-1v-1.414
		C18.328,48.594,17.88,48.146,17.328,48.146z"/>
	<path d="M22.985,48.146c-0.552,0-1,0.447-1,1v1.414c0,0.553,0.448,1,1,1s1-0.447,1-1v-1.414
		C23.985,48.594,23.537,48.146,22.985,48.146z"/>
	<path d="M24.399,41.075c-0.552,0-1,0.447-1,1v1.414c0,0.553,0.448,1,1,1s1-0.447,1-1v-1.414
		C25.399,41.522,24.952,41.075,24.399,41.075z"/>
	<path d="M28.935,38.54v-1.415c0-0.553-0.448-1-1-1s-1,0.447-1,1v1.415c0,0.553,0.448,1,1,1S28.935,39.093,28.935,38.54z"/>
	<path d="M29.349,43.196c-0.552,0-1,0.447-1,1v1.414c0,0.553,0.448,1,1,1s1-0.447,1-1v-1.414
		C30.349,43.644,29.901,43.196,29.349,43.196z"/>
	<path d="M32.178,37.54c-0.552,0-1,0.447-1,1v1.414c0,0.553,0.448,1,1,1s1-0.447,1-1V38.54C33.178,37.987,32.73,37.54,32.178,37.54z
		"/>
	<path d="M33.592,31.883c-0.552,0-1,0.447-1,1v1.414c0,0.553,0.448,1,1,1s1-0.447,1-1v-1.414
		C34.592,32.33,34.144,31.883,33.592,31.883z"/>
	<path d="M37.834,36.125c-0.552,0-1,0.447-1,1v1.415c0,0.553,0.448,1,1,1s1-0.447,1-1v-1.415
		C38.834,36.572,38.387,36.125,37.834,36.125z"/>
	<path d="M50.563,20.569c-0.552,0-1,0.447-1,1v1.414c0,0.553,0.448,1,1,1s1-0.447,1-1v-1.414
		C51.563,21.017,51.115,20.569,50.563,20.569z"/>
	<path d="M50.148,17.326v-1.414c0-0.553-0.448-1-1-1s-1,0.447-1,1v1.414c0,0.553,0.448,1,1,1S50.148,17.879,50.148,17.326z"/>
	<path d="M59.243,7.7c0-1.874-0.726-3.632-2.043-4.949l-0.707-0.707C55.175,0.727,53.417,0,51.543,0s-3.632,0.727-4.95,2.044
		c-0.028,0.028-0.055,0.059-0.08,0.09l-1.836,2.342c-0.524,0.669-1.072,1.317-1.603,1.98c-2.966-1.258-6.459-0.637-8.776,1.678
		c-1.014,1.016-1.736,2.286-2.088,3.675c-0.119,0.47-0.485,0.835-0.955,0.954c-1.389,0.352-2.66,1.074-3.674,2.089
		s-1.737,2.285-2.088,3.674c-0.119,0.471-0.485,0.836-0.956,0.955c-1.388,0.352-2.658,1.074-3.674,2.089
		c-1.014,1.014-1.736,2.284-2.088,3.674c-0.119,0.47-0.485,0.836-0.955,0.955c-1.39,0.352-2.661,1.074-3.674,2.089
		c-1.015,1.014-1.737,2.284-2.088,3.673c-0.12,0.471-0.485,0.837-0.956,0.956c-1.389,0.353-2.659,1.074-3.673,2.088
		c-2.282,2.282-2.922,5.74-1.719,8.684c-1.185,0.943-2.361,1.896-3.564,2.817c-0.035,0.026-0.068,0.056-0.1,0.087
		c-1.317,1.317-2.043,3.075-2.043,4.949s0.726,3.632,2.042,4.949l0.708,0.708c1.365,1.364,3.157,2.047,4.95,2.047
		c1.771,0,3.542-0.666,4.901-1.998c0.823-0.63,1.638-1.27,2.451-1.911c1.335,1.227,3.03,1.848,4.73,1.848
		c1.77,0,3.539-0.665,4.897-1.995c11.313-8.492,21.388-18.508,29.948-29.771l0.56-0.736c1.286-1.312,1.993-3.049,1.993-4.899
		c0-1.78-0.661-3.45-1.855-4.742l1.917-2.434C58.533,11.293,59.243,9.554,59.243,7.7z M8.843,36.418
		c0.759-0.759,1.711-1.3,2.75-1.563c1.183-0.299,2.104-1.219,2.404-2.403c0.263-1.039,0.804-1.99,1.564-2.75
		c0.759-0.76,1.71-1.301,2.75-1.563c1.183-0.3,2.104-1.222,2.402-2.403c0.264-1.04,0.805-1.991,1.564-2.751
		c0.761-0.76,1.712-1.301,2.751-1.563c1.183-0.3,2.103-1.221,2.403-2.403c0.263-1.04,0.804-1.991,1.564-2.751
		c0.76-0.76,1.711-1.301,2.751-1.563c1.183-0.301,2.104-1.221,2.402-2.402c0.264-1.04,0.805-1.991,1.564-2.752
		c1.15-1.149,2.69-1.749,4.245-1.749c0.606,0,1.215,0.093,1.803,0.279c-0.321,0.394-0.636,0.794-0.96,1.186
		c-0.598,0.723-1.201,1.442-1.808,2.158c-0.893,1.055-1.798,2.099-2.71,3.138c-0.622,0.709-1.241,1.42-1.872,2.121
		c-0.996,1.108-2.011,2.2-3.028,3.29c-0.553,0.592-1.095,1.194-1.655,1.781c-1.477,1.55-2.977,3.076-4.495,4.585
		c-0.736,0.731-1.488,1.447-2.234,2.169c-0.884,0.856-1.769,1.711-2.667,2.553c-0.814,0.764-1.637,1.519-2.462,2.271
		c-0.862,0.786-1.73,1.566-2.604,2.34c-0.84,0.744-1.682,1.487-2.533,2.219c-0.915,0.787-1.842,1.561-2.769,2.334
		c-0.821,0.685-1.637,1.378-2.467,2.052c-0.05,0.041-0.102,0.08-0.152,0.12C6.723,40.314,7.269,37.992,8.843,36.418z M53.725,23.317
		c-0.032,0.032-0.062,0.066-0.089,0.103l-0.599,0.788c-8.461,11.134-18.424,21.033-29.61,29.423
		c-0.038,0.028-0.074,0.06-0.107,0.093c-1.949,1.949-5.122,1.949-7.071,0l-0.697-0.697l-1.425-1.426
		c-0.236-0.235-0.447-0.496-0.631-0.773c-0.159-0.24-0.291-0.497-0.405-0.76c-0.035-0.082-0.063-0.166-0.094-0.249
		c-0.074-0.199-0.136-0.402-0.184-0.61c-0.02-0.087-0.042-0.173-0.057-0.26c-0.051-0.289-0.086-0.582-0.086-0.882
		c0-1.317,0.5-2.553,1.41-3.487c0.708-0.532,1.436-1.091,2.19-1.683c1.161-0.906,2.311-1.83,3.448-2.772
		c0.507-0.42,1.024-0.855,1.555-1.308c2.379-2.024,4.699-4.128,6.958-6.303c0.103-0.099,0.206-0.194,0.309-0.294
		c0.042-0.04,0.083-0.082,0.124-0.122c1.249-1.212,2.479-2.447,3.688-3.702c0.321-0.332,0.652-0.671,0.958-0.994
		c0.21-0.222,0.419-0.444,0.627-0.667c0.022-0.023,0.044-0.045,0.065-0.069v0.836c0,1.93,1.57,3.5,3.5,3.5s3.5-1.57,3.5-3.5v-0.758
		c0.476,0.17,0.981,0.258,1.5,0.258c2.481,0,4.5-2.019,4.5-4.5v-9.69c0.129-0.028,0.26-0.044,0.39-0.062
		c0.061-0.009,0.122-0.022,0.183-0.029c1.333-0.133,2.692,0.275,3.776,1.186c0.072,0.052,0.152,0.119,0.252,0.219l1.69,1.69
		c0,0,0.001,0,0.001,0.001l0.43,0.43c0.939,0.94,1.457,2.195,1.457,3.536C55.182,21.122,54.665,22.378,53.725,23.317z
		 M55.786,11.236c-0.028,0.028-0.055,0.059-0.08,0.09l-1.789,2.283l-0.898-0.898l0,0l-0.002-0.002
		c-0.198-0.197-0.358-0.327-0.438-0.381c-0.009-0.007-0.019-0.013-0.028-0.021c-0.213-0.177-0.433-0.338-0.663-0.487
		c-0.04-0.026-0.079-0.051-0.12-0.076c-0.215-0.132-0.435-0.253-0.662-0.361c-0.066-0.031-0.132-0.06-0.199-0.089
		c-0.209-0.091-0.42-0.175-0.636-0.245c-0.095-0.031-0.191-0.056-0.288-0.083c-0.196-0.054-0.392-0.106-0.593-0.143
		c-0.125-0.024-0.252-0.038-0.379-0.054c-0.178-0.023-0.356-0.048-0.536-0.058c-0.157-0.009-0.314-0.003-0.472-0.002
		c-0.155,0.002-0.309-0.002-0.465,0.01c-0.197,0.015-0.392,0.049-0.587,0.081c-0.119,0.019-0.238,0.029-0.357,0.055
		c-0.315,0.068-0.628,0.156-0.936,0.268c-0.394,0.145-0.656,0.52-0.656,0.939v10.438c0,1.379-1.122,2.5-2.5,2.5
		c-0.672,0-1.305-0.271-1.784-0.761c-0.285-0.292-0.716-0.382-1.093-0.228c-0.377,0.153-0.623,0.52-0.623,0.926v2.563
		c0,0.827-0.673,1.5-1.5,1.5s-1.5-0.673-1.5-1.5v-3.403c0-0.414-0.255-0.785-0.641-0.934c-0.385-0.146-0.824-0.044-1.101,0.264
		c-0.794,0.879-1.599,1.749-2.413,2.609c-0.151,0.159-0.318,0.329-0.473,0.49c-0.486,0.509-0.977,1.012-1.47,1.514
		c-0.473,0.48-0.954,0.965-1.47,1.476c-0.442,0.438-0.884,0.875-1.331,1.308c-0.465,0.449-0.93,0.889-1.395,1.328
		c-0.282,0.266-0.565,0.531-0.848,0.794c-0.467,0.434-0.934,0.867-1.396,1.284c-0.414,0.375-0.833,0.745-1.251,1.116
		c-0.577,0.511-1.132,0.995-1.672,1.462c-0.547,0.47-1.095,0.938-1.648,1.4c-0.23,0.192-0.461,0.385-0.687,0.572
		c-0.247,0.204-0.498,0.401-0.746,0.604c-0.788,0.641-1.539,1.241-2.263,1.811c-0.788,0.616-1.578,1.23-2.377,1.829
		c-0.038,0.028-0.074,0.06-0.107,0.093c-1.317,1.316-2.043,3.074-2.043,4.949c0,0.31,0.027,0.615,0.066,0.918
		c0.009,0.071,0.02,0.142,0.031,0.212c0.098,0.611,0.275,1.201,0.527,1.758c0.024,0.052,0.048,0.104,0.073,0.155
		c0.132,0.274,0.277,0.542,0.445,0.798c0.003,0.004,0.004,0.009,0.007,0.012c0.001,0.001,0.002,0.002,0.003,0.004
		c0.113,0.171,0.236,0.335,0.364,0.496c0.019,0.024,0.036,0.051,0.056,0.075c0.148,0.18,0.304,0.354,0.471,0.521l0.909,0.909
		c-0.758,0.596-1.518,1.187-2.285,1.771c-0.035,0.027-0.068,0.057-0.1,0.088c-1.95,1.949-5.122,1.949-7.071,0l-0.708-0.708
		c-0.939-0.939-1.457-2.195-1.457-3.535c0-1.319,0.501-2.556,1.413-3.49c1.083-0.829,2.14-1.69,3.208-2.537l0.012,0.023l0.931-0.746
		c0.235-0.188,0.463-0.385,0.697-0.574c0.954-0.77,1.896-1.552,2.837-2.336c0.859-0.716,1.714-1.435,2.563-2.162
		c0.929-0.796,1.853-1.599,2.769-2.409c0.842-0.745,1.677-1.499,2.508-2.255c0.897-0.815,1.793-1.63,2.677-2.459
		c0.852-0.799,1.691-1.613,2.531-2.424c0.837-0.808,1.68-1.609,2.506-2.43c1.083-1.077,2.145-2.175,3.207-3.272
		c1.059-1.094,2.107-2.197,3.144-3.311c1.036-1.111,2.071-2.222,3.085-3.353c0.672-0.749,1.327-1.512,1.989-2.27
		c0.893-1.021,1.784-2.043,2.658-3.079c0.671-0.795,1.332-1.599,1.993-2.403c0.476-0.578,0.964-1.147,1.435-1.73l0.741-0.919
		l-0.021-0.012c0.451-0.564,0.918-1.115,1.364-1.684l1.797-2.292C48.983,2.503,50.222,2,51.543,2c1.34,0,2.596,0.519,3.536,1.458
		l0.707,0.707c0.939,0.939,1.457,2.195,1.457,3.535C57.243,9.041,56.725,10.296,55.786,11.236z"/>
	<path d="M42.243,14.35l-1,1.166c-0.359,0.42-0.311,1.051,0.108,1.41c0.188,0.162,0.42,0.241,0.65,0.241
		c0.282,0,0.562-0.118,0.76-0.349l1-1.166c0.359-0.42,0.311-1.051-0.108-1.41C43.235,13.883,42.603,13.932,42.243,14.35z"/>
	<path d="M39.201,17.9l-2.958,3.45c-0.359,0.419-0.311,1.05,0.108,1.409c0.188,0.162,0.42,0.241,0.65,0.241
		c0.282,0,0.562-0.118,0.76-0.35l2.958-3.45c0.359-0.419,0.311-1.05-0.108-1.409C40.192,17.432,39.561,17.479,39.201,17.9z"/>
</g>
<g>
</g>
<g>
</g>
<g>
</g>
<g>
</g>
<g>
</g>
<g>
</g>
<g>
</g>
<g>
</g>
<g>
</g>
<g>
</g>
<g>
</g>
<g>
</g>
<g>
</g>
<g>
</g>
<g>
</g>
</svg>
