<?xml version="1.0" encoding="iso-8859-1"?>
<!-- Generator: Adobe Illustrator 18.0.0, SVG Export Plug-In . SVG Version: 6.00 Build 0)  -->
<!DOCTYPE svg PUBLIC "-//W3C//DTD SVG 1.1//EN" "http://www.w3.org/Graphics/SVG/1.1/DTD/svg11.dtd">
<svg version="1.1" id="Capa_1" xmlns="http://www.w3.org/2000/svg" xmlns:xlink="http://www.w3.org/1999/xlink" x="0px" y="0px"
	 viewBox="0 0 58.007 58.007" style="enable-background:new 0 0 58.007 58.007;" xml:space="preserve">
<path d="M42.524,24.223c-1.99,0.348-3.989-0.77-4.748-2.647c-0.821-2.035,0.027-4.36,1.972-5.409l2.059-1.11l-2.226-0.721
	c-0.934-0.303-1.674-0.983-2.031-1.867c-0.326-0.809-0.318-1.696,0.023-2.499c0.341-0.803,0.974-1.424,1.783-1.751
	c0.372-0.149,0.775-0.228,1.199-0.229l1.837-0.011l-1.005-1.536C38.75,2.408,34.325,0,29.551,0h-1.095
	c-7.798,0-14.143,6.345-14.143,14.143v28.933c0,2.716,2.209,4.925,4.925,4.925h6.05v7.007c0,1.654,1.346,3,3,3h1
	c1.654,0,3-1.346,3-3V48h6.481c2.715,0,4.925-2.209,4.925-4.925V24.021L42.524,24.223z M30.288,55.007c0,0.552-0.449,1-1,1h-1
	c-0.551,0-1-0.448-1-1v-7h3V55.007z M28.456,2h1.095c3.582,0,6.936,1.581,9.238,4.295c-0.061,0.021-0.12,0.045-0.18,0.068
	c-1.304,0.526-2.325,1.528-2.875,2.823c-0.55,1.294-0.563,2.726-0.037,4.029c0.357,0.887,0.949,1.646,1.703,2.211
	c-1.816,1.749-2.459,4.464-1.478,6.896c0.959,2.376,3.276,3.915,5.772,3.96V38.98H16.313V14.143C16.313,7.447,21.76,2,28.456,2z
	 M38.769,46H19.238c-1.613,0-2.925-1.313-2.925-2.925V40.98h25.381v2.095C41.694,44.688,40.382,46,38.769,46z"/>
<g>
</g>
<g>
</g>
<g>
</g>
<g>
</g>
<g>
</g>
<g>
</g>
<g>
</g>
<g>
</g>
<g>
</g>
<g>
</g>
<g>
</g>
<g>
</g>
<g>
</g>
<g>
</g>
<g>
</g>
</svg>
