<?xml version="1.0" encoding="iso-8859-1"?>
<!-- Generator: Adobe Illustrator 19.0.0, SVG Export Plug-In . SVG Version: 6.00 Build 0)  -->
<svg version="1.1" id="Capa_1" xmlns="http://www.w3.org/2000/svg" xmlns:xlink="http://www.w3.org/1999/xlink" x="0px" y="0px"
	 viewBox="0 0 55.471 55.471" style="enable-background:new 0 0 55.471 55.471;" xml:space="preserve">
<g>
	<path d="M24.951,4.745c-0.462-0.305-1.081-0.179-1.386,0.282l-1.821,2.754c-0.305,0.461-0.178,1.081,0.282,1.386
		c0.17,0.112,0.361,0.166,0.551,0.166c0.324,0,0.643-0.157,0.835-0.448l1.821-2.754C25.538,5.67,25.411,5.05,24.951,4.745z
		 M34.391,10.497c-0.391-0.391-1.023-0.391-1.414,0c-0.391,0.391-0.391,1.023,0,1.414l2.795,2.796
		C35.967,14.902,36.224,15,36.479,15c0.256,0,0.512-0.098,0.707-0.293c0.391-0.391,0.391-1.023,0-1.414L34.391,10.497z
		 M28.774,12.058l-2.762,0.898c-0.525,0.171-0.812,0.735-0.642,1.261c0.138,0.422,0.53,0.69,0.951,0.69
		c0.103,0,0.207-0.016,0.31-0.049l2.762-0.898c0.525-0.171,0.812-0.735,0.642-1.261C29.864,12.175,29.302,11.89,28.774,12.058z
		 M23.064,11.135l-1.855-0.94c-0.494-0.253-1.095-0.053-1.344,0.439c-0.25,0.493-0.053,1.095,0.44,1.344l1.855,0.94
		c0.145,0.074,0.299,0.108,0.451,0.108c0.365,0,0.717-0.2,0.893-0.548C23.753,11.985,23.556,11.384,23.064,11.135z M29.917,6.093
		c-0.25-0.492-0.851-0.692-1.344-0.439c-0.493,0.249-0.689,0.851-0.44,1.344l0.94,1.855C29.249,9.2,29.601,9.4,29.966,9.4
		c0.152,0,0.306-0.034,0.451-0.108c0.493-0.249,0.689-0.851,0.44-1.344L29.917,6.093z"/>
	<path d="M41.357,6.29C39.317,3.42,35.297,0,27.736,0C14.024,0,11.022,11.528,11.022,15.97c0,3.645,1.82,6.5,4.143,6.5
		c0.333,0,0.787-0.042,1.27-0.179l10.887,32.497c0.136,0.408,0.518,0.683,0.948,0.683s0.812-0.274,0.948-0.683l10.83-32.326
		c0.091,0.005,0.18,0.009,0.259,0.009c2.323,0,4.143-2.855,4.143-6.5C44.45,13.392,43.638,9.495,41.357,6.29z M38.126,21.9
		L28.27,51.319l-2.477-7.392l0.714-0.714l-1.414-1.414l-0.009,0.009l-1.435-4.282l0.03,0.03l1.414-1.414l-1.414-1.414l-0.725,0.725
		l-2.839-8.474l0.736-0.736l-1.414-1.414l-0.031,0.031l-1.227-3.661c0.043-0.049,0.089-0.089,0.13-0.141
		c0.168,0.214,0.352,0.386,0.541,0.542c0.042,0.036,0.086,0.07,0.13,0.104c0.189,0.14,0.382,0.261,0.579,0.356
		c0.072,0.035,0.148,0.063,0.224,0.094c0.212,0.086,0.423,0.154,0.625,0.2c0.061,0.014,0.123,0.024,0.186,0.035
		c0.324,0.059,0.622,0.082,0.858,0.082c0.235,0,0.532-0.022,0.854-0.081c0.065-0.011,0.13-0.023,0.194-0.037
		c0.198-0.045,0.402-0.112,0.609-0.195c0.082-0.033,0.165-0.064,0.243-0.102c0.19-0.092,0.376-0.208,0.559-0.343
		c0.052-0.039,0.102-0.079,0.152-0.121c0.186-0.153,0.367-0.323,0.531-0.534c0.165,0.21,0.345,0.38,0.531,0.534
		c0.049,0.042,0.1,0.082,0.152,0.121c0.183,0.135,0.37,0.251,0.559,0.343c0.078,0.038,0.161,0.069,0.243,0.102
		c0.207,0.083,0.412,0.15,0.61,0.195c0.064,0.014,0.129,0.025,0.194,0.037c0.207,0.038,0.403,0.062,0.579,0.072l-0.954,0.953
		l1.414,1.414l1.414-1.414l-0.986-0.986c0.078-0.01,0.159-0.025,0.241-0.04c0.065-0.011,0.13-0.023,0.194-0.037
		c0.198-0.045,0.403-0.112,0.61-0.195c0.082-0.033,0.164-0.064,0.242-0.102c0.19-0.092,0.378-0.209,0.561-0.345
		c0.05-0.038,0.1-0.077,0.148-0.118c0.187-0.154,0.368-0.324,0.533-0.535c0.166,0.212,0.348,0.383,0.536,0.537
		c0.046,0.039,0.094,0.077,0.142,0.113c0.186,0.137,0.375,0.256,0.568,0.348c0.076,0.037,0.156,0.067,0.235,0.099
		c0.209,0.084,0.416,0.151,0.616,0.197c0.062,0.014,0.126,0.025,0.19,0.036c0.323,0.059,0.621,0.081,0.856,0.081
		s0.533-0.023,0.856-0.081c0.065-0.011,0.13-0.022,0.193-0.036c0.198-0.045,0.404-0.113,0.612-0.196
		c0.081-0.033,0.163-0.063,0.24-0.101c0.191-0.092,0.378-0.21,0.562-0.345c0.051-0.038,0.101-0.078,0.149-0.119
		c0.186-0.154,0.367-0.323,0.531-0.534c0.282,0.36,0.605,0.622,0.937,0.825C38.11,21.888,38.118,21.895,38.126,21.9z M40.307,20.47
		c-0.157,0-0.366-0.001-0.591-0.045c-0.037-0.015-0.066-0.041-0.106-0.051c-0.444-0.116-1.064-0.416-1.321-1.678
		c-0.005-0.025-0.02-0.045-0.027-0.069c-0.06-0.327-0.098-0.704-0.098-1.158c0-0.553-0.448-1-1-1c-0.552,0-1,0.447-1,1
		c0,0.453-0.038,0.831-0.098,1.158c-0.007,0.024-0.022,0.044-0.027,0.069c-0.253,1.243-0.856,1.773-2.018,1.773
		s-1.765-0.53-2.018-1.773c-0.005-0.025-0.02-0.045-0.027-0.069c-0.06-0.327-0.098-0.704-0.098-1.158c0-0.553-0.448-1-1-1
		s-1,0.447-1,1c0,0.453-0.038,0.831-0.098,1.158c-0.007,0.024-0.022,0.044-0.027,0.069c-0.252,1.243-0.856,1.773-2.018,1.773
		c-1.162,0-1.766-0.53-2.018-1.773c-0.005-0.025-0.02-0.045-0.027-0.069c-0.06-0.327-0.098-0.704-0.098-1.158c0-0.553-0.448-1-1-1
		s-1,0.447-1,1c0,0.453-0.038,0.831-0.098,1.158c-0.007,0.024-0.022,0.044-0.027,0.069c-0.252,1.243-0.856,1.773-2.018,1.773
		c-1.14,0-1.739-0.509-2.003-1.702c-0.005-0.022-0.02-0.038-0.027-0.06c-0.07-0.344-0.114-0.747-0.114-1.238c0-0.553-0.448-1-1-1
		s-1,0.447-1,1c0,0.545-0.051,0.989-0.136,1.353c-0.006,0.02-0.022,0.035-0.028,0.056c-0.137,0.548-0.363,0.95-0.673,1.197
		c-0.017,0.014-0.024,0.036-0.04,0.051c-0.445,0.339-0.956,0.343-1.266,0.343c-1.012,0-2.143-1.925-2.143-4.5
		C13.022,12.084,15.665,2,27.736,2C42.283,2,42.45,15.399,42.45,15.97C42.45,18.545,41.319,20.47,40.307,20.47z"/>
	<path d="M34.991,26.243l-1.414-1.414l1.414-1.414l1.414,1.414L34.991,26.243z M30.748,24.828l1.414,1.414l-1.414,1.414
		l-1.414-1.414L30.748,24.828z M33.58,30.485l-1.414-1.414l1.414-1.414l1.414,1.414L33.58,30.485z M23.678,23.413l1.414,1.414
		l-1.414,1.414l-1.414-1.414L23.678,23.413z M27.92,27.659l-1.414,1.414l-1.414-1.414l1.414-1.414L27.92,27.659z M30.75,30.487
		l-1.414,1.414l-1.414-1.414l1.414-1.414L30.75,30.487z M32.165,34.728l-1.414-1.414l1.414-1.414l1.414,1.414L32.165,34.728z
		 M20.849,29.073l1.414-1.414l1.414,1.414l-1.414,1.414L20.849,29.073z M25.091,30.485l1.414,1.414l-1.414,1.414l-1.414-1.414
		L25.091,30.485z M27.922,36.143l-1.414-1.414l1.414-1.414l1.414,1.414L27.922,36.143z M30.749,38.972l-1.414-1.414l1.414-1.414
		l1.414,1.414L30.749,38.972z M26.504,37.556l1.414,1.414l-1.414,1.414L25.09,38.97L26.504,37.556z M29.337,43.214L27.923,41.8
		l1.414-1.414l1.414,1.414L29.337,43.214z M27.923,47.457l-1.414-1.414l1.414-1.414l1.414,1.414L27.923,47.457z"/>
</g>
<g>
</g>
<g>
</g>
<g>
</g>
<g>
</g>
<g>
</g>
<g>
</g>
<g>
</g>
<g>
</g>
<g>
</g>
<g>
</g>
<g>
</g>
<g>
</g>
<g>
</g>
<g>
</g>
<g>
</g>
</svg>
