<?xml version="1.0" encoding="iso-8859-1"?>
<!-- Generator: Adobe Illustrator 18.0.0, SVG Export Plug-In . SVG Version: 6.00 Build 0)  -->
<!DOCTYPE svg PUBLIC "-//W3C//DTD SVG 1.1//EN" "http://www.w3.org/Graphics/SVG/1.1/DTD/svg11.dtd">
<svg version="1.1" id="Capa_1" xmlns="http://www.w3.org/2000/svg" xmlns:xlink="http://www.w3.org/1999/xlink" x="0px" y="0px"
	 viewBox="0 0 58.007 58.007" style="enable-background:new 0 0 58.007 58.007;" xml:space="preserve">
<g>
	<path d="M29.551,0h-1.096c-7.798,0-14.143,6.345-14.143,14.143v28.933c0,2.716,2.209,4.925,4.925,4.925h6.051v7.007
		c0,1.654,1.346,3,3,3h1c1.654,0,3-1.346,3-3V48h6.48c2.716,0,4.925-2.209,4.925-4.925V14.143C43.694,6.345,37.349,0,29.551,0z
		 M30.289,55.007c0,0.552-0.448,1-1,1h-1c-0.552,0-1-0.448-1-1v-7h3V55.007z M41.694,43.075c0,1.612-1.313,2.925-2.925,2.925H19.238
		c-1.612,0-2.925-1.313-2.925-2.925V14.143C16.313,7.447,21.76,2,28.456,2h1.096c6.695,0,12.143,5.447,12.143,12.143V43.075z"/>
	<path d="M37.301,21.308c-0.553,0-1,0.447-1,1v4.933c0,0.96-0.78,1.74-1.74,1.74s-1.74-0.78-1.74-1.74v-4.933c0-0.553-0.447-1-1-1
		s-1,0.447-1,1v4.933c0,2.063,1.678,3.74,3.74,3.74s3.74-1.678,3.74-3.74v-4.933C38.301,21.755,37.854,21.308,37.301,21.308z"/>
	<path d="M27.783,35.058c-0.553,0-1,0.447-1,1v2.74c0,0.96-0.781,1.74-1.741,1.74s-1.74-0.78-1.74-1.74v-2.74c0-0.553-0.447-1-1-1
		s-1,0.447-1,1v2.74c0,2.063,1.678,3.74,3.74,3.74s3.741-1.678,3.741-3.74v-2.74C28.783,35.505,28.335,35.058,27.783,35.058z"/>
	<path d="M24.619,19.98c2.063,0,3.74-1.678,3.74-3.74V13.5c0-0.553-0.447-1-1-1s-1,0.447-1,1v2.74c0,0.96-0.78,1.74-1.74,1.74
		s-1.74-0.78-1.74-1.74V13.5c0-0.553-0.447-1-1-1s-1,0.447-1,1v2.74C20.878,18.303,22.556,19.98,24.619,19.98z"/>
</g>
<g>
</g>
<g>
</g>
<g>
</g>
<g>
</g>
<g>
</g>
<g>
</g>
<g>
</g>
<g>
</g>
<g>
</g>
<g>
</g>
<g>
</g>
<g>
</g>
<g>
</g>
<g>
</g>
<g>
</g>
</svg>
