<?xml version="1.0" encoding="iso-8859-1"?>
<!-- Generator: Adobe Illustrator 18.0.0, SVG Export Plug-In . SVG Version: 6.00 Build 0)  -->
<!DOCTYPE svg PUBLIC "-//W3C//DTD SVG 1.1//EN" "http://www.w3.org/Graphics/SVG/1.1/DTD/svg11.dtd">
<svg version="1.1" id="Capa_1" xmlns="http://www.w3.org/2000/svg" xmlns:xlink="http://www.w3.org/1999/xlink" x="0px" y="0px"
	 viewBox="0 0 58.007 58.007" style="enable-background:new 0 0 58.007 58.007;" xml:space="preserve">
<path d="M29.543,0h-1.08c-7.697,0-13.96,6.345-13.96,14.143v28.933c0,2.716,2.185,4.925,4.87,4.925h6.105v7.007c0,1.654,1.346,3,3,3
	h1c1.654,0,3-1.346,3-3V48h6.154c2.686,0,4.87-2.209,4.87-4.925V14.143C43.503,6.345,37.241,0,29.543,0z M30.479,55.007
	c0,0.552-0.448,1-1,1h-1c-0.552,0-1-0.448-1-1v-7h3V55.007z M41.503,15.566l-25,25v-9.672L39.676,7.722
	c1.151,1.865,1.828,4.062,1.828,6.421V15.566z M38.475,6.095L16.503,28.066v-9.672L32.506,2.393
	C34.85,3.002,36.915,4.312,38.475,6.095z M28.463,2h1.08c0.169,0,0.334,0.019,0.501,0.026L16.503,15.567v-1.424
	C16.503,7.447,21.869,2,28.463,2z M16.532,43.366l24.971-24.971v9.229L23.155,45.973c-0.008,0.008-0.01,0.019-0.018,0.027h-3.763
	C17.888,46,16.678,44.84,16.532,43.366z M38.633,46H25.956l15.548-15.548v12.623C41.503,44.688,40.216,46,38.633,46z"/>
<g>
</g>
<g>
</g>
<g>
</g>
<g>
</g>
<g>
</g>
<g>
</g>
<g>
</g>
<g>
</g>
<g>
</g>
<g>
</g>
<g>
</g>
<g>
</g>
<g>
</g>
<g>
</g>
<g>
</g>
</svg>
