<?xml version="1.0" encoding="iso-8859-1"?>
<!-- Generator: Adobe Illustrator 18.0.0, SVG Export Plug-In . SVG Version: 6.00 Build 0)  -->
<!DOCTYPE svg PUBLIC "-//W3C//DTD SVG 1.1//EN" "http://www.w3.org/Graphics/SVG/1.1/DTD/svg11.dtd">
<svg version="1.1" id="Capa_1" xmlns="http://www.w3.org/2000/svg" xmlns:xlink="http://www.w3.org/1999/xlink" x="0px" y="0px"
	 viewBox="0 0 58.541 58.541" style="enable-background:new 0 0 58.541 58.541;" xml:space="preserve">
<g>
	<path d="M42.291,27.835c0.276-1.034,0.136-2.112-0.396-3.034c-0.331-0.573-0.8-1.029-1.347-1.371
		c1.628-1.189,2.147-3.431,1.117-5.215c-0.32-0.554-0.769-0.998-1.292-1.336c0.827-0.537,1.429-1.342,1.688-2.306
		c0.276-1.034,0.136-2.112-0.396-3.034c-0.324-0.561-0.772-0.999-1.28-1.332c1.758-1.154,2.343-3.489,1.28-5.332
		c-1.104-1.911-3.556-2.566-5.409-1.493l-1.583,0.788c0.034-0.795-0.167-1.581-0.594-2.269c-1.164-1.873-3.635-2.448-5.426-1.333
		L18.08,5.812c-1.872,1.164-2.449,3.635-1.286,5.508c0.303,0.487,0.704,0.887,1.168,1.198c-0.839,0.537-1.45,1.349-1.712,2.323
		c-0.276,1.034-0.136,2.112,0.396,3.034c0.318,0.55,0.763,0.992,1.281,1.33c-0.822,0.538-1.42,1.339-1.678,2.3
		c-0.276,1.034-0.136,2.112,0.396,3.034c0.32,0.554,0.769,0.998,1.292,1.336c-0.827,0.538-1.429,1.342-1.688,2.306
		c-0.276,1.034-0.136,2.112,0.396,3.034c0.321,0.556,0.772,1.001,1.298,1.34c-0.756,0.537-1.31,1.3-1.555,2.211
		c-0.276,1.034-0.136,2.112,0.396,3.034c0.532,0.923,1.396,1.584,2.43,1.86c0.351,0.095,0.707,0.141,1.058,0.141
		c0.684,0,1.349-0.174,1.92-0.506l1.464-0.725c-0.043,0.81,0.154,1.611,0.588,2.312c0.008,0.012,0.017,0.022,0.024,0.034v14.624
		c0,1.654,1.346,3,3,3h4c1.107,0,2.065-0.61,2.585-1.504c0.189-0.13,0.337-0.32,0.401-0.558c0.051-0.188,0.027-0.372-0.026-0.546
		c0.017-0.13,0.04-0.258,0.04-0.392V49.7c0.004-0.035,0.021-0.066,0.021-0.102s-0.017-0.067-0.021-0.102V44.7
		c0.004-0.035,0.021-0.066,0.021-0.102s-0.017-0.067-0.021-0.102v-4.562l5.974-2.963c1.873-1.165,2.45-3.637,1.286-5.51
		c-0.301-0.484-0.69-0.877-1.131-1.181l0.031-0.015C41.354,29.732,42.014,28.87,42.291,27.835z M20.701,31.123
		c-0.872,0.271-1.847-0.084-2.322-0.907c-0.552-0.955-0.224-2.18,0.677-2.702l2.5-1.244c0.172-0.068,0.341-0.145,0.5-0.237
		l15.286-7.607c0.269-0.129,0.554-0.208,0.849-0.208c0.176,0,0.352,0.023,0.526,0.07c0.518,0.139,0.949,0.468,1.215,0.928
		c0.552,0.955,0.224,2.181-0.677,2.703l-6.96,3.463L20.701,31.123z M19.594,24.467c-0.518-0.139-0.949-0.468-1.215-0.928
		c-0.552-0.955-0.224-2.181,0.677-2.703l2.416-1.202c0.202-0.074,0.399-0.158,0.584-0.265l15.441-7.684
		c0.229-0.087,0.464-0.145,0.7-0.145c0.692,0,1.365,0.358,1.735,0.999c0.266,0.46,0.336,0.998,0.196,1.517
		c-0.139,0.519-0.468,0.95-0.873,1.186l-2.76,1.374c-0.079,0.038-0.164,0.064-0.24,0.108l-15.4,7.664
		C20.457,24.547,20.02,24.581,19.594,24.467z M37.201,5.143c0.314-0.182,0.657-0.268,0.996-0.268c0.692,0,1.365,0.358,1.735,0.999
		c0.552,0.955,0.224,2.181-0.677,2.703l-2.489,1.238c-0.173,0.068-0.347,0.134-0.511,0.229l-15.537,7.731
		c-0.361,0.115-0.748,0.127-1.125,0.027c-0.518-0.139-0.949-0.468-1.215-0.928s-0.336-0.998-0.196-1.517
		c0.139-0.519,0.468-0.95,0.873-1.186l2.231-1.11c0.333-0.094,0.648-0.231,0.933-0.409l10.572-5.245
		c0.096-0.06,0.177-0.137,0.267-0.204L37.201,5.143z M19.053,7.558l10.573-5.245c0.45-0.282,0.987-0.367,1.509-0.245
		C31.657,2.19,32.1,2.505,32.38,2.955c0.28,0.451,0.367,0.987,0.245,1.51c-0.094,0.403-0.304,0.755-0.563,1.003l-11.411,5.679
		c-0.297,0.07-0.607,0.078-0.913,0.007c-0.522-0.122-0.965-0.438-1.245-0.889C17.911,9.329,18.2,8.093,19.053,7.558z M27.665,42.783
		c0.058,0,0.116-0.009,0.175-0.012c0.693-0.001,1.386-0.176,1.999-0.556c0.103-0.039,0.204-0.082,0.316-0.144l2.115-1.066v2.687
		c-2.014,0.352-3.479,1.718-3.479,3.406s1.465,3.054,3.479,3.406v4.267c-1.477-0.688-2.981-1.811-2.807-2.56
		c0.516-2.21-2.009-3.931-3.193-4.604v-5.079C26.719,42.693,27.191,42.783,27.665,42.783z M32.271,48.461
		c-0.905-0.257-1.479-0.832-1.479-1.363s0.574-1.106,1.479-1.363V48.461z M27.271,56.541c-0.552,0-1-0.448-1-1v-5.546
		c0.766,0.584,1.362,1.264,1.246,1.762c-0.515,2.212,1.944,3.885,3.82,4.771c-0.023,0.002-0.043,0.013-0.066,0.013H27.271z
		 M38.122,31.575c0.154,0,0.31,0.019,0.464,0.055c0.522,0.122,0.965,0.438,1.245,0.889c0.582,0.937,0.294,2.172-0.56,2.707
		l-10.572,5.244c-0.313,0.195-0.659,0.284-1.004,0.292c-0.623-0.036-1.224-0.357-1.58-0.92l-0.423-0.667
		c-0.057-0.279-0.059-0.569,0.008-0.857c0.106-0.455,0.362-0.84,0.668-1.089l11.286-5.589
		C37.808,31.602,37.964,31.575,38.122,31.575z M40.359,27.318c-0.139,0.518-0.468,0.949-0.871,1.185l-2.508,1.242
		c-0.302,0.093-0.598,0.212-0.875,0.385l-10.572,5.244c-0.053,0.033-0.095,0.077-0.146,0.112l-4.137,2.048
		c-0.462,0.266-1.002,0.334-1.517,0.196c-0.519-0.139-0.949-0.469-1.215-0.928v-0.001c-0.266-0.46-0.336-0.998-0.196-1.517
		c0.139-0.518,0.468-0.949,0.871-1.185l2.259-1.119c0.209-0.075,0.412-0.161,0.603-0.272l11.182-5.564l4.193-2.076
		c0.305-0.177,0.645-0.267,0.99-0.267c0.175,0,0.352,0.023,0.526,0.07c0.518,0.139,0.949,0.469,1.215,0.929
		S40.498,26.799,40.359,27.318z"/>
	<path d="M22.666,13.526l-2,1c-0.494,0.247-0.694,0.848-0.447,1.342c0.176,0.351,0.528,0.553,0.896,0.553
		c0.15,0,0.303-0.034,0.446-0.105l2-1c0.494-0.247,0.694-0.848,0.447-1.342C23.76,13.479,23.16,13.28,22.666,13.526z"/>
	<path d="M37.666,19.526l-2,1c-0.494,0.247-0.694,0.848-0.447,1.342c0.176,0.351,0.528,0.553,0.896,0.553
		c0.15,0,0.303-0.034,0.446-0.105l2-1c0.494-0.247,0.694-0.848,0.447-1.342C38.76,19.479,38.159,19.281,37.666,19.526z"/>
	<path d="M36.114,35.42c0.15,0,0.303-0.034,0.446-0.105l2-1c0.494-0.247,0.694-0.848,0.447-1.342
		c-0.248-0.494-0.849-0.692-1.342-0.447l-2,1c-0.494,0.247-0.694,0.848-0.447,1.342C35.395,35.218,35.747,35.42,36.114,35.42z"/>
	<path d="M28.114,6.42c0.15,0,0.303-0.034,0.446-0.105l2-1c0.494-0.247,0.694-0.848,0.447-1.342
		C30.76,3.479,30.16,3.28,29.666,3.526l-2,1c-0.494,0.247-0.694,0.848-0.447,1.342C27.395,6.218,27.747,6.42,28.114,6.42z"/>
</g>
<g>
</g>
<g>
</g>
<g>
</g>
<g>
</g>
<g>
</g>
<g>
</g>
<g>
</g>
<g>
</g>
<g>
</g>
<g>
</g>
<g>
</g>
<g>
</g>
<g>
</g>
<g>
</g>
<g>
</g>
</svg>
