<?xml version="1.0" encoding="iso-8859-1"?>
<!-- Generator: Adobe Illustrator 18.0.0, SVG Export Plug-In . SVG Version: 6.00 Build 0)  -->
<!DOCTYPE svg PUBLIC "-//W3C//DTD SVG 1.1//EN" "http://www.w3.org/Graphics/SVG/1.1/DTD/svg11.dtd">
<svg version="1.1" id="Capa_1" xmlns="http://www.w3.org/2000/svg" xmlns:xlink="http://www.w3.org/1999/xlink" x="0px" y="0px"
	 viewBox="0 0 56 56" style="enable-background:new 0 0 56 56;" xml:space="preserve">
<path d="M39.734,36.915l-2.024-15.376l-0.254-1.246l-1.198,0.484c-0.111,0.045-0.222,0.094-0.342,0.123
	c-0.869,0.215-1.771,0.081-2.537-0.383c-0.767-0.462-1.308-1.194-1.523-2.063c-0.409-1.648,0.493-3.338,2.098-3.93l2.195-0.812
	l-2.104-1.025c-0.671-0.328-1.156-0.918-1.331-1.62c-0.329-1.329,0.484-2.678,1.808-3.006c0.11-0.026,0.221-0.034,0.367-0.049
	l1.019-0.17l-0.134-1.024C35.262,2.932,31.921,0,28,0c-3.92,0-7.262,2.932-7.774,6.818l-3.959,30.097
	c-0.103,0.779,0.136,1.564,0.654,2.155S18.185,40,18.97,40h4.271v13c0,1.654,1.346,3,3,3h3c1.654,0,3-1.346,3-3V40h4.787
	c0.786,0,1.533-0.339,2.051-0.93S39.837,37.694,39.734,36.915z M30.242,41.331v3.443c-0.701-0.325-1.187-0.971-1.187-1.721
	S29.541,41.656,30.242,41.331z M30.242,46.874v4.148c-1.476-0.361-2.27-0.674-2.347-0.93c0,0-0.009-0.068,0.074-0.234
	c0.708-1.421,0.428-2.384,0.069-2.941c-0.636-0.987-1.879-1.317-2.796-1.426V40h3.379c-0.947,0.724-1.565,1.816-1.565,3.053
	C27.055,44.903,28.417,46.448,30.242,46.874z M29.242,54h-3c-0.551,0-1-0.448-1-1v-5.48c0.498,0.087,0.963,0.244,1.115,0.48
	c0.154,0.24-0.073,0.756-0.178,0.967c-0.434,0.871-0.291,1.555-0.095,1.975c0.601,1.286,2.393,1.715,3.833,2.061
	c0.11,0.026,0.207,0.05,0.309,0.075C30.185,53.591,29.766,54,29.242,54z M37.577,37.752C37.495,37.845,37.316,38,37.029,38h-4.787
	h-9H18.97c-0.287,0-0.466-0.155-0.547-0.248c-0.081-0.093-0.212-0.291-0.174-0.575L22.208,7.08C22.589,4.184,25.079,2,28,2
	c2.616,0,4.886,1.752,5.612,4.25c-2.138,0.766-3.396,3.048-2.838,5.299c0.179,0.721,0.534,1.375,1.026,1.914
	c-1.614,1.268-2.401,3.39-1.885,5.472c0.344,1.388,1.208,2.559,2.432,3.296c1.072,0.646,2.307,0.893,3.531,0.714l1.873,14.232
	C37.789,37.461,37.658,37.659,37.577,37.752z"/>
<g>
</g>
<g>
</g>
<g>
</g>
<g>
</g>
<g>
</g>
<g>
</g>
<g>
</g>
<g>
</g>
<g>
</g>
<g>
</g>
<g>
</g>
<g>
</g>
<g>
</g>
<g>
</g>
<g>
</g>
</svg>
