<?xml version="1.0" encoding="iso-8859-1"?>
<!-- Generator: Adobe Illustrator 18.0.0, SVG Export Plug-In . SVG Version: 6.00 Build 0)  -->
<!DOCTYPE svg PUBLIC "-//W3C//DTD SVG 1.1//EN" "http://www.w3.org/Graphics/SVG/1.1/DTD/svg11.dtd">
<svg version="1.1" id="Capa_1" xmlns="http://www.w3.org/2000/svg" xmlns:xlink="http://www.w3.org/1999/xlink" x="0px" y="0px"
	 viewBox="0 0 60 60" style="enable-background:new 0 0 60 60;" xml:space="preserve">
<path d="M33.626,0h-7.252C20.93,0,16.5,4.43,16.5,9.874V26v13c0,2.757,2.243,5,5,5h3v13c0,1.654,1.346,3,3,3h4
	c1.261,0,2.338-0.784,2.781-1.889c0.081-0.103,0.148-0.217,0.185-0.351c0.042-0.156,0.035-0.31,0.004-0.459
	c0.01-0.1,0.03-0.198,0.03-0.301V44h4c2.757,0,5-2.243,5-5V19V9.874C43.5,4.43,39.07,0,33.626,0z M32.5,47.868
	C31.583,47.614,31,47.035,31,46.5s0.583-1.114,1.5-1.368V47.868z M32.5,49.911v6.151c-1.484-0.687-3.002-1.817-2.826-2.569
	c0.512-2.196-1.98-3.911-3.174-4.593V44h3.825C29.504,44.631,29,45.51,29,46.5C29,48.194,30.475,49.565,32.5,49.911z M27.5,58
	c-0.552,0-1-0.448-1-1v-5.705c0.75,0.58,1.34,1.255,1.227,1.742c-0.542,2.321,2.193,4.051,4.093,4.898
	C31.718,57.97,31.613,58,31.5,58H27.5z M34.5,42h-10h-3c-0.619,0-1.195-0.189-1.673-0.511l0.001-0.002
	c-0.322-0.218-0.597-0.492-0.814-0.814l-0.002,0.001C18.689,40.195,18.5,39.619,18.5,39v-9.002c0.039,0.03,0.084,0.051,0.125,0.079
	c0.081,0.057,0.165,0.106,0.249,0.158c0.171,0.106,0.347,0.203,0.531,0.288c0.096,0.045,0.191,0.087,0.29,0.125
	c0.194,0.076,0.395,0.135,0.6,0.187c0.093,0.023,0.183,0.052,0.278,0.07C20.874,30.963,21.182,31,21.5,31h1c2.757,0,5-2.243,5-5
	v-8.812c0-1.385,0.86-2.594,2.046-3.019c0.067-0.023,0.134-0.045,0.203-0.063c0.096-0.026,0.194-0.045,0.293-0.06
	c0.099-0.015,0.199-0.025,0.301-0.031c0.107-0.006,0.214-0.005,0.319,0c0.101,0.006,0.201,0.015,0.299,0.03
	c0.105,0.016,0.209,0.039,0.311,0.067c0.09,0.024,0.178,0.05,0.264,0.082c0.11,0.041,0.217,0.09,0.322,0.145
	c0.069,0.036,0.139,0.071,0.205,0.111c0.119,0.074,0.232,0.159,0.341,0.25c0.045,0.037,0.093,0.072,0.135,0.112
	c0.12,0.112,0.226,0.235,0.325,0.363c0.024,0.031,0.052,0.059,0.075,0.091c0.108,0.151,0.199,0.312,0.277,0.479
	c0.008,0.016,0.018,0.031,0.026,0.048c0.081,0.182,0.143,0.373,0.186,0.567c0.001,0.006,0.004,0.012,0.006,0.019
	C33.477,16.582,33.5,16.79,33.5,17v2c0,2.757,2.243,5,5,5c0.318,0,0.626-0.037,0.928-0.094c0.095-0.018,0.185-0.047,0.278-0.07
	c0.205-0.051,0.406-0.111,0.6-0.187c0.099-0.039,0.194-0.081,0.29-0.125c0.184-0.085,0.36-0.182,0.531-0.288
	c0.084-0.052,0.169-0.102,0.249-0.158c0.04-0.028,0.085-0.05,0.125-0.079V39c0,0.619-0.189,1.195-0.511,1.673l-0.002-0.001
	c-0.218,0.322-0.492,0.597-0.814,0.814l0.001,0.002C39.695,41.811,39.119,42,38.5,42H34.5z M38.5,22c-1.654,0-3-1.346-3-3v-2
	c0-0.354-0.039-0.699-0.11-1.032c-0.007-0.033-0.022-0.063-0.03-0.095c-0.07-0.303-0.163-0.596-0.286-0.875
	c-0.026-0.059-0.064-0.113-0.093-0.171c-0.119-0.244-0.249-0.481-0.405-0.702c-0.056-0.079-0.125-0.148-0.185-0.225
	c-0.149-0.187-0.303-0.368-0.477-0.532c-0.025-0.023-0.042-0.052-0.067-0.075c-0.063-0.057-0.139-0.096-0.205-0.149
	c-0.169-0.138-0.341-0.27-0.528-0.386c-0.109-0.067-0.222-0.123-0.335-0.182c-0.184-0.095-0.371-0.182-0.567-0.254
	c-0.128-0.047-0.256-0.084-0.387-0.12c-0.189-0.052-0.38-0.095-0.577-0.125c-0.152-0.023-0.304-0.037-0.458-0.046
	C30.692,12.024,30.599,12,30.5,12c-0.09,0-0.174,0.022-0.263,0.027c-0.083,0.004-0.165-0.01-0.248-0.001
	c-0.088,0.009-0.169,0.038-0.255,0.052c-0.16,0.025-0.316,0.056-0.47,0.096c-0.128,0.034-0.253,0.073-0.377,0.117
	c-0.216,0.074-0.422,0.16-0.624,0.262c-0.026,0.014-0.051,0.027-0.076,0.041C26.598,13.432,25.5,15.082,25.5,17v0.188V26
	c0,1.654-1.346,3-3,3h-1c-1.654,0-3-1.346-3-3V9.874C18.5,5.532,22.032,2,26.374,2h7.252C37.968,2,41.5,5.532,41.5,9.874V19
	C41.5,20.654,40.154,22,38.5,22z"/>
<g>
</g>
<g>
</g>
<g>
</g>
<g>
</g>
<g>
</g>
<g>
</g>
<g>
</g>
<g>
</g>
<g>
</g>
<g>
</g>
<g>
</g>
<g>
</g>
<g>
</g>
<g>
</g>
<g>
</g>
</svg>
