<?xml version="1.0" encoding="iso-8859-1"?>
<!-- Generator: Adobe Illustrator 18.0.0, SVG Export Plug-In . SVG Version: 6.00 Build 0)  -->
<!DOCTYPE svg PUBLIC "-//W3C//DTD SVG 1.1//EN" "http://www.w3.org/Graphics/SVG/1.1/DTD/svg11.dtd">
<svg version="1.1" id="Capa_1" xmlns="http://www.w3.org/2000/svg" xmlns:xlink="http://www.w3.org/1999/xlink" x="0px" y="0px"
	 viewBox="0 0 56 56" style="enable-background:new 0 0 56 56;" xml:space="preserve">
<g>
	<path d="M31.216,32.013l-2.121-2.121c-0.391-0.391-1.023-0.391-1.414,0s-0.391,1.023,0,1.414l3.535,3.535l3.536-3.535
		c0.391-0.391,0.391-1.023,0-1.414s-1.023-0.391-1.414,0L31.216,32.013z"/>
	<path d="M29.707,9.272c0.391-0.391,0.391-1.023,0-1.414s-1.023-0.391-1.414,0L26.172,9.98L24.05,7.858
		c-0.391-0.391-1.023-0.391-1.414,0s-0.391,1.023,0,1.414l3.536,3.536L29.707,9.272z"/>
	<path d="M28.535,23.41c-0.391-0.391-1.023-0.391-1.414,0l-3.5,3.5c-0.391,0.391-0.391,1.023,0,1.414
		c0.195,0.195,0.451,0.293,0.707,0.293s0.512-0.098,0.707-0.293l3.5-3.5C28.925,24.434,28.925,23.801,28.535,23.41z"/>
	<path d="M26.853,17.285c-0.124,0.538,0.211,1.075,0.75,1.199l4.823,1.113c0.076,0.018,0.151,0.025,0.226,0.025
		c0.455,0,0.867-0.313,0.974-0.775c0.124-0.538-0.211-1.075-0.75-1.199l-4.823-1.113C27.517,16.411,26.978,16.747,26.853,17.285z"/>
	<path d="M39.734,36.915l-3.96-30.098C35.263,2.931,31.92,0,28,0c-3.92,0-7.263,2.931-7.774,6.817l-3.96,30.098
		c-0.102,0.779,0.136,1.564,0.654,2.155S18.185,40,18.971,40h4.271v13c0,1.654,1.346,3,3,3h3c1.654,0,3-1.346,3-3V40h4.788
		c0.786,0,1.533-0.339,2.051-0.93S39.837,37.694,39.734,36.915z M30.242,41.331v3.443c-0.701-0.325-1.186-0.971-1.186-1.721
		S29.541,41.656,30.242,41.331z M30.242,46.874v4.148c-1.476-0.361-2.269-0.674-2.346-0.929c0-0.001-0.009-0.068,0.074-0.235
		c0.707-1.421,0.427-2.384,0.068-2.941c-0.636-0.987-1.879-1.317-2.796-1.426V40h3.379c-0.947,0.724-1.565,1.816-1.565,3.053
		C27.056,44.903,28.418,46.448,30.242,46.874z M29.242,54h-3c-0.551,0-1-0.448-1-1v-5.481c0.5,0.089,0.966,0.249,1.115,0.48
		c0.155,0.24-0.073,0.757-0.177,0.968c-0.434,0.871-0.291,1.555-0.095,1.975c0.601,1.286,2.393,1.715,3.833,2.061
		c0.11,0.026,0.207,0.05,0.309,0.075C30.185,53.591,29.766,54,29.242,54z M37.577,37.752C37.496,37.845,37.317,38,37.03,38h-4.788
		h-9h-4.271c-0.287,0-0.466-0.155-0.548-0.248c-0.081-0.093-0.212-0.291-0.175-0.575l3.96-30.098C22.59,4.184,25.08,2,28,2
		s5.41,2.184,5.792,5.079l3.959,30.098C37.789,37.461,37.658,37.659,37.577,37.752z"/>
</g>
<g>
</g>
<g>
</g>
<g>
</g>
<g>
</g>
<g>
</g>
<g>
</g>
<g>
</g>
<g>
</g>
<g>
</g>
<g>
</g>
<g>
</g>
<g>
</g>
<g>
</g>
<g>
</g>
<g>
</g>
</svg>
