<?xml version="1.0" encoding="iso-8859-1"?>
<!-- Generator: Adobe Illustrator 18.0.0, SVG Export Plug-In . SVG Version: 6.00 Build 0)  -->
<!DOCTYPE svg PUBLIC "-//W3C//DTD SVG 1.1//EN" "http://www.w3.org/Graphics/SVG/1.1/DTD/svg11.dtd">
<svg version="1.1" id="Capa_1" xmlns="http://www.w3.org/2000/svg" xmlns:xlink="http://www.w3.org/1999/xlink" x="0px" y="0px"
	 viewBox="0 0 60 60" style="enable-background:new 0 0 60 60;" xml:space="preserve">
<g>
	<path d="M35,22.503V19.81c0-0.553-0.447-1-1-1s-1,0.447-1,1v2.693C33,22.772,32.772,23,32.503,23c-0.269,0-0.496-0.228-0.496-0.497
		V19.81c0-0.553-0.447-1-1-1s-1,0.447-1,1v2.693c0,1.377,1.12,2.497,2.496,2.497C33.88,25,35,23.88,35,22.503z"/>
	<path d="M28.801,28.007c-0.553,0-1,0.447-1,1v1.496c0,0.27-0.228,0.497-0.496,0.497c-0.27,0-0.497-0.228-0.497-0.497v-1.496
		c0-0.553-0.447-1-1-1s-1,0.447-1,1v1.496c0,1.377,1.12,2.497,2.497,2.497c1.376,0,2.496-1.12,2.496-2.497v-1.496
		C29.801,28.454,29.354,28.007,28.801,28.007z"/>
	<path d="M34.993,35.007c-0.553,0-1,0.447-1,1v1.496c0,0.27-0.228,0.497-0.496,0.497C33.228,38,33,37.772,33,37.503v-1.496
		c0-0.553-0.447-1-1-1s-1,0.447-1,1v1.496C31,38.88,32.12,40,33.497,40c1.376,0,2.496-1.12,2.496-2.497v-1.496
		C35.993,35.454,35.546,35.007,34.993,35.007z"/>
	<path d="M28.497,14.955c1.376,0,2.496-1.12,2.496-2.497v-1.496c0-0.553-0.447-1-1-1s-1,0.447-1,1v1.496
		c0,0.27-0.228,0.497-0.496,0.497c-0.27,0-0.497-0.228-0.497-0.497v-1.496c0-0.553-0.447-1-1-1s-1,0.447-1,1v1.496
		C26,13.835,27.12,14.955,28.497,14.955z"/>
	<path d="M36,4.931C35.963,2.206,33.734,0,31,0h-2c-2.734,0-4.963,2.206-5,4.931L18.859,44H25v13c0,1.654,1.346,3,3,3h4
		c1.261,0,2.338-0.784,2.781-1.889c0.081-0.103,0.148-0.217,0.185-0.351c0.042-0.156,0.035-0.31,0.004-0.459
		C34.98,57.201,35,57.103,35,57V44h6.141L36,4.931z M33,47.868c-0.917-0.254-1.5-0.833-1.5-1.368s0.583-1.114,1.5-1.368V47.868z
		 M33,49.911v6.151c-1.484-0.687-3.002-1.817-2.826-2.569c0.512-2.196-1.98-3.911-3.174-4.593V44h3.825
		c-0.821,0.631-1.325,1.51-1.325,2.5C29.5,48.194,30.975,49.565,33,49.911z M28,58c-0.552,0-1-0.448-1-1v-5.705
		c0.75,0.58,1.34,1.255,1.227,1.742c-0.542,2.321,2.193,4.051,4.093,4.898C32.218,57.97,32.113,58,32,58H28z M25,42h-3.859
		l4.851-36.869L26,5c0-1.654,1.346-3,3-3h2c1.654,0,3,1.346,3,3l4.859,37H35H25z"/>
</g>
<g>
</g>
<g>
</g>
<g>
</g>
<g>
</g>
<g>
</g>
<g>
</g>
<g>
</g>
<g>
</g>
<g>
</g>
<g>
</g>
<g>
</g>
<g>
</g>
<g>
</g>
<g>
</g>
<g>
</g>
</svg>
