<?xml version="1.0" encoding="iso-8859-1"?>
<!-- Generator: Adobe Illustrator 18.0.0, SVG Export Plug-In . SVG Version: 6.00 Build 0)  -->
<!DOCTYPE svg PUBLIC "-//W3C//DTD SVG 1.1//EN" "http://www.w3.org/Graphics/SVG/1.1/DTD/svg11.dtd">
<svg version="1.1" id="Capa_1" xmlns="http://www.w3.org/2000/svg" xmlns:xlink="http://www.w3.org/1999/xlink" x="0px" y="0px"
	 viewBox="0 0 60 60" style="enable-background:new 0 0 60 60;" xml:space="preserve">
<g>
	<path d="M22,10c0.256,0,0.512-0.098,0.707-0.293l2.122-2.121l2.121,2.121c0.391,0.391,1.023,0.391,1.414,0s0.391-1.023,0-1.414
		l-3.535-3.535l-3.536,3.535c-0.391,0.391-0.391,1.023,0,1.414C21.488,9.902,21.744,10,22,10z"/>
	<path d="M32.636,26.121c-0.391,0.391-0.391,1.023,0,1.414s1.023,0.391,1.414,0l2.121-2.121l2.122,2.121
		c0.195,0.195,0.451,0.293,0.707,0.293s0.512-0.098,0.707-0.293c0.391-0.391,0.391-1.023,0-1.414l-3.536-3.535L32.636,26.121z"/>
	<path d="M37.293,11.293l-3.5,3.5c-0.391,0.391-0.391,1.023,0,1.414c0.195,0.195,0.451,0.293,0.707,0.293s0.512-0.098,0.707-0.293
		l3.5-3.5c0.391-0.391,0.391-1.023,0-1.414S37.684,10.902,37.293,11.293z"/>
	<path d="M28.225,21.139l-4.823-1.113c-0.536-0.124-1.075,0.211-1.2,0.75c-0.124,0.538,0.211,1.075,0.75,1.199l4.823,1.113
		c0.076,0.018,0.151,0.025,0.226,0.025c0.455,0,0.867-0.313,0.974-0.775C29.099,21.8,28.763,21.263,28.225,21.139z"/>
	<path d="M30,0c-7.72,0-14,6.28-14,14v22.487C16,38.976,18.024,41,20.513,41H25v16c0,1.654,1.346,3,3,3h4c1.654,0,3-1.346,3-3V41
		h4.487C41.976,41,44,38.976,44,36.487V14C44,6.28,37.72,0,30,0z M33,47.834c-0.536-0.344-1-1.205-1-2.334s0.464-1.99,1-2.334
		V47.834z M33,41.063c-1.715,0.306-3,2.135-3,4.437s1.285,4.131,3,4.437v5.407c-1.431-0.942-3.062-2.539-2.814-4
		c0.462-2.724-2.112-5.024-3.186-5.852V41h6V41.063z M32,58h-4c-0.551,0-1-0.448-1-1v-8.805c0.737,0.813,1.379,1.845,1.214,2.815
		c-0.516,3.036,2.644,5.515,4.597,6.542C32.631,57.816,32.343,58,32,58z M42,36.487C42,37.873,40.873,39,39.487,39H35H25h-4.487
		C19.127,39,18,37.873,18,36.487V14c0-6.617,5.383-12,12-12s12,5.383,12,12V36.487z"/>
	<path d="M24.5,30c-1.93,0-3.5,1.57-3.5,3.5s1.57,3.5,3.5,3.5s3.5-1.57,3.5-3.5S26.43,30,24.5,30z M24.5,35
		c-0.827,0-1.5-0.673-1.5-1.5s0.673-1.5,1.5-1.5s1.5,0.673,1.5,1.5S25.327,35,24.5,35z"/>
</g>
<g>
</g>
<g>
</g>
<g>
</g>
<g>
</g>
<g>
</g>
<g>
</g>
<g>
</g>
<g>
</g>
<g>
</g>
<g>
</g>
<g>
</g>
<g>
</g>
<g>
</g>
<g>
</g>
<g>
</g>
</svg>
