<?xml version="1.0" encoding="iso-8859-1"?>
<!-- Generator: Adobe Illustrator 18.0.0, SVG Export Plug-In . SVG Version: 6.00 Build 0)  -->
<!DOCTYPE svg PUBLIC "-//W3C//DTD SVG 1.1//EN" "http://www.w3.org/Graphics/SVG/1.1/DTD/svg11.dtd">
<svg version="1.1" id="Capa_1" xmlns="http://www.w3.org/2000/svg" xmlns:xlink="http://www.w3.org/1999/xlink" x="0px" y="0px"
	 viewBox="0 0 56 56" style="enable-background:new 0 0 56 56;" xml:space="preserve">
<g>
	<path d="M33.651,29.278c0.552,0,1-0.447,1-1s-0.448-1-1-1c-2.331,0-4.375,1.232-5.531,3.075c-1.156-1.843-3.2-3.075-5.531-3.075
		c-0.552,0-1,0.447-1,1s0.448,1,1,1c2.329,0,4.231,1.774,4.481,4.038c-3.615,0.295-5.825,2.442-5.825,5.758
		c0,3.498,4.151,7.926,6.685,7.926c0.009,0,0.018,0,0.027,0c1.088,0,2.452-0.731,3.747-2.012c1.418-1.402,2.933-3.692,2.933-5.914
		c0-3.206-2.067-5.317-5.47-5.72C29.399,31.072,31.309,29.278,33.651,29.278z M32.636,39.074c0,1.323-0.918,3.087-2.339,4.492
		C29.299,44.553,28.388,45,27.948,45c-0.002,0-0.005,0-0.007,0c-1.113,0-4.696-3.219-4.696-5.926c0-3.303,2.942-3.796,4.696-3.796
		C29.695,35.278,32.636,35.771,32.636,39.074z"/>
	<path d="M43.286,10.39c-2.225-0.796-3.199-1.251-3.199-2.27V7.934c2.049-0.303,3.326-1.626,3.326-3.541V4.26
		c0-2.349-1.911-4.26-4.26-4.26H16.847c-2.349,0-4.26,1.911-4.26,4.26v0.133c0,1.901,1.259,3.22,3.326,3.534V8.12
		c0,1.019-0.975,1.474-3.199,2.27c-2.861,1.023-6.779,2.425-6.779,7.709v1.749c0,0.332,0.165,0.642,0.439,0.828
		c0.275,0.185,0.623,0.223,0.932,0.101l0.846-0.338v25.267C8.152,51.382,12.77,56,18.447,56h19.106
		c5.677,0,10.295-4.618,10.295-10.295V22.37c0.224-0.058,0.446-0.132,0.656-0.244c0.963-0.516,1.561-1.514,1.561-2.605v-1.422
		C50.065,12.814,46.147,11.413,43.286,10.39z M45.848,45.705c0,4.574-3.721,8.295-8.295,8.295H18.447
		c-4.574,0-8.295-3.721-8.295-8.295V19.638l1.151-0.46c0.436-0.177,0.932-0.009,1.174,0.396l1.354,2.256
		c0.43,0.716,1.146,1.219,1.966,1.38c0.188,0.036,0.378,0.055,0.567,0.055c0.013,0,0.026-0.003,0.039-0.003
		c0.023,0,0.045-0.005,0.067-0.005c0.165-0.006,0.328-0.026,0.489-0.059c0.052-0.01,0.103-0.024,0.154-0.038
		c0.134-0.035,0.265-0.08,0.394-0.134c0.05-0.021,0.1-0.039,0.149-0.063c0.168-0.082,0.332-0.175,0.484-0.289l1.344-1.008
		c0.378-0.282,0.914-0.245,1.248,0.089l0.533,0.533c0.136,0.136,0.286,0.252,0.443,0.358c-0.07,0.063-0.143,0.118-0.213,0.183
		c-1.299,1.222-2.92,1.895-4.566,1.895v0.009c-2.154,0.142-3.863,1.944-3.863,4.14v13.402c0,2.13,1.608,3.891,3.67,4.123v0.026
		c1.683,0,3.327,0.696,4.63,1.96c1.997,1.936,4.345,2.959,6.789,2.959s4.792-1.023,6.79-2.959c1.303-1.264,2.947-1.96,4.63-1.96
		v-0.05c1.976-0.312,3.491-2.031,3.491-4.1V28.871c0-2.135-1.616-3.898-3.685-4.124v-0.024c-1.646,0-3.267-0.673-4.566-1.895
		c-0.686-0.646-1.425-1.174-2.198-1.605l1.893-3.03c0.197-0.315,0.535-0.484,0.905-0.444c0.37,0.037,0.669,0.267,0.799,0.614
		l0.682,1.82c0.385,1.026,1.263,1.732,2.349,1.888c1.086,0.153,2.125-0.274,2.785-1.154l0.072-0.097
		c0.304-0.404,0.873-0.503,1.294-0.222l2.073,1.382c0.121,0.081,0.246,0.15,0.377,0.211V45.705z M41.065,28.871v13.402
		c0,1.186-0.958,2.149-2.135,2.149v0.025c-1.975,0.156-3.864,1.03-5.378,2.499c-1.617,1.566-3.483,2.395-5.397,2.395
		s-3.781-0.828-5.397-2.395c-1.56-1.513-3.518-2.395-5.557-2.511v-0.014c-1.177,0-2.135-0.964-2.135-2.149V28.871
		c0-1.185,0.958-2.148,2.135-2.148v-0.005c2.062-0.069,4.063-0.927,5.664-2.433C24.454,22.79,26.283,22,28.155,22
		c0.013,0,0.026,0,0.039,0.001c0.555,0.457,1.263,0.702,2.002,0.671c0.222-0.009,0.438-0.05,0.648-0.107
		c0.926,0.389,1.799,0.966,2.601,1.721c1.555,1.462,3.487,2.313,5.485,2.425v0.013C40.107,26.723,41.065,27.687,41.065,28.871z
		 M48.065,19.521c0,0.517-0.353,0.761-0.505,0.842c-0.081,0.044-0.236,0.104-0.426,0.112l-0.152-0.021
		c-0.071-0.01-0.132-0.025-0.19-0.043c-0.07-0.025-0.14-0.046-0.213-0.095l-2.073-1.382c-0.163-0.109-0.333-0.199-0.508-0.271
		c-1.223-0.508-2.673-0.142-3.498,0.959l-0.072,0.097c-0.307,0.409-0.733,0.396-0.9,0.373c-0.168-0.024-0.58-0.133-0.759-0.61
		l-0.682-1.82c-0.398-1.061-1.345-1.789-2.473-1.902c-1.122-0.104-2.2,0.414-2.801,1.374l-1.933,3.094
		c-0.081,0.13-0.19,0.23-0.314,0.306l-0.069,0.03c-0.102,0.051-0.213,0.084-0.331,0.096c-0.191,0.02-0.382-0.021-0.549-0.114
		c-0.01-0.005-0.019-0.013-0.029-0.019c-0.077-0.047-0.15-0.102-0.213-0.172l-0.273-0.301l-0.011-0.001
		c-0.56-0.635-1.342-1.008-2.199-1.008c-0.939,0-1.801,0.431-2.364,1.183l-0.409,0.544c-0.169,0.226-0.417,0.36-0.697,0.381
		c-0.28,0.012-0.545-0.079-0.743-0.277l-0.533-0.533c-1.033-1.033-2.693-1.151-3.863-0.274l-1.343,1.008
		c-0.221,0.164-0.488,0.224-0.757,0.173c-0.269-0.053-0.495-0.211-0.636-0.446l-1.354-2.256c-0.123-0.205-0.272-0.381-0.432-0.545
		c-0.042-0.043-0.084-0.083-0.128-0.122c-0.151-0.137-0.312-0.26-0.486-0.362c-0.02-0.012-0.038-0.028-0.059-0.039
		c-0.193-0.107-0.398-0.185-0.609-0.246c-0.056-0.016-0.112-0.028-0.169-0.041c-0.183-0.042-0.369-0.066-0.559-0.072
		c-0.029-0.001-0.057-0.011-0.086-0.011c-0.012,0-0.024,0.003-0.035,0.003c-0.118,0.001-0.236,0.018-0.354,0.034
		c-0.061,0.008-0.122,0.009-0.183,0.021c-0.179,0.035-0.358,0.086-0.533,0.156l-2.625,1.051v-0.272c0-3.875,2.648-4.822,5.453-5.826
		c2.121-0.759,4.525-1.618,4.525-4.152V7c0-0.553-0.514-1-1.066-1c-0.844,0-2.26-0.209-2.26-1.607V4.26
		c0-1.246,1.014-2.26,2.26-2.26h22.306c1.246,0,2.26,1.014,2.26,2.26v0.133C41.413,5.791,39.997,6,39.087,6c-0.552,0-1,0.447-1,1
		v1.12c0,2.534,2.404,3.394,4.525,4.152c2.804,1.004,5.453,1.951,5.453,5.826V19.521z"/>
	<path d="M35.065,6c-1.839,0-2.921,0.003-4.003,0.007c-1.081,0.003-2.161,0.006-3.997,0.006c-0.552,0-1,0.447-1,1s0.448,1,1,1
		c1.839,0,2.921-0.003,4.003-0.007C32.149,8.003,33.229,8,35.065,8c0.552,0,1-0.447,1-1S35.617,6,35.065,6z"/>
	<path d="M23.065,6h-2c-0.552,0-1,0.447-1,1s0.448,1,1,1h2c0.552,0,1-0.447,1-1S23.617,6,23.065,6z"/>
	<path d="M26.775,38.29c-0.38-0.37-1.05-0.37-1.42,0c-0.18,0.189-0.29,0.439-0.29,0.71c0,0.26,0.11,0.52,0.29,0.71
		c0.19,0.18,0.45,0.29,0.71,0.29c0.26,0,0.52-0.11,0.71-0.29c0.18-0.19,0.29-0.45,0.29-0.71
		C27.065,38.729,26.955,38.47,26.775,38.29z"/>
	<path d="M30.065,40c0.26,0,0.52-0.11,0.71-0.29c0.18-0.19,0.29-0.45,0.29-0.71c0-0.271-0.11-0.521-0.29-0.71
		c-0.37-0.37-1.05-0.37-1.41,0c-0.19,0.18-0.3,0.439-0.3,0.71c0,0.26,0.11,0.52,0.29,0.71C29.545,39.89,29.805,40,30.065,40z"/>
	<path d="M27.065,42c0,0.26,0.11,0.52,0.29,0.71c0.19,0.18,0.45,0.29,0.71,0.29c0.26,0,0.52-0.11,0.71-0.29
		c0.18-0.19,0.29-0.45,0.29-0.71s-0.11-0.521-0.29-0.71c-0.37-0.37-1.05-0.37-1.42,0C27.175,41.479,27.065,41.729,27.065,42z"/>
</g>
<g>
</g>
<g>
</g>
<g>
</g>
<g>
</g>
<g>
</g>
<g>
</g>
<g>
</g>
<g>
</g>
<g>
</g>
<g>
</g>
<g>
</g>
<g>
</g>
<g>
</g>
<g>
</g>
<g>
</g>
</svg>
