<?xml version="1.0" encoding="iso-8859-1"?>
<!-- Generator: Adobe Illustrator 18.0.0, SVG Export Plug-In . SVG Version: 6.00 Build 0)  -->
<!DOCTYPE svg PUBLIC "-//W3C//DTD SVG 1.1//EN" "http://www.w3.org/Graphics/SVG/1.1/DTD/svg11.dtd">
<svg version="1.1" id="Capa_1" xmlns="http://www.w3.org/2000/svg" xmlns:xlink="http://www.w3.org/1999/xlink" x="0px" y="0px"
	 viewBox="0 0 48 48" style="enable-background:new 0 0 48 48;" xml:space="preserve">
<g>
	<path d="M37.82,9.377c-1.591-0.569-2.457-0.938-2.727-1.515C36.766,7.407,38,5.875,38,4.06V3.94C38,1.768,36.232,0,34.06,0H13.94
		C11.768,0,10,1.768,10,3.94V4.06c0,1.805,1.219,3.329,2.911,3.795c-0.265,0.581-1.131,0.95-2.73,1.522
		C7.572,10.31,4,11.588,4,16.423V18c0,0.332,0.165,0.642,0.439,0.828c0.275,0.186,0.623,0.224,0.932,0.101L6,18.677v2.671v9.92
		v7.348C6,43.79,10.209,48,15.383,48h9.506h7.727c0.276,0,0.548-0.017,0.818-0.041l0.011-0.001c0.069-0.006,0.139-0.011,0.207-0.019
		l0.516-0.046l0.007-0.034C38.609,47.113,42,43.258,42,38.616v-1.232V26.598v-6.255c0.184-0.053,0.368-0.109,0.541-0.202
		c0.9-0.481,1.459-1.415,1.459-2.437v-1.281C44,11.588,40.428,10.31,37.82,9.377z M8,23.02c1.175,0.022,2.253,0.751,2.676,1.893
		c0.68,1.834,0.263,5.311-0.983,5.773C9.295,30.832,8.68,30.67,8,30.244V23.02z M25.61,46c-0.339-0.298-0.625-0.595-0.833-0.87
		c-1.273-1.679-0.943-4.08,0.735-5.353c0.813-0.617,1.814-0.882,2.829-0.741c1.011,0.139,1.907,0.663,2.524,1.477
		c0.915,1.207,1.692,3.628,1.598,5.487H25.61z M34.451,45.76c0.015-2.314-0.89-5.002-1.993-6.456
		c-0.94-1.238-2.305-2.037-3.845-2.249c-1.539-0.21-3.071,0.189-4.31,1.129c-2.447,1.855-3.006,5.283-1.351,7.816h-7.569
		C11.312,46,8,42.688,8,38.616V32.47c0.468,0.177,0.924,0.272,1.358,0.272c0.358,0,0.702-0.061,1.03-0.182
		c2.82-1.047,3.006-6.067,2.163-8.344c-0.719-1.94-2.557-3.156-4.551-3.18v-3.16l0.977-0.391c0.351-0.138,0.745-0.007,0.939,0.316
		l1.221,2.035c0.402,0.67,1.072,1.14,1.839,1.29c0.175,0.034,0.353,0.051,0.529,0.051c0.008,0,0.017-0.002,0.025-0.002
		c0.041,0,0.081-0.008,0.122-0.01c0.133-0.007,0.265-0.022,0.395-0.049c0.058-0.012,0.115-0.027,0.173-0.042
		c0.117-0.031,0.231-0.071,0.344-0.118c0.051-0.021,0.102-0.04,0.151-0.064c0.156-0.076,0.308-0.163,0.449-0.269l1.212-0.908
		c0.302-0.227,0.731-0.195,0.999,0.072l0.479,0.479c0.142,0.142,0.297,0.266,0.462,0.373c0.496,0.32,1.087,0.475,1.681,0.43
		c0.002,0,0.004,0,0.006,0h0h0c0.032-0.002,0.062-0.013,0.093-0.017c0.762-0.08,1.46-0.465,1.923-1.082l0.368-0.491
		c0.291-0.389,0.886-0.45,1.268,0.062c0.547,0.729,1.423,1.117,2.328,1.103c0.911-0.039,1.743-0.523,2.227-1.297l1.744-2.79
		c0.031-0.049,0.068-0.077,0.102-0.114c0.029-0.031,0.056-0.073,0.086-0.096c0.001,0,0.001,0,0.002-0.001
		c0.134-0.101,0.279-0.135,0.392-0.144c0.056-0.004,0.105-0.003,0.141,0c0.142,0.015,0.489,0.091,0.64,0.493l0.41,1.093l0.205,0.548
		c0.078,0.207,0.187,0.394,0.308,0.572c0.017,0.026,0.026,0.057,0.044,0.082c0.031,0.042,0.075,0.073,0.108,0.114
		c0.432,0.528,1.039,0.898,1.735,0.997c0.001,0,0.002,0,0.003,0c1.002,0.152,1.995-0.271,2.599-1.076l0.068-0.091
		c0.242-0.324,0.698-0.402,1.034-0.177l1.871,1.247c0.095,0.063,0.194,0.12,0.295,0.17v5.886c-2.224-0.25-4.456,0.784-5.645,2.774
		c-1.522,2.548-2.274,8.485,0.661,10.239c0.538,0.321,1.168,0.479,1.861,0.479c0.947,0,2.012-0.301,3.119-0.874
		C39.968,42.088,37.616,44.946,34.451,45.76z M40,36.359c-1.605,1.074-3.158,1.475-3.958,0.998c-1.626-0.972-1.156-5.512,0.03-7.497
		c0.704-1.178,1.965-1.855,3.278-1.855c0.216,0,0.434,0.018,0.65,0.056V36.359z M42,17.704c0,0.413-0.282,0.608-0.403,0.674
		c-0.062,0.033-0.177,0.08-0.32,0.09l-0.143-0.019c-0.135-0.019-0.238-0.053-0.323-0.109l-1.868-1.245
		c-1.219-0.813-2.864-0.531-3.743,0.64l-0.068,0.091c-0.246,0.326-0.585,0.314-0.719,0.298c-0.034-0.005-0.079-0.014-0.131-0.031
		c-0.156-0.05-0.367-0.17-0.475-0.457l-0.615-1.642c-0.372-0.991-1.258-1.673-2.312-1.779h-0.001h0
		c-0.051-0.005-0.1,0.009-0.151,0.007c-0.998-0.038-1.934,0.424-2.469,1.279l-1.744,2.79c-0.136,0.218-0.36,0.348-0.615,0.359
		c-0.262,0.001-0.49-0.101-0.689-0.367c-0.527-0.702-1.333-1.104-2.211-1.104s-1.684,0.402-2.211,1.105l-0.368,0.491
		c-0.182,0.243-0.428,0.295-0.558,0.304c-0.008,0.001-0.021,0-0.03,0c-0.027,0.002-0.054,0.003-0.088,0.001
		c-0.135-0.01-0.315-0.063-0.476-0.224l-0.479-0.479c-0.965-0.967-2.518-1.078-3.612-0.257l-1.213,0.908
		c-0.175,0.131-0.39,0.18-0.604,0.139c-0.215-0.042-0.396-0.169-0.508-0.356l-1.221-2.035c-0.115-0.191-0.255-0.356-0.404-0.51
		c-0.039-0.04-0.079-0.077-0.12-0.115c-0.141-0.128-0.291-0.242-0.453-0.337c-0.02-0.011-0.037-0.026-0.056-0.038
		c-0.179-0.099-0.37-0.172-0.567-0.229c-0.054-0.016-0.109-0.027-0.164-0.04c-0.167-0.038-0.337-0.06-0.51-0.066
		c-0.03-0.001-0.059-0.011-0.09-0.011c-0.012,0-0.024,0.003-0.037,0.003c-0.099,0.001-0.198,0.016-0.297,0.029
		c-0.068,0.008-0.135,0.01-0.202,0.023c-0.167,0.033-0.333,0.081-0.496,0.146L6,16.522v-0.1c0-3.427,2.357-4.27,4.854-5.163
		c1.771-0.634,3.738-1.358,4.077-3.26h2.158c0.552,0,1-0.447,1-1s-0.448-1-1-1H14c-0.01,0-0.019,0.006-0.029,0.006
		C13.96,6.006,13.951,6,13.94,6C12.871,6,12,5.13,12,4.06V3.94C12,2.87,12.871,2,13.94,2H34.06C35.129,2,36,2.87,36,3.94V4.06
		C36,5.13,35.129,6,34,6H22.974c-0.552,0-1,0.447-1,1s0.448,1,1,1H33.07c0.339,1.902,2.305,2.626,4.077,3.26
		C39.643,12.153,42,12.996,42,16.423V17.704z"/>
	<path d="M16.301,34.418c-2.15-0.81-4.562,0.278-5.372,2.431c-0.715,1.895-0.562,6.09,1.82,6.989C13.043,43.949,13.345,44,13.65,44
		c2.161,0,4.455-2.549,5.081-4.21C19.542,37.64,18.452,35.229,16.301,34.418z M16.86,39.085c-0.553,1.466-2.592,3.189-3.405,2.882
		c-0.816-0.308-1.208-2.947-0.655-4.413c0.328-0.868,1.156-1.404,2.033-1.404c0.253,0,0.511,0.045,0.762,0.14
		C16.714,36.712,17.282,37.966,16.86,39.085z"/>
	<path d="M17.65,24.848c-0.887,0.673-1.459,1.651-1.611,2.755c-0.152,1.104,0.136,2.199,0.809,3.087
		c0.924,1.218,3.22,2.715,5.163,2.715c0.631,0,1.226-0.158,1.723-0.535c2.028-1.538,0.981-5.605-0.242-7.22
		C22.102,23.818,19.481,23.457,17.65,24.848z M22.525,31.275c-0.694,0.528-3.138-0.547-4.083-1.795
		c-0.351-0.462-0.5-1.032-0.421-1.605c0.079-0.574,0.376-1.084,0.838-1.434c0.391-0.297,0.852-0.44,1.309-0.44
		c0.656,0,1.305,0.296,1.73,0.857C22.845,28.106,23.22,30.749,22.525,31.275z"/>
	<path d="M34.704,25.71c0.849-2.135-0.198-4.564-2.334-5.415c-2.134-0.849-4.565,0.198-5.414,2.335
		c-0.748,1.882-0.669,6.081,1.696,7.021c0.3,0.119,0.62,0.178,0.953,0.178c0.865,0,1.824-0.396,2.785-1.164
		C33.42,27.842,34.307,26.709,34.704,25.71z M32.846,24.972c-0.268,0.674-0.953,1.53-1.705,2.131
		c-0.703,0.562-1.391,0.833-1.751,0.689c-0.81-0.321-1.154-2.968-0.576-4.424C29.152,22.519,29.97,22,30.833,22
		c0.266,0,0.537,0.05,0.798,0.153C32.742,22.597,33.288,23.86,32.846,24.972z"/>
</g>
<g>
</g>
<g>
</g>
<g>
</g>
<g>
</g>
<g>
</g>
<g>
</g>
<g>
</g>
<g>
</g>
<g>
</g>
<g>
</g>
<g>
</g>
<g>
</g>
<g>
</g>
<g>
</g>
<g>
</g>
</svg>
