<?xml version="1.0" encoding="iso-8859-1"?>
<!-- Generator: Adobe Illustrator 18.0.0, SVG Export Plug-In . SVG Version: 6.00 Build 0)  -->
<!DOCTYPE svg PUBLIC "-//W3C//DTD SVG 1.1//EN" "http://www.w3.org/Graphics/SVG/1.1/DTD/svg11.dtd">
<svg version="1.1" id="Capa_1" xmlns="http://www.w3.org/2000/svg" xmlns:xlink="http://www.w3.org/1999/xlink" x="0px" y="0px"
	 viewBox="0 0 59 59" style="enable-background:new 0 0 59 59;" xml:space="preserve">
<path d="M46.5,17c0-4.193-1.534-8.03-4.06-10.998c-0.064-0.093-0.134-0.179-0.22-0.242C39.103,2.237,34.563,0,29.5,0
	c-9.374,0-17,7.626-17,17c0,8.349,6.054,15.296,14,16.719V56c0,1.654,1.346,3,3,3s3-1.346,3-3V33.719
	C40.446,32.296,46.5,25.349,46.5,17z M30.5,49.31l-2,2v-2.172l2-2V49.31z M30.5,44.31l-2,2v-2.172l2-2V44.31z M30.5,39.31l-2,2
	v-2.172l2-2V39.31z M30.5,33.965v0.345l-2,2v-2.345C29.195,34.012,29.805,34.012,30.5,33.965z M29.5,57c-0.552,0-1-0.448-1-1v-1.862
	l2-2V56C30.5,56.552,30.052,57,29.5,57z M31.396,31.867l-0.02,0.002c-0.257,0.032-0.481,0.051-0.71,0.072
	C30.28,31.971,29.894,32,29.5,32s-0.78-0.029-1.166-0.059c-0.228-0.021-0.453-0.04-0.71-0.072l-0.02-0.002
	C20.226,30.93,14.5,24.628,14.5,17c0-8.271,6.729-15,15-15c4.524,0,8.576,2.021,11.329,5.198c3.708,6.618,1.316,15.634-5.178,19.37
	c-2.483,1.429-5.374,1.807-8.141,1.06c-2.767-0.745-5.076-2.523-6.505-5.007c-1.117-1.94-1.411-4.199-0.829-6.36
	c0.583-2.162,1.973-3.967,3.913-5.084c1.505-0.865,3.259-1.094,4.936-0.643c1.678,0.452,3.079,1.53,3.946,3.037
	c0.666,1.158,0.842,2.507,0.494,3.798c-0.348,1.29-1.177,2.368-2.336,3.035c-0.88,0.506-1.904,0.639-2.886,0.375
	c-0.981-0.265-1.801-0.895-2.308-1.775c-0.378-0.658-0.479-1.424-0.28-2.157c0.197-0.733,0.669-1.346,1.327-1.724
	c0.988-0.572,2.261-0.229,2.832,0.764c0.194,0.338,0.245,0.73,0.144,1.106c-0.102,0.377-0.343,0.69-0.682,0.886
	c-0.225,0.128-0.488,0.16-0.733,0.095c-0.25-0.066-0.458-0.227-0.586-0.45c-0.275-0.479-0.886-0.644-1.365-0.369
	c-0.479,0.275-0.645,0.887-0.369,1.365c0.396,0.688,1.034,1.18,1.8,1.386c0.766,0.207,1.565,0.103,2.251-0.293
	c0.802-0.461,1.375-1.206,1.616-2.098c0.24-0.893,0.119-1.825-0.342-2.626c-1.119-1.946-3.614-2.619-5.563-1.5
	c-1.121,0.646-1.924,1.688-2.261,2.938c-0.336,1.249-0.166,2.555,0.479,3.676c0.772,1.343,2.022,2.305,3.52,2.709
	c1.498,0.401,3.061,0.198,4.404-0.573c1.621-0.934,2.782-2.441,3.27-4.248c0.486-1.807,0.24-3.694-0.692-5.316
	c-1.134-1.969-2.966-3.379-5.159-3.97c-2.191-0.59-4.485-0.292-6.454,0.84c-2.403,1.384-4.124,3.619-4.846,6.297
	s-0.357,5.476,1.025,7.879c2.353,4.087,6.644,6.377,11.052,6.376c2.151,0,4.331-0.545,6.326-1.692
	c3.565-2.053,6.245-5.674,7.353-9.936c0.216-0.832,0.35-1.673,0.44-2.514c0.029,0.38,0.058,0.76,0.058,1.147
	C44.5,24.628,38.774,30.93,31.396,31.867z"/>
<g>
</g>
<g>
</g>
<g>
</g>
<g>
</g>
<g>
</g>
<g>
</g>
<g>
</g>
<g>
</g>
<g>
</g>
<g>
</g>
<g>
</g>
<g>
</g>
<g>
</g>
<g>
</g>
<g>
</g>
</svg>
