<?xml version="1.0" encoding="iso-8859-1"?>
<!-- Generator: Adobe Illustrator 18.0.0, SVG Export Plug-In . SVG Version: 6.00 Build 0)  -->
<!DOCTYPE svg PUBLIC "-//W3C//DTD SVG 1.1//EN" "http://www.w3.org/Graphics/SVG/1.1/DTD/svg11.dtd">
<svg version="1.1" id="Capa_1" xmlns="http://www.w3.org/2000/svg" xmlns:xlink="http://www.w3.org/1999/xlink" x="0px" y="0px"
	 viewBox="0 0 58.622 58.622" style="enable-background:new 0 0 58.622 58.622;" xml:space="preserve">
<g>
	<path d="M57.595,11.606c-0.391-0.391-1.023-0.391-1.414,0l-3.536,3.536l-1.061-1.061c-1.316-1.318-3.633-1.318-4.949,0
		c-0.659,0.658-1.022,1.537-1.022,2.475c0,0.937,0.363,1.815,1.022,2.475l0.304,0.304h-5.071c-1.103,0-2,0.897-2,2v4.443
		c-0.655-0.241-1.352-0.373-2.071-0.373c-1.603,0-3.109,0.624-4.243,1.758c-1.514,1.514-2.032,3.639-1.586,5.587
		c-1.344-0.874-3.268-0.733-4.424,0.424c-0.659,0.658-1.022,1.537-1.022,2.475c0,0.937,0.363,1.815,1.022,2.475l0.304,0.304h-5.072
		c-1.103,0-2,0.897-2,2v4.452c-1.366-1.357-3.58-1.355-4.943,0.006c-1.364,1.365-1.364,3.585,0,4.949l1.061,1.061l-3.019,3.019
		c-0.093,0.092-0.166,0.203-0.217,0.326c-0.051,0.122-0.077,0.252-0.077,0.382c0,1.103-0.897,2-2,2s-2-0.897-2-2s0.897-2,2-2
		c0.553,0,1-0.447,1-1s-0.447-1-1-1c-2.206,0-4,1.794-4,4s1.794,4,4,4c2.048,0,3.722-1.552,3.953-3.539l2.774-2.774l1.061,1.061
		c0.682,0.682,1.578,1.023,2.474,1.023c0.896,0,1.793-0.342,2.476-1.023c1.363-1.362,1.364-3.579,0.006-4.943h4.452
		c1.103,0,2-0.897,2-2v-5.072l0.304,0.304c0.683,0.683,1.579,1.023,2.475,1.023c0.896,0,1.793-0.341,2.476-1.023
		c1.2-1.2,1.342-3.062,0.43-4.422c0.441,0.1,0.887,0.166,1.337,0.166c1.536,0,3.073-0.584,4.242-1.754
		c1.134-1.134,1.758-2.641,1.758-4.243c0-0.719-0.132-1.415-0.373-2.07h4.444c1.103,0,2-0.897,2-2v-5.071l0.303,0.303
		c0.683,0.683,1.579,1.023,2.475,1.023c0.896,0,1.793-0.341,2.476-1.023c1.364-1.364,1.364-3.584,0-4.949l-1.061-1.061l3.536-3.536
		C57.985,12.63,57.985,11.997,57.595,11.606z M22.902,51.956c-0.585,0.584-1.538,0.582-2.121,0l-3.536-3.536
		c-0.584-0.585-0.584-1.536,0-2.121c0.292-0.292,0.677-0.438,1.062-0.438c0.384,0,0.769,0.146,1.061,0.438l3.535,3.535
		c0.281,0.281,0.437,0.658,0.437,1.062C23.339,51.298,23.183,51.675,22.902,51.956z M28.774,46.427l-6-0.003v-5.997h6V46.427z
		 M34.614,40.244c-0.563,0.563-1.561,0.562-2.122,0l-3.535-3.535c-0.281-0.281-0.437-0.658-0.437-1.061s0.155-0.779,0.437-1.061
		s0.658-0.437,1.061-0.437s0.779,0.155,1.061,0.437l3.536,3.535C35.198,38.708,35.198,39.659,34.614,40.244z M40.624,34.234
		c-1.561,1.559-4.097,1.559-5.657,0c-1.56-1.56-1.56-4.098,0-5.657c0.756-0.756,1.761-1.172,2.829-1.172
		c0.801,0,1.566,0.234,2.217,0.669c0.203,0.507,0.607,0.911,1.114,1.114c0.435,0.651,0.669,1.416,0.669,2.216
		C41.796,32.474,41.38,33.479,40.624,34.234z M47.867,27.335l-5.676-0.003c-0.052-0.056-0.099-0.115-0.154-0.169
		c-0.055-0.055-0.114-0.103-0.171-0.155v-5.673h6V27.335z M53.706,21.152c-0.563,0.563-1.56,0.563-2.122,0l-3.535-3.535
		c-0.281-0.281-0.437-0.658-0.437-1.061s0.155-0.779,0.437-1.061s0.658-0.437,1.061-0.437s0.779,0.155,1.061,0.437l3.536,3.535
		C54.29,19.616,54.29,20.567,53.706,21.152z"/>
	<path d="M8.17,39.817l3.463-3.463l2.121,2.122c0.39,0.39,0.902,0.585,1.414,0.585s1.024-0.195,1.414-0.585l2.122-2.121
		c0.377-0.377,0.584-0.879,0.584-1.414c0-0.392-0.113-0.764-0.32-1.084c1.503-0.065,2.908-0.674,3.978-1.745
		c1.071-1.07,1.68-2.475,1.745-3.978c0.329,0.212,0.706,0.319,1.083,0.319c0.513,0,1.024-0.194,1.415-0.584l2.122-2.122
		c0.675-0.677,0.762-1.723,0.263-2.497c1.503-0.065,2.908-0.674,3.978-1.745c1.071-1.07,1.68-2.475,1.745-3.978
		c0.329,0.212,0.706,0.32,1.083,0.32c0.513,0,1.024-0.194,1.415-0.584l2.121-2.122c0.681-0.68,0.767-1.735,0.257-2.512
		c1.449-0.062,2.881-0.626,3.985-1.73c1.134-1.133,1.758-2.64,1.758-4.242c0-1.263-0.393-2.464-1.113-3.473l1.477-1.477
		c0.391-0.391,0.391-1.023,0-1.414s-1.023-0.391-1.414,0l-1.486,1.486c-2.341-1.664-5.609-1.463-7.706,0.635
		c-1.072,1.072-1.681,2.479-1.745,3.984c-0.767-0.48-1.846-0.394-2.498,0.259L29.31,8.778c-0.377,0.377-0.584,0.879-0.584,1.414
		c0,0.397,0.115,0.775,0.328,1.098c-1.45,0.062-2.882,0.626-3.987,1.73c-1.104,1.104-1.668,2.537-1.73,3.986
		c-0.776-0.51-1.831-0.424-2.513,0.257l-2.121,2.121c-0.678,0.677-0.765,1.724-0.265,2.498c-1.503,0.065-2.908,0.674-3.978,1.745
		c-1.105,1.105-1.669,2.539-1.73,3.99c-0.768-0.489-1.855-0.405-2.512,0.252l-2.12,2.12c-0.378,0.377-0.586,0.88-0.586,1.415
		s0.208,1.038,0.585,1.414l2.121,2.121l-4.054,4.053c-0.005,0.005-0.012,0.007-0.017,0.012c-0.391,0.39-0.391,1.023,0,1.414
		c0.779,0.78,0.779,2.049,0,2.829c-0.778,0.778-2.049,0.78-2.829,0s-0.78-2.049,0-2.829c0.391-0.391,0.391-1.023,0-1.414
		s-1.023-0.391-1.414,0c-1.56,1.56-1.56,4.098,0,5.657c0.78,0.779,1.804,1.169,2.828,1.169s2.05-0.39,2.829-1.169
		C8.873,43.35,9.067,41.35,8.17,39.817z M37.089,3.828c0.779-0.779,1.804-1.17,2.828-1.17s2.049,0.391,2.828,1.17
		c0.756,0.756,1.172,1.761,1.172,2.829s-0.416,2.072-1.172,2.828c-1.559,1.559-4.098,1.559-5.656,0
		c-0.756-0.756-1.172-1.76-1.172-2.828S36.333,4.584,37.089,3.828z M32.846,8.071l5.657,5.656l-2.123,2.12l-5.655-5.655
		L32.846,8.071z M26.481,14.435c0.78-0.779,1.805-1.169,2.829-1.169c1.024,0,2.049,0.39,2.828,1.169
		c0.756,0.756,1.172,1.761,1.172,2.829s-0.416,2.072-1.172,2.828c-1.511,1.511-4.143,1.511-5.655,0.002l-0.005-0.005
		C24.922,18.529,24.923,15.993,26.481,14.435z M22.239,18.678l5.657,5.657l-2.124,2.119l-5.654-5.655L22.239,18.678z M15.875,25.042
		c0.756-0.756,1.761-1.172,2.829-1.172s2.072,0.416,2.828,1.172s1.172,1.76,1.172,2.828s-0.416,2.072-1.172,2.828
		c-1.512,1.512-4.146,1.512-5.657,0C14.315,29.139,14.315,26.602,15.875,25.042z M11.633,29.284l5.657,5.657l-2.124,2.119
		l-5.654-5.655L11.633,29.284z"/>
</g>
<g>
</g>
<g>
</g>
<g>
</g>
<g>
</g>
<g>
</g>
<g>
</g>
<g>
</g>
<g>
</g>
<g>
</g>
<g>
</g>
<g>
</g>
<g>
</g>
<g>
</g>
<g>
</g>
<g>
</g>
</svg>
