<?xml version="1.0" encoding="iso-8859-1"?>
<!-- Generator: Adobe Illustrator 18.0.0, SVG Export Plug-In . SVG Version: 6.00 Build 0)  -->
<!DOCTYPE svg PUBLIC "-//W3C//DTD SVG 1.1//EN" "http://www.w3.org/Graphics/SVG/1.1/DTD/svg11.dtd">
<svg version="1.1" id="Capa_1" xmlns="http://www.w3.org/2000/svg" xmlns:xlink="http://www.w3.org/1999/xlink" x="0px" y="0px"
	 viewBox="0 0 60 60" style="enable-background:new 0 0 60 60;" xml:space="preserve">
<g>
	<circle cx="30" cy="36" r="1"/>
	<circle cx="30" cy="40" r="1"/>
	<path d="M30,0c-3.86,0-7,3.141-7,7v15c0,3.519,2.613,6.432,6,6.92v1.222c-1.72,0.447-3,1.999-3,3.858v22c0,2.206,1.794,4,4,4
		s4-1.794,4-4V34c0-1.859-1.28-3.411-3-3.858V28.92c3.387-0.488,6-3.401,6-6.92V7C37,3.141,33.86,0,30,0z M32,34v22
		c0,1.103-0.897,2-2,2s-2-0.897-2-2V34c0-1.103,0.897-2,2-2S32,32.897,32,34z M35,22c0,2.757-2.243,5-5,5s-5-2.243-5-5V7
		c0-2.757,2.243-5,5-5s5,2.243,5,5V22z"/>
</g>
<g>
</g>
<g>
</g>
<g>
</g>
<g>
</g>
<g>
</g>
<g>
</g>
<g>
</g>
<g>
</g>
<g>
</g>
<g>
</g>
<g>
</g>
<g>
</g>
<g>
</g>
<g>
</g>
<g>
</g>
</svg>
