<?xml version="1.0" encoding="iso-8859-1"?>
<!-- Generator: Adobe Illustrator 18.0.0, SVG Export Plug-In . SVG Version: 6.00 Build 0)  -->
<!DOCTYPE svg PUBLIC "-//W3C//DTD SVG 1.1//EN" "http://www.w3.org/Graphics/SVG/1.1/DTD/svg11.dtd">
<svg version="1.1" id="Capa_1" xmlns="http://www.w3.org/2000/svg" xmlns:xlink="http://www.w3.org/1999/xlink" x="0px" y="0px"
	 viewBox="0 0 55.79 55.79" style="enable-background:new 0 0 55.79 55.79;" xml:space="preserve">
<g>
	<path d="M49.493,3.402c-0.391-0.391-1.023-0.391-1.414,0l-2.33,2.33c-0.39,0.392-0.39,1.024,0.001,1.415
		c0.195,0.194,0.451,0.292,0.707,0.292s0.512-0.098,0.708-0.293l2.329-2.33C49.884,4.426,49.884,3.793,49.493,3.402z"/>
	<path d="M44.649,9.66c0.391-0.391,0.391-1.023,0-1.414s-1.023-0.391-1.414,0l-6.614,6.614c-0.391,0.391-0.391,1.023,0,1.414
		c0.195,0.195,0.451,0.293,0.707,0.293s0.512-0.098,0.707-0.293L44.649,9.66z"/>
	<path d="M40.028,17.11l-2.367,2.366c-0.39,0.391-0.39,1.024,0,1.414c0.195,0.195,0.451,0.293,0.707,0.293s0.512-0.098,0.708-0.293
		l2.366-2.366c0.391-0.39,0.391-1.023,0-1.414C41.052,16.72,40.419,16.72,40.028,17.11z"/>
	<path d="M47.678,9.46l-4.821,4.821c-0.391,0.391-0.391,1.023,0,1.414c0.195,0.195,0.451,0.293,0.707,0.293s0.512-0.098,0.707-0.293
		l4.821-4.821c0.391-0.391,0.391-1.023,0-1.414S48.068,9.069,47.678,9.46z"/>
	<path d="M51.117,6.021l-1.189,1.189c-0.391,0.391-0.391,1.023,0,1.414c0.195,0.195,0.451,0.293,0.707,0.293
		s0.512-0.098,0.707-0.293l1.189-1.189c0.391-0.391,0.391-1.023,0-1.414S51.506,5.631,51.117,6.021z"/>
	<path d="M55.724,6.618c-0.009-0.223-0.144-2.241-2.241-4.338C53.26,2.045,51.262,0,49.107,0c-0.019,0-0.038,0-0.057,0l-0.197,0.004
		l-0.181,0.077c-0.437,0.188-10.785,4.755-18.553,18.504l-0.139,0.247l0.01,0.283c0.007,0.179,0.114,1.528,1.244,3.14
		c-0.046,0.032-0.098,0.051-0.139,0.093l-5.842,5.843l-1.397-1.397c-1.284-1.285-2.998-1.992-4.825-1.992
		c-1.828,0-3.542,0.707-4.826,1.992L3.12,37.877c-1.976,1.976-3.064,4.612-3.064,7.424c0,2.813,1.088,5.449,3.064,7.425
		c1.976,1.977,4.612,3.064,7.425,3.064c2.812,0,5.449-1.088,7.424-3.064l11.084-11.084c1.285-1.284,1.992-2.998,1.992-4.825
		s-0.707-3.541-1.992-4.825l-2.387-2.387l5.842-5.843c0.007-0.007,0.008-0.016,0.015-0.022c0.658,0.621,2.309,1.994,4.082,1.994
		c0.02,0,0.04,0,0.059,0l0.196-0.004l0.181-0.077c0.437-0.188,10.785-4.754,18.553-18.504l0.139-0.247L55.724,6.618z M29.045,36.816
		c0,1.293-0.499,2.505-1.406,3.411L16.555,51.312c-1.598,1.599-3.733,2.479-6.01,2.479c-2.278,0-4.413-0.88-6.011-2.479
		c-1.598-1.598-2.478-3.732-2.478-6.011c0-2.277,0.88-4.412,2.478-6.01l11.084-11.084c0.907-0.907,2.118-1.406,3.412-1.406
		c1.285,0,2.488,0.495,3.393,1.391l-1.574,1.574c-0.391,0.391-0.391,1.023,0,1.414c0.195,0.195,0.451,0.293,0.707,0.293
		s0.512-0.098,0.707-0.293l1.575-1.575l1.414,1.414l-1.575,1.575c-0.391,0.391-0.391,1.023,0,1.414
		c0.195,0.195,0.451,0.293,0.707,0.293s0.512-0.098,0.707-0.293l1.575-1.575l0.973,0.973C28.546,34.312,29.045,35.523,29.045,36.816
		z M36.443,23.726c-1.062-0.106-2.339-1.209-2.764-1.65l-0.235-0.245c-0.178-0.194-0.328-0.382-0.466-0.567
		c0.07-0.042,0.144-0.075,0.204-0.135l2.604-2.604c0.391-0.391,0.391-1.023,0-1.414s-1.023-0.391-1.414,0l-2.313,2.313
		c-0.013-0.051-0.025-0.102-0.034-0.144C38.855,7.37,47.847,2.692,49.271,2.008c1.062,0.106,2.339,1.21,2.763,1.651l0.237,0.247
		c1.018,1.105,1.325,2.1,1.417,2.55C46.857,18.364,37.866,23.042,36.443,23.726z"/>
	<path d="M6.809,39.234c-3.422,3.307-3.712,7.855-0.705,11.063c0.197,0.21,0.463,0.316,0.729,0.316c0.246,0,0.491-0.09,0.684-0.271
		c0.403-0.378,0.423-1.011,0.045-1.413c-2.249-2.398-1.994-5.717,0.636-8.258c0.397-0.384,0.408-1.017,0.024-1.414
		C7.839,38.862,7.205,38.851,6.809,39.234z"/>
</g>
<g>
</g>
<g>
</g>
<g>
</g>
<g>
</g>
<g>
</g>
<g>
</g>
<g>
</g>
<g>
</g>
<g>
</g>
<g>
</g>
<g>
</g>
<g>
</g>
<g>
</g>
<g>
</g>
<g>
</g>
</svg>
