<?xml version="1.0" encoding="iso-8859-1"?>
<!-- Generator: Adobe Illustrator 18.0.0, SVG Export Plug-In . SVG Version: 6.00 Build 0)  -->
<!DOCTYPE svg PUBLIC "-//W3C//DTD SVG 1.1//EN" "http://www.w3.org/Graphics/SVG/1.1/DTD/svg11.dtd">
<svg version="1.1" id="Capa_1" xmlns="http://www.w3.org/2000/svg" xmlns:xlink="http://www.w3.org/1999/xlink" x="0px" y="0px"
	 viewBox="0 0 59 59" style="enable-background:new 0 0 59 59;" xml:space="preserve">
<g>
	<circle cx="28.994" cy="35" r="1"/>
	<circle cx="28.994" cy="39" r="1"/>
	<path d="M31.925,1.682C30.799,0.55,29.186,0,26.994,0c-0.552,0-1,0.447-1,1v29c0,0.109,0.03,0.209,0.062,0.307
		c-0.653,0.712-1.062,1.652-1.062,2.693v22c0,2.206,1.794,4,4,4s4-1.794,4-4V33c0-1.281-0.616-2.411-1.556-3.143
		c2.552-3.304,2.558-8.191,2.556-15.296L34,12.355C34.025,7.583,34.045,3.813,31.925,1.682z M30.994,55c0,1.103-0.897,2-2,2
		s-2-0.897-2-2V33c0-1.103,0.897-2,2-2s2,0.897,2,2V55z M32,12.345l-0.006,2.216c0.002,7.034-0.005,11.743-2.491,14.491
		C29.335,29.03,29.169,29,28.994,29c-0.347,0-0.678,0.058-1,0.142V2.059c1.109,0.124,1.943,0.46,2.513,1.033
		C32.04,4.634,32.023,8.037,32,12.345z"/>
</g>
<g>
</g>
<g>
</g>
<g>
</g>
<g>
</g>
<g>
</g>
<g>
</g>
<g>
</g>
<g>
</g>
<g>
</g>
<g>
</g>
<g>
</g>
<g>
</g>
<g>
</g>
<g>
</g>
<g>
</g>
</svg>
