<?xml version="1.0" encoding="iso-8859-1"?>
<!-- Generator: Adobe Illustrator 18.0.0, SVG Export Plug-In . SVG Version: 6.00 Build 0)  -->
<!DOCTYPE svg PUBLIC "-//W3C//DTD SVG 1.1//EN" "http://www.w3.org/Graphics/SVG/1.1/DTD/svg11.dtd">
<svg version="1.1" id="Capa_1" xmlns="http://www.w3.org/2000/svg" xmlns:xlink="http://www.w3.org/1999/xlink" x="0px" y="0px"
	 viewBox="0 0 60 60" style="enable-background:new 0 0 60 60;" xml:space="preserve">
<g>
	<path d="M60,15.639v-10h-6v-1c0-2.206-1.794-4-4-4s-4,1.794-4,4v1H34v-1c0-2.206-1.794-4-4-4s-4,1.794-4,4v1H13v-1
		c0-2.206-1.794-4-4-4s-4,1.794-4,4v1H0v10h5v3H3v35h14.453c1.404,0,2.547-1.143,2.547-2.547V21.185
		c0-1.403-1.143-2.546-2.547-2.546H13v-3h13v4v2v29.351l5.262,6.577l0.657-1.534C36.039,46.42,38,38.786,38,21.407v-1.769h-4v-4h12
		v3h-1v22c0,5.838,1.793,11.434,5.187,16.184L52,59.361v-3.12c0-17.608,1.773-25.026,2.947-29.935
		C55.535,23.848,56,21.905,56,19.639v-1h-2v-3H60z M58,7.639v6h-4v-6H58z M2,13.639v-6h3v6H2z M18,21.185v29.907
		c0,0.302-0.245,0.547-0.547,0.547H16v-31h1.453C17.755,20.639,18,20.884,18,21.185z M14,20.639v31H5v-31h8H14z M11,18.639H7v-3v-10
		v-1c0-1.103,0.897-2,2-2s2,0.897,2,2v1v10V18.639z M13,13.639v-6h13v6H13z M36,21.639c-0.017,15.926-1.72,23.433-5.27,32.062
		L28,50.288V21.639h6H36z M32,19.639h-4v-4v-10v-1c0-1.103,0.897-2,2-2s2,0.897,2,2v1v10V19.639z M34,13.639v-6h12v6H34z
		 M53.002,25.842c-1.114,4.663-2.762,11.551-2.979,26.935C48.037,49.054,47,44.916,47,40.639v-20h6.966
		C53.855,22.274,53.484,23.824,53.002,25.842z M52,18.639h-4v-3v-10v-1c0-1.103,0.897-2,2-2s2,0.897,2,2v1v10V18.639z"/>
	<path d="M30,29.639c0.553,0,1-0.447,1-1v-5c0-0.553-0.447-1-1-1s-1,0.447-1,1v5C29,29.191,29.447,29.639,30,29.639z"/>
	<path d="M49,29.639c0.553,0,1-0.447,1-1v-5c0-0.553-0.447-1-1-1s-1,0.447-1,1v5C48,29.191,48.447,29.639,49,29.639z"/>
	<path d="M7,29.639c0.553,0,1-0.447,1-1v-5c0-0.553-0.447-1-1-1s-1,0.447-1,1v5C6,29.191,6.447,29.639,7,29.639z"/>
</g>
<g>
</g>
<g>
</g>
<g>
</g>
<g>
</g>
<g>
</g>
<g>
</g>
<g>
</g>
<g>
</g>
<g>
</g>
<g>
</g>
<g>
</g>
<g>
</g>
<g>
</g>
<g>
</g>
<g>
</g>
</svg>
