<?xml version="1.0" encoding="iso-8859-1"?>
<!-- Generator: Adobe Illustrator 18.0.0, SVG Export Plug-In . SVG Version: 6.00 Build 0)  -->
<!DOCTYPE svg PUBLIC "-//W3C//DTD SVG 1.1//EN" "http://www.w3.org/Graphics/SVG/1.1/DTD/svg11.dtd">
<svg version="1.1" id="Capa_1" xmlns="http://www.w3.org/2000/svg" xmlns:xlink="http://www.w3.org/1999/xlink" x="0px" y="0px"
	 viewBox="0 0 56.004 56.004" style="enable-background:new 0 0 56.004 56.004;" xml:space="preserve">
<g>
	<path d="M19.185,48.024c-1.707,1.715-4.347,2.555-7.071,2.241c-0.545-0.063-1.044,0.331-1.107,0.88
		c-0.063,0.548,0.331,1.044,0.88,1.106c0.467,0.054,0.93,0.08,1.387,0.08c2.846,0,5.462-1.021,7.329-2.897
		c0.389-0.391,0.388-1.024-0.003-1.414C20.208,47.63,19.576,47.632,19.185,48.024z"/>
	<path d="M49.763,3.504c-0.391-0.391-1.024-0.391-1.415,0l-2.331,2.33c-0.39,0.391-0.39,1.024,0,1.414
		c0.195,0.195,0.451,0.293,0.707,0.293s0.512-0.098,0.708-0.293l2.33-2.33C50.154,4.529,50.154,3.895,49.763,3.504z"/>
	<path d="M44.919,9.762c0.391-0.391,0.391-1.023,0-1.414c-0.391-0.391-1.023-0.391-1.414,0l-6.614,6.614
		c-0.391,0.391-0.391,1.023,0,1.414c0.195,0.195,0.451,0.293,0.707,0.293s0.512-0.098,0.707-0.293L44.919,9.762z"/>
	<path d="M40.299,17.211l-2.367,2.367c-0.39,0.391-0.39,1.024,0,1.414c0.195,0.195,0.451,0.293,0.707,0.293s0.512-0.098,0.708-0.293
		l2.365-2.365c0.391-0.391,0.391-1.023,0.001-1.415C41.322,16.823,40.69,16.822,40.299,17.211z"/>
	<path d="M47.947,9.562l-4.821,4.821c-0.391,0.391-0.391,1.023,0,1.414c0.195,0.195,0.451,0.293,0.707,0.293
		s0.512-0.098,0.707-0.293l4.821-4.821c0.391-0.391,0.391-1.023,0-1.414S48.338,9.171,47.947,9.562z"/>
	<path d="M51.386,6.123l-1.189,1.189c-0.391,0.391-0.391,1.023,0,1.414c0.195,0.195,0.451,0.293,0.707,0.293
		s0.512-0.098,0.707-0.293l1.189-1.189c0.391-0.391,0.391-1.023,0-1.414S51.776,5.733,51.386,6.123z"/>
	<path d="M55.993,6.72c-0.009-0.223-0.144-2.241-2.241-4.338c-0.223-0.235-2.221-2.28-4.376-2.28c-0.019,0-0.038,0-0.057,0
		l-0.197,0.004l-0.181,0.077C48.505,0.37,38.157,4.938,30.388,18.687l-0.139,0.247l0.01,0.283c0.008,0.205,0.144,1.943,1.809,3.856
		l-8.324,8.323c-0.396-0.58-0.77-1.042-1.084-1.355c-0.42-0.42-1.071-0.784-2.072-0.812c-1-0.028-2.349,0.28-4.165,1.204
		c-0.317,0.161-0.64,0.337-0.969,0.528c-2.299,1.332-4.85,3.357-7.29,5.798C5.34,39.585,2.972,42.635,1.5,45.348
		c-1.697,3.125-1.959,5.412-0.758,6.613c1.083,1.083,4.6,3.004,8.71,3.685c0.926,0.153,1.953,0.256,3.042,0.256
		c3.3,0,7.172-0.944,10.521-4.294c6.109-6.109,4.148-13.945,1.786-18.44l8.714-8.713c0.83,0.641,2.063,1.381,3.36,1.381
		c0.02,0,0.04,0,0.059,0l0.196-0.004l0.181-0.077C37.748,25.567,48.096,21,55.864,7.25l0.139-0.247L55.993,6.72z M3.257,46.302
		c1.363-2.511,3.668-5.474,6.323-8.129c2.645-2.645,5.397-4.761,7.751-5.957c1.387-0.706,2.45-0.986,3.137-0.986
		c0.374,0,0.636,0.083,0.779,0.226c0.406,0.406,0.329,1.774-0.76,3.916c-1.197,2.354-3.313,5.106-5.957,7.751
		c-2.655,2.655-5.618,4.96-8.129,6.323c-2.542,1.381-3.933,1.415-4.246,1.102C1.842,50.234,1.877,48.844,3.257,46.302z
		 M21.601,50.194c-3.855,3.855-8.559,4.02-11.823,3.479c-1.793-0.297-3.427-0.851-4.739-1.429c0.711-0.248,1.479-0.586,2.315-1.04
		c2.712-1.473,5.762-3.84,8.589-6.667c2.79-2.789,5.036-5.722,6.326-8.259c0.366-0.72,0.632-1.364,0.822-1.944
		C25.012,38.153,26.894,44.9,21.601,50.194z M36.713,23.828c-1.062-0.106-2.339-1.209-2.764-1.65l-0.237-0.247
		c-0.178-0.193-0.327-0.381-0.464-0.565c0.07-0.042,0.144-0.075,0.204-0.135l2.604-2.604c0.391-0.391,0.391-1.023,0-1.414
		s-1.023-0.391-1.414,0l-2.313,2.313c-0.013-0.051-0.025-0.102-0.034-0.144C39.125,7.472,48.116,2.794,49.54,2.11
		c1.062,0.106,2.339,1.21,2.764,1.651l0.237,0.247c1.018,1.104,1.325,2.1,1.417,2.55C47.127,18.466,38.136,23.144,36.713,23.828z"/>
</g>
<g>
</g>
<g>
</g>
<g>
</g>
<g>
</g>
<g>
</g>
<g>
</g>
<g>
</g>
<g>
</g>
<g>
</g>
<g>
</g>
<g>
</g>
<g>
</g>
<g>
</g>
<g>
</g>
<g>
</g>
</svg>
