<?xml version="1.0" encoding="iso-8859-1"?>
<!-- Generator: Adobe Illustrator 18.0.0, SVG Export Plug-In . SVG Version: 6.00 Build 0)  -->
<!DOCTYPE svg PUBLIC "-//W3C//DTD SVG 1.1//EN" "http://www.w3.org/Graphics/SVG/1.1/DTD/svg11.dtd">
<svg version="1.1" id="Capa_1" xmlns="http://www.w3.org/2000/svg" xmlns:xlink="http://www.w3.org/1999/xlink" x="0px" y="0px"
	 viewBox="0 0 53.347 53.347" style="enable-background:new 0 0 53.347 53.347;" xml:space="preserve">
<g>
	<path d="M50.617,30.823c-1.537-7.474-7.797-12.97-15.458-13.726c-0.72-5.194-3.662-9.739-8.175-12.563
		C19.804,0.04,10.691,1.141,5.011,7.091C3.512,6.562,1.673,7.28,0.669,8.884c-0.531,0.849-0.758,1.829-0.638,2.762
		c0.105,0.822,0.482,1.546,1.054,2.048c-2.388,7.49,0.711,15.858,7.561,20.146c1.522,0.953,3.171,1.652,4.903,2.112
		c0.416,1.342,1.447,2.349,2.703,2.552c1.949,7.617,9.015,13.066,17.096,13.066s15.146-5.45,17.096-13.066
		c1.639-0.265,2.904-1.894,2.904-3.857C53.347,32.754,52.171,31.171,50.617,30.823z M3.214,13.653l0.283-0.763l-0.973-0.609
		c-0.374-0.234-0.479-0.658-0.509-0.891c-0.061-0.468,0.066-0.995,0.349-1.445c0.402-0.643,1.049-1.03,1.614-1.03
		c0.2,0,0.391,0.049,0.557,0.152l0.894,0.56L5.99,8.984c4.979-5.709,13.363-6.866,19.934-2.755c3.897,2.438,6.479,6.32,7.202,10.771
		c-0.231,0.003-0.458,0.026-0.687,0.037c-0.256,0.013-0.514,0.018-0.767,0.041c-0.263,0.024-0.52,0.065-0.779,0.1
		c-0.249,0.034-0.5,0.06-0.745,0.104c-0.257,0.046-0.508,0.108-0.761,0.164c-0.241,0.054-0.484,0.1-0.721,0.163
		c-0.249,0.066-0.491,0.149-0.735,0.225c-0.233,0.073-0.469,0.139-0.698,0.221c-0.241,0.087-0.474,0.189-0.711,0.285
		c-0.222,0.091-0.448,0.174-0.666,0.274c-0.234,0.107-0.459,0.229-0.688,0.346c-0.21,0.107-0.423,0.207-0.628,0.322
		c-0.223,0.125-0.435,0.265-0.652,0.4c-0.199,0.124-0.403,0.241-0.597,0.372c-0.21,0.142-0.408,0.299-0.611,0.45
		c-0.188,0.14-0.382,0.273-0.564,0.42c-0.197,0.159-0.381,0.332-0.571,0.499c-0.175,0.155-0.356,0.303-0.525,0.464
		c-0.18,0.173-0.347,0.359-0.52,0.539c-0.164,0.171-0.334,0.336-0.491,0.513c-0.164,0.186-0.313,0.385-0.469,0.578
		c-0.15,0.186-0.307,0.365-0.449,0.557c-0.148,0.2-0.28,0.411-0.42,0.617c-0.134,0.199-0.276,0.392-0.402,0.597
		c-0.132,0.214-0.246,0.438-0.369,0.658c-0.117,0.209-0.241,0.413-0.349,0.628c-0.116,0.232-0.214,0.474-0.321,0.712
		c-0.096,0.215-0.201,0.424-0.288,0.643c-0.107,0.268-0.193,0.547-0.286,0.822c-0.068,0.199-0.146,0.393-0.207,0.595
		c-0.145,0.482-0.269,0.974-0.372,1.475c-0.182,0.041-0.357,0.102-0.527,0.175c-0.056,0.024-0.108,0.056-0.163,0.083
		c-0.111,0.056-0.221,0.114-0.326,0.183c-0.06,0.039-0.117,0.084-0.175,0.127c-0.093,0.07-0.183,0.144-0.269,0.224
		c-0.055,0.051-0.109,0.104-0.161,0.159c-0.082,0.086-0.159,0.177-0.233,0.272c-0.046,0.059-0.093,0.116-0.136,0.178
		c-0.075,0.108-0.142,0.223-0.206,0.34c-0.032,0.057-0.067,0.111-0.096,0.171c-0.088,0.179-0.166,0.366-0.229,0.561
		c-0.005,0.016-0.008,0.034-0.013,0.051c-0.05,0.163-0.094,0.33-0.126,0.503c-1.305-0.406-2.549-0.977-3.712-1.705
		C3.431,28.217,0.7,20.44,3.214,13.653z M49.972,36.542h-1.146l-0.166,0.797c-1.469,7.088-7.909,12.232-15.313,12.232
		s-13.844-5.144-15.313-12.232l-0.166-0.797h-1.146c-0.635,0-1.182-0.631-1.331-1.453l-0.012-0.087
		c-0.018-0.116-0.031-0.234-0.031-0.355c0-1.027,0.63-1.896,1.375-1.896h1.055l0.134-0.843c1.193-7.48,7.685-12.91,15.437-12.91
		c0.266,0,0.525,0.022,0.788,0.034l0.734,0.039c7.066,0.658,12.8,5.851,13.915,12.836l0.134,0.843h1.055
		c0.745,0,1.375,0.868,1.375,1.896S50.717,36.542,49.972,36.542z"/>
	<path d="M37.847,23.571c-0.553,0-1,0.448-1,1s0.447,1,1,1c2.481,0,4.5,2.019,4.5,4.5c0,0.552,0.447,1,1,1s1-0.448,1-1
		C44.347,26.487,41.431,23.571,37.847,23.571z"/>
	<path d="M19.725,7.968c0.457,0.311,1.078,0.193,1.39-0.263c0.312-0.457,0.193-1.079-0.263-1.39
		c-3.343-2.278-7.843-1.52-10.032,1.691c-0.312,0.457-0.193,1.079,0.263,1.39c0.173,0.118,0.368,0.174,0.563,0.174
		c0.319,0,0.634-0.153,0.827-0.437C14.041,6.834,17.293,6.31,19.725,7.968z"/>
</g>
<g>
</g>
<g>
</g>
<g>
</g>
<g>
</g>
<g>
</g>
<g>
</g>
<g>
</g>
<g>
</g>
<g>
</g>
<g>
</g>
<g>
</g>
<g>
</g>
<g>
</g>
<g>
</g>
<g>
</g>
</svg>
