<?xml version="1.0" encoding="iso-8859-1"?>
<!-- Generator: Adobe Illustrator 18.0.0, SVG Export Plug-In . SVG Version: 6.00 Build 0)  -->
<!DOCTYPE svg PUBLIC "-//W3C//DTD SVG 1.1//EN" "http://www.w3.org/Graphics/SVG/1.1/DTD/svg11.dtd">
<svg version="1.1" id="Capa_1" xmlns="http://www.w3.org/2000/svg" xmlns:xlink="http://www.w3.org/1999/xlink" x="0px" y="0px"
	 viewBox="0 0 58 58" style="enable-background:new 0 0 58 58;" xml:space="preserve">
<g>
	<path d="M22.625,23h-4c-0.553,0-1,0.447-1,1s0.447,1,1,1h4c0.553,0,1-0.447,1-1S23.178,23,22.625,23z"/>
	<path d="M18.625,29h2c0.553,0,1-0.447,1-1s-0.447-1-1-1h-2c-0.553,0-1,0.447-1,1S18.072,29,18.625,29z"/>
	<path d="M22.625,39h-4c-0.553,0-1,0.447-1,1s0.447,1,1,1h4c0.553,0,1-0.447,1-1S23.178,39,22.625,39z"/>
	<path d="M22.625,31h-4c-0.553,0-1,0.447-1,1s0.447,1,1,1h4c0.553,0,1-0.447,1-1S23.178,31,22.625,31z"/>
	<path d="M18.625,37h2c0.553,0,1-0.447,1-1s-0.447-1-1-1h-2c-0.553,0-1,0.447-1,1S18.072,37,18.625,37z"/>
	<path d="M47.625,15h-3.269l0.069-0.47c0.068-1.189-0.345-2.321-1.163-3.188c-0.706-0.748-1.632-1.183-2.637-1.295V8
		c0-1.654-1.346-3-3-3h-2V3c0-1.654-1.346-3-3-3h-12c-1.654,0-3,1.346-3,3v2h-2c-1.654,0-3,1.346-3,3v2h-2.232
		c-1.114,0-2.134,0.61-2.66,1.594c-0.525,0.982-0.468,2.169,0.15,3.096l3.773,5.659l2.343,22.62
		c0.152,0.761,0.487,1.443,0.935,2.031h-2.309c-1.654,0-3,1.346-3,3v10h34V48c0-1.654-1.346-3-3-3h-1.618
		c0.854-0.956,1.399-2.184,1.474-3.526L40.697,40h6.928c1.654,0,3-1.346,3-3V18C50.625,16.346,49.279,15,47.625,15z M19.625,3
		c0-0.552,0.448-1,1-1h12c0.552,0,1,0.448,1,1v2h-14V3z M14.625,8c0-0.552,0.448-1,1-1h2h18h2c0.552,0,1,0.448,1,1v2h-24V8z
		 M40.625,47c0.552,0,1,0.448,1,1v8h-30v-8c0-0.552,0.448-1,1-1h6.292h15.63H40.625z M38.951,38.148L38.669,40h0.011l-0.186,1.271
		C38.374,43.362,36.641,45,34.547,45h-15.63c-1.433,0-2.677-1.02-2.942-2.33l-2.38-23.019L9.547,13.58
		c-0.305-0.457-0.137-0.882-0.051-1.043C9.583,12.376,9.843,12,10.392,12h2.232h27.521c0.635,0,1.225,0.254,1.661,0.716
		s0.657,1.066,0.63,1.613L38.951,38.148z M48.625,37c0,0.552-0.448,1-1,1h-6.628l3.202-21h3.426c0.552,0,1,0.448,1,1V37z"/>
	<path d="M17.125,48c-1.93,0-3.5,1.57-3.5,3.5s1.57,3.5,3.5,3.5s3.5-1.57,3.5-3.5S19.055,48,17.125,48z M17.125,53
		c-0.827,0-1.5-0.673-1.5-1.5s0.673-1.5,1.5-1.5s1.5,0.673,1.5,1.5S17.952,53,17.125,53z"/>
	<path d="M32.625,51.5c0,1.93,1.57,3.5,3.5,3.5s3.5-1.57,3.5-3.5s-1.57-3.5-3.5-3.5S32.625,49.57,32.625,51.5z M36.125,50
		c0.827,0,1.5,0.673,1.5,1.5s-0.673,1.5-1.5,1.5s-1.5-0.673-1.5-1.5S35.298,50,36.125,50z"/>
	<path d="M24.625,48c-0.553,0-1,0.447-1,1v5c0,0.553,0.447,1,1,1s1-0.447,1-1v-5C25.625,48.447,25.178,48,24.625,48z"/>
	<path d="M28.625,48c-0.553,0-1,0.447-1,1v5c0,0.553,0.447,1,1,1s1-0.447,1-1v-5C29.625,48.447,29.178,48,28.625,48z"/>
</g>
<g>
</g>
<g>
</g>
<g>
</g>
<g>
</g>
<g>
</g>
<g>
</g>
<g>
</g>
<g>
</g>
<g>
</g>
<g>
</g>
<g>
</g>
<g>
</g>
<g>
</g>
<g>
</g>
<g>
</g>
</svg>
