<?xml version="1.0" encoding="iso-8859-1"?>
<!-- Generator: Adobe Illustrator 18.0.0, SVG Export Plug-In . SVG Version: 6.00 Build 0)  -->
<!DOCTYPE svg PUBLIC "-//W3C//DTD SVG 1.1//EN" "http://www.w3.org/Graphics/SVG/1.1/DTD/svg11.dtd">
<svg version="1.1" id="Capa_1" xmlns="http://www.w3.org/2000/svg" xmlns:xlink="http://www.w3.org/1999/xlink" x="0px" y="0px"
	 viewBox="0 0 41.992 41.992" style="enable-background:new 0 0 41.992 41.992;" xml:space="preserve">
<g>
	<path d="M40.841,10.999c-1.424-2.198-3.962-2.921-6.342-3.362c-0.294-2.93-0.803-5.095-1.214-6.008
		c-0.129-0.287-0.521-1.159-1.368-1.159H2.824c-0.847,0-1.239,0.873-1.369,1.159c-1.528,3.396-4.437,24.006,7.546,37.53
		c1.332,1.503,3.226,2.364,5.197,2.364h6.344c1.971,0,3.865-0.861,5.196-2.364c1.29-1.456,2.398-2.998,3.364-4.588
		c0.31,0.035,0.618,0.06,0.921,0.06c4.897,0,8.945-4.566,10.992-12.544C42.372,16.801,42.317,13.278,40.841,10.999z M24.241,37.833
		c-0.952,1.074-2.3,1.69-3.699,1.69h-4.839h-1.505c-1.399,0-2.748-0.616-3.7-1.69C-0.904,24.963,2.075,5.159,3.264,2.469h28.212
		C32.665,5.159,35.643,24.964,24.241,37.833z M39.078,21.588c-1.381,5.385-4.397,10.828-8.866,11.017
		c4.076-7.854,4.798-16.618,4.446-22.9c2.136,0.443,3.651,1.064,4.503,2.381C40.297,13.838,40.27,16.948,39.078,21.588z"/>
	<path d="M7.125,17.028c-0.059-0.549-0.56-0.947-1.1-0.888c-0.549,0.059-0.947,0.551-0.888,1.101
		c0.698,6.537,3.254,13.052,7.392,18.837c0.195,0.272,0.502,0.418,0.814,0.418c0.201,0,0.404-0.061,0.581-0.187
		c0.449-0.321,0.553-0.946,0.232-1.396C10.218,29.409,7.787,23.224,7.125,17.028z"/>
	<path d="M6.052,11.09c0.046,0.006,0.091,0.009,0.136,0.009c0.493,0,0.921-0.364,0.99-0.866c0.19-1.406,0.462-3.001,1.29-4.113
		C8.797,5.676,8.705,5.05,8.261,4.72c-0.443-0.328-1.07-0.235-1.399,0.206C5.804,6.35,5.436,8.189,5.195,9.965
		C5.122,10.512,5.506,11.016,6.052,11.09z"/>
</g>
<g>
</g>
<g>
</g>
<g>
</g>
<g>
</g>
<g>
</g>
<g>
</g>
<g>
</g>
<g>
</g>
<g>
</g>
<g>
</g>
<g>
</g>
<g>
</g>
<g>
</g>
<g>
</g>
<g>
</g>
</svg>
