<?xml version="1.0" encoding="iso-8859-1"?>
<!-- Generator: Adobe Illustrator 18.0.0, SVG Export Plug-In . SVG Version: 6.00 Build 0)  -->
<!DOCTYPE svg PUBLIC "-//W3C//DTD SVG 1.1//EN" "http://www.w3.org/Graphics/SVG/1.1/DTD/svg11.dtd">
<svg version="1.1" id="Capa_1" xmlns="http://www.w3.org/2000/svg" xmlns:xlink="http://www.w3.org/1999/xlink" x="0px" y="0px"
	 viewBox="0 0 48.195 48.195" style="enable-background:new 0 0 48.195 48.195;" xml:space="preserve">
<g>
	<path d="M5.813,11.6c1.487,1.986,4.313,2.39,6.299,0.905l0.128-0.115c0.274-0.291,0.73-0.674,1.113-0.974
		c0.739,1.072,1.143,2.068,1.078,2.691c-0.027,0.203-0.125,1.253,0.595,1.982c0.274,0.278,0.746,0.584,1.49,0.584
		c0.109,0,0.226-0.007,0.347-0.021c0.258-0.029,0.509-0.129,0.732-0.294l2.904-2.174c0.213-0.163,0.378-0.374,0.477-0.608
		c0.377-0.885,0.197-1.536-0.021-1.927c-0.497-0.896-1.532-1.099-1.707-1.125c-0.638-0.117-1.48-0.782-2.303-1.794
		c0.377-0.267,0.837-0.568,1.155-0.73l0.146-0.091c0.959-0.718,1.581-1.77,1.753-2.962c0.171-1.192-0.13-2.377-0.888-3.385
		c-1.428-1.676-3.456-2.005-6.028-0.985l-0.009,0.004c-2.559,1.044-4.82,2.737-6.586,4.959c-1.482,2.188-1.734,4.19-0.748,5.948
		L5.813,11.6z M8.1,6.725c1.506-1.891,3.486-3.374,5.728-4.289c2.253-0.894,3.194-0.242,3.724,0.376
		C17.95,3.343,18.116,4,18.021,4.663c-0.093,0.643-0.419,1.21-0.921,1.606c-0.445,0.245-2.321,1.318-2.502,2.044l-0.107,0.443
		l0.256,0.371c0.768,1.113,2.327,3.031,4.154,3.367c0.119,0.021,0.304,0.096,0.293,0.088c0.001,0.001,0.002,0.029-0.016,0.093
		l-2.671,1.999c-0.031,0.001-0.051,0.001-0.058,0.004c-0.028-0.066-0.045-0.218-0.032-0.338c0.189-1.832-1.211-3.868-2.06-4.915
		l-0.291-0.357L13.612,9.05c-0.007,0-0.014,0-0.021,0c-0.751,0-2.352,1.521-2.727,1.89c-1.083,0.773-2.589,0.554-3.412-0.489
		C7.21,10.007,6.676,8.833,8.1,6.725z"/>
	<path d="M24.449,9.615l0.162,0.059c0.454,0.121,1.111,0.384,1.613,0.604c-0.668,1.344-1.438,2.28-2.114,2.561
		c-0.124,0.048-1.218,0.492-1.538,1.543c-0.137,0.447-0.178,1.153,0.4,1.974c0.15,0.219,0.364,0.397,0.626,0.521l3.587,1.654
		c0.208,0.095,0.431,0.144,0.654,0.144c0.045,0,0.091-0.002,0.137-0.006c1.007-0.095,1.518-0.585,1.77-0.979
		c0.59-0.927,0.218-2.047,0.183-2.145c-0.229-0.707-0.015-1.925,0.564-3.294c0.464,0.227,1.039,0.531,1.397,0.778l0.149,0.086
		c1.166,0.536,2.474,0.585,3.682,0.141c1.21-0.446,2.172-1.334,2.733-2.557c0.851-2.198,0.125-4.282-2.158-6.191l-0.008-0.006
		c-2.317-1.9-5.101-3.185-8.127-3.722c-2.831-0.281-4.854,0.502-6.008,2.329l-0.063,0.115c-0.537,1.165-0.587,2.473-0.141,3.682
		C22.397,8.116,23.285,9.078,24.449,9.615z M23.882,4.122c0.733-1.11,2.07-1.553,4.006-1.362c2.611,0.467,5.077,1.603,7.13,3.286
		c2.071,1.733,1.928,3.012,1.597,3.874c-0.313,0.68-0.876,1.198-1.584,1.459c-0.689,0.253-1.433,0.233-2.096-0.055
		c-0.455-0.289-2.438-1.524-3.187-1.33l-0.445,0.115l-0.206,0.404c-0.662,1.303-1.681,3.769-1.062,5.675
		c0.033,0.094,0.065,0.35,0.031,0.417c-0.001,0.001-0.041,0.032-0.159,0.055l-3.358-1.548c-0.056-0.098-0.063-0.146-0.064-0.146
		c0.028-0.069,0.207-0.203,0.365-0.269c1.826-0.756,3.039-3.133,3.601-4.486l0.171-0.426L28.42,9.38
		c-0.34-0.686-2.656-1.441-3.187-1.606c-0.653-0.317-1.151-0.869-1.405-1.559C23.574,5.526,23.594,4.786,23.882,4.122z"/>
	<path d="M47.124,18.406c-0.49-2.146-2.135-3.378-4.89-3.662l-0.01-0.001c-2.757-0.255-5.539,0.199-8.132,1.352
		c-2.327,1.254-3.476,2.912-3.415,4.928l0.013,0.131c0.4,2.449,2.724,4.12,5.166,3.716l0.167-0.043
		c0.377-0.131,0.959-0.259,1.436-0.348c0.16,1.293,0.057,2.362-0.288,2.885c-0.118,0.167-0.689,1.054-0.389,2.033
		c0.131,0.428,0.476,1.009,1.377,1.352c0.166,0.063,0.344,0.095,0.525,0.095c0.083,0,0.167-0.007,0.251-0.02l3.575-0.584
		c0.267-0.045,0.513-0.156,0.709-0.319c0.743-0.609,0.885-1.271,0.873-1.718c-0.027-1.024-0.851-1.682-0.993-1.786
		c-0.512-0.399-0.953-1.382-1.213-2.657c0.447-0.062,0.973-0.121,1.363-0.112l0.086,0.001l0.085-0.014
		c1.183-0.193,2.221-0.838,2.924-1.815C47.049,20.84,47.33,19.65,47.124,18.406z M44.721,20.65c-0.379,0.527-0.932,0.88-1.562,0.998
		c-0.513,0.014-2.668,0.104-3.157,0.65l-0.305,0.345l0.056,0.451c0.166,1.342,0.662,3.764,2.138,4.915
		c0.049,0.035,0.187,0.186,0.208,0.205c0,0-0.012,0.026-0.057,0.074l-3.293,0.537c-0.028-0.014-0.046-0.022-0.054-0.023
		c0.006-0.071,0.062-0.214,0.127-0.313c1.016-1.535,0.717-3.989,0.449-5.31l-0.093-0.452l-0.396-0.227
		c-0.645-0.369-2.802,0.248-3.31,0.403c-0.638,0.086-1.271-0.071-1.8-0.45c-0.527-0.379-0.881-0.933-0.999-1.562
		c-0.011-0.506,0.059-1.794,2.297-3.004c2.209-0.979,4.647-1.376,7.061-1.154c2.413,0.249,2.946,1.263,3.129,2.057
		C45.269,19.446,45.113,20.106,44.721,20.65z"/>
	<path d="M17.364,41.81c-0.646-0.058-1.548-0.643-2.46-1.573c0.352-0.3,0.781-0.644,1.084-0.834l0.137-0.104
		c1.84-1.664,1.983-4.516,0.276-6.4c-1.578-1.538-3.627-1.681-6.095-0.423l-0.008,0.004c-2.449,1.274-4.545,3.169-6.1,5.545
		c-1.275,2.316-1.341,4.332-0.195,5.993l0.081,0.103c0.804,0.889,1.908,1.411,3.111,1.472c1.21,0.057,2.355-0.35,3.244-1.152
		l0.117-0.127c0.245-0.313,0.664-0.737,1.018-1.071c0.836,1.001,1.328,1.955,1.322,2.58c-0.008,0.205-0.008,1.26,0.776,1.92
		c0.265,0.223,0.687,0.454,1.301,0.454c0.18,0,0.376-0.021,0.589-0.065c0.252-0.055,0.49-0.177,0.692-0.358l2.686-2.429
		c0.198-0.181,0.345-0.406,0.425-0.654c0.293-0.915,0.054-1.547-0.198-1.916C18.59,41.926,17.54,41.82,17.364,41.81z M17.493,43.956
		l-2.476,2.238c-0.031,0.004-0.051,0.006-0.058,0.009c-0.034-0.063-0.064-0.212-0.063-0.332c0.021-1.839-1.562-3.739-2.509-4.71
		l-0.324-0.325l-0.452,0.025c-0.74,0.042-2.216,1.73-2.558,2.135c-0.486,0.419-1.111,0.642-1.757,0.598
		c-0.648-0.032-1.245-0.305-1.686-0.77c-0.283-0.419-0.925-1.538,0.3-3.769c1.327-2.023,3.162-3.683,5.308-4.8
		c2.159-1.102,3.158-0.537,3.742,0.029c0.445,0.492,0.672,1.132,0.639,1.801c-0.033,0.648-0.306,1.245-0.771,1.687
		c-0.424,0.29-2.188,1.538-2.3,2.262l-0.068,0.454l0.291,0.347c0.868,1.037,2.599,2.802,4.461,2.969
		c0.061,0.004,0.259,0.055,0.287,0.061C17.5,43.864,17.505,43.893,17.493,43.956z"/>
	<path d="M32.577,31.275l0.071-0.11c0.986-1.758,0.734-3.76-0.794-6.011c-1.723-2.16-3.984-3.854-6.54-4.896l-0.009-0.004
		c-2.571-1.021-4.6-0.69-6.068,1.034c-0.718,0.96-1.019,2.145-0.848,3.337c0.172,1.191,0.794,2.244,1.753,2.962l0.146,0.091
		c0.335,0.171,0.788,0.469,1.156,0.729c-0.82,1.011-1.661,1.677-2.276,1.79c-0.202,0.031-1.237,0.233-1.735,1.13
		c-0.217,0.391-0.396,1.042-0.02,1.928c0.103,0.239,0.27,0.451,0.484,0.612l2.901,2.172c0.214,0.158,0.462,0.259,0.722,0.29
		c0.122,0.015,0.238,0.021,0.349,0.021c0.749,0,1.221-0.307,1.494-0.584c0.72-0.73,0.622-1.779,0.599-1.954
		c-0.067-0.646,0.336-1.646,1.075-2.721c0.382,0.3,0.838,0.684,1.112,0.974l0.128,0.115c0.96,0.718,2.146,1.019,3.337,0.848
		C30.806,32.856,31.859,32.234,32.577,31.275z M30.938,30.126c-0.396,0.503-0.966,0.83-1.608,0.923
		c-0.647,0.087-1.282-0.063-1.804-0.434c-0.378-0.371-2.009-1.898-2.744-1.89l-0.461,0.019l-0.287,0.354
		c-0.851,1.052-2.25,3.089-2.058,4.947c0.008,0.061-0.004,0.264-0.004,0.293c-0.001,0.001-0.027,0.011-0.092,0.012l-2.672-2.001
		c-0.01-0.03-0.015-0.048-0.02-0.055c0.055-0.045,0.196-0.104,0.314-0.126c1.812-0.334,3.371-2.251,4.138-3.361l0.26-0.38
		l-0.11-0.441c-0.18-0.711-2.051-1.789-2.499-2.039c-0.503-0.396-0.83-0.965-0.923-1.607c-0.095-0.663,0.071-1.321,0.43-1.804
		c0.569-0.667,1.516-1.317,3.764-0.425c2.238,0.914,4.219,2.397,5.682,4.227C31.713,28.507,31.18,29.683,30.938,30.126z"/>
	<path d="M6.378,26.743l0.15-0.085c0.188-0.131,0.479-0.292,0.755-0.435c0.329,0.848,0.447,1.572,0.315,1.979
		c-0.061,0.171-0.339,1.062,0.154,1.835c0.218,0.341,0.655,0.765,1.504,0.844c0.044,0.005,0.088,0.007,0.132,0.007
		c0.204,0,0.408-0.046,0.592-0.132l2.663-1.228c0.228-0.106,0.421-0.268,0.558-0.464c0.492-0.699,0.455-1.307,0.337-1.693
		c-0.269-0.878-1.127-1.245-1.27-1.299c-0.408-0.169-0.895-0.743-1.327-1.54c0.31-0.129,0.651-0.259,0.902-0.325l0.163-0.059
		c1.917-0.885,2.757-3.164,1.874-5.081l-0.063-0.116c-0.912-1.443-2.489-2.067-4.775-1.835c-2.231,0.399-4.336,1.37-6.087,2.806
		l-0.008,0.007c-1.786,1.494-2.351,3.137-1.651,4.94C2.182,26.785,4.463,27.627,6.378,26.743z M11.427,27.887l-1.91,0.881
		c0.339-1.154-0.038-2.528-0.522-3.646C9.528,26.216,10.326,27.39,11.427,27.887z M3.137,24.09c-0.247-0.64-0.311-1.451,1.09-2.624
		c1.487-1.219,3.273-2.042,5.091-2.37c1.96-0.197,2.559,0.541,2.771,0.864c0.373,0.885-0.006,1.912-0.862,2.345
		c-0.449,0.135-2.195,0.694-2.505,1.319l-0.202,0.413l-0.042,0.021l-0.442-0.114c-0.675-0.178-2.18,0.765-2.556,1.011
		C4.577,25.332,3.527,24.928,3.137,24.09z"/>
	<path d="M41.16,35.249c-1.837-1.328-3.997-2.169-6.246-2.43l-0.009-0.001c-2.315-0.248-3.89,0.486-4.701,2.242
		c-0.37,0.95-0.347,1.99,0.065,2.929c0.413,0.938,1.163,1.659,2.114,2.028l0.165,0.049c0.225,0.045,0.541,0.142,0.836,0.241
		c-0.381,0.819-0.826,1.417-1.204,1.602c-0.165,0.075-0.998,0.493-1.213,1.385c-0.095,0.394-0.095,1.003,0.441,1.675
		c0.154,0.191,0.359,0.34,0.588,0.427l2.721,1.06c0.17,0.067,0.349,0.102,0.522,0.102c0.071,0,0.143-0.006,0.211-0.018
		c0.845-0.131,1.256-0.58,1.452-0.934c0.445-0.802,0.114-1.674,0.054-1.815c-0.162-0.411-0.088-1.158,0.187-2.024
		c0.309,0.133,0.64,0.289,0.862,0.424l0.154,0.075c0.949,0.37,1.99,0.346,2.929-0.065c0.938-0.413,1.659-1.163,2.028-2.114
		l0.04-0.125C43.562,38.3,42.911,36.731,41.16,35.249z M35.067,44.444l-1.961-0.763c1.067-0.56,1.794-1.783,2.26-2.907
		C34.95,41.918,34.66,43.307,35.067,44.444z M41.23,39.417c-0.183,0.426-0.517,0.762-0.946,0.951
		c-0.43,0.188-0.902,0.207-1.337,0.056c-0.403-0.228-2.018-1.106-2.698-0.884l-0.432,0.143l-0.27-0.418
		c-0.342-0.6-2.057-1.032-2.5-1.136c-0.424-0.183-0.759-0.516-0.947-0.944c-0.197-0.45-0.209-0.946-0.058-1.341
		c0.288-0.622,0.829-1.232,2.646-1.037c1.908,0.222,3.74,0.936,5.239,2.016C41.431,38.099,41.315,39.039,41.23,39.417z"/>
</g>
<g>
</g>
<g>
</g>
<g>
</g>
<g>
</g>
<g>
</g>
<g>
</g>
<g>
</g>
<g>
</g>
<g>
</g>
<g>
</g>
<g>
</g>
<g>
</g>
<g>
</g>
<g>
</g>
<g>
</g>
</svg>
