<?xml version="1.0" encoding="iso-8859-1"?>
<!-- Generator: Adobe Illustrator 18.0.0, SVG Export Plug-In . SVG Version: 6.00 Build 0)  -->
<!DOCTYPE svg PUBLIC "-//W3C//DTD SVG 1.1//EN" "http://www.w3.org/Graphics/SVG/1.1/DTD/svg11.dtd">
<svg version="1.1" id="Capa_1" xmlns="http://www.w3.org/2000/svg" xmlns:xlink="http://www.w3.org/1999/xlink" x="0px" y="0px"
	 viewBox="0 0 56.894 56.894" style="enable-background:new 0 0 56.894 56.894;" xml:space="preserve">
<path d="M36.666,33.935c1.087,1.733,2.812,2.674,4.651,2.674c0.855,0,1.735-0.203,2.589-0.625l3.313-1.169l-2.209-2.73
	c-0.922-1.471-2.307-2.349-3.827-2.588c1.152-0.075,2.296-0.51,3.292-1.35l2.938-1.925l-2.798-2.126
	c-0.637-0.617-1.359-1.039-2.114-1.308c0.63-0.481,1.179-1.106,1.598-1.877l2.03-2.864l-3.377-0.958
	c-1.324-0.553-2.674-0.595-3.882-0.214c0.858-0.685,1.523-1.643,1.882-2.827l1.414-3.216l-3.503-0.258
	c-2.946-0.571-5.577,1.01-6.447,3.88l-1.128,2.569c-0.697-0.804-1.46-1.547-2.28-2.226l2.712-1.44
	c2.797-1.079,4.183-3.825,3.39-6.717l-0.516-3.474l-3.102,1.647c-2.797,1.08-4.183,3.826-3.39,6.718l0.426,2.87
	c-0.931-0.72-1.935-1.349-2.995-1.887l1.326-2.411c1.75-2.435,1.406-5.491-0.84-7.477L23.483,0L21.79,3.076
	c-1.749,2.435-1.405,5.492,0.842,7.479l1.106,1.242c-0.244-0.096-0.482-0.201-0.731-0.287c-0.43-0.148-0.879,0.023-1.13,0.377
	l-1.818-2.09c-1.684-2.479-4.671-3.21-7.31-1.786L9.481,9.298l2.305,2.649c1.109,1.634,2.783,2.508,4.551,2.508
	c0.296,0,0.595-0.034,0.894-0.084c-1.414,0.548-2.572,1.675-3.173,3.278l-1.617,3.119l3.479,0.481
	c0.525,0.138,1.046,0.205,1.552,0.205c0.904,0,1.757-0.221,2.516-0.622c-0.275,0.824-0.381,1.728-0.242,2.686l0.086,3.511
	l3.28-1.254c0.272-0.068,0.522-0.167,0.772-0.266c-0.081,0.269-0.159,0.541-0.204,0.831l-0.95,3.381l3.504-0.235
	c0.044,0.002,0.085-0.006,0.13-0.005c-0.56,0.498-1.043,1.113-1.4,1.858l-1.888,2.961l3.423,0.789
	c0.401,0.145,0.8,0.233,1.198,0.291c-1.465,0.123-2.859,0.835-3.891,2.137l-2.495,2.472l3.162,1.526
	c0.987,0.632,2.051,0.939,3.093,0.939c1.624,0,3.194-0.747,4.329-2.178l0.138-0.137c-3.122,7.542-9.843,13.079-18.703,14.771
	c-0.543,0.104-0.898,0.628-0.795,1.17c0.092,0.479,0.511,0.813,0.981,0.813c0.063,0,0.125-0.006,0.188-0.018
	c9.01-1.72,15.967-7.133,19.558-14.569l-0.138,2.942c-0.496,2.957,1.16,5.549,4.052,6.341l3.251,1.325l0.164-3.507
	c0.496-2.958-1.16-5.55-4.052-6.341l-3.037-1.24c0.547-1.195,0.993-2.447,1.363-3.736l0.423,1.494
	c0.466,2.961,2.854,4.904,5.851,4.731l3.505,0.228l-0.956-3.379c-0.466-2.963-2.877-4.905-5.851-4.731l-2.517-0.163
	c0.234-1.098,0.409-2.221,0.511-3.37L36.666,33.935z M32.056,6.66l0.774-0.402l0.109,0.736l0.027,0.127
	c0.549,1.922-0.341,3.685-2.213,4.385l-0.774,0.402l-0.109-0.735l-0.027-0.127C29.294,9.124,30.184,7.361,32.056,6.66z
	 M23.441,4.205l0.429-0.762L24.365,4l0.093,0.091c1.511,1.309,1.731,3.271,0.549,4.881l-0.429,0.762l-0.494-0.556l-0.093-0.091
	C22.48,7.778,22.259,5.816,23.441,4.205z M35.105,45.534l0.049-0.872l0.688,0.28l0.124,0.041c1.933,0.508,2.996,2.172,2.645,4.14
	l-0.049,0.872l-0.689-0.28l-0.122-0.041C35.817,49.165,34.754,47.502,35.105,45.534z M37.834,38.438l0.065-0.004
	c1.985-0.14,3.529,1.111,3.819,3.088l0.229,0.843l-0.807-0.052l-0.065,0.004c-1.982,0.148-3.529-1.11-3.819-3.088l-0.229-0.843
	L37.834,38.438z M35.937,30.682c0.004-0.287,0.027-0.568,0.023-0.858c-0.015-0.979-0.106-1.943-0.258-2.89l1.253,0.952
	c0.88,0.852,1.913,1.363,2.984,1.55c-0.722,0.056-1.455,0.245-2.169,0.599L35.937,30.682z M34.54,22.713L37,23.41
	c0.153,0.064,0.307,0.117,0.461,0.168c-0.121,0.088-0.249,0.159-0.366,0.258l-1.799,1.18C35.09,24.229,34.837,23.461,34.54,22.713z
	 M43.341,33.187l0.542,0.685l-0.701,0.247l-0.119,0.052c-1.783,0.902-3.683,0.366-4.727-1.338l-0.543-0.685l0.701-0.247l0.119-0.052
	C40.397,30.946,42.296,31.483,43.341,33.187z M43.947,26.1l-0.621,0.408l-0.104,0.078c-1.517,1.306-3.488,1.236-4.909-0.17
	l-0.689-0.535l0.621-0.407l0.104-0.078c1.516-1.306,3.489-1.236,4.909,0.169L43.947,26.1z M42.022,18.951l0.838,0.246l-0.43,0.606
	l-0.068,0.11c-0.936,1.767-2.798,2.422-4.634,1.632L36.892,21.3l0.43-0.606l0.068-0.11C38.324,18.816,40.186,18.158,42.022,18.951z
	 M34.071,15.199l0.044-0.122c0.56-1.918,2.247-2.94,4.209-2.532l0.87,0.072l-0.299,0.681l-0.045,0.122
	c-0.56,1.919-2.255,2.937-4.208,2.532l-0.871-0.072L34.071,15.199z M34.305,17.925c0.403,0.078,0.801,0.117,1.189,0.117
	c0.586,0,1.148-0.092,1.677-0.259c-0.595,0.472-1.117,1.068-1.517,1.805l-1.531,2.158c-0.659-1.438-1.48-2.786-2.449-4.015
	L34.305,17.925z M31.741,21.449l-2.22,0.149c-0.858-0.043-1.656,0.102-2.384,0.376c0.216-0.76,0.291-1.582,0.166-2.448l-0.085-3.454
	C29.069,17.53,30.603,19.365,31.741,21.449z M13.415,10.785l-0.566-0.665l0.692-0.272l0.117-0.056
	c1.748-0.969,3.666-0.498,4.771,1.166l0.566,0.665l-0.692,0.272l-0.117,0.056C16.438,12.919,14.52,12.449,13.415,10.785z
	 M19.096,13.733l2.632-1.038c0.08,0.315,0.295,0.59,0.625,0.705c1.765,0.612,3.382,1.512,4.817,2.633l-3.234,1.236
	c-0.484,0.121-0.921,0.309-1.335,0.525c0,0,0.001-0.001,0.001-0.002l1.617-3.117l-3.479-0.482c-0.817-0.215-1.615-0.24-2.372-0.127
	C18.613,13.972,18.856,13.863,19.096,13.733z M16.383,19.304l-0.864-0.129l0.343-0.66l0.053-0.119
	c0.681-1.879,2.435-2.787,4.362-2.257l0.864,0.129l-0.343,0.659l-0.053,0.12C20.063,18.925,18.308,19.831,16.383,19.304z
	 M22.58,23.847l-0.819,0.304l-0.018-0.743l-0.012-0.13c-0.308-1.975,0.792-3.614,2.735-4.079l0.819-0.304l0.018,0.743l0.012,0.13
	C25.624,21.743,24.524,23.382,22.58,23.847z M26.228,27.482l-0.807,0.054l0.201-0.715l0.026-0.128
	c0.273-1.886,1.679-3.104,3.538-3.104c0.091,0,0.183,0.003,0.275,0.009l0.065,0.004l0.807-0.054l-0.201,0.716l-0.026,0.128
	c-0.286,1.978-1.797,3.227-3.813,3.095L26.228,27.482z M32.075,24.744l0.465-1.655c0.769,1.827,1.237,3.805,1.371,5.859
	l-1.985-0.458c-0.568-0.205-1.134-0.299-1.691-0.333C31.19,27.328,31.856,26.159,32.075,24.744z M26.284,32.988l0.399-0.627
	l0.063-0.114c0.846-1.811,2.673-2.558,4.545-1.86l0.85,0.205l-0.399,0.627l-0.063,0.113c-0.846,1.812-2.676,2.562-4.546,1.86
	L26.284,32.988z M30.441,38.899l-0.086,0.098c-1.227,1.579-3.173,1.905-4.845,0.809l-0.783-0.387l0.529-0.523l0.086-0.098
	c1.226-1.579,3.172-1.905,4.845-0.809l0.783,0.387L30.441,38.899z M31.227,36.279c-0.726-0.465-1.495-0.734-2.265-0.855
	c1.901-0.152,3.587-1.28,4.501-3.184l0.454-0.712c-0.088,1.953-0.381,3.836-0.867,5.631L31.227,36.279z"/>
<g>
</g>
<g>
</g>
<g>
</g>
<g>
</g>
<g>
</g>
<g>
</g>
<g>
</g>
<g>
</g>
<g>
</g>
<g>
</g>
<g>
</g>
<g>
</g>
<g>
</g>
<g>
</g>
<g>
</g>
</svg>
