<?xml version="1.0" encoding="iso-8859-1"?>
<!-- Generator: Adobe Illustrator 18.0.0, SVG Export Plug-In . SVG Version: 6.00 Build 0)  -->
<!DOCTYPE svg PUBLIC "-//W3C//DTD SVG 1.1//EN" "http://www.w3.org/Graphics/SVG/1.1/DTD/svg11.dtd">
<svg version="1.1" id="Capa_1" xmlns="http://www.w3.org/2000/svg" xmlns:xlink="http://www.w3.org/1999/xlink" x="0px" y="0px"
	 viewBox="0 0 59.635 59.635" style="enable-background:new 0 0 59.635 59.635;" xml:space="preserve">
<g>
	<path d="M52.254,35.315c-0.441-0.446-1.002-0.682-1.62-0.682c-0.384,0-0.79,0.103-1.207,0.288l-0.019-0.063
		c-1.625,0.332-3.324,0.75-4.967,1.154c-4.203,1.035-8.524,2.092-11.288,1.613c0.037-1.52-1.584-3.561-3.545-5.167
		c-1.196-0.979-2.461-1.75-3.562-2.171c-0.961-0.366-1.658-0.41-2.169-0.299c-4.359-7.775-4.223-19.737-2.71-27.847
		c0.153-0.822-0.238-1.614-0.975-1.971c-0.697-0.337-1.512-0.165-2.026,0.427c-3.45,3.982-6.421,9.917-8.062,16.01l-0.658-0.065
		c-0.662-0.063-1.627,0.231-2.432,2.035c-0.481,1.076-0.829,2.516-0.98,4.055C5.722,25.8,6.268,29.081,8.192,29.27l0.515,0.051
		c0.153,2.507,0.584,4.896,1.285,7.13l-2.147,1.603c-1.548,1.156-0.32,4.248,1.583,6.799h0.001c1.53,2.05,3.52,3.779,5.046,3.779
		c0.373,0,0.718-0.103,1.022-0.329l1.307-0.977c2.237,2.074,4.919,3.821,7.993,5.204l-0.438,1.347
		c-0.217,0.667-0.12,1.725,1.573,2.975c1.031,0.762,2.481,1.469,4.083,1.989c1.502,0.488,3.069,0.794,4.388,0.794
		c1.555,0,2.763-0.426,3.106-1.481l0.677-2.082c2.946,0.369,6.113,0.564,9.461,0.564c0.194,0,0.391-0.001,0.587-0.002v0
		c2.621-0.004,5.419-2.423,5.419-9.204c0-0.728,0.007-1.464,0.015-2.195C53.712,40.722,53.75,36.825,52.254,35.315z M28.341,34.006
		c1.937,1.587,2.772,3.02,2.82,3.492l-1.752,2.139c-0.462,0.043-2.04-0.489-3.979-2.077c-1.938-1.587-2.773-3.02-2.82-3.492
		l1.752-2.138C24.863,31.878,26.405,32.42,28.341,34.006z M8.024,22.828c0.245-2.493,0.975-3.983,1.341-4.283l2.751,0.271
		c0.301,0.366,0.725,1.971,0.479,4.464c-0.245,2.492-0.975,3.983-1.341,4.283l-2.648-0.261v0l-0.103-0.01
		C8.203,26.926,7.779,25.322,8.024,22.828z M14.394,46.63c-0.469-0.067-1.863-0.967-3.363-2.975
		c-1.498-2.008-1.964-3.601-1.896-4.069l2.201-1.643c0.339,0.05,1.161,0.516,2.176,1.554c0.025,0.026,0.048,0.046,0.073,0.073
		c0.128,0.134,0.262,0.286,0.395,0.438c0.056,0.063,0.109,0.119,0.166,0.186c0.106,0.125,0.215,0.27,0.323,0.407
		c0.081,0.104,0.161,0.198,0.244,0.308c1.499,2.007,1.965,3.6,1.896,4.068l-1.259,0.938l0.001,0.001L14.394,46.63z M30.635,56.938
		c-2.782-0.904-4.168-2.111-4.346-2.527l0.961-2.955c0.146-0.088,0.495-0.165,1.02-0.18c0.701-0.02,1.715,0.072,2.983,0.399
		c0.317,0.082,0.65,0.178,0.997,0.291c2.782,0.904,4.168,2.111,4.346,2.527l-0.961,2.955C35.247,57.682,33.418,57.843,30.635,56.938
		z M38.568,54.114c-0.022-0.101-0.058-0.207-0.1-0.315c-0.009-0.024-0.018-0.047-0.029-0.071c-0.048-0.112-0.106-0.226-0.18-0.345
		c-0.01-0.016-0.022-0.032-0.032-0.048c-0.072-0.112-0.157-0.226-0.254-0.343c-0.016-0.02-0.031-0.039-0.048-0.059
		c-0.109-0.126-0.235-0.255-0.376-0.386c-0.028-0.026-0.058-0.052-0.087-0.079c-0.153-0.136-0.317-0.274-0.509-0.416
		c-1.031-0.762-2.481-1.469-4.083-1.989c-0.203-0.066-0.407-0.128-0.611-0.188c-0.042-0.012-0.085-0.022-0.128-0.034
		c-0.163-0.046-0.326-0.091-0.489-0.132c-0.041-0.01-0.081-0.019-0.121-0.028c-0.165-0.04-0.329-0.079-0.492-0.114
		c-0.042-0.009-0.083-0.016-0.124-0.024c-0.162-0.033-0.323-0.065-0.482-0.092c-0.043-0.007-0.085-0.013-0.127-0.02
		c-0.157-0.026-0.313-0.05-0.467-0.07c-0.045-0.006-0.089-0.01-0.134-0.015c-0.149-0.017-0.297-0.034-0.443-0.045
		c-0.047-0.004-0.093-0.005-0.14-0.008c-0.141-0.009-0.28-0.017-0.417-0.021c-0.049-0.001-0.096,0-0.144,0
		c-0.13-0.001-0.26-0.001-0.385,0.004c-0.052,0.002-0.101,0.007-0.152,0.01c-0.117,0.007-0.234,0.015-0.346,0.028
		c-0.054,0.006-0.106,0.016-0.159,0.023c-0.103,0.015-0.206,0.031-0.304,0.051c-0.055,0.012-0.106,0.026-0.16,0.04
		c-0.09,0.022-0.18,0.045-0.264,0.073c-0.054,0.018-0.103,0.039-0.155,0.058c-0.077,0.029-0.154,0.059-0.225,0.093
		c-0.051,0.025-0.098,0.053-0.147,0.08c-0.063,0.036-0.127,0.072-0.185,0.112c-0.047,0.033-0.09,0.07-0.133,0.105
		c-0.051,0.042-0.101,0.083-0.146,0.13c-0.041,0.042-0.076,0.087-0.113,0.132c-0.039,0.048-0.077,0.096-0.11,0.148
		c-0.032,0.051-0.059,0.105-0.087,0.16c-0.018,0.036-0.041,0.067-0.057,0.104c-2.716-1.244-5.093-2.786-7.089-4.601
		c0.01-0.017,0.015-0.041,0.025-0.059c0.051-0.094,0.095-0.199,0.133-0.314c0.012-0.036,0.025-0.069,0.035-0.108
		c0.04-0.152,0.067-0.322,0.075-0.512c0.002-0.039-0.002-0.083-0.002-0.123c0.001-0.162-0.012-0.339-0.039-0.53
		c-0.009-0.066-0.019-0.133-0.032-0.203c-0.046-0.249-0.107-0.512-0.205-0.81c-0.234-0.707-0.616-1.485-1.09-2.274
		c-0.277-0.461-0.577-0.925-0.918-1.382c-0.141-0.188-0.286-0.373-0.433-0.554c-0.04-0.049-0.08-0.097-0.121-0.145
		c-0.114-0.138-0.23-0.273-0.348-0.405c-0.048-0.054-0.096-0.108-0.145-0.162c-0.125-0.137-0.251-0.27-0.379-0.399
		c-0.075-0.076-0.15-0.15-0.226-0.224c-0.11-0.106-0.219-0.21-0.33-0.31c-0.093-0.084-0.186-0.163-0.28-0.242
		c-0.06-0.051-0.12-0.1-0.18-0.148c-0.342-0.275-0.686-0.512-1.029-0.702c-0.057-0.032-0.114-0.063-0.171-0.092
		c-0.095-0.048-0.189-0.094-0.284-0.135c-0.134-0.057-0.266-0.106-0.397-0.145c-0.02-0.006-0.042-0.017-0.062-0.023
		c-0.653-2.032-1.064-4.214-1.229-6.506l0.469,0.046c0.054,0.005,0.108,0.008,0.165,0.008c0.017,0,0.036-0.004,0.054-0.004
		c0.034-0.001,0.069-0.005,0.105-0.008c0.055-0.005,0.11-0.013,0.168-0.025c0.039-0.008,0.077-0.018,0.117-0.029
		c0.056-0.016,0.111-0.035,0.168-0.058c0.043-0.017,0.087-0.035,0.131-0.057c0.055-0.027,0.11-0.06,0.166-0.094
		c0.047-0.029,0.093-0.058,0.141-0.092c0.055-0.041,0.111-0.089,0.167-0.138c0.047-0.042,0.095-0.081,0.142-0.129
		c0.058-0.059,0.116-0.129,0.174-0.198c0.045-0.053,0.09-0.102,0.134-0.162c0.066-0.088,0.13-0.192,0.195-0.295
		c0.036-0.058,0.073-0.107,0.109-0.17c0.101-0.175,0.2-0.368,0.296-0.585c0.481-1.076,0.829-2.517,0.98-4.055
		s0.091-3.018-0.17-4.167c-0.055-0.24-0.116-0.458-0.184-0.656c-0.472-1.382-1.222-1.758-1.804-1.815l-0.32-0.032
		c1.477-5.32,4.003-10.469,6.937-14.135c-0.751,4.533-2.489,18.805,3.253,28.623l-0.259,0.316l-1.05,1.281
		c-0.063,0.077-0.12,0.167-0.173,0.265c-0.017,0.031-0.03,0.063-0.045,0.095c-0.03,0.064-0.055,0.131-0.078,0.203
		c-0.012,0.038-0.022,0.077-0.031,0.116c-0.017,0.071-0.029,0.146-0.037,0.225c-0.004,0.036-0.007,0.072-0.008,0.108
		c-0.005,0.086-0.003,0.177,0.004,0.273c0.002,0.027,0.005,0.054,0.008,0.081c0.011,0.104,0.029,0.212,0.056,0.327
		c0.002,0.009,0.005,0.018,0.007,0.026c0.076,0.315,0.217,0.671,0.436,1.071c0.039,0.071,0.078,0.142,0.12,0.213
		c0.03,0.051,0.051,0.097,0.084,0.149c0.019,0.031,0.046,0.063,0.066,0.093c0.132,0.204,0.277,0.409,0.435,0.614
		c0.033,0.042,0.066,0.084,0.1,0.127c0.181,0.228,0.373,0.455,0.58,0.68c0.023,0.025,0.047,0.05,0.07,0.075
		c0.225,0.241,0.46,0.479,0.708,0.712c0.016,0.015,0.032,0.029,0.048,0.044c0.265,0.247,0.54,0.489,0.823,0.72
		c1.195,0.979,2.461,1.751,3.562,2.171c0.207,0.079,0.398,0.139,0.582,0.19c0.054,0.015,0.105,0.028,0.157,0.04
		c0.135,0.033,0.263,0.059,0.385,0.078c0.042,0.007,0.087,0.015,0.127,0.021c0.142,0.017,0.278,0.028,0.403,0.028
		c0.006,0,0.011-0.002,0.017-0.002c0.177-0.001,0.336-0.019,0.481-0.049c0.036-0.008,0.067-0.019,0.102-0.028
		c0.105-0.028,0.202-0.06,0.291-0.099c0.037-0.017,0.073-0.034,0.107-0.053c0.078-0.042,0.149-0.087,0.214-0.135
		c0.026-0.019,0.053-0.037,0.077-0.057c0.082-0.069,0.155-0.141,0.216-0.215l1.257-1.534c3.218,0.847,7.872-0.297,12.779-1.505
		c0.476-0.117,0.956-0.235,1.438-0.353c-1.956,2.525-3.553,6.288-3.553,9.827c0,0.849,0.044,1.629,0.126,2.345
		c0.245,2.147,0.833,3.715,1.605,4.805C42.457,54.502,40.462,54.346,38.568,54.114z M51.669,45.215
		c-0.008,0.737-0.015,1.48-0.015,2.215c0,4.443-1.313,7.204-3.426,7.204c-2.112,0-3.425-2.761-3.425-7.204
		c0-3.083,1.731-6.65,3.292-8.791c0.985-1.241,1.956-2.005,2.539-2.005c0.075,0,0.124,0.014,0.199,0.089
		C51.741,37.64,51.701,41.841,51.669,45.215z"/>
	<path d="M35.149,54.744c-1.87-1.205-4.249-1.914-7.07-2.108c-0.547-0.029-1.027,0.378-1.066,0.93
		c-0.037,0.551,0.379,1.028,0.93,1.066c2.48,0.17,4.541,0.773,6.125,1.794c0.167,0.107,0.354,0.159,0.54,0.159
		c0.329,0,0.65-0.162,0.842-0.459C35.748,55.662,35.614,55.043,35.149,54.744z"/>
	<path d="M15.606,44.346c-0.883-1.921-1.975-3.553-3.244-4.85c-0.387-0.395-1.02-0.401-1.414-0.016
		c-0.395,0.387-0.401,1.02-0.016,1.414c1.109,1.133,2.07,2.575,2.857,4.287c0.168,0.366,0.53,0.582,0.909,0.582
		c0.14,0,0.281-0.029,0.417-0.092C15.618,45.442,15.838,44.848,15.606,44.346z"/>
	<path d="M23.999,33.194c-0.426,0.352-0.486,0.981-0.135,1.408c1.194,1.447,2.498,2.645,3.875,3.558
		c0.17,0.113,0.362,0.167,0.552,0.167c0.324,0,0.642-0.157,0.834-0.447c0.306-0.46,0.18-1.081-0.28-1.386
		c-1.213-0.805-2.369-1.869-3.438-3.165C25.055,32.904,24.426,32.843,23.999,33.194z"/>
	<path d="M9.758,26.891c0.096,0.028,0.193,0.042,0.288,0.042c0.43,0,0.827-0.279,0.958-0.712c0.633-2.103,0.896-4.068,0.785-5.84
		c-0.034-0.553-0.55-0.962-1.061-0.936c-0.552,0.035-0.971,0.51-0.936,1.061c0.097,1.535-0.141,3.264-0.705,5.139
		C8.928,26.174,9.228,26.732,9.758,26.891z"/>
</g>
<g>
</g>
<g>
</g>
<g>
</g>
<g>
</g>
<g>
</g>
<g>
</g>
<g>
</g>
<g>
</g>
<g>
</g>
<g>
</g>
<g>
</g>
<g>
</g>
<g>
</g>
<g>
</g>
<g>
</g>
</svg>
