<?xml version="1.0" encoding="iso-8859-1"?>
<!-- Generator: Adobe Illustrator 18.0.0, SVG Export Plug-In . SVG Version: 6.00 Build 0)  -->
<!DOCTYPE svg PUBLIC "-//W3C//DTD SVG 1.1//EN" "http://www.w3.org/Graphics/SVG/1.1/DTD/svg11.dtd">
<svg version="1.1" id="Capa_1" xmlns="http://www.w3.org/2000/svg" xmlns:xlink="http://www.w3.org/1999/xlink" x="0px" y="0px"
	 viewBox="0 0 53.53 53.53" style="enable-background:new 0 0 53.53 53.53;" xml:space="preserve">
<g>
	<path d="M50.597,6.576l2.382-6.001l-6.435-0.529c-4.669-0.385-9.031,1.668-11.709,5.28C31.878,4.139,28.76,3.53,25.551,3.53
		c-13.785,0-25,11.215-25,25s11.215,25,25,25s25-11.215,25-25c0-5.641-1.929-11.083-5.416-15.489
		C47.548,11.585,49.493,9.358,50.597,6.576z M48.551,28.53c0,12.682-10.317,23-23,23s-23-10.318-23-23s10.317-23,23-23
		c2.829,0,5.584,0.508,8.204,1.512c-0.005,0.01-0.009,0.02-0.014,0.03c-0.219,0.418-0.426,0.846-0.604,1.293l-1.627,4.1
		c-1.406-0.68-2.694-0.906-2.797-0.922c-0.545-0.09-1.058,0.279-1.147,0.822c-0.091,0.544,0.277,1.059,0.821,1.151
		c0.013,0.002,0.49,0.088,1.136,0.299c-0.392,0.324-0.769,0.666-1.111,1.042c-0.372,0.408-0.342,1.041,0.066,1.413
		c0.191,0.174,0.433,0.26,0.673,0.26c0.271,0,0.542-0.11,0.739-0.327c0.493-0.541,1.058-1.014,1.67-1.416
		c0.625,0.43,1.176,0.99,1.462,1.712c0.156,0.393,0.532,0.632,0.93,0.632c0.123,0,0.248-0.023,0.369-0.071
		c0.513-0.204,0.764-0.785,0.561-1.298c-0.161-0.405-0.371-0.771-0.613-1.106l2.922,0.241c0.374,0.031,0.745,0.046,1.115,0.046
		c0.113,0,0.225-0.01,0.338-0.013c0.074-0.002,0.147-0.005,0.221-0.008c1.562-0.065,3.068-0.398,4.466-0.971
		C46.702,18.058,48.551,23.205,48.551,28.53z M43.645,11.584l-0.482,0.233c-1.333,0.643-2.77,1.012-4.229,1.099
		c-0.07,0.004-0.14,0.006-0.21,0.008c-0.455,0.019-0.912,0.017-1.368-0.02l-2.534-0.209c4.698-4.326,9.603-5.96,10.632-6.169
		c0.288,0.032,0.585-0.067,0.806-0.288c0.256-0.255,0.359-0.642,0.262-0.99s-0.387-0.624-0.738-0.709
		c-0.732-0.171-6.047,1.388-11.259,5.759l0.474-1.193c0.267-0.672,0.619-1.345,1.046-2l0.296-0.453
		c2.265-3.147,6.023-4.939,10.041-4.612l3.743,0.308l-1.386,3.491C47.732,8.372,45.904,10.362,43.645,11.584z"/>
	<circle cx="39.324" cy="19.497" r="2"/>
	<circle cx="44.643" cy="30.652" r="2"/>
	<circle cx="44.324" cy="24.497" r="2"/>
	<circle cx="38.279" cy="28.53" r="2"/>
	<circle cx="39.324" cy="35.497" r="2"/>
	<circle cx="21.324" cy="11.497" r="2"/>
	<circle cx="14.324" cy="14.497" r="2"/>
</g>
<g>
</g>
<g>
</g>
<g>
</g>
<g>
</g>
<g>
</g>
<g>
</g>
<g>
</g>
<g>
</g>
<g>
</g>
<g>
</g>
<g>
</g>
<g>
</g>
<g>
</g>
<g>
</g>
<g>
</g>
</svg>
