<?xml version="1.0" encoding="iso-8859-1"?>
<!-- Generator: Adobe Illustrator 18.0.0, SVG Export Plug-In . SVG Version: 6.00 Build 0)  -->
<!DOCTYPE svg PUBLIC "-//W3C//DTD SVG 1.1//EN" "http://www.w3.org/Graphics/SVG/1.1/DTD/svg11.dtd">
<svg version="1.1" id="Capa_1" xmlns="http://www.w3.org/2000/svg" xmlns:xlink="http://www.w3.org/1999/xlink" x="0px" y="0px"
	 viewBox="0 0 58.365 58.365" style="enable-background:new 0 0 58.365 58.365;" xml:space="preserve">
<path d="M58.265,44.747c-0.237-0.655-0.841-1.079-1.538-1.079h-3.713c0.219-0.456,0.351-0.961,0.351-1.5
	c0-0.98-0.407-1.864-1.058-2.5c0.651-0.636,1.058-1.52,1.058-2.5s-0.407-1.864-1.058-2.5c0.651-0.636,1.058-1.52,1.058-2.5
	c0-0.98-0.407-1.864-1.058-2.5c0.651-0.636,1.058-1.52,1.058-2.5s-0.407-1.864-1.058-2.5c0.651-0.636,1.058-1.52,1.058-2.5
	c0-0.95-0.383-1.81-1-2.442v-5.058H33.172c1.273-1.447,1.467-3.191,0.589-4.784c0.932-0.493,2.113-0.36,2.896,0.423
	c0.195,0.195,0.451,0.293,0.707,0.293s0.512-0.098,0.707-0.293c0.391-0.391,0.391-1.023,0-1.414
	c-1.033-1.033-2.447-1.438-3.792-1.246c0.018-0.166,0.049-0.329,0.049-0.498c0-1.192-0.465-2.314-1.31-3.158
	c-0.391-0.391-1.023-0.391-1.414,0s-0.391,1.024,0,1.414c0.467,0.467,0.724,1.086,0.724,1.744c0,0.313-0.062,0.617-0.173,0.9
	c-1.839-1.381-3.994-1.252-5.673,0.427c-1.477,1.476-1.97,4.394-1.526,6.191H6.365v5.058c-0.617,0.631-1,1.492-1,2.442
	c0,0.98,0.407,1.864,1.058,2.5c-0.651,0.636-1.058,1.52-1.058,2.5s0.407,1.864,1.058,2.5c-0.651,0.636-1.058,1.52-1.058,2.5
	c0,0.98,0.407,1.864,1.058,2.5c-0.651,0.636-1.058,1.52-1.058,2.5s0.407,1.864,1.058,2.5c-0.651,0.636-1.058,1.52-1.058,2.5
	c0,0.539,0.133,1.044,0.351,1.5H1.637c-0.664,0-1.257,0.396-1.512,1.009c-0.243,0.588-0.126,1.255,0.297,1.724l3.695,4.872
	l0.093,0.105c0.31,0.308,0.72,0.477,1.154,0.477h2v2.813h43v-2.813h1.89c0.38,0,0.751-0.134,1.045-0.378l4.538-4.971
	C58.324,46.057,58.493,45.376,58.265,44.747z M27.896,9.89c0.575-0.575,1.132-0.794,1.646-0.794c0.729,0,1.37,0.44,1.856,0.927
	c0.024,0.024,0.045,0.051,0.068,0.076c0.042,0.072,0.077,0.147,0.139,0.209c0.034,0.034,0.077,0.048,0.114,0.076
	c0.655,0.817,1.016,1.937-0.188,3.141c-1.211,1.212-4.081,1.337-4.548,0.949C26.6,13.938,26.722,11.064,27.896,9.89z M51.365,37.168
	c0,0.827-0.673,1.5-1.5,1.5h-24.5c0-0.288-0.034-0.568-0.092-0.838c-0.019-0.09-0.055-0.171-0.08-0.259
	c-0.051-0.177-0.102-0.353-0.176-0.519c-0.043-0.096-0.099-0.183-0.149-0.275c-0.079-0.145-0.157-0.29-0.253-0.424
	c-0.064-0.089-0.137-0.168-0.208-0.252c-0.102-0.121-0.205-0.24-0.321-0.348c-0.028-0.026-0.049-0.059-0.078-0.085h25.857
	C50.692,35.668,51.365,36.34,51.365,37.168z M21.919,40.579c-0.178,0.053-0.363,0.088-0.555,0.088s-0.377-0.035-0.555-0.088
	c-0.031-0.009-0.062-0.018-0.092-0.029c-0.559-0.196-1.02-0.634-1.227-1.218l-0.001-0.003c-0.041-0.115-0.071-0.226-0.091-0.333
	c-0.018-0.108-0.033-0.216-0.033-0.329c0-1.103,0.897-2,2-2s2,0.897,2,2c0,0.113-0.015,0.221-0.033,0.329
	c-0.021,0.107-0.051,0.217-0.091,0.333l-0.001,0.003c-0.207,0.584-0.669,1.022-1.227,1.218
	C21.981,40.561,21.95,40.571,21.919,40.579z M51.365,27.168c0,0.827-0.673,1.5-1.5,1.5h-24.5V27.13c0.589,0.342,1.272,0.537,2,0.537
	c0.239,0,0.472-0.029,0.701-0.071c0.07-0.012,0.138-0.026,0.206-0.042c0.183-0.044,0.362-0.098,0.536-0.167
	c0.099-0.038,0.192-0.084,0.287-0.13c0.121-0.059,0.239-0.121,0.353-0.192c0.098-0.06,0.192-0.123,0.284-0.192
	c0.075-0.056,0.146-0.118,0.217-0.179c0.173-0.148,0.331-0.309,0.477-0.484c0.04-0.049,0.082-0.095,0.12-0.146
	c0.088-0.117,0.169-0.238,0.244-0.364c0.007-0.012,0.016-0.023,0.023-0.035h19.052C50.692,25.668,51.365,26.34,51.365,27.168z
	 M31.365,23.668v-3h18.5c0.827,0,1.5,0.673,1.5,1.5s-0.673,1.5-1.5,1.5H31.365z M8.365,16.668h19.717c0.015,0,0.029,0,0.043,0h22.24
	v2h-0.5h-20.5v5c0,0.112-0.015,0.22-0.033,0.328c-0.021,0.106-0.051,0.216-0.092,0.33l-0.002,0.005
	c-0.21,0.586-0.673,1.026-1.232,1.222c-0.027,0.009-0.055,0.018-0.083,0.026c-0.179,0.054-0.365,0.089-0.558,0.089
	s-0.379-0.035-0.558-0.089c-0.028-0.008-0.056-0.016-0.083-0.026c-0.56-0.196-1.023-0.636-1.232-1.222l-0.039-0.11
	c-0.051-0.177-0.088-0.36-0.088-0.553h-0.11h-1.89v5c0,0.112-0.015,0.22-0.033,0.328c-0.021,0.106-0.051,0.216-0.092,0.33
	l-0.002,0.005c-0.21,0.586-0.673,1.026-1.232,1.222c-0.027,0.009-0.055,0.018-0.083,0.026c-0.179,0.054-0.365,0.089-0.558,0.089
	s-0.379-0.035-0.558-0.089c-0.028-0.008-0.056-0.016-0.083-0.026c-0.56-0.196-1.023-0.636-1.232-1.222l-0.002-0.005
	c-0.041-0.114-0.071-0.224-0.092-0.33c-0.018-0.107-0.033-0.215-0.033-0.328v-3v-2v-3h-2c0,1.103-0.897,2-2,2s-2-0.897-2-2v-2h-4.5
	h-0.5V16.668z M7.365,22.168c0-0.827,0.673-1.5,1.5-1.5h2.5c0,0.288,0.034,0.568,0.092,0.838c0.019,0.09,0.055,0.171,0.08,0.259
	c0.051,0.177,0.102,0.353,0.176,0.519c0.043,0.096,0.099,0.183,0.149,0.275c0.079,0.145,0.157,0.29,0.253,0.424
	c0.064,0.089,0.137,0.168,0.208,0.252c0.102,0.121,0.205,0.24,0.321,0.348c0.028,0.026,0.049,0.059,0.078,0.085H8.865
	C8.037,23.668,7.365,22.995,7.365,22.168z M7.365,27.168c0-0.827,0.673-1.5,1.5-1.5h8.5v3h-8.5
	C8.037,28.668,7.365,27.995,7.365,27.168z M7.365,32.168c0-0.827,0.673-1.5,1.5-1.5h9.052c0.007,0.012,0.016,0.023,0.023,0.035
	c0.075,0.126,0.156,0.247,0.244,0.364c0.038,0.051,0.08,0.097,0.12,0.146c0.146,0.175,0.304,0.336,0.477,0.484
	c0.071,0.061,0.142,0.123,0.217,0.179c0.092,0.068,0.186,0.131,0.284,0.192c0.114,0.071,0.232,0.133,0.353,0.192
	c0.095,0.046,0.188,0.091,0.287,0.13c0.174,0.069,0.353,0.123,0.536,0.167c0.068,0.016,0.136,0.03,0.206,0.042
	c0.23,0.042,0.463,0.071,0.701,0.071s0.472-0.029,0.701-0.071c0.07-0.012,0.138-0.026,0.206-0.042
	c0.183-0.044,0.362-0.098,0.536-0.167c0.099-0.038,0.192-0.084,0.287-0.13c0.121-0.059,0.239-0.121,0.353-0.192
	c0.098-0.06,0.192-0.123,0.284-0.192c0.075-0.056,0.146-0.118,0.217-0.179c0.173-0.148,0.331-0.309,0.477-0.484
	c0.04-0.049,0.082-0.095,0.12-0.146c0.088-0.117,0.169-0.238,0.244-0.364c0.007-0.012,0.016-0.023,0.023-0.035h25.052
	c0.827,0,1.5,0.673,1.5,1.5c0,0.827-0.673,1.5-1.5,1.5h-41C8.037,33.668,7.365,32.995,7.365,32.168z M7.365,37.168
	c0-0.827,0.673-1.5,1.5-1.5h9.857c-0.029,0.026-0.05,0.059-0.078,0.085c-0.116,0.108-0.219,0.227-0.321,0.348
	c-0.071,0.084-0.144,0.163-0.208,0.252c-0.096,0.134-0.174,0.278-0.253,0.424c-0.05,0.092-0.106,0.178-0.149,0.275
	c-0.074,0.166-0.125,0.342-0.176,0.519c-0.025,0.087-0.061,0.169-0.08,0.259c-0.058,0.271-0.092,0.55-0.092,0.838h-8.5
	C8.037,38.668,7.365,37.995,7.365,37.168z M7.365,42.168c0-0.827,0.673-1.5,1.5-1.5h9.049c0.012,0.021,0.027,0.038,0.039,0.059
	c0.067,0.11,0.137,0.216,0.213,0.319c0.061,0.083,0.128,0.159,0.195,0.236c0.112,0.129,0.229,0.249,0.357,0.363
	c0.096,0.086,0.194,0.169,0.297,0.245c0.081,0.059,0.163,0.114,0.248,0.167c0.132,0.083,0.27,0.156,0.411,0.223
	c0.073,0.034,0.143,0.069,0.218,0.099c0.184,0.074,0.375,0.131,0.57,0.177c0.066,0.015,0.131,0.029,0.199,0.041
	c0.231,0.042,0.465,0.071,0.704,0.071s0.474-0.029,0.704-0.071c0.067-0.012,0.133-0.025,0.199-0.041
	c0.195-0.046,0.386-0.103,0.57-0.177c0.075-0.03,0.146-0.065,0.218-0.099c0.141-0.067,0.279-0.141,0.411-0.223
	c0.085-0.053,0.167-0.108,0.248-0.167c0.104-0.076,0.201-0.159,0.297-0.245c0.127-0.114,0.245-0.234,0.357-0.363
	c0.067-0.077,0.134-0.154,0.195-0.236c0.077-0.103,0.147-0.208,0.213-0.319c0.012-0.02,0.027-0.038,0.039-0.059h25.049
	c0.827,0,1.5,0.673,1.5,1.5s-0.673,1.5-1.5,1.5h-41C8.037,43.668,7.365,42.995,7.365,42.168z M48.365,52.668h-39v-0.813h39V52.668z
	 M52.084,49.854h-1.72h-43H5.552l-3.175-4.187h6.487h41h6.031L52.084,49.854z"/>
<g>
</g>
<g>
</g>
<g>
</g>
<g>
</g>
<g>
</g>
<g>
</g>
<g>
</g>
<g>
</g>
<g>
</g>
<g>
</g>
<g>
</g>
<g>
</g>
<g>
</g>
<g>
</g>
<g>
</g>
</svg>
