<?xml version="1.0" encoding="iso-8859-1"?>
<!-- Generator: Adobe Illustrator 18.0.0, SVG Export Plug-In . SVG Version: 6.00 Build 0)  -->
<!DOCTYPE svg PUBLIC "-//W3C//DTD SVG 1.1//EN" "http://www.w3.org/Graphics/SVG/1.1/DTD/svg11.dtd">
<svg version="1.1" id="Capa_1" xmlns="http://www.w3.org/2000/svg" xmlns:xlink="http://www.w3.org/1999/xlink" x="0px" y="0px"
	 viewBox="0 0 54.897 54.897" style="enable-background:new 0 0 54.897 54.897;" xml:space="preserve">
<g>
	<path d="M53.151,0.791c-1.492-0.851-3.394-1.024-5.218-0.476c-1.403,0.421-2.632,1.231-3.51,2.281
		c-0.494-0.31-1.071-0.58-1.769-0.737c-3.035-0.682-6.78,0.93-11.138,4.79c-0.346,0.306-0.437,0.809-0.22,1.217
		c0.18,0.34,0.534,0.528,0.906,0.519c-7.965,6.077-16.14,9.956-21.758,12.618c-4.298,2.035-7.136,3.38-8.192,4.796
		c-2.029,2.721-0.5,4.471,0.252,5.097c0.795,0.661,1.83,1.015,2.954,1.015c0.146,0,0.295-0.006,0.445-0.018
		c1.858-0.152,3.971-0.672,6.311-1.539c-2.704,2.131-4.509,3.695-5.135,5.051c-1.469,3.176,0.329,4.663,1.169,5.155
		c0.638,0.373,1.384,0.564,2.156,0.564c0.455,0,0.92-0.066,1.377-0.201c5.87-1.731,12.735-7.648,18.742-13.956
		c-2.851,5.476-5.842,9.437-8.182,12.536c-2.307,3.054-3.831,5.071-3.905,6.893c-0.15,3.686,2.343,4.25,3.421,4.321
		c0.102,0.007,0.204,0.01,0.306,0.01c1.158,0,2.339-0.43,3.356-1.228c8.471-6.644,15.272-22.56,18.691-33.018
		c0.129,0.293,0.385,0.521,0.716,0.585c0.064,0.013,0.128,0.019,0.191,0.019c0.41,0,0.788-0.254,0.936-0.65
		c0.575-1.54,3.238-9.19,0.411-11.68c-0.105-0.194-0.289-0.488-0.544-0.813c1.459-1.817,4.29-2.523,6.24-1.412
		c0.479,0.271,1.09,0.105,1.364-0.374C53.798,1.676,53.63,1.064,53.151,0.791z M5.74,29.898c-0.774,0.063-1.464-0.129-1.957-0.54
		c-0.339-0.282-1.043-0.869,0.072-2.364c0.759-1.017,3.856-2.484,7.444-4.184c6.295-2.982,15.754-7.463,24.659-14.853
		c-0.716,0.938-1.441,1.844-2.17,2.72c-0.024,0.029-0.048,0.057-0.072,0.086c-0.719,0.863-1.442,1.696-2.164,2.498
		c-0.005,0.006-0.011,0.013-0.016,0.019c-0.684,0.759-1.366,1.485-2.044,2.191c-0.184,0.191-0.368,0.378-0.553,0.566
		c-0.435,0.445-0.866,0.876-1.295,1.299c-0.279,0.274-0.557,0.551-0.835,0.818c-0.259,0.25-0.512,0.485-0.768,0.726
		c-0.737,0.694-1.469,1.369-2.192,2.014c-0.074,0.066-0.15,0.135-0.224,0.201c-0.459,0.408-0.914,0.806-1.365,1.194
		c-0.049,0.042-0.097,0.083-0.146,0.125c-0.937,0.806-1.856,1.572-2.745,2.298C13.849,27.865,9.262,29.61,5.74,29.898z
		 M11.216,39.005c-0.704,0.206-1.417,0.145-1.957-0.172c-0.368-0.215-1.229-0.719-0.365-2.589c0.57-1.232,3.225-3.294,6.585-5.903
		c1.525-1.184,3.241-2.517,5.078-4.015c0.008-0.006,0.016-0.01,0.024-0.017c2.485-2.025,5.582-4.662,8.859-7.927
		c0.046-0.045,0.091-0.092,0.137-0.138c0.391-0.391,0.785-0.792,1.18-1.201c0.182-0.188,0.363-0.378,0.545-0.569
		c0.245-0.258,0.49-0.52,0.736-0.785c0.253-0.272,0.506-0.543,0.758-0.821c0.09-0.099,0.18-0.203,0.27-0.303
		c1.139-1.264,2.267-2.591,3.378-3.983c0.032-0.041,0.065-0.081,0.097-0.121c0.382-0.48,0.76-0.968,1.137-1.464
		c0.03-0.04,0.06-0.08,0.09-0.12c0.272-0.359,0.546-0.712,0.814-1.08c0.018,0.002,0.038,0.003,0.056,0.005
		c0.129,0.015,0.25,0.034,0.37,0.054c0.221,0.036,0.437,0.077,0.639,0.132c0.025,0.007,0.054,0.011,0.078,0.018
		c-0.399,1.428-1.323,3.634-2.851,4.012c-0.129,0.032-0.246,0.088-0.348,0.162c-0.305,0.222-0.469,0.607-0.393,0.999l0,0v0.001
		c0.099,0.506,0.564,0.843,1.072,0.796c0.017-0.002,0.033,0.005,0.05,0.003l0,0l0.001,0c0.009-0.001,0.034-0.005,0.07-0.011
		c0.383-0.056,1.154-0.185,2.067-0.415c-0.009,0.011-0.017,0.021-0.025,0.032c-0.175,0.222-0.354,0.45-0.54,0.684
		c-0.005,0.006-0.01,0.012-0.014,0.018c-0.988,1.244-2.129,2.648-3.385,4.142c-0.035,0.042-0.071,0.084-0.106,0.126
		c-0.462,0.548-0.939,1.107-1.43,1.675c-0.039,0.045-0.076,0.089-0.115,0.134C27.214,27.947,18.27,36.924,11.216,39.005z
		 M24.284,47.925c-0.718,0.563-1.526,0.845-2.295,0.796c-0.813-0.054-1.632-0.362-1.556-2.243c0.049-1.196,1.573-3.215,3.503-5.77
		c2.976-3.941,7.463-9.883,11.102-18.718c3.294-3.793,6.092-7.36,7.983-9.86c0.048-0.03,0.086-0.062,0.131-0.092
		c0.073-0.049,0.143-0.099,0.213-0.149c0.064-0.047,0.137-0.091,0.197-0.138C40.884,21.322,33.587,40.629,24.284,47.925z
		 M45.486,10.97c-0.002-0.005-0.004-0.009-0.005-0.014c-0.049-0.139-0.098-0.269-0.148-0.39c-0.007-0.017-0.014-0.034-0.021-0.05
		c-0.048-0.114-0.095-0.219-0.143-0.317c-0.01-0.021-0.02-0.04-0.029-0.06c-0.044-0.089-0.088-0.172-0.13-0.248
		c-0.013-0.024-0.026-0.046-0.04-0.069c-0.039-0.066-0.076-0.128-0.112-0.184c-0.017-0.026-0.032-0.048-0.048-0.072
		c-0.031-0.046-0.062-0.09-0.09-0.129c-0.019-0.026-0.035-0.046-0.053-0.069c-0.023-0.029-0.045-0.058-0.065-0.082
		c-0.021-0.025-0.037-0.043-0.055-0.062c-0.012-0.014-0.026-0.029-0.036-0.04c-0.026-0.028-0.047-0.048-0.061-0.06
		c-0.046-0.042-0.098-0.074-0.15-0.106c-0.019-0.012-0.036-0.029-0.056-0.04c-0.201-0.108-0.433-0.138-0.66-0.093
		c-0.026,0.005-0.052,0.004-0.078,0.011c-0.001,0-0.001,0.001-0.002,0.001l-0.001,0c-0.025,0.007-0.047,0.021-0.071,0.03
		c-0.056,0.021-0.113,0.04-0.163,0.07c-0.016,0.009-0.028,0.023-0.043,0.033c-0.055,0.036-0.11,0.074-0.157,0.121
		c-0.013,0.013-0.021,0.029-0.033,0.042c-0.044,0.049-0.088,0.099-0.122,0.156c-0.006,0.01-0.008,0.022-0.014,0.032
		c-0.035,0.064-0.067,0.13-0.088,0.201c-0.003,0.01-0.013,0.026-0.017,0.037c-0.014,0.04-0.033,0.08-0.054,0.119
		c-0.109,0.182-0.353,0.449-0.905,0.77c-0.358,0.209-0.767,0.394-1.194,0.556c0.895-1.641,1.217-3.366,1.24-3.492
		c0.077-0.431-0.134-0.861-0.521-1.063c-0.25-0.13-0.527-0.239-0.818-0.336c-0.094-0.031-0.19-0.057-0.287-0.085
		c-0.187-0.053-0.381-0.101-0.585-0.142c-0.146-0.03-0.291-0.058-0.441-0.081c-0.119-0.018-0.245-0.032-0.37-0.046
		c-0.509-0.06-1.027-0.097-1.546-0.097c-0.493,0-0.984,0.023-1.458,0.061c3.044-2.038,5.072-2.254,6.325-1.981
		c1.836,0.396,2.54,1.929,2.565,1.986c0.071,0.167,0.187,0.311,0.333,0.417C45.897,6.798,45.877,8.778,45.486,10.97z"/>
	<path d="M47.148,40.897c-1.793,0-3.462,0.8-4.598,2.172c-0.451-0.109-0.918-0.172-1.402-0.172c-3.309,0-6,2.691-6,6s2.691,6,6,6
		c1.863,0,3.529-0.853,4.631-2.189c0.457,0.112,0.915,0.189,1.369,0.189c3.309,0,6-2.691,6-6S50.456,40.897,47.148,40.897z
		 M41.148,52.897c-2.206,0-4-1.794-4-4s1.794-4,4-4c0.499,0,0.971,0.103,1.412,0.27c0.004,0.002,0.007,0.006,0.011,0.007
		c0.183,0.071,0.359,0.156,0.527,0.252c0.013,0.007,0.026,0.014,0.039,0.021c0.167,0.097,0.326,0.205,0.476,0.324
		c0.009,0.007,0.017,0.014,0.026,0.021c0.433,0.348,0.785,0.784,1.042,1.27c0.023,0.044,0.049,0.085,0.07,0.129
		c0.058,0.12,0.105,0.246,0.151,0.372c0.039,0.11,0.075,0.222,0.104,0.336c0.026,0.097,0.052,0.195,0.07,0.294
		c0.041,0.229,0.071,0.462,0.071,0.703c0,0.233-0.03,0.459-0.069,0.681c-0.018,0.096-0.039,0.192-0.063,0.287
		c-0.026,0.104-0.061,0.204-0.095,0.304c-0.102,0.292-0.231,0.578-0.401,0.847c-0.007,0.011-0.006,0.024-0.012,0.035
		C43.795,52.159,42.559,52.897,41.148,52.897z M46.804,50.881c0.108-0.306,0.191-0.622,0.248-0.948
		c0.005-0.027,0.008-0.054,0.012-0.081c0.05-0.312,0.083-0.629,0.083-0.954c0-0.239-0.018-0.473-0.045-0.704
		c-0.005-0.042-0.013-0.082-0.019-0.124c-0.029-0.207-0.068-0.411-0.118-0.611c-0.004-0.017-0.009-0.034-0.013-0.051
		c-0.37-1.44-1.255-2.675-2.455-3.486c0.724-0.653,1.658-1.025,2.65-1.025c2.206,0,4,1.794,4,4
		C51.147,49.217,49.168,51.093,46.804,50.881z"/>
</g>
<g>
</g>
<g>
</g>
<g>
</g>
<g>
</g>
<g>
</g>
<g>
</g>
<g>
</g>
<g>
</g>
<g>
</g>
<g>
</g>
<g>
</g>
<g>
</g>
<g>
</g>
<g>
</g>
<g>
</g>
</svg>
