<?xml version="1.0" encoding="iso-8859-1"?>
<!-- Generator: Adobe Illustrator 19.0.0, SVG Export Plug-In . SVG Version: 6.00 Build 0)  -->
<svg version="1.1" id="Capa_1" xmlns="http://www.w3.org/2000/svg" xmlns:xlink="http://www.w3.org/1999/xlink" x="0px" y="0px"
	 viewBox="0 0 57 57" style="enable-background:new 0 0 57 57;" xml:space="preserve">
<path d="M46.127,9.41c-1.332-0.613-1.932-0.948-2.086-1.597c0.024-0.009,0.046-0.023,0.071-0.032
	c0.053-0.021,0.103-0.047,0.154-0.071c0.112-0.052,0.219-0.11,0.323-0.175c0.05-0.032,0.1-0.063,0.148-0.097
	c0.109-0.078,0.21-0.163,0.308-0.254c0.031-0.029,0.064-0.054,0.093-0.084c0.121-0.123,0.232-0.257,0.33-0.4
	c0.025-0.036,0.044-0.075,0.067-0.111c0.071-0.113,0.135-0.229,0.191-0.351c0.024-0.054,0.046-0.108,0.067-0.164
	c0.045-0.117,0.082-0.238,0.113-0.362c0.013-0.054,0.029-0.107,0.039-0.162C45.978,5.371,46,5.188,46,5V3c0-1.654-1.346-3-3-3H13
	c-1.654,0-3,1.346-3,3v2c0,0.205,0.021,0.404,0.06,0.597c0.014,0.07,0.043,0.135,0.062,0.203c0.033,0.12,0.063,0.241,0.11,0.354
	c0.032,0.077,0.078,0.146,0.117,0.22c0.05,0.096,0.095,0.195,0.155,0.285c0.049,0.074,0.11,0.137,0.166,0.207
	c0.064,0.079,0.123,0.163,0.194,0.235C10.927,7.165,11,7.218,11.068,7.276c0.077,0.065,0.149,0.134,0.232,0.192
	c0.074,0.051,0.156,0.09,0.234,0.134c0.088,0.05,0.173,0.104,0.267,0.145c0.083,0.036,0.172,0.059,0.259,0.088
	c0.098,0.032,0.193,0.069,0.294,0.092c0.092,0.02,0.187,0.026,0.282,0.037c0.088,0.011,0.173,0.032,0.263,0.035
	c-0.221,0.533-0.827,0.86-2.026,1.412C8.816,10.355,6,11.651,6,16.423v31.193C6,52.79,10.21,57,15.384,57h26.232
	C46.79,57,51,52.79,51,47.616V16.423C51,11.651,48.184,10.355,46.127,9.41z M12,3c0-0.552,0.448-1,1-1h30c0.552,0,1,0.448,1,1v2
	c0,0.552-0.448,1-1,1h-1H15h-2c-0.552,0-1-0.448-1-1V3z M49,47.616C49,51.688,45.688,55,41.616,55H15.384
	C11.313,55,8,51.688,8,47.616V16.423c0-3.49,1.802-4.318,3.709-5.196C13.11,10.582,14.668,9.846,14.943,8h27.114
	c0.275,1.846,1.833,2.582,3.234,3.227C47.198,12.104,49,12.933,49,16.423V47.616z M14.293,2.293l1.414,1.414l-2,2l-1.414-1.414
	L14.293,2.293z M18.293,2.293l1.414,1.414l-2,2l-1.414-1.414L18.293,2.293z M22.293,2.293l1.414,1.414l-2,2l-1.414-1.414
	L22.293,2.293z M26.293,2.293l1.414,1.414l-2,2l-1.414-1.414L26.293,2.293z M30.293,2.293l1.414,1.414l-2,2l-1.414-1.414
	L30.293,2.293z M34.293,2.293l1.414,1.414l-2,2l-1.414-1.414L34.293,2.293z M38.293,2.293l1.414,1.414l-2,2l-1.414-1.414
	L38.293,2.293z M42.292,2.293l1.414,1.414l-2,2l-1.414-1.414L42.292,2.293z M48,21.5c0-6.341-3.589-11.5-8-11.5
	c-2.083,0-3.976,1.16-5.401,3.042C33.835,11.256,32.062,10,30,10c-2.757,0-5,2.243-5,5c0,0.383,0.052,0.752,0.134,1.111
	C24.767,16.04,24.388,16,24,16c-1.538,0-2.937,0.586-4,1.541V17c0-2.757-2.243-5-5-5s-5,2.243-5,5v7
	c0,1.913,1.092,3.558,2.673,4.399C10.39,29.728,9,31.509,9,33.5c0,2.478,2.144,4.633,5.504,5.99C11.293,40.563,9,43.296,9,46.5
	c0,4.136,3.813,7.5,8.5,7.5c2.656,0,5.03-1.082,6.59-2.771C24.474,52.809,26.08,54,28,54c2.206,0,4-1.57,4-3.5
	c0-0.987-0.473-1.876-1.227-2.513c0.43-0.019,0.848-0.081,1.247-0.186C32.017,47.869,32,47.932,32,48c0,2.757,2.243,5,5,5h5
	c2.757,0,5-2.243,5-5c0-1.694-0.851-3.188-2.143-4.093C46.749,42.729,48,40.714,48,38.429c0-2.962-2.1-5.471-4.975-6.289
	C45.94,30.421,48,26.302,48,21.5z M33.742,28.644c-1.518-0.968-3.495-1.714-5.765-2.164C29.215,25.38,30,23.782,30,22
	c0-0.716-0.133-1.4-0.364-2.037C29.759,19.972,29.875,20,30,20c0.764,0,1.48-0.186,2.129-0.494C32.049,20.155,32,20.819,32,21.5
	C32,24.2,32.655,26.68,33.742,28.644z M34.051,39.188c-0.256-0.198-0.534-0.373-0.827-0.526c0.276-0.157,0.541-0.319,0.79-0.489
	C34.01,38.259,34,38.342,34,38.429C34,38.686,34.02,38.938,34.051,39.188z M36.961,33.072c-0.038-0.372-0.107-0.738-0.238-1.092
	c0.363,0.236,0.74,0.431,1.13,0.587C37.542,32.715,37.244,32.883,36.961,33.072z M30,12c1.654,0,3,1.346,3,3s-1.346,3-3,3
	s-3-1.346-3-3S28.346,12,30,12z M24,18c2.206,0,4,1.794,4,4s-1.794,4-4,4s-4-1.794-4-4S21.794,18,24,18z M12,17c0-1.654,1.346-3,3-3
	s3,1.346,3,3v7c0,1.654-1.346,3-3,3s-3-1.346-3-3V17z M11,33.5c0-2.656,4.822-5.5,12-5.5s12,2.844,12,5.5
	c0,1.726-2.044,3.526-5.439,4.578c-0.437,0.069-0.857,0.181-1.253,0.338C26.747,38.781,24.966,39,23,39C15.822,39,11,36.156,11,33.5
	z M23.251,40.993c0.778-0.007,1.538-0.048,2.277-0.117c-0.332,0.64-0.524,1.351-0.527,2.104
	C24.548,42.232,23.952,41.564,23.251,40.993z M17.5,52c-3.584,0-6.5-2.468-6.5-5.5s2.916-5.5,6.5-5.5s6.5,2.468,6.5,5.5
	S21.084,52,17.5,52z M25.961,45.818c0.364,0.483,0.821,0.903,1.344,1.244c-0.505,0.078-0.974,0.24-1.394,0.468
	C25.963,47.192,26,46.85,26,46.5C26,46.27,25.984,46.043,25.961,45.818z M28,52c-1.084,0-2-0.687-2-1.5s0.916-1.5,2-1.5
	s2,0.687,2,1.5S29.084,52,28,52z M30.5,46c-1.93,0-3.5-1.346-3.5-3c0-1.207,0.84-2.242,2.041-2.718
	c0.291-0.073,0.579-0.147,0.858-0.23C30.094,40.023,30.294,40,30.5,40c1.93,0,3.5,1.346,3.5,3c0,0.487-0.149,0.941-0.39,1.348
	c-0.278,0.259-0.536,0.538-0.75,0.854C32.236,45.692,31.412,46,30.5,46z M42,45c1.654,0,3,1.346,3,3s-1.346,3-3,3h-5
	c-1.654,0-3-1.346-3-3c0-0.546,0.157-1.051,0.413-1.492c0.28-0.258,0.526-0.545,0.739-0.853C35.663,45.251,36.3,45,37,45H42z
	 M46,38.429C46,40.949,43.757,43,41,43s-5-2.051-5-4.571s2.243-4.571,5-4.571S46,35.908,46,38.429z M40,31c-3.252,0-6-4.351-6-9.5
	s2.748-9.5,6-9.5s6,4.351,6,9.5S43.252,31,40,31z"/>
<g>
</g>
<g>
</g>
<g>
</g>
<g>
</g>
<g>
</g>
<g>
</g>
<g>
</g>
<g>
</g>
<g>
</g>
<g>
</g>
<g>
</g>
<g>
</g>
<g>
</g>
<g>
</g>
<g>
</g>
</svg>
