<?xml version="1.0" encoding="iso-8859-1"?>
<!-- Generator: Adobe Illustrator 18.0.0, SVG Export Plug-In . SVG Version: 6.00 Build 0)  -->
<!DOCTYPE svg PUBLIC "-//W3C//DTD SVG 1.1//EN" "http://www.w3.org/Graphics/SVG/1.1/DTD/svg11.dtd">
<svg version="1.1" id="Capa_1" xmlns="http://www.w3.org/2000/svg" xmlns:xlink="http://www.w3.org/1999/xlink" x="0px" y="0px"
	 viewBox="0 0 57 57" style="enable-background:new 0 0 57 57;" xml:space="preserve">
<path d="M54,27.5h-2.977c0.051-0.576,0.223-1.136,0.52-1.633l1.63-2.734c0.321-0.537,0.329-1.209,0.02-1.754
	c-0.204-0.359-0.531-0.615-0.906-0.756c-0.019-0.267-0.088-0.532-0.228-0.771l-0.131-0.176C50.752,18.421,47.822,15.5,46,15.5H35.41
	c-0.478-2.833-2.942-5-5.91-5h-3c-2.967,0-5.431,2.167-5.91,5H11c-1.822,0-4.752,2.921-5.927,4.177l-0.131,0.176
	c-0.14,0.238-0.209,0.503-0.228,0.771c-0.375,0.141-0.702,0.397-0.906,0.756c-0.309,0.545-0.301,1.217,0.019,1.754l1.631,2.732
	c0.297,0.499,0.469,1.059,0.52,1.635H3c-1.654,0-3,1.346-3,3s1.346,3,3,3h3v6.799c0,0.054,0.007,0.107,0.008,0.161
	C6.008,40.474,6,40.486,6,40.5c0,0.024,0.012,0.044,0.014,0.067c0.141,3.294,2.846,5.933,6.159,5.933h32.655
	c3.403,0,6.172-2.782,6.172-6.201V33.5h3c1.654,0,3-1.346,3-3S55.654,27.5,54,27.5z M26.5,12.5h3c1.86,0,3.428,1.276,3.874,3H22.626
	C23.072,13.776,24.64,12.5,26.5,12.5z M11,17.5h9.5h15H46c0.558,0.007,2.312,1.355,3.942,3H7.058
	C8.688,18.855,10.442,17.507,11,17.5z M2,30.5c0-0.552,0.449-1,1-1h3v2H3C2.449,31.5,2,31.052,2,30.5z M49,40.299
	c0,2.316-1.872,4.201-4.172,4.201H12.172c-1.883,0-3.461-1.271-3.978-3H17c0.552,0,1-0.447,1-1s-0.448-1-1-1H8v-2h6
	c0.552,0,1-0.447,1-1s-0.448-1-1-1H8v-2h4c0.552,0,1-0.447,1-1s-0.448-1-1-1H8v-3.664V27.5H7.977
	c-0.054-0.937-0.32-1.851-0.802-2.659L5.778,22.5h0.66h44.125h0.659l-1.396,2.342c-0.482,0.807-0.748,1.721-0.802,2.658H49v0.337
	V33.5V40.299z M54,31.5h-3v-2h3c0.551,0,1,0.448,1,1S54.551,31.5,54,31.5z"/>
<g>
</g>
<g>
</g>
<g>
</g>
<g>
</g>
<g>
</g>
<g>
</g>
<g>
</g>
<g>
</g>
<g>
</g>
<g>
</g>
<g>
</g>
<g>
</g>
<g>
</g>
<g>
</g>
<g>
</g>
</svg>
