<?xml version="1.0" encoding="iso-8859-1"?>
<!-- Generator: Adobe Illustrator 19.0.0, SVG Export Plug-In . SVG Version: 6.00 Build 0)  -->
<svg version="1.1" id="Capa_1" xmlns="http://www.w3.org/2000/svg" xmlns:xlink="http://www.w3.org/1999/xlink" x="0px" y="0px"
	 viewBox="0 0 56.999 56.999" style="enable-background:new 0 0 56.999 56.999;" xml:space="preserve">
<g>
	<path d="M54,21.899h-2.977c0.051-0.576,0.223-1.136,0.52-1.634l1.63-2.733c0.321-0.537,0.329-1.209,0.02-1.754
		c-0.204-0.359-0.531-0.615-0.906-0.756c-0.019-0.267-0.088-0.532-0.229-0.77l-0.13-0.175C50.752,12.821,47.822,9.899,46,9.899h-7
		v-1c0-3.309-2.691-6-6-6H23c-3.309,0-6,2.691-6,6v1h-6c-1.822,0-4.752,2.922-5.927,4.178l-0.13,0.175
		c-0.141,0.238-0.209,0.503-0.229,0.77c-0.375,0.141-0.703,0.397-0.906,0.756c-0.309,0.545-0.302,1.217,0.019,1.754l1.631,2.732
		c0.297,0.499,0.469,1.059,0.52,1.635H3c-1.654,0-3,1.346-3,3s1.346,3,3,3h3v20c0,0.255,0.02,0.505,0.05,0.752
		C6.029,48.733,6,48.812,6,48.899c0,0.225,0.088,0.422,0.213,0.589c0.701,2.65,3.104,4.612,5.959,4.612h32.655
		c3.403,0,6.172-2.782,6.172-6.201v-20h3c1.654,0,3-1.346,3-3S55.654,21.899,54,21.899z M46,11.899c0.558,0.007,2.312,1.355,3.942,3
		H34.92c0.047-0.328,0.08-0.66,0.08-1c0-0.695-0.105-1.366-0.295-2H39H46z M32.487,16.064c-0.07,0.145-0.146,0.286-0.23,0.423
		c-0.067,0.111-0.135,0.221-0.211,0.325c-0.109,0.151-0.23,0.292-0.354,0.429c-0.069,0.076-0.132,0.159-0.205,0.23
		c-0.198,0.194-0.413,0.371-0.641,0.529c-0.082,0.057-0.172,0.102-0.257,0.154c-0.165,0.1-0.333,0.195-0.509,0.276
		c-0.104,0.048-0.211,0.09-0.318,0.13c-0.181,0.069-0.367,0.126-0.557,0.173c-0.099,0.025-0.198,0.053-0.299,0.072
		C28.61,18.862,28.31,18.899,28,18.899s-0.61-0.037-0.904-0.091c-0.101-0.019-0.2-0.047-0.299-0.072
		c-0.19-0.048-0.376-0.105-0.557-0.173c-0.107-0.041-0.214-0.082-0.318-0.13c-0.176-0.081-0.344-0.176-0.509-0.276
		c-0.085-0.052-0.175-0.097-0.257-0.154c-0.228-0.159-0.443-0.336-0.641-0.529c-0.073-0.072-0.136-0.154-0.205-0.23
		c-0.125-0.138-0.245-0.279-0.354-0.429c-0.075-0.104-0.143-0.215-0.211-0.325c-0.083-0.137-0.16-0.278-0.23-0.423
		c-0.061-0.125-0.12-0.252-0.171-0.383C23.13,15.126,23,14.529,23,13.899c0-0.98,0.294-1.888,0.783-2.661
		c0.052-0.083,0.107-0.164,0.164-0.244c0.135-0.188,0.281-0.366,0.441-0.534c0.049-0.051,0.097-0.103,0.148-0.152
		c0.175-0.169,0.364-0.322,0.562-0.464c0.081-0.059,0.165-0.113,0.25-0.167c0.184-0.116,0.375-0.22,0.573-0.312
		c0.064-0.029,0.125-0.064,0.19-0.091c0.246-0.101,0.503-0.177,0.766-0.238c0.081-0.019,0.163-0.035,0.245-0.05
		c0.287-0.051,0.578-0.089,0.88-0.089s0.593,0.038,0.88,0.089c0.082,0.015,0.164,0.031,0.245,0.05
		c0.263,0.061,0.52,0.137,0.766,0.238c0.065,0.027,0.126,0.061,0.19,0.091c0.199,0.092,0.39,0.196,0.573,0.312
		c0.085,0.053,0.168,0.108,0.25,0.167c0.198,0.142,0.387,0.295,0.562,0.464c0.051,0.049,0.099,0.101,0.148,0.152
		c0.159,0.167,0.306,0.346,0.441,0.534c0.057,0.079,0.111,0.161,0.164,0.244C32.706,12.011,33,12.919,33,13.899
		c0,0.629-0.13,1.226-0.343,1.782C32.607,15.813,32.547,15.939,32.487,16.064z M19,8.899c0-2.206,1.794-4,4-4h10
		c2.206,0,4,1.794,4,4v1h-3.262c-0.011-0.016-0.025-0.03-0.037-0.046c-0.138-0.194-0.286-0.38-0.443-0.559
		c-0.038-0.043-0.076-0.084-0.115-0.126c-0.149-0.162-0.305-0.316-0.469-0.463c-0.033-0.03-0.065-0.06-0.098-0.089
		c-0.604-0.524-1.297-0.944-2.055-1.238c-0.039-0.015-0.078-0.028-0.116-0.043c-0.206-0.076-0.417-0.142-0.632-0.198
		c-0.057-0.015-0.114-0.03-0.171-0.044c-0.203-0.048-0.409-0.085-0.618-0.115c-0.062-0.009-0.123-0.021-0.185-0.028
		c-0.263-0.03-0.53-0.049-0.801-0.049S27.46,6.92,27.197,6.95c-0.062,0.007-0.123,0.02-0.185,0.028
		c-0.209,0.03-0.415,0.067-0.618,0.115c-0.057,0.014-0.114,0.029-0.171,0.044c-0.215,0.057-0.425,0.122-0.632,0.198
		c-0.039,0.014-0.078,0.028-0.116,0.043c-0.758,0.294-1.451,0.714-2.055,1.238c-0.033,0.029-0.065,0.06-0.098,0.089
		c-0.163,0.147-0.32,0.302-0.469,0.463c-0.039,0.042-0.077,0.083-0.115,0.126c-0.157,0.179-0.305,0.365-0.443,0.559
		c-0.011,0.016-0.025,0.03-0.037,0.046H19V8.899z M11,11.899h6h4.295c-0.19,0.634-0.295,1.305-0.295,2c0,0.34,0.033,0.672,0.08,1
		H7.059C8.67,13.277,10.451,11.906,11,11.899z M3,25.899c-0.551,0-1-0.448-1-1c0-0.552,0.449-1,1-1h3v2H3z M49,47.899
		c0,2.316-1.872,4.201-4.172,4.201H12.172c-1.578,0-2.937-0.897-3.646-2.201H17c0.552,0,1-0.447,1-1s-0.448-1-1-1H8v-2h6
		c0.552,0,1-0.447,1-1s-0.448-1-1-1H8v-2h4c0.552,0,1-0.447,1-1s-0.448-1-1-1H8v-12v-5.664v-0.336H7.977
		c-0.054-0.937-0.32-1.851-0.802-2.659l-1.397-2.341h0.659h15.244c0.008,0.017,0.019,0.031,0.027,0.047
		c0.274,0.563,0.618,1.083,1.026,1.549c0.032,0.037,0.065,0.072,0.098,0.108c0.191,0.21,0.393,0.41,0.609,0.595
		c0.014,0.012,0.027,0.025,0.041,0.037c0.234,0.198,0.482,0.38,0.74,0.546c0.031,0.02,0.063,0.038,0.095,0.058
		c0.235,0.146,0.48,0.279,0.733,0.397c0.032,0.015,0.064,0.032,0.096,0.046c0.279,0.125,0.566,0.234,0.863,0.322
		c0.028,0.008,0.056,0.014,0.083,0.021c0.257,0.073,0.519,0.129,0.787,0.173c0.071,0.012,0.142,0.023,0.214,0.033
		c0.298,0.039,0.599,0.066,0.907,0.066s0.609-0.027,0.907-0.066c0.072-0.01,0.143-0.021,0.214-0.033
		c0.268-0.043,0.53-0.1,0.787-0.173c0.028-0.008,0.056-0.013,0.083-0.021c0.297-0.088,0.584-0.197,0.863-0.322
		c0.033-0.015,0.064-0.031,0.096-0.046c0.253-0.118,0.497-0.251,0.733-0.397c0.031-0.02,0.064-0.038,0.095-0.058
		c0.259-0.167,0.506-0.348,0.74-0.546c0.014-0.012,0.027-0.025,0.041-0.037c0.215-0.186,0.417-0.385,0.609-0.595
		c0.033-0.036,0.066-0.071,0.098-0.108c0.408-0.466,0.752-0.987,1.026-1.549c0.008-0.016,0.019-0.031,0.027-0.047h16.244h0.659
		l-1.397,2.342c-0.482,0.808-0.748,1.721-0.802,2.658H49v0.336v5.664V47.899z M54,25.899h-3v-2h3c0.551,0,1,0.448,1,1
		C55,25.451,54.551,25.899,54,25.899z"/>
	<path d="M27.293,13.193l3-3l1.414,1.414l-3,3L27.293,13.193z"/>
</g>
<g>
</g>
<g>
</g>
<g>
</g>
<g>
</g>
<g>
</g>
<g>
</g>
<g>
</g>
<g>
</g>
<g>
</g>
<g>
</g>
<g>
</g>
<g>
</g>
<g>
</g>
<g>
</g>
<g>
</g>
</svg>
