<?xml version="1.0" encoding="iso-8859-1"?>
<!-- Generator: Adobe Illustrator 18.0.0, SVG Export Plug-In . SVG Version: 6.00 Build 0)  -->
<!DOCTYPE svg PUBLIC "-//W3C//DTD SVG 1.1//EN" "http://www.w3.org/Graphics/SVG/1.1/DTD/svg11.dtd">
<svg version="1.1" id="Capa_1" xmlns="http://www.w3.org/2000/svg" xmlns:xlink="http://www.w3.org/1999/xlink" x="0px" y="0px"
	 viewBox="0 0 49 49" style="enable-background:new 0 0 49 49;" xml:space="preserve">
<g>
	<path d="M49,11h-5H5H0v2h5v27v1.186C5,45.494,8.505,49,12.814,49h23.372C40.495,49,44,45.494,44,41.186V40V13h5V11z M12.814,47
		c-0.342,0-0.676-0.036-1.002-0.093c-0.034-0.006-0.069-0.009-0.103-0.016c-0.308-0.059-0.605-0.147-0.894-0.253
		c-0.045-0.016-0.091-0.032-0.135-0.05c-0.279-0.111-0.546-0.243-0.802-0.393c-0.044-0.026-0.088-0.053-0.132-0.08
		c-0.252-0.157-0.491-0.332-0.715-0.524c-0.035-0.03-0.068-0.062-0.103-0.093c-0.225-0.203-0.437-0.42-0.628-0.656
		c-0.019-0.023-0.035-0.048-0.053-0.071c-0.193-0.245-0.369-0.505-0.521-0.78c-0.005-0.009-0.011-0.017-0.016-0.026
		c-0.151-0.276-0.275-0.568-0.38-0.868c-0.013-0.037-0.028-0.073-0.04-0.11c-0.095-0.29-0.163-0.591-0.212-0.899
		C7.073,42.059,7.068,42.029,7.064,42h34.872c-0.004,0.029-0.009,0.059-0.013,0.088c-0.048,0.308-0.117,0.609-0.212,0.899
		c-0.012,0.037-0.028,0.073-0.04,0.11c-0.105,0.3-0.229,0.592-0.38,0.868c-0.005,0.009-0.011,0.017-0.016,0.026
		c-0.152,0.275-0.328,0.534-0.521,0.78c-0.018,0.023-0.035,0.048-0.053,0.071c-0.191,0.236-0.403,0.453-0.628,0.656
		c-0.034,0.031-0.068,0.063-0.103,0.093c-0.224,0.193-0.464,0.367-0.715,0.524c-0.044,0.027-0.088,0.054-0.132,0.08
		c-0.256,0.151-0.523,0.283-0.802,0.393c-0.045,0.018-0.09,0.033-0.135,0.05c-0.289,0.106-0.586,0.194-0.894,0.253
		c-0.034,0.007-0.069,0.01-0.103,0.016C36.862,46.964,36.528,47,36.186,47H12.814z M42,40H7v-2h9c0.552,0,1-0.447,1-1s-0.448-1-1-1
		H7v-2h6c0.552,0,1-0.447,1-1s-0.448-1-1-1H7v-2h4c0.552,0,1-0.447,1-1s-0.448-1-1-1H7V13h35V40z"/>
	<path d="M44,9c0-2.757-2.243-5-5-5h-9.101C29.434,1.721,27.414,0,25,0h-1c-2.414,0-4.434,1.721-4.899,4H10C7.243,4,5,6.243,5,9v1
		h39V9z M24,2h1c1.304,0,2.416,0.836,2.829,2h-6.657C21.584,2.836,22.696,2,24,2z M7.171,8C7.584,6.836,8.696,6,10,6h9h11h9
		c1.304,0,2.416,0.836,2.829,2H7.171z"/>
</g>
<g>
</g>
<g>
</g>
<g>
</g>
<g>
</g>
<g>
</g>
<g>
</g>
<g>
</g>
<g>
</g>
<g>
</g>
<g>
</g>
<g>
</g>
<g>
</g>
<g>
</g>
<g>
</g>
<g>
</g>
</svg>
