<?xml version="1.0" encoding="iso-8859-1"?>
<!-- Generator: Adobe Illustrator 18.0.0, SVG Export Plug-In . SVG Version: 6.00 Build 0)  -->
<!DOCTYPE svg PUBLIC "-//W3C//DTD SVG 1.1//EN" "http://www.w3.org/Graphics/SVG/1.1/DTD/svg11.dtd">
<svg version="1.1" id="Capa_1" xmlns="http://www.w3.org/2000/svg" xmlns:xlink="http://www.w3.org/1999/xlink" x="0px" y="0px"
	 viewBox="0 0 57.5 57.5" style="enable-background:new 0 0 57.5 57.5;" xml:space="preserve">
<g>
	<path d="M55.036,17.125c-0.027-0.258-0.117-0.509-0.274-0.729c-0.04-0.055-0.09-0.108-0.133-0.162C49.967,6.635,40.119,0,28.75,0
		C12.897,0,0,12.897,0,28.75S12.897,57.5,28.75,57.5S57.5,44.603,57.5,28.75C57.5,24.614,56.615,20.683,55.036,17.125z
		 M49.407,17.685l-0.005-0.01l-0.636,0.166c-0.046,0.012-0.092,0.024-0.137,0.036l-0.017,0.004c-0.493,0.13-0.982,0.265-1.471,0.407
		c-0.006,0.002-0.01,0.006-0.016,0.008c-0.86,0.25-1.714,0.519-2.562,0.807c-0.005,0.002-0.011,0-0.016,0.002
		c-0.088,0.03-0.173,0.065-0.261,0.095c-0.658,0.227-1.313,0.466-1.963,0.716c-0.109,0.042-0.221,0.078-0.33,0.121
		c-0.012,0.005-0.02,0.015-0.031,0.02c-0.829,0.325-1.654,0.663-2.469,1.024c-0.003,0.001-0.007,0.001-0.01,0.002
		c-0.017,0.008-0.033,0.016-0.05,0.023c-0.637,0.283-1.27,0.576-1.897,0.882c0.347-1.323,1.545-3.061,3.445-4.414
		c0.164-0.116,0.32-0.241,0.49-0.349c0.723-0.457,1.536-0.856,2.435-1.156c0.353-0.118,0.705-0.21,1.055-0.29
		c0.357-0.081,0.72-0.141,1.084-0.187c0.47-0.059,0.935-0.095,1.385-0.095c2.195,0,4.094,0.649,5.137,1.48
		C51.508,17.185,50.455,17.425,49.407,17.685z M31.555,5.49l-0.059,0.085c-0.076,0.107-0.15,0.217-0.225,0.325L31.201,6
		C31.133,6.099,31.068,6.199,31,6.298c-0.768,1.12-1.496,2.265-2.186,3.433c-0.004,0.006-0.01,0.01-0.014,0.016
		c-0.033,0.055-0.062,0.114-0.094,0.169c-0.45,0.768-0.887,1.543-1.302,2.331c-0.009,0.018-0.02,0.035-0.029,0.053
		c0,0.001,0,0.002-0.001,0.003c-0.448,0.853-0.872,1.718-1.279,2.592c-0.005,0.01-0.015,0.016-0.02,0.027
		c-0.047,0.1-0.089,0.208-0.135,0.309c-0.311,0.677-0.61,1.36-0.896,2.049c-0.045,0.109-0.096,0.213-0.141,0.323
		c-0.003,0.009-0.003,0.018-0.006,0.026c-0.031,0.074-0.064,0.147-0.094,0.222c-0.004-0.007-0.007-0.016-0.011-0.023
		c-0.107-0.211-0.205-0.445-0.291-0.704c-0.002-0.007-0.005-0.013-0.007-0.02c-0.349-1.071-0.484-2.52-0.246-4.1
		c0.044-0.289,0.111-0.575,0.178-0.86c0.03-0.13,0.048-0.257,0.084-0.388c0.067-0.246,0.159-0.485,0.242-0.727
		c0.213-0.613,0.465-1.23,0.81-1.84c0.21-0.372,0.441-0.718,0.682-1.05c0.192-0.263,0.403-0.513,0.617-0.76
		c0.09-0.104,0.174-0.219,0.267-0.318l0.049-0.053c1.764-1.86,3.921-2.855,5.424-2.948c-0.356,0.472-0.702,0.95-1.044,1.432
		L31.555,5.49z M28.75,55.5C14,55.5,2,43.5,2,28.75S14,2,28.75,2c1.001,0,1.989,0.06,2.962,0.168
		c-1.896,0.343-4.073,1.504-5.872,3.354c-0.395,0.049-0.791,0.1-1.179,0.167c-0.544,0.096-0.907,0.614-0.813,1.158
		c0.048,0.271,0.213,0.479,0.421,0.626c-0.156,0.238-0.307,0.481-0.449,0.733c-0.293,0.519-0.543,1.047-0.756,1.578
		c0,0.001-0.002,0.002-0.002,0.004c-0.001,0.003-0.002,0.005-0.003,0.008c-0.189,0.473-0.344,0.948-0.473,1.422
		c-0.007,0.025-0.015,0.05-0.021,0.075c-0.132,0.491-0.231,0.979-0.303,1.462c-0.001,0.01-0.005,0.021-0.006,0.031
		c0,0.003,0.001,0.005,0,0.008c-0.158,1.087-0.17,2.136-0.057,3.102c0.001,0.007-0.002,0.012-0.001,0.019
		c0.003,0.022,0.008,0.043,0.011,0.066c0.031,0.251,0.071,0.496,0.119,0.734c0.006,0.031,0.01,0.063,0.016,0.093
		c0.055,0.258,0.12,0.506,0.193,0.746c0.022,0.073,0.049,0.142,0.073,0.214c0.055,0.165,0.114,0.325,0.178,0.479
		c0.032,0.079,0.066,0.155,0.101,0.23c0.07,0.152,0.144,0.297,0.222,0.437c0.022,0.039,0.04,0.084,0.062,0.122
		c0.006,0.01,0.014,0.016,0.02,0.026c0.117,0.196,0.239,0.383,0.372,0.55c0.32,0.405,0.809,0.638,1.315,0.638
		c0.081,0,0.163-0.006,0.244-0.019c0.594-0.088,1.078-0.476,1.297-1.036c0.156-0.4,0.324-0.796,0.489-1.192
		c0.28-0.672,0.57-1.339,0.87-1.99c0.47-1.021,0.97-2.027,1.498-3.018c0.365-0.683,0.744-1.365,1.135-2.032
		c0.512-0.876,1.042-1.742,1.6-2.59c0.002-0.003,0.005-0.005,0.007-0.008c0.036-0.055,0.073-0.109,0.109-0.164
		c0.12-0.181,0.244-0.36,0.366-0.54c0.266,0.048,0.53,0.099,0.793,0.156c0.537,0.118,1.072-0.226,1.189-0.766
		c0.114-0.525-0.211-1.036-0.726-1.172c0.151-0.206,0.297-0.415,0.451-0.619l0.526-0.698c0.313-0.416,0.393-0.956,0.212-1.444
		c-0.063-0.169-0.162-0.316-0.274-0.449c6.827,1.548,12.669,5.709,16.415,11.378c-1.345-0.419-2.907-0.615-4.54-0.505
		c-0.225-0.263-0.447-0.529-0.683-0.782c-0.378-0.402-1.01-0.421-1.414-0.047c-0.333,0.312-0.404,0.798-0.205,1.186
		c-0.321,0.08-0.642,0.171-0.963,0.278c-0.558,0.187-1.091,0.408-1.599,0.655c-0.001,0-0.003,0-0.004,0.001
		c-0.003,0.001-0.005,0.003-0.008,0.004c-0.415,0.202-0.809,0.426-1.188,0.662c-0.04,0.025-0.08,0.049-0.12,0.074
		c-0.391,0.249-0.762,0.513-1.112,0.79c-0.004,0.004-0.01,0.006-0.014,0.01c-0.002,0.001-0.002,0.003-0.004,0.005
		c-1.022,0.814-1.864,1.734-2.49,2.674c-0.043,0.064-0.079,0.128-0.12,0.193c-0.09,0.142-0.179,0.285-0.26,0.427
		c-0.051,0.091-0.096,0.181-0.144,0.272c-0.059,0.115-0.118,0.229-0.171,0.343c-0.05,0.107-0.094,0.212-0.137,0.319
		c-0.04,0.098-0.079,0.195-0.114,0.292c-0.019,0.053-0.045,0.107-0.063,0.16c-0.005,0.015-0.001,0.03-0.006,0.045
		c-0.154,0.471-0.255,0.932-0.282,1.367c-0.038,0.599,0.247,1.176,0.744,1.506c0.278,0.184,0.593,0.277,0.91,0.277
		c0.253,0,0.507-0.06,0.745-0.179c0.092-0.046,0.185-0.087,0.277-0.133c0.632-0.313,1.27-0.612,1.912-0.901
		c0.963-0.433,1.938-0.84,2.922-1.22c0.74-0.286,1.485-0.561,2.236-0.817c1.035-0.352,2.082-0.667,3.135-0.961
		c0.082,0.184,0.162,0.368,0.238,0.555c0.159,0.386,0.532,0.619,0.925,0.619c0.127,0,0.256-0.024,0.381-0.075
		c0.511-0.21,0.754-0.795,0.544-1.306c-0.042-0.102-0.093-0.199-0.136-0.301c0.889-0.215,1.781-0.416,2.681-0.589l0.629-0.122
		c1.233,3.072,1.918,6.42,1.918,9.927C55.5,43.5,43.5,55.5,28.75,55.5z"/>
	<path d="M21.112,48.584c0.531-0.276,0.878-0.818,0.903-1.414c0.016-0.37-0.1-0.714-0.302-1.004
		c-0.014-0.021-0.016-0.045-0.032-0.066c-0.012-0.015-0.03-0.023-0.042-0.038c-0.109-0.133-0.233-0.255-0.384-0.352
		c-0.004-0.002-0.006-0.006-0.009-0.009c-0.011-0.007-0.023-0.015-0.034-0.022c-3.245-2.056-6.267-4.434-9.041-7.079
		c-0.209-0.199-0.417-0.398-0.623-0.601c-0.856-0.841-1.696-1.7-2.5-2.594l-0.584-0.65c-0.005-0.005-0.011-0.008-0.016-0.013
		c-0.097-0.105-0.208-0.191-0.327-0.264c-0.006-0.004-0.011-0.01-0.017-0.014c-0.08-0.29-0.154-0.582-0.222-0.876
		c-0.125-0.538-0.66-0.869-1.2-0.749c-0.538,0.125-0.873,0.662-0.749,1.2c0.062,0.265,0.14,0.524,0.21,0.786
		c-0.083,0.105-0.155,0.219-0.21,0.346c-1.152,2.665,0.19,7.716,4.028,10.985c2.326,1.981,5.073,2.934,7.435,3.066
		c0.378,0.21,0.759,0.416,1.149,0.606c0.142,0.068,0.29,0.101,0.437,0.101c0.371,0,0.728-0.207,0.9-0.563
		c0.058-0.119,0.083-0.244,0.091-0.368C20.385,48.892,20.774,48.759,21.112,48.584z M7.564,36.748
		c0.006,0.007,0.013,0.013,0.02,0.021l0.091,0.101c0.006,0.006,0.014,0.008,0.02,0.014c0.584,0.645,1.196,1.261,1.807,1.879
		c0.028,0.037,0.042,0.081,0.075,0.114c0.154,0.155,0.316,0.302,0.472,0.455c0.219,0.216,0.441,0.427,0.663,0.639
		c0.287,0.275,0.567,0.559,0.859,0.829c0.047,0.043,0.104,0.064,0.156,0.097c0.623,0.569,1.244,1.139,1.889,1.681
		c0.017,0.016,0.024,0.038,0.042,0.053c0.708,0.594,1.43,1.171,2.165,1.732c0.027,0.021,0.06,0.029,0.088,0.047
		c0.665,0.506,1.351,0.984,2.037,1.463c0.04,0.04,0.069,0.088,0.117,0.121c0.396,0.274,0.804,0.535,1.208,0.8
		c0.117,0.077,0.228,0.164,0.345,0.24c-0.203,0.06-0.435,0.101-0.673,0.136c-0.119,0.017-0.244,0.026-0.369,0.036
		c-0.125,0.011-0.254,0.018-0.386,0.021c-0.144,0.004-0.288,0.007-0.437,0.003c-1.912-0.054-4.369-0.787-6.494-2.595
		C8.402,42.202,7.303,38.746,7.564,36.748z"/>
	<path d="M22.377,28.171c0.182,0.49,0.594,0.849,1.104,0.961c0.309,0.068,0.64,0.102,0.987,0.102c0.378,0,0.778-0.045,1.19-0.123
		c0.058-0.002,0.117-0.006,0.176-0.018c0.988-0.207,2.04-0.634,3.042-1.234c0.043-0.026,0.069-0.066,0.106-0.097
		c0.802-0.492,1.584-1.104,2.313-1.825c0.031-0.024,0.069-0.036,0.097-0.065c0.042-0.042,0.076-0.091,0.117-0.134
		c0.105-0.108,0.2-0.232,0.302-0.345c0.248-0.276,0.495-0.552,0.718-0.848c0.125-0.164,0.234-0.346,0.352-0.518
		c0.156-0.229,0.326-0.449,0.468-0.688c0.012-0.02,0.012-0.042,0.022-0.063c0.039-0.067,0.087-0.125,0.125-0.192
		c0.492-0.872,0.863-1.768,1.134-2.661c0.001-0.005,0.005-0.008,0.006-0.013c0.005-0.017,0.007-0.035,0.012-0.052
		c0.152-0.509,0.273-1.015,0.359-1.516c0-0.001,0-0.003,0.001-0.004c0.302-1.744,0.222-3.41-0.145-4.795
		c-0.002-0.01,0.001-0.021-0.002-0.031c-0.01-0.037-0.023-0.07-0.033-0.106c-0.031-0.109-0.065-0.214-0.099-0.319
		c-0.038-0.116-0.075-0.232-0.117-0.343c-0.029-0.078-0.062-0.151-0.094-0.226c-0.051-0.122-0.102-0.245-0.158-0.36
		c-0.036-0.075-0.077-0.142-0.116-0.214c-0.055-0.102-0.109-0.207-0.168-0.303c-0.103-0.166-0.211-0.322-0.326-0.467
		c-0.097-0.122-0.21-0.226-0.333-0.315c-0.047-0.034-0.1-0.054-0.149-0.083c-0.08-0.046-0.159-0.094-0.245-0.126
		c-0.066-0.024-0.135-0.035-0.203-0.051c-0.079-0.019-0.156-0.039-0.238-0.047c-0.068-0.006-0.135,0-0.204,0.002
		c-0.063,0.002-0.126-0.007-0.19,0.002c-0.027,0.004-0.051,0.017-0.077,0.022c-0.022,0.004-0.045,0.001-0.067,0.006
		c-0.028,0.007-0.049,0.026-0.077,0.035c-0.487,0.144-0.883,0.487-1.073,0.973c-0.331,0.849-0.689,1.687-1.059,2.518
		c-0.284,0.635-0.579,1.268-0.883,1.892c-0.517,1.059-1.064,2.103-1.644,3.128c-0.383,0.677-0.784,1.347-1.193,2.006
		c-0.574,0.925-1.168,1.838-1.794,2.731c-0.392,0.561-0.795,1.115-1.207,1.661l-0.527,0.698c-0.001,0.001-0.001,0.002-0.001,0.002
		c-0.013,0.016-0.04,0.054-0.05,0.069c-0.013,0.019-0.014,0.042-0.025,0.061C22.273,27.254,22.214,27.731,22.377,28.171z
		 M25.963,25.513c0.001-0.002,0.001-0.005,0.003-0.007c0.563-0.804,1.102-1.624,1.625-2.454c0.012-0.018,0.029-0.031,0.041-0.049
		c0.051-0.081,0.097-0.167,0.148-0.249c0.465-0.748,0.918-1.503,1.35-2.271c0.014-0.024,0.029-0.047,0.042-0.071
		c0.003-0.005,0.002-0.011,0.005-0.016c0.479-0.855,0.934-1.724,1.371-2.602c0.009-0.017,0.023-0.029,0.032-0.046
		c0.04-0.08,0.075-0.164,0.114-0.245c0.385-0.782,0.756-1.572,1.106-2.371c0.017-0.039,0.037-0.077,0.054-0.116
		c0.004-0.008,0.002-0.017,0.005-0.025c0.222-0.51,0.441-1.021,0.649-1.537c0.021,0.039,0.043,0.073,0.063,0.114
		c0.066,0.137,0.126,0.286,0.183,0.443c0.034,0.094,0.068,0.188,0.099,0.288c0.263,0.863,0.386,1.953,0.301,3.154
		c-0.024,0.324-0.053,0.648-0.106,0.971c-0.026,0.158-0.071,0.322-0.104,0.482c-0.057,0.271-0.114,0.542-0.192,0.81
		c-0.229,0.79-0.55,1.593-0.996,2.384c-0.15,0.265-0.321,0.503-0.487,0.749c-0.109,0.161-0.211,0.327-0.329,0.483
		c-0.154,0.204-0.319,0.388-0.482,0.575c-0.124,0.143-0.242,0.29-0.373,0.427c-1.754,1.823-3.88,2.804-5.369,2.896
		c0.418-0.554,0.824-1.115,1.223-1.682C25.946,25.536,25.955,25.524,25.963,25.513z"/>
	<path d="M21.491,31.141c0.022,0.435,0.127,0.894,0.292,1.363c0.006,0.022,0.002,0.044,0.009,0.065
		c0.028,0.078,0.068,0.157,0.1,0.236c0.015,0.037,0.031,0.074,0.047,0.112c0.352,0.836,0.898,1.688,1.619,2.485
		c0.025,0.028,0.06,0.039,0.088,0.063c0.651,0.708,1.428,1.379,2.318,1.966c0.019,0.015,0.03,0.036,0.051,0.05
		c0.096,0.062,0.201,0.109,0.298,0.168c0.295,0.181,0.599,0.354,0.914,0.516c0.124,0.063,0.249,0.124,0.375,0.183
		c0.361,0.17,0.735,0.324,1.119,0.463c0.058,0.021,0.112,0.05,0.169,0.07c0.012,0.004,0.025,0.002,0.037,0.006
		c0.341,0.117,0.687,0.225,1.044,0.315c0.666,0.167,1.324,0.263,1.976,0.325c0.026,0.004,0.047,0.02,0.074,0.022
		c0.381,0.033,0.766,0.058,1.124,0.051c0.021,0,0.043,0.004,0.064,0.004c0.092,0,0.179-0.011,0.271-0.013
		c0.285-0.006,0.569-0.018,0.854-0.042c0.174-0.015,0.342-0.038,0.512-0.06c0.124-0.016,0.25-0.024,0.373-0.043
		c0.02-0.003,0.034-0.016,0.053-0.02c1.095-0.177,2.103-0.483,2.985-0.889c0.02-0.008,0.042-0.004,0.062-0.014
		c0.132-0.062,0.249-0.132,0.375-0.198c0.105-0.055,0.211-0.107,0.312-0.165c0.202-0.115,0.388-0.238,0.571-0.364
		c0.077-0.053,0.159-0.103,0.233-0.158c0.18-0.134,0.341-0.275,0.499-0.418c0.062-0.056,0.132-0.109,0.191-0.167
		c0.174-0.171,0.326-0.35,0.468-0.533c0.022-0.029,0.054-0.056,0.075-0.086c0.001-0.001,0.001-0.003,0.002-0.005
		c0.002-0.002,0.004-0.004,0.005-0.006l0.015-0.021c0.012-0.017,0.013-0.036,0.024-0.053c0.306-0.471,0.366-1.066,0.138-1.581
		c-0.242-0.549-0.743-0.914-1.342-0.978c-0.575-0.061-1.149-0.133-1.722-0.211c-0.841-0.114-1.69-0.248-2.532-0.399
		c-1.093-0.197-2.18-0.426-3.26-0.685c-0.828-0.198-1.661-0.415-2.485-0.652c-1.067-0.306-2.125-0.646-3.175-1.013
		c-0.774-0.272-1.544-0.553-2.309-0.857c-0.005-0.002-0.01-0.003-0.015-0.005l-0.811-0.323c-0.482-0.193-1.024-0.129-1.45,0.176
		C21.702,30.126,21.465,30.619,21.491,31.141z M29.33,36.902c-0.193-0.071-0.38-0.154-0.568-0.235
		c-0.229-0.099-0.459-0.198-0.676-0.31c-0.162-0.083-0.317-0.177-0.475-0.268c-2.079-1.205-3.496-2.905-3.959-4.259
		c0.781,0.311,1.571,0.599,2.364,0.877c0.111,0.039,0.219,0.084,0.33,0.123c0.016,0.005,0.031,0.002,0.047,0.006
		c0.935,0.32,1.874,0.625,2.823,0.898c0.002,0.001,0.004,0.003,0.006,0.003c0.01,0.003,0.021,0.005,0.031,0.008
		c0.842,0.243,1.691,0.461,2.543,0.667c0.113,0.027,0.227,0.063,0.34,0.089c0.026,0.006,0.051,0.005,0.077,0.009
		c1.824,0.427,3.667,0.77,5.524,1.026c0.108,0.015,0.217,0.037,0.325,0.051c0.041,0.005,0.082,0.008,0.122,0.008
		c0.275,0.036,0.549,0.078,0.825,0.11c-0.014,0.013-0.032,0.026-0.046,0.039c-0.162,0.146-0.345,0.289-0.551,0.427
		c-0.022,0.015-0.045,0.03-0.068,0.045c-0.922,0.6-2.24,1.095-3.774,1.291c-0.095,0.012-0.189,0.024-0.284,0.033
		c-0.354,0.036-0.716,0.059-1.09,0.059c-0.031,0.001-0.06-0.002-0.091-0.001c-0.848-0.006-1.738-0.107-2.648-0.337
		C30.068,37.164,29.695,37.037,29.33,36.902z"/>
	<path d="M35.786,8.517C36.6,8.8,37.404,9.136,38.178,9.515c0.142,0.07,0.292,0.103,0.439,0.103c0.37,0,0.726-0.205,0.898-0.56
		c0.243-0.496,0.039-1.095-0.457-1.338c-0.847-0.415-1.726-0.782-2.614-1.092c-0.523-0.181-1.092,0.095-1.273,0.615
		C34.989,7.765,35.265,8.335,35.786,8.517z"/>
	<path d="M40.431,10.796c0.721,0.47,1.422,0.989,2.083,1.544c0.188,0.157,0.415,0.234,0.642,0.234c0.286,0,0.569-0.121,0.767-0.357
		c0.355-0.423,0.3-1.054-0.123-1.408c-0.722-0.606-1.487-1.174-2.274-1.688c-0.462-0.299-1.081-0.172-1.385,0.291
		C39.838,9.874,39.969,10.494,40.431,10.796z"/>
	<path d="M14.675,12.078c-0.018,0.032-0.039,0.061-0.057,0.093c-0.02,0.035-0.02,0.073-0.035,0.109
		c-0.461,0.842-0.846,1.792-1.116,2.821c-0.008,0.023-0.024,0.04-0.031,0.064c-0.027,0.108-0.038,0.22-0.062,0.329
		c-0.08,0.348-0.149,0.702-0.202,1.064c-0.018,0.125-0.033,0.25-0.047,0.376c-0.046,0.399-0.073,0.805-0.082,1.217
		c-0.001,0.061-0.012,0.122-0.012,0.184c0,0.011,0.006,0.021,0.006,0.032c-0.002,0.363,0.006,0.729,0.036,1.098
		c0.056,0.702,0.172,1.379,0.328,2.031c0.001,0.007-0.001,0.013,0.001,0.019c0.007,0.027,0.018,0.052,0.024,0.079
		c0.124,0.5,0.271,0.985,0.444,1.449c0.003,0.007,0.005,0.013,0.008,0.02c0.61,1.627,1.499,3.016,2.497,4.065
		c0.007,0.008,0.009,0.018,0.016,0.026c0.036,0.037,0.073,0.067,0.109,0.104c0.145,0.147,0.292,0.286,0.441,0.418
		c0.068,0.061,0.135,0.124,0.204,0.182c0.188,0.157,0.379,0.303,0.571,0.436c0.093,0.064,0.185,0.118,0.278,0.176
		c0.114,0.071,0.228,0.139,0.342,0.201c0.097,0.052,0.193,0.102,0.289,0.146c0.161,0.075,0.321,0.14,0.48,0.196
		c0.029,0.01,0.059,0.027,0.087,0.036c0.008,0.003,0.02,0.005,0.029,0.009c0.007,0.002,0.014,0.006,0.021,0.008
		c0.004,0.001,0.008,0,0.012,0.002c0.035,0.011,0.07,0.023,0.098,0.029c0.072,0.016,0.145,0.023,0.215,0.023
		c0.005,0,0.009-0.002,0.014-0.002c0.056,0.006,0.111,0.026,0.167,0.026c0.415,0,0.821-0.152,1.134-0.439
		c0.44-0.405,0.625-0.996,0.493-1.582c-0.126-0.561-0.24-1.124-0.35-1.688c-0.163-0.836-0.307-1.682-0.433-2.524
		c-0.166-1.111-0.298-2.226-0.4-3.344c-0.076-0.838-0.136-1.68-0.175-2.511c-0.053-1.13-0.071-2.261-0.058-3.393
		c0.009-0.816,0.028-1.635,0.072-2.439c0-0.001,0-0.003,0-0.005l0.047-0.876c0.02-0.4-0.118-0.781-0.375-1.075
		c0.102-0.011,0.205-0.021,0.304-0.065c0.792-0.357,1.617-0.669,2.452-0.926c0.527-0.163,0.823-0.723,0.661-1.251
		c-0.163-0.527-0.721-0.822-1.251-0.661c-0.913,0.282-1.816,0.623-2.685,1.014c-0.503,0.228-0.728,0.819-0.501,1.323
		c0.009,0.019,0.023,0.033,0.033,0.051c-0.241-0.026-0.489,0.003-0.723,0.096c-0.036,0.014-0.072,0.036-0.107,0.051
		c-0.317-0.339-0.825-0.437-1.237-0.187c-0.813,0.494-1.604,1.044-2.354,1.635c-0.434,0.342-0.508,0.971-0.166,1.404
		C14.271,11.931,14.468,12.026,14.675,12.078z M19.225,26.875c-0.185-0.105-0.375-0.229-0.567-0.376
		c-0.028-0.021-0.057-0.044-0.085-0.066c-0.84-0.665-1.701-1.718-2.368-3.054c-0.114-0.23-0.216-0.467-0.314-0.705
		c-0.067-0.162-0.135-0.321-0.195-0.49c-0.087-0.242-0.157-0.49-0.227-0.738c-0.19-0.675-0.341-1.382-0.402-2.141
		c-0.032-0.404-0.032-0.798-0.021-1.188c0.006-0.206,0.024-0.41,0.041-0.616c0.021-0.246,0.04-0.493,0.076-0.731
		c0.026-0.178,0.066-0.355,0.101-0.532c0.39-1.94,1.238-3.566,2.164-4.566c0.003-0.003,0.005-0.006,0.008-0.009
		c0.197-0.212,0.397-0.396,0.595-0.549c0,0.008,0,0.016-0.001,0.024c-0.044,0.833-0.064,1.666-0.073,2.5
		c-0.001,0.117-0.01,0.234-0.01,0.351c0,0.016,0.008,0.03,0.009,0.045c-0.004,0.987,0.009,1.974,0.053,2.959
		c0,0.003-0.001,0.006-0.001,0.009c0.001,0.013,0.002,0.027,0.003,0.04c0.04,0.885,0.107,1.768,0.186,2.649
		c0.01,0.106,0.012,0.212,0.022,0.318c0.001,0.015,0.01,0.027,0.012,0.042c0.18,1.875,0.446,3.742,0.801,5.596
		c0.021,0.108,0.034,0.218,0.056,0.325c0.003,0.015,0.013,0.027,0.016,0.042c0.059,0.297,0.112,0.595,0.175,0.891
		C19.262,26.898,19.243,26.885,19.225,26.875z"/>
	<path d="M11.142,16.089c0.323,0,0.641-0.156,0.833-0.445c0.391-0.586,0.659-0.967,0.654-0.967c0.303-0.349,0.618-0.687,0.943-1.014
		c0.39-0.392,0.388-1.024-0.004-1.414s-1.024-0.387-1.414,0.004c-0.36,0.361-0.708,0.736-1.102,1.196c0,0-0.295,0.414-0.742,1.085
		c-0.307,0.46-0.182,1.081,0.277,1.387C10.759,16.034,10.951,16.089,11.142,16.089z"/>
	<path d="M6.489,32.426c0.039,0,0.079-0.002,0.12-0.007c0.548-0.065,0.939-0.563,0.874-1.112c-0.092-0.762-0.143-1.537-0.151-2.306
		c-0.007-0.549-0.453-0.988-1-0.988c-0.004,0-0.008,0-0.012,0c-0.553,0.007-0.995,0.46-0.988,1.012
		c0.01,0.84,0.065,1.688,0.165,2.521C5.558,32.053,5.989,32.426,6.489,32.426z"/>
	<path d="M6.341,27.592c0.034,0.003,0.068,0.005,0.102,0.005c0.231,0,0.441-0.087,0.613-0.223c0.026,0.088,0.058,0.177,0.086,0.265
		c0.018,0.057,0.028,0.117,0.047,0.175c0.006,0.019,0.019,0.032,0.026,0.05c0.134,0.403,0.281,0.805,0.459,1.203
		c0.234,0.522,0.498,1.016,0.784,1.485c0.002,0.004,0.002,0.008,0.004,0.012c0.005,0.007,0.01,0.014,0.015,0.021
		c0.25,0.407,0.52,0.79,0.801,1.155c0.03,0.038,0.058,0.077,0.088,0.115c0.294,0.374,0.603,0.723,0.923,1.05
		c0.014,0.015,0.026,0.032,0.041,0.047c0.004,0.004,0.01,0.005,0.014,0.01c0.747,0.755,1.549,1.38,2.362,1.867
		c0.008,0.005,0.012,0.013,0.02,0.018c0.036,0.021,0.072,0.038,0.107,0.058c0.16,0.093,0.32,0.179,0.48,0.261
		c0.077,0.04,0.153,0.081,0.23,0.118c0.186,0.089,0.372,0.169,0.556,0.244c0.085,0.034,0.169,0.066,0.254,0.097
		c0.178,0.065,0.355,0.125,0.53,0.175c0.098,0.028,0.193,0.049,0.289,0.072c0.127,0.031,0.252,0.06,0.377,0.082
		c0.045,0.008,0.092,0.023,0.136,0.03c0.038,0.006,0.074,0.007,0.111,0.009c0.254,0.036,0.503,0.061,0.742,0.061
		c0.053,0,0.106-0.001,0.158-0.003c0.599-0.021,1.145-0.36,1.424-0.888c0.28-0.529,0.257-1.148-0.063-1.656
		c-0.175-0.278-0.341-0.562-0.511-0.843c-0.334-0.55-0.658-1.105-0.974-1.666c-0.557-0.99-1.088-1.993-1.586-3.012
		c-0.321-0.657-0.634-1.334-0.936-2.018c-0.432-0.978-0.84-1.967-1.218-2.967c-0.288-0.761-0.566-1.545-0.826-2.336
		c-0.186-0.563-0.366-1.127-0.534-1.696l-0.248-0.838c-0.078-0.261-0.223-0.488-0.413-0.669c-0.004-0.004-0.005-0.01-0.01-0.013
		c-0.041-0.038-0.084-0.074-0.129-0.107c-0.022-0.313-0.193-0.612-0.483-0.786c-0.474-0.281-1.088-0.128-1.372,0.345
		c-0.246,0.411-0.495,0.84-0.736,1.278c-0.385,0.526-0.712,1.163-0.964,1.889l-0.009-0.003c-0.244,0.522-0.45,1.014-0.614,1.462
		c-0.113,0.308-0.05,0.627,0.116,0.882c-0.03,0.279-0.049,0.563-0.06,0.851c-0.345,0.099-0.632,0.369-0.712,0.745
		c-0.176,0.833-0.308,1.673-0.391,2.495C5.391,27.046,5.791,27.536,6.341,27.592z M8.908,21.022c0.172-0.577,0.391-1.084,0.647-1.48
		c0.158,0.531,0.327,1.059,0.499,1.585c0.002,0.006,0,0.013,0.002,0.019c0.011,0.033,0.024,0.064,0.034,0.098
		c0.265,0.804,0.547,1.601,0.845,2.392c0.025,0.066,0.046,0.137,0.072,0.203c0.005,0.014,0.016,0.025,0.022,0.039
		c0.329,0.864,0.678,1.72,1.047,2.568c0.005,0.012,0.003,0.025,0.008,0.037c0.031,0.071,0.065,0.137,0.097,0.208
		c0.335,0.762,0.685,1.518,1.052,2.266c0.018,0.038,0.035,0.078,0.054,0.116c0.005,0.01,0.014,0.018,0.019,0.028
		c0.41,0.831,0.842,1.651,1.291,2.462c0.007,0.013,0.006,0.027,0.013,0.04c0.049,0.089,0.104,0.174,0.154,0.263
		c0.404,0.722,0.818,1.439,1.252,2.145c-0.239-0.038-0.494-0.103-0.759-0.19c-0.012-0.004-0.025-0.009-0.037-0.012
		c-1.079-0.362-2.337-1.123-3.474-2.272c-0.399-0.404-0.755-0.85-1.089-1.312c-0.43-0.595-0.83-1.242-1.156-1.973
		c-0.176-0.394-0.319-0.791-0.444-1.186c-0.056-0.177-0.096-0.358-0.144-0.538c-0.064-0.247-0.132-0.494-0.178-0.738
		c-0.032-0.167-0.05-0.335-0.074-0.503c-0.192-1.345-0.128-2.61,0.109-3.681C8.811,21.407,8.852,21.209,8.908,21.022z"/>
	<path d="M25.507,49.925c-1.05-0.159-2.098-0.4-3.114-0.718c-0.529-0.16-1.088,0.131-1.253,0.657
		c-0.164,0.527,0.13,1.088,0.657,1.253c1.113,0.347,2.261,0.61,3.411,0.784c0.051,0.008,0.101,0.012,0.15,0.012
		c0.486,0,0.913-0.355,0.987-0.851C26.429,50.517,26.053,50.007,25.507,49.925z"/>
	<path d="M32.295,49.877c0.005-0.048,0.01-0.097,0.015-0.146c0.002-0.022-0.008-0.041-0.007-0.063
		c0.068-0.933-0.055-1.99-0.365-3.083c-0.007-0.039,0.001-0.076-0.01-0.115c-0.034-0.114-0.087-0.225-0.125-0.338
		c-0.093-0.283-0.197-0.568-0.315-0.853c-0.081-0.195-0.168-0.386-0.26-0.578c-0.147-0.31-0.305-0.619-0.481-0.925
		c-0.034-0.059-0.059-0.122-0.094-0.181c-0.015-0.024-0.039-0.038-0.055-0.06c-0.504-0.833-1.118-1.64-1.844-2.383
		c-0.009-0.01-0.011-0.022-0.021-0.031c-0.024-0.024-0.051-0.046-0.075-0.07c-0.243-0.243-0.495-0.481-0.762-0.708
		c-0.246-0.209-0.496-0.406-0.75-0.593c-0.064-0.047-0.132-0.09-0.197-0.136c-0.204-0.144-0.409-0.284-0.617-0.415
		c-0.015-0.009-0.029-0.021-0.044-0.03c-0.005-0.003-0.01-0.003-0.015-0.006c-1.956-1.211-4.062-1.817-5.917-1.902
		c-0.004,0-0.008-0.001-0.011-0.001c-0.003,0-0.005,0.001-0.008,0.001c-1.234-0.054-2.352,0.123-3.242,0.5
		c-0.012,0.004-0.024,0.002-0.036,0.007c-0.106,0.046-0.21,0.096-0.31,0.147c-0.135,0.07-0.258,0.157-0.367,0.258
		c-0.058,0.054-0.102,0.119-0.151,0.18c-0.043,0.053-0.093,0.101-0.129,0.159c-0.041,0.065-0.066,0.138-0.098,0.208
		c-0.03,0.065-0.065,0.128-0.086,0.197c-0.019,0.063-0.023,0.129-0.035,0.193c-0.013,0.073-0.036,0.143-0.039,0.217
		c0,0.013,0.004,0.026,0.003,0.039c0,0.011-0.004,0.021-0.004,0.032c0,0.063,0.016,0.123,0.023,0.185
		c0.008,0.071,0.01,0.142,0.027,0.21c0.015,0.064,0.044,0.122,0.067,0.182c0.027,0.071,0.047,0.144,0.083,0.21
		c0.033,0.06,0.078,0.112,0.118,0.167c0.041,0.057,0.076,0.119,0.125,0.171c0.097,0.103,0.207,0.196,0.33,0.274
		c0.006,0.004,0.012,0.008,0.018,0.011c3.209,2.032,6.198,4.381,8.946,6.99c0.21,0.199,0.425,0.393,0.631,0.594
		c0.655,0.641,1.283,1.309,1.908,1.98c-0.237,0.182-0.392,0.466-0.392,0.794c0,0.495,0.383,0.886,0.859,0.967l-0.152,0.168
		l1.586-0.151c0.162,0.057,0.331,0.095,0.505,0.095c0.082,0,0.164-0.007,0.247-0.021c0.172-0.028,0.33-0.093,0.478-0.173
		l1.474-0.093l-0.135-0.115c0.524-0.107,0.878-0.604,0.789-1.136C33.29,50.187,32.809,49.813,32.295,49.877z M27.915,47.278
		c-0.017-0.019-0.023-0.043-0.041-0.061c-0.06-0.06-0.126-0.116-0.187-0.176c-0.206-0.202-0.42-0.394-0.629-0.592
		c-0.442-0.421-0.877-0.847-1.33-1.253c-0.037-0.033-0.084-0.046-0.124-0.073c-0.662-0.591-1.335-1.166-2.022-1.727
		c-0.034-0.038-0.055-0.083-0.096-0.116c-0.503-0.408-1.037-0.808-1.564-1.208c-0.187-0.142-0.369-0.291-0.558-0.431
		c-0.072-0.053-0.138-0.11-0.21-0.163c-0.022-0.016-0.047-0.019-0.07-0.032c-0.747-0.548-1.51-1.075-2.282-1.588
		c-0.026-0.021-0.041-0.05-0.069-0.069c-0.161-0.107-0.323-0.212-0.485-0.317c-0.003-0.002-0.005-0.004-0.008-0.006
		c0.633-0.186,1.46-0.243,2.375-0.163c0.203,0.018,0.407,0.041,0.615,0.074c0.18,0.028,0.363,0.061,0.548,0.101
		c0.236,0.051,0.471,0.114,0.706,0.182c0.934,0.269,1.901,0.68,2.844,1.278c0.445,0.283,0.876,0.59,1.271,0.927
		c1.044,0.89,1.848,1.917,2.442,2.959c0.071,0.123,0.13,0.25,0.195,0.375c0.866,1.667,1.2,3.333,1.058,4.51
		c-0.002,0.013-0.004,0.024-0.005,0.037l-0.367-0.4c-0.021-0.023-0.05-0.032-0.072-0.053C29.22,48.605,28.576,47.933,27.915,47.278z
		"/>
	<path d="M37.027,48.508c-0.767,0.322-1.56,0.602-2.356,0.83c-0.531,0.152-0.838,0.706-0.686,1.236
		c0.125,0.439,0.525,0.725,0.961,0.725c0.091,0,0.184-0.013,0.275-0.039c0.873-0.25,1.741-0.556,2.581-0.908
		c0.509-0.214,0.748-0.8,0.534-1.31C38.123,48.533,37.536,48.298,37.027,48.508z"/>
	<path d="M50.204,39.702c0.219-0.578,0.35-1.142,0.383-1.67c0.013-0.211-0.026-0.415-0.089-0.611c0.134-0.334,0.27-0.667,0.387-1.01
		c0.18-0.521-0.098-1.091-0.62-1.271c-0.518-0.178-1.091,0.097-1.271,0.62c-0.058,0.166-0.117,0.332-0.179,0.497
		c-0.033,0.002-0.066,0.012-0.1,0.016c-0.057,0.008-0.113,0.014-0.169,0.028c-0.123,0.029-0.244,0.068-0.361,0.127
		c-1.072,0.537-2.161,1.035-3.262,1.504c-0.745,0.319-1.496,0.625-2.252,0.911c-0.968,0.366-1.948,0.698-2.934,1.011
		c-0.575,0.183-1.153,0.356-1.733,0.521c-1.626,0.462-3.27,0.862-4.933,1.181l-0.857,0.166c-0.513,0.099-0.934,0.446-1.127,0.932
		c-0.193,0.484-0.127,1.027,0.177,1.45c0.329,0.46,0.794,0.882,1.349,1.257c0.025,0.02,0.04,0.049,0.067,0.067
		c0.776,0.516,1.747,0.931,2.808,1.201c0.081,0.021,0.163,0.03,0.243,0.031c0.813,0.19,1.683,0.305,2.593,0.325
		c0.031,0.004,0.058,0.02,0.09,0.021l0.148,0.001c0.169,0,0.338-0.021,0.507-0.027c0.224-0.008,0.448-0.016,0.674-0.036
		c0.115-0.01,0.229-0.018,0.343-0.031c-0.27,0.169-0.541,0.338-0.816,0.494c-0.48,0.271-0.65,0.882-0.378,1.362
		c0.184,0.325,0.522,0.508,0.871,0.508c0.167,0,0.336-0.042,0.491-0.13c0.79-0.446,1.563-0.945,2.298-1.483
		c0.431-0.316,0.527-0.91,0.237-1.353c0.241-0.081,0.476-0.171,0.708-0.264c0.152,0.085,0.314,0.144,0.484,0.144
		c0.243,0,0.487-0.088,0.68-0.266c0.345-0.319,0.677-0.653,1.001-0.992c1.933-1.229,3.373-2.846,4.182-4.436L50.204,39.702z
		 M44.516,43.289c-0.381,0.24-0.781,0.458-1.188,0.65c-0.385,0.181-0.786,0.348-1.21,0.49c-0.424,0.142-0.846,0.25-1.266,0.337
		c-0.122,0.025-0.246,0.038-0.369,0.06c-0.303,0.052-0.605,0.1-0.901,0.126c-0.126,0.011-0.253,0.013-0.379,0.02
		c-2.448,0.133-4.606-0.545-5.745-1.453c0.648-0.125,1.294-0.261,1.938-0.406c0.001,0,0.001-0.001,0.002-0.001
		c0.884-0.2,1.76-0.427,2.633-0.667c0.019-0.004,0.039-0.002,0.058-0.008c0.132-0.037,0.262-0.081,0.394-0.118
		c0.62-0.175,1.237-0.361,1.85-0.556c0.138-0.044,0.278-0.08,0.416-0.125c0.009-0.003,0.015-0.01,0.024-0.014
		c0.863-0.282,1.72-0.583,2.57-0.903c0.008-0.003,0.016-0.001,0.024-0.004c0.111-0.042,0.219-0.09,0.329-0.133
		c0.643-0.247,1.282-0.505,1.917-0.774c0.109-0.047,0.222-0.087,0.331-0.134c0.011-0.005,0.018-0.015,0.029-0.02
		c0.844-0.365,1.683-0.741,2.511-1.144c0.001,0,0.002,0,0.003-0.001l0.003-0.001c-0.37,1.408-1.691,3.295-3.812,4.677L44.516,43.289
		z"/>
	<path d="M51.192,28.735c-0.564-0.015-1.019,0.404-1.043,0.955c-0.045,1.031-0.165,2.066-0.355,3.078
		c-0.103,0.543,0.254,1.065,0.797,1.168c0.063,0.012,0.125,0.018,0.187,0.018c0.472,0,0.891-0.334,0.981-0.814
		c0.209-1.104,0.34-2.235,0.389-3.361C52.172,29.227,51.744,28.76,51.192,28.735z"/>
	<path d="M50.062,26.595c0.052,0.516,0.486,0.9,0.994,0.9c0.033,0,0.067-0.002,0.101-0.005c0.55-0.056,0.95-0.546,0.896-1.095
		c-0.112-1.12-0.308-2.242-0.58-3.335c-0.135-0.535-0.679-0.857-1.213-0.729c-0.536,0.134-0.861,0.677-0.729,1.213
		C49.78,24.544,49.959,25.57,50.062,26.595z"/>
	<path d="M30.758,27.543c-0.014,0.003-0.027,0.011-0.041,0.014c-0.123,0.027-0.241,0.068-0.351,0.123
		c-0.037,0.019-0.069,0.044-0.104,0.066c-0.083,0.051-0.163,0.105-0.235,0.17c-0.013,0.012-0.029,0.018-0.042,0.03
		c-0.016,0.015-0.021,0.036-0.035,0.052c-0.13,0.138-0.244,0.293-0.317,0.476c-0.193,0.483-0.128,1.026,0.176,1.451
		c0.449,0.629,1.133,1.193,1.986,1.653c0.021,0.013,0.034,0.034,0.056,0.046c0.893,0.476,1.967,0.83,3.106,1.024
		c0.058,0.01,0.114,0.015,0.17,0.015c0.014,0,0.026-0.007,0.04-0.007c0.636,0.099,1.294,0.163,1.977,0.163
		c0.3,0,0.604-0.014,0.911-0.035c0.009,0,0.017,0.005,0.026,0.005c0.026,0,0.053-0.001,0.08-0.003
		c0.085-0.007,0.167-0.027,0.251-0.035c0.365-0.035,0.732-0.088,1.102-0.155c0.146-0.027,0.29-0.055,0.435-0.087
		c0.418-0.091,0.837-0.198,1.255-0.335c0.02-0.007,0.043-0.01,0.063-0.017l0.029-0.009l0-0.001h0
		c1.053-0.352,2.015-0.826,2.883-1.375c0.011-0.007,0.024-0.009,0.035-0.016c0.02-0.012,0.036-0.028,0.056-0.041
		c0.426-0.274,0.827-0.567,1.203-0.875c0.029-0.024,0.059-0.048,0.088-0.072c0.389-0.324,0.748-0.662,1.079-1.012
		c0.015-0.015,0.032-0.028,0.046-0.043c0.004-0.005,0.005-0.011,0.01-0.016c0.795-0.852,1.414-1.759,1.829-2.65
		c0.005-0.011,0.014-0.019,0.02-0.03c0.063-0.137,0.116-0.272,0.169-0.408c0.01-0.027,0.023-0.054,0.033-0.081
		c0.067-0.177,0.125-0.353,0.175-0.527c0.004-0.015,0.01-0.03,0.014-0.045c0.048-0.173,0.087-0.343,0.118-0.511
		c0.003-0.017,0.009-0.035,0.012-0.052c0.029-0.167,0.048-0.33,0.06-0.492c0.001-0.016,0.005-0.033,0.006-0.049c0,0,0-0.001,0-0.001
		v-0.001l0.004-0.109c0-0.248-0.06-0.483-0.159-0.696c-0.018-0.039-0.039-0.074-0.059-0.111c-0.043-0.077-0.091-0.148-0.145-0.217
		c-0.029-0.038-0.057-0.076-0.089-0.111c-0.083-0.089-0.173-0.17-0.273-0.239c-0.008-0.006-0.014-0.014-0.022-0.019
		c-0.025-0.017-0.054-0.024-0.08-0.039c-0.081-0.048-0.165-0.09-0.254-0.124c-0.041-0.016-0.082-0.03-0.123-0.042
		c-0.09-0.027-0.183-0.044-0.278-0.054c-0.035-0.004-0.07-0.012-0.105-0.014c-0.01,0-0.02-0.004-0.031-0.004
		c-0.021,0-0.039,0.01-0.059,0.01c-0.246,0.003-0.494,0.05-0.726,0.167c-0.887,0.445-1.788,0.858-2.695,1.256
		c-0.659,0.29-1.331,0.57-2.009,0.837c-1.097,0.433-2.207,0.834-3.328,1.2c-0.727,0.238-1.468,0.462-2.212,0.673
		c-1.605,0.454-3.229,0.848-4.871,1.164L30.758,27.543z M40.66,30.251c-0.444,0.148-0.888,0.265-1.327,0.354
		c-0.059,0.012-0.12,0.014-0.179,0.025c-3.011,0.553-5.801-0.211-7.153-1.288c0.593-0.114,1.184-0.237,1.775-0.37
		c0.004-0.001,0.007-0.004,0.011-0.005c0.96-0.215,1.912-0.458,2.859-0.719c0.017-0.004,0.034-0.002,0.05-0.007
		c0.098-0.027,0.194-0.061,0.293-0.089c0.863-0.244,1.722-0.5,2.574-0.782c0.006-0.002,0.012-0.003,0.018-0.005l0.001,0
		c0.939-0.311,1.869-0.652,2.792-1.009c0.015-0.005,0.03-0.003,0.044-0.008c0.108-0.042,0.212-0.091,0.321-0.134
		c0.825-0.325,1.646-0.663,2.456-1.024c0.002-0.001,0.003-0.001,0.005-0.002h0c0.611-0.273,1.219-0.556,1.822-0.85
		c-0.006,0.025-0.011,0.049-0.018,0.075c-0.259,0.915-0.905,2.016-1.904,3.052c-0.169,0.175-0.352,0.338-0.534,0.501
		c-0.128,0.115-0.245,0.234-0.382,0.346c-0.266,0.217-0.551,0.417-0.84,0.612C42.557,29.449,41.668,29.914,40.66,30.251z"/>
</g>
<g>
</g>
<g>
</g>
<g>
</g>
<g>
</g>
<g>
</g>
<g>
</g>
<g>
</g>
<g>
</g>
<g>
</g>
<g>
</g>
<g>
</g>
<g>
</g>
<g>
</g>
<g>
</g>
<g>
</g>
</svg>
