<?xml version="1.0" encoding="iso-8859-1"?>
<!-- Generator: Adobe Illustrator 18.0.0, SVG Export Plug-In . SVG Version: 6.00 Build 0)  -->
<!DOCTYPE svg PUBLIC "-//W3C//DTD SVG 1.1//EN" "http://www.w3.org/Graphics/SVG/1.1/DTD/svg11.dtd">
<svg version="1.1" id="Capa_1" xmlns="http://www.w3.org/2000/svg" xmlns:xlink="http://www.w3.org/1999/xlink" x="0px" y="0px"
	 viewBox="0 0 59.366 59.366" style="enable-background:new 0 0 59.366 59.366;" xml:space="preserve">
<g>
	<path d="M59.235,45.414c-0.218-0.451-0.665-0.731-1.166-0.731h-0.535l-3.458-19.015c-0.132-0.729-0.227-1.463-0.321-2.197
		c-0.021-0.165-0.044-0.33-0.066-0.495l0.002-0.027c0.005-0.088,0.009-0.176,0.009-0.266c0-8.271-10.767-15-24-15s-24,6.729-24,15
		c0,0.09,0.004,0.178,0.009,0.266l0.002,0.027c-0.022,0.165-0.045,0.33-0.066,0.495c-0.095,0.734-0.189,1.469-0.321,2.197
		L1.865,44.683H1.296c-0.503,0-0.951,0.282-1.168,0.736s-0.155,0.979,0.159,1.369l2.628,3.271c0.83,1.031,2.065,1.623,3.389,1.623
		h46.782c1.331,0,2.571-0.598,3.4-1.639l2.597-3.262C59.395,46.39,59.453,45.865,59.235,45.414z M55.501,44.683h-6.919
		l-2.698-21.585c0.275-2.063,0.973-2.904,1.74-3.226c0.356-0.149,0.726-0.188,1.075-0.188c2.075,0,2.74,1.63,2.933,2.997
		l0.063,0.473h0c0.026,0.192,0.052,0.383,0.077,0.575c0.1,0.769,0.199,1.536,0.338,2.298L55.501,44.683z M15.692,21.807l0.008-0.124
		c0-2.206,1.794-4,4-4c0.169,0,0.329,0.011,0.48,0.032c1.797,0.247,2.328,1.891,2.471,3.123L21.7,43.641
		c-0.006,0.141,0.019,0.276,0.067,0.4l-0.027,0.642h-8.908L15.692,21.807z M24.699,21.683v-2c0-2.154,2.749-4,5-4
		c0.141,0,0.283,0.007,0.427,0.021c2.152,0.21,4.562,1.955,4.573,4.008v1.971h0.004c0,0.015-0.003,0.027-0.003,0.042l0.957,22.958
		H23.742L24.699,21.683z M37.659,44.683l-0.027-0.642c0.048-0.124,0.073-0.259,0.067-0.4l-0.951-22.8
		c0.154-1.336,0.765-3.158,2.952-3.158c2.206,0,4,1.794,4,4l1.186,9.562l0.001-0.006l0,0.002l0.003-0.021l1.679,13.463H37.659z
		 M29.699,9.683c9.258,0,17.199,3.396,20.44,8.192c-0.103-0.029-0.214-0.043-0.32-0.066c-0.084-0.018-0.167-0.039-0.254-0.052
		c-0.279-0.044-0.566-0.074-0.867-0.074c-0.291,0-0.593,0.021-0.898,0.073c-0.915,0.156-1.856,0.587-2.598,1.537
		c-0.004-0.01-0.011-0.019-0.016-0.03c-0.099-0.224-0.215-0.438-0.339-0.646c-0.033-0.056-0.067-0.111-0.102-0.166
		c-0.137-0.213-0.282-0.42-0.444-0.613c-0.007-0.008-0.015-0.016-0.023-0.024c-0.157-0.186-0.328-0.358-0.506-0.523
		c-0.048-0.045-0.096-0.088-0.146-0.131c-0.19-0.166-0.387-0.323-0.597-0.464c-0.008-0.005-0.016-0.009-0.024-0.014
		c-0.204-0.135-0.42-0.255-0.641-0.365c-0.06-0.03-0.119-0.058-0.18-0.086c-0.233-0.106-0.47-0.204-0.718-0.281
		c-0.004-0.001-0.009-0.002-0.013-0.003c-0.244-0.075-0.496-0.129-0.752-0.172c-0.066-0.011-0.132-0.021-0.199-0.03
		c-0.264-0.036-0.532-0.061-0.805-0.061c-1.52,0-2.77,0.589-3.64,1.635c-0.001-0.002-0.003-0.005-0.005-0.007
		c-0.134-0.238-0.291-0.464-0.459-0.684c-0.043-0.057-0.087-0.112-0.132-0.167c-0.176-0.215-0.362-0.425-0.566-0.62
		c-0.004-0.004-0.008-0.007-0.012-0.011c-0.203-0.193-0.422-0.371-0.648-0.542c-0.059-0.045-0.118-0.088-0.178-0.131
		c-0.233-0.166-0.473-0.325-0.724-0.466c-0.003-0.002-0.007-0.003-0.01-0.005c-0.249-0.14-0.508-0.261-0.769-0.374
		c-0.067-0.029-0.134-0.057-0.202-0.084c-0.266-0.106-0.536-0.204-0.808-0.28c-0.002,0-0.004-0.001-0.006-0.001
		c-0.272-0.076-0.545-0.13-0.818-0.173c-0.069-0.011-0.137-0.021-0.206-0.03c-0.275-0.035-0.549-0.06-0.819-0.06
		c-0.27,0-0.545,0.025-0.82,0.06c-0.068,0.009-0.136,0.019-0.205,0.03c-0.554,0.088-1.107,0.244-1.645,0.459
		c-0.059,0.023-0.116,0.047-0.175,0.072c-0.551,0.236-1.078,0.533-1.563,0.882c-0.03,0.021-0.059,0.043-0.088,0.065
		c-0.505,0.375-0.957,0.805-1.336,1.282c-0.004,0.005-0.008,0.01-0.012,0.015c-0.193,0.244-0.372,0.497-0.522,0.763
		c-0.169-0.202-0.362-0.372-0.559-0.538c-0.056-0.047-0.101-0.108-0.159-0.153c-0.066-0.05-0.144-0.081-0.213-0.128
		c-0.754-0.514-1.659-0.81-2.704-0.81c-0.274,0-0.542,0.025-0.806,0.061c-0.067,0.009-0.132,0.019-0.198,0.03
		c-0.258,0.044-0.512,0.098-0.758,0.174c-0.003,0.001-0.005,0.001-0.008,0.002c-0.248,0.077-0.486,0.175-0.72,0.281
		c-0.06,0.028-0.119,0.056-0.177,0.085c-0.224,0.112-0.443,0.232-0.65,0.37c-0.005,0.003-0.01,0.006-0.015,0.009
		c-0.211,0.141-0.408,0.3-0.599,0.466c-0.049,0.043-0.097,0.086-0.145,0.131c-0.18,0.167-0.354,0.342-0.512,0.531
		c-0.005,0.006-0.011,0.011-0.016,0.018c-0.162,0.194-0.307,0.401-0.444,0.615c-0.035,0.055-0.069,0.109-0.102,0.165
		c-0.127,0.213-0.246,0.432-0.346,0.661c-0.003,0.006-0.006,0.011-0.009,0.017c-0.989-1.271-2.331-1.615-3.494-1.615
		c-0.301,0-0.588,0.029-0.867,0.074c-0.087,0.014-0.169,0.035-0.254,0.052c-0.106,0.023-0.217,0.037-0.32,0.066
		C12.5,13.079,20.442,9.683,29.699,9.683z M7.289,26.026c0.139-0.762,0.238-1.529,0.338-2.298c0.025-0.192,0.051-0.383,0.077-0.575
		h0l0.063-0.473c0.192-1.367,0.857-2.997,2.933-2.997c1.101,0,2.41,0.397,2.813,3.429l-2.696,21.571H3.898L7.289,26.026z
		 M54.922,48.798c-0.448,0.563-1.117,0.885-1.836,0.885H6.304c-0.715,0-1.382-0.319-1.83-0.876l-1.706-2.124h53.839L54.922,48.798z"
		/>
	<path d="M9.306,26.737c-0.545-0.088-1.058,0.286-1.144,0.831l-1.325,8.396c-0.087,0.546,0.286,1.058,0.831,1.144
		c0.053,0.009,0.105,0.013,0.157,0.013c0.483,0,0.909-0.352,0.986-0.844l1.325-8.396C10.224,27.334,9.851,26.822,9.306,26.737z"/>
	<path d="M10.932,23.009c0.089-0.546-0.281-1.06-0.826-1.148c-0.554-0.088-1.06,0.283-1.148,0.826l-0.361,2.218
		c-0.089,0.546,0.281,1.06,0.826,1.148c0.055,0.009,0.109,0.013,0.162,0.013c0.481,0,0.906-0.349,0.986-0.839L10.932,23.009z"/>
	<path d="M17.921,24.362c0.045,0.006,0.089,0.009,0.133,0.009c0.494,0,0.923-0.365,0.99-0.868l0.297-2.228
		c0.073-0.547-0.312-1.05-0.859-1.123c-0.553-0.075-1.05,0.312-1.123,0.859l-0.297,2.228C16.989,23.786,17.373,24.289,17.921,24.362
		z"/>
	<path d="M27.694,22.778c-0.552-0.04-1.018,0.406-1.039,0.959l-0.195,4.831c-0.022,0.552,0.407,1.017,0.959,1.039
		c0.014,0.001,0.027,0.001,0.041,0.001c0.533,0,0.977-0.422,0.998-0.96l0.195-4.831C28.675,23.266,28.245,22.801,27.694,22.778z"/>
	<path d="M27.848,17.841c-0.011-0.001-0.021-0.001-0.033-0.001c-0.537,0-0.98,0.427-0.998,0.968l-0.073,2.246
		c-0.019,0.552,0.414,1.014,0.967,1.031c0.011,0.001,0.021,0.001,0.033,0.001c0.537,0,0.98-0.427,0.998-0.968l0.073-2.246
		C28.833,18.32,28.401,17.859,27.848,17.841z"/>
	<path d="M49.016,21.263c-0.549,0.066-0.939,0.564-0.874,1.112l0.269,2.231c0.062,0.508,0.493,0.881,0.992,0.881
		c0.04,0,0.08-0.002,0.12-0.007c0.549-0.066,0.939-0.564,0.874-1.112l-0.269-2.231C50.062,21.588,49.555,21.195,49.016,21.263z"/>
</g>
<g>
</g>
<g>
</g>
<g>
</g>
<g>
</g>
<g>
</g>
<g>
</g>
<g>
</g>
<g>
</g>
<g>
</g>
<g>
</g>
<g>
</g>
<g>
</g>
<g>
</g>
<g>
</g>
<g>
</g>
</svg>
