<?xml version="1.0" encoding="iso-8859-1"?>
<!-- Generator: Adobe Illustrator 18.0.0, SVG Export Plug-In . SVG Version: 6.00 Build 0)  -->
<!DOCTYPE svg PUBLIC "-//W3C//DTD SVG 1.1//EN" "http://www.w3.org/Graphics/SVG/1.1/DTD/svg11.dtd">
<svg version="1.1" id="Capa_1" xmlns="http://www.w3.org/2000/svg" xmlns:xlink="http://www.w3.org/1999/xlink" x="0px" y="0px"
	 viewBox="0 0 57.581 57.581" style="enable-background:new 0 0 57.581 57.581;" xml:space="preserve">
<path d="M53.613,13.811c-2.287-3.271-5.381-4.763-8.967-4.32c-1.811,0.012-3.621,0.496-5.275,1.407
	c-0.14-0.08-0.288-0.137-0.431-0.209c-0.227-0.117-0.454-0.234-0.688-0.334c-0.131-0.055-0.263-0.101-0.396-0.151
	c-0.304-0.117-0.612-0.22-0.926-0.308c-0.067-0.018-0.133-0.037-0.201-0.054C36,9.652,35.249,9.54,34.484,9.511
	c-0.036-0.004-0.067-0.021-0.104-0.021c-0.05,0-0.099,0.007-0.148,0.008c-0.05-0.001-0.099-0.008-0.148-0.008
	c-0.037,0-0.068,0.017-0.104,0.021c-0.305,0.012-0.608,0.031-0.909,0.069c-0.471,0.046-0.94,0.121-1.404,0.23
	c0.295-2.199,1.209-3.754,1.799-4.548c0.324-0.437,0.337-1.03,0.031-1.477c-0.312-0.454-0.878-0.661-1.411-0.515
	c-1.771,0.482-3.731,0.068-5.064-0.366c-0.525-0.173-1.1,0.013-1.425,0.461c-0.33,0.457-0.327,1.071,0.009,1.53
	c0.938,1.277,1.009,3.475,0.915,5.043c-0.975-0.287-1.977-0.448-2.987-0.448c-0.464,0-0.926,0.032-1.383,0.094
	c-0.195,0.026-0.385,0.078-0.577,0.115c-0.258,0.05-0.519,0.089-0.773,0.158c-0.237,0.064-0.466,0.156-0.698,0.237
	c-0.202,0.07-0.407,0.127-0.604,0.21c-0.291,0.121-0.57,0.27-0.85,0.417c-0.12,0.063-0.245,0.11-0.362,0.177
	c-1.675-0.923-3.51-1.407-5.341-1.407l-0.132,0.009C6.348,10.36-0.408,16.277,0.019,30.302C0.37,41.803,6.154,54.088,15.299,54.74
	c1.559,0,3.095-0.354,4.476-1.028c0.136,0.064,0.278,0.11,0.416,0.168c0.019,0.008,0.038,0.015,0.057,0.023
	c0.277,0.115,0.556,0.223,0.84,0.313c0.218,0.072,0.442,0.128,0.665,0.186c0.096,0.024,0.19,0.054,0.286,0.075
	c0.74,0.168,1.501,0.263,2.279,0.263c0.042,0,0.078-0.019,0.119-0.024c1.517-0.017,3.024-0.348,4.391-1.004
	c1.351,0.649,2.839,0.977,4.337,1.001c0.046,0.006,0.086,0.027,0.134,0.027c0.105,0,0.207-0.013,0.311-0.016
	c0.134,0.005,0.266,0.016,0.402,0.016c0.089,0,0.168-0.029,0.25-0.05c0.424-0.04,0.842-0.106,1.253-0.196
	c0.813-0.168,1.61-0.424,2.367-0.782c1.381,0.674,2.917,1.028,4.476,1.028c4.728,0,8.707-2.842,11.509-8.218
	C58.92,36.821,58.799,21.23,53.613,13.811z M28.469,10.713c0.144-1.549,0.165-3.694-0.467-5.481
	c0.913,0.187,1.937,0.298,2.978,0.234c-0.647,1.214-1.282,2.921-1.397,5.063c-0.165,0.074-0.311,0.152-0.463,0.228
	c-0.096,0.05-0.197,0.087-0.292,0.14c-0.026-0.015-0.054-0.024-0.081-0.039C28.656,10.81,28.565,10.761,28.469,10.713z
	 M52.091,45.598c-1.697,3.259-4.765,7.143-9.734,7.143c-0.838,0-1.642-0.134-2.415-0.372c2.509-1.985,4.224-5.034,4.416-8.454
	l0.581-10.308c0.031-0.552-0.391-1.024-0.941-1.055c-0.537-0.033-1.024,0.39-1.055,0.941l-0.581,10.308
	c-0.225,3.989-2.932,7.374-6.457,8.521c-0.03,0.009-0.06,0.019-0.09,0.029c-0.204,0.064-0.413,0.116-0.622,0.165
	c-0.216,0.047-0.434,0.09-0.653,0.12c-0.063,0.009-0.125,0.022-0.188,0.03c-0.287,0.034-0.574,0.048-0.862,0.053
	c-3.552-0.218-6.573-2.636-7.783-6.295c-0.173-0.524-0.741-0.814-1.263-0.636c-0.524,0.173-0.81,0.738-0.636,1.263
	c0.693,2.097,1.885,3.857,3.406,5.164c-1.251,0.458-2.588,0.615-3.906,0.458c-0.057-0.007-0.112-0.019-0.169-0.027
	c-0.251-0.035-0.5-0.082-0.749-0.139c-0.133-0.032-0.265-0.067-0.397-0.105c-0.152-0.043-0.302-0.092-0.452-0.143
	c-0.184-0.064-0.369-0.129-0.548-0.205c-0.053-0.022-0.104-0.049-0.157-0.072c-3.089-1.386-5.375-4.528-5.582-8.179l-0.507-8.997
	c-0.03-0.551-0.497-0.966-1.055-0.941c-0.551,0.03-0.973,0.503-0.941,1.055l0.507,8.997c0.193,3.426,1.914,6.479,4.431,8.464
	c-0.756,0.231-1.534,0.362-2.319,0.364C7.53,52.181,2.335,40.625,2.019,30.241C1.766,21.94,4.522,12.667,13.01,11.49
	c1.161,0.009,2.324,0.27,3.432,0.743c-0.89,0.778-1.693,1.688-2.35,2.749c-0.291,0.469-0.146,1.085,0.323,1.376
	c0.164,0.103,0.346,0.15,0.525,0.15c0.335,0,0.662-0.168,0.851-0.474c0.78-1.258,1.763-2.265,2.874-3.02l0.176-0.114
	c2.451-1.594,5.531-1.803,8.203-0.646c0.045,0.02,0.082,0.04,0.126,0.06c-0.237,0.213-0.472,0.432-0.695,0.668
	c-2.468,2.611-3.76,6.294-3.544,10.104l0.22,3.901c0.029,0.532,0.471,0.943,0.997,0.943c0.019,0,0.038-0.001,0.058-0.002
	c0.551-0.03,0.973-0.503,0.941-1.055l-0.22-3.901c-0.184-3.263,0.91-6.403,3.001-8.616c1.46-1.545,3.304-2.5,5.279-2.774
	c1.118-0.117,2.247-0.035,3.327,0.277c0.008,0.002,0.016,0.004,0.023,0.006c0.36,0.105,0.712,0.24,1.057,0.393
	c0.136,0.062,0.268,0.135,0.401,0.203c0.173,0.088,0.344,0.181,0.512,0.281c0.722,0.434,1.399,0.969,2.007,1.612
	c2.091,2.213,3.186,5.354,3.002,8.617c-0.031,0.552,0.391,1.024,0.941,1.055c0.02,0.001,0.038,0.002,0.058,0.002
	c0.526,0,0.968-0.411,0.997-0.943c0.215-3.811-1.077-7.493-3.545-10.104c-0.25-0.264-0.51-0.511-0.777-0.747
	c1.129-0.482,2.317-0.743,3.501-0.743l0.13-0.009c2.863-0.369,5.26,0.797,7.132,3.475C56.711,21.733,56.768,36.623,52.091,45.598z"
	/>
<g>
</g>
<g>
</g>
<g>
</g>
<g>
</g>
<g>
</g>
<g>
</g>
<g>
</g>
<g>
</g>
<g>
</g>
<g>
</g>
<g>
</g>
<g>
</g>
<g>
</g>
<g>
</g>
<g>
</g>
</svg>
