<?xml version="1.0" encoding="iso-8859-1"?>
<!-- Generator: Adobe Illustrator 18.0.0, SVG Export Plug-In . SVG Version: 6.00 Build 0)  -->
<!DOCTYPE svg PUBLIC "-//W3C//DTD SVG 1.1//EN" "http://www.w3.org/Graphics/SVG/1.1/DTD/svg11.dtd">
<svg version="1.1" id="Capa_1" xmlns="http://www.w3.org/2000/svg" xmlns:xlink="http://www.w3.org/1999/xlink" x="0px" y="0px"
	 viewBox="0 0 59 59" style="enable-background:new 0 0 59 59;" xml:space="preserve">
<g>
	<path d="M33.83,20.154c0.036-0.228,0.005-0.468-0.126-0.68c-1.475-2.382-1.849-7.492-1.853-7.543
		c-0.039-0.551-0.514-0.963-1.067-0.928c-0.551,0.039-0.966,0.516-0.928,1.067c0.015,0.216,0.367,5.03,1.855,7.933
		c-0.016,0.001-0.033,0.002-0.049,0.004c-2.036,0.077-15.04,0.997-15.806,11.886c-0.426,6.058,0.939,9.137,5.843,13.176
		c5.974,4.919,8.639,7.334,9.225,13.034C30.977,58.613,31.406,59,31.919,59s0.942-0.388,0.995-0.898
		c0.566-5.504,3.101-8.06,8.248-12.334c0,0,0.001,0,0.001-0.001l0.206-0.17c0,0,0.001-0.001,0.001-0.001
		c0.211-0.175,0.418-0.347,0.638-0.528c4.904-4.039,6.27-7.118,5.843-13.176C47.211,22.787,38.016,20.654,33.83,20.154z
		 M31.906,53.56c-1.32-3.345-3.816-5.758-7.569-8.9c2.219-2.994,4.86-4.649,7.517-4.649c2.657,0,5.302,1.648,7.522,4.645
		C35.668,47.762,33.207,50.159,31.906,53.56z M40.907,43.38c-2.596-3.459-5.774-5.369-9.053-5.369c-3.279,0-6.458,1.91-9.053,5.37
		c-4.251-3.543-5.323-6.021-4.949-11.347c0.289-4.105,2.688-7.036,7.131-8.708c3.18-1.197,6.348-1.313,6.871-1.324
		c0.523,0.011,3.691,0.127,6.871,1.324c4.443,1.673,6.842,4.603,7.131,8.708C46.23,37.359,45.158,39.836,40.907,43.38z"/>
	<path d="M24.06,18.245l4.998-1.045c0.31-0.065,0.571-0.273,0.704-0.561c0.133-0.288,0.121-0.622-0.032-0.899l-2.457-4.477
		c-2.825-5.149-8.586-7.797-14.333-6.597L7.942,5.711c-0.31,0.065-0.571,0.273-0.704,0.561C7.106,6.56,7.117,6.893,7.27,7.171
		l2.457,4.477c2.372,4.322,6.812,6.883,11.576,6.883C22.214,18.531,23.137,18.437,24.06,18.245z M11.48,10.686L9.673,7.393
		l3.676-0.769c4.884-1.023,9.771,1.23,12.171,5.601l1.807,3.293l-3.676,0.769C18.771,17.31,13.88,15.057,11.48,10.686z"/>
	<path d="M51.561,0.293c-0.224-0.225-0.541-0.33-0.854-0.282l-5.051,0.752C39.847,1.628,35.363,6.112,34.498,11.92l-0.752,5.051
		c-0.046,0.313,0.058,0.63,0.282,0.854c0.189,0.189,0.444,0.293,0.707,0.293c0.049,0,0.098-0.003,0.147-0.011l5.051-0.752
		c5.809-0.865,10.292-5.349,11.157-11.157l0.752-5.051C51.889,0.834,51.785,0.518,51.561,0.293z M49.112,5.904
		c-0.734,4.932-4.541,8.739-9.473,9.474l-3.715,0.553l0.553-3.715c0.734-4.932,4.542-8.739,9.474-9.473l3.715-0.554L49.112,5.904z"
		/>
</g>
<g>
</g>
<g>
</g>
<g>
</g>
<g>
</g>
<g>
</g>
<g>
</g>
<g>
</g>
<g>
</g>
<g>
</g>
<g>
</g>
<g>
</g>
<g>
</g>
<g>
</g>
<g>
</g>
<g>
</g>
</svg>
