<?xml version="1.0" encoding="iso-8859-1"?>
<!-- Generator: Adobe Illustrator 18.0.0, SVG Export Plug-In . SVG Version: 6.00 Build 0)  -->
<!DOCTYPE svg PUBLIC "-//W3C//DTD SVG 1.1//EN" "http://www.w3.org/Graphics/SVG/1.1/DTD/svg11.dtd">
<svg version="1.1" id="Capa_1" xmlns="http://www.w3.org/2000/svg" xmlns:xlink="http://www.w3.org/1999/xlink" x="0px" y="0px"
	 viewBox="0 0 60.034 60.034" style="enable-background:new 0 0 60.034 60.034;" xml:space="preserve">
<g>
	<path d="M59.819,37.063c-0.333-0.646-0.99-1.046-1.716-1.046h-2.363c-0.25-0.509-0.615-0.952-1.09-1.274
		c-0.326-0.222-0.501-0.552-0.467-0.884c0.041-0.407,0.015-0.76-0.083-1.08c-0.335-1.096-1.271-1.972-2.383-2.231
		c-0.13-0.029-0.271-0.049-0.422-0.062c-0.396-1.091-1.437-1.875-2.659-1.887c-0.18-1.099-0.909-2.017-1.9-2.47
		c-0.005-0.164-0.023-0.327-0.07-0.489l-0.826-2.884c-0.147-0.513-0.485-0.938-0.953-1.197s-1.009-0.321-1.521-0.175l-2.884,0.826
		c-0.513,0.147-0.938,0.485-1.197,0.953c-0.209,0.377-0.284,0.801-0.23,1.22c-1.054-0.053-2.087-0.089-3.096-0.105
		c-0.348-1.853-1.972-3.261-3.925-3.261c-2.03,0-3.693,1.525-3.948,3.487c-0.894,0.064-1.778,0.136-2.646,0.224l0.011-0.012
		c0.679-0.754,0.619-1.92-0.135-2.602l-0.979-0.882c-0.753-0.68-1.921-0.618-2.601,0.136l-4.084,4.532
		c-0.886,0.179-1.744,0.37-2.578,0.57c0.006-0.22-0.016-0.441-0.083-0.658c-0.159-0.511-0.508-0.929-0.98-1.176l-2.657-1.393
		c-0.474-0.248-1.013-0.296-1.524-0.136c-0.511,0.159-0.928,0.508-1.175,0.979l-1.393,2.657c-0.467,0.891-0.187,1.971,0.606,2.542
		c-0.006,0.12-0.001,0.241,0.016,0.362c0.054,0.354-0.131,0.664-0.295,0.861c-0.321,0.386-0.729,0.552-0.845,0.556
		c-0.418,0.014-0.797,0.193-1.098,0.52c-0.533,0.578-0.694,1.497-0.739,2.101c-0.691,0.404-1.811,1.152-1.863,2.33H1.929
		c-0.726,0-1.383,0.4-1.715,1.046s-0.275,1.413,0.146,2.004l0.12,0.169l5.239,3.151c0.237,0.412,0.399,0.992,0.556,1.557
		c0.36,1.297,0.854,3.073,2.758,3.073h42c1.903,0,2.397-1.776,2.758-3.073c0.157-0.564,0.318-1.146,0.556-1.558l5.206-3.151
		l0.119-0.168C60.094,38.476,60.151,37.709,59.819,37.063z M43.918,23.307l0.826,2.884l-2.884,0.824l-0.826-2.882L43.918,23.307z
		 M32.034,23.017c1.087,0,1.97,0.873,1.995,1.954l-0.017,0.207c-0.031,0.387-0.168,0.739-0.38,1.029
		c-0.016,0.021-0.033,0.04-0.049,0.06c-0.056,0.071-0.115,0.138-0.179,0.2c-0.044,0.041-0.091,0.077-0.138,0.114
		c-0.047,0.037-0.092,0.076-0.142,0.109c-0.069,0.045-0.144,0.082-0.218,0.119c-0.037,0.018-0.072,0.04-0.11,0.056
		c-0.089,0.037-0.183,0.063-0.277,0.086c-0.031,0.008-0.059,0.02-0.09,0.026c-0.128,0.026-0.259,0.04-0.394,0.04
		c-0.129,0-0.255-0.015-0.377-0.038c-0.07-0.014-0.136-0.037-0.204-0.058c-0.047-0.014-0.096-0.026-0.141-0.044
		c-0.087-0.035-0.17-0.077-0.251-0.124c-0.02-0.011-0.04-0.021-0.059-0.032c-0.092-0.057-0.179-0.121-0.26-0.191
		c-0.005-0.004-0.01-0.008-0.014-0.012c-0.349-0.308-0.594-0.738-0.662-1.228l-0.013-0.097c-0.005-0.059-0.018-0.116-0.018-0.177
		C30.034,23.915,30.931,23.017,32.034,23.017z M23.116,22.826l0.743,0.669l-1.431,1.588h-0.001l-2.585,2.869l-0.743-0.669
		L23.116,22.826z M10.426,25.016l2.657,1.393l-1.395,2.656l-0.109-0.057l-2.546-1.334L10.426,25.016z M6.082,35.318
		c0.354-0.203,0.839-0.481,0.809-1.125c-0.02-0.404,0.071-0.911,0.174-1.151c0.721-0.111,1.506-0.583,2.062-1.252
		c0.367-0.441,0.607-0.937,0.713-1.436l0.922,0.483c0.006,0.003,0.012,0.004,0.018,0.007c0.129,0.066,0.262,0.115,0.397,0.151
		c0.05,0.013,0.101,0.018,0.152,0.028c0.094,0.017,0.187,0.031,0.281,0.034c0.026,0.001,0.051,0.009,0.076,0.009
		c0.025,0,0.051-0.011,0.076-0.012c0.171-0.007,0.34-0.028,0.503-0.077c0.007-0.002,0.014-0.001,0.021-0.003
		c0.24-0.075,0.458-0.195,0.649-0.347c0.009-0.007,0.019-0.012,0.027-0.019c0.072-0.059,0.134-0.128,0.196-0.196
		c0.027-0.03,0.058-0.054,0.084-0.085c0.034-0.042,0.06-0.092,0.091-0.137c0.044-0.064,0.092-0.125,0.129-0.195l0.64-1.222
		c0.98-0.262,2.015-0.509,3.088-0.739c0.002,0.005,0.006,0.01,0.009,0.015c0.037,0.082,0.084,0.158,0.133,0.235
		c0.019,0.03,0.033,0.062,0.054,0.091c0.074,0.103,0.159,0.199,0.257,0.287l0.978,0.881c0.092,0.083,0.19,0.153,0.292,0.214
		c0.003,0.002,0.006,0.003,0.009,0.004c0.206,0.121,0.43,0.196,0.659,0.23c0.014,0.002,0.029,0.002,0.043,0.004
		c0.076,0.01,0.153,0.021,0.229,0.021c0.014,0,0.028-0.004,0.041-0.004c0.018,0,0.036,0.004,0.054,0.003
		c0.062-0.003,0.121-0.018,0.182-0.027c0.042-0.006,0.085-0.01,0.126-0.019c0.084-0.019,0.164-0.047,0.244-0.077
		c0.036-0.014,0.074-0.023,0.109-0.039c0.08-0.036,0.155-0.082,0.229-0.129c0.033-0.021,0.067-0.037,0.099-0.06
		c0.085-0.062,0.162-0.135,0.237-0.211c0.015-0.016,0.033-0.027,0.048-0.043l2.199-2.44c1.572-0.205,3.216-0.368,4.898-0.488
		c0.063,0.159,0.144,0.307,0.226,0.456c0.021,0.039,0.04,0.078,0.063,0.115c0.084,0.14,0.175,0.273,0.275,0.401
		c0.034,0.045,0.071,0.087,0.107,0.13c0.104,0.123,0.209,0.243,0.327,0.353c0.016,0.015,0.033,0.026,0.049,0.041
		c0.216,0.195,0.453,0.362,0.708,0.507c0.093,0.053,0.185,0.108,0.282,0.154c0.099,0.046,0.199,0.084,0.302,0.122
		c0.132,0.049,0.266,0.09,0.403,0.125c0.085,0.021,0.169,0.045,0.256,0.061c0.233,0.043,0.471,0.072,0.715,0.072
		c0.247,0,0.487-0.029,0.722-0.073c0.097-0.018,0.19-0.046,0.285-0.071c0.127-0.034,0.251-0.07,0.373-0.116
		c0.12-0.044,0.236-0.094,0.35-0.149c0.077-0.038,0.15-0.079,0.224-0.122c0.665-0.376,1.207-0.933,1.566-1.609
		c0.01-0.018,0.02-0.036,0.03-0.054c0.086-0.169,0.159-0.343,0.221-0.524c0.004-0.011,0.01-0.021,0.014-0.032
		c1.226,0.02,2.493,0.065,3.786,0.14l0.333,1.162c0.062,0.215,0.164,0.41,0.289,0.588c0.172,0.247,0.393,0.458,0.664,0.609
		c0,0,0.001,0,0.001,0l0.001,0c0.137,0.076,0.282,0.13,0.429,0.172c0.042,0.012,0.085,0.019,0.127,0.028
		c0.11,0.024,0.22,0.038,0.333,0.042c0.026,0.001,0.052,0.01,0.078,0.01c0.019,0,0.038-0.008,0.057-0.008
		c0.159-0.005,0.317-0.023,0.473-0.067c0.007-0.002,0.014-0.001,0.021-0.003l2.884-0.826c0.172-0.05,0.33-0.128,0.479-0.218
		c0.003-0.002,0.006-0.002,0.008-0.004c0.523,0.177,0.897,0.669,0.897,1.242c0,0.951,0.994,1.465,1.929,1.465
		c0.473,0,0.857,0.385,0.857,0.857c0,0.103,0.032,1.001,1.154,1.005c0.125,0.001,0.507,0.002,0.646,0.034
		c0.423,0.099,0.794,0.448,0.922,0.866c0.005,0.015,0.026,0.099,0.006,0.295c-0.089,0.868,0.239,1.729,0.872,2.36H39.773H17.33
		c0.109-0.138,0.195-0.297,0.218-0.485l0.171-1.377c0.068-0.548-0.321-1.048-0.869-1.115c-0.549-0.071-1.048,0.321-1.115,0.869
		l-0.171,1.377c-0.034,0.271,0.046,0.53,0.2,0.731H5.099C5.215,35.88,5.485,35.66,6.082,35.318z M52.939,40.901l-0.119,0.168
		c-0.499,0.698-0.741,1.57-0.955,2.339c-0.355,1.278-0.526,1.609-0.831,1.609h-42c-0.305,0-0.476-0.331-0.831-1.609
		c-0.214-0.769-0.456-1.641-0.955-2.339L7.128,40.9l-4.792-2.883h1.208h36.148c0,0,1.014,0.033,1.113,0h15.475h1.424L52.939,40.901z
		"/>
	<path d="M15.862,29.425c-0.456-0.31-1.079-0.194-1.39,0.263l-0.781,1.146c-0.312,0.456-0.193,1.078,0.263,1.39
		c0.173,0.117,0.368,0.174,0.563,0.174c0.319,0,0.634-0.152,0.827-0.437l0.781-1.146C16.436,30.359,16.318,29.737,15.862,29.425z"/>
	<path d="M12.374,32.895l-1.181-0.729c-0.473-0.293-1.087-0.144-1.376,0.325c-0.29,0.471-0.145,1.086,0.325,1.376l1.181,0.729
		c0.164,0.102,0.346,0.149,0.524,0.149c0.335,0,0.663-0.169,0.852-0.475C12.989,33.8,12.844,33.185,12.374,32.895z"/>
	<path d="M18.475,32.744l1.383,0.107c0.026,0.002,0.052,0.003,0.078,0.003c0.518,0,0.955-0.398,0.996-0.923
		c0.043-0.551-0.369-1.031-0.92-1.074L18.63,30.75c-0.549-0.055-1.031,0.369-1.074,0.92S17.925,32.701,18.475,32.744z"/>
	<path d="M23.74,33.178l-0.781,1.146c-0.312,0.457-0.193,1.079,0.263,1.39c0.173,0.117,0.368,0.174,0.563,0.174
		c0.319,0,0.634-0.152,0.827-0.437l0.781-1.146c0.312-0.457,0.193-1.079-0.263-1.39C24.673,32.606,24.052,32.721,23.74,33.178z"/>
	<path d="M22.399,30.373l1.181,0.729c0.164,0.102,0.346,0.149,0.524,0.149c0.335,0,0.663-0.169,0.852-0.475
		c0.29-0.471,0.145-1.086-0.325-1.376l-1.181-0.729c-0.473-0.292-1.087-0.145-1.376,0.325
		C21.784,29.467,21.929,30.083,22.399,30.373z"/>
	<path d="M46.104,34.742c0.319,0,0.634-0.152,0.827-0.437l0.782-1.146c0.312-0.456,0.193-1.078-0.263-1.39
		c-0.454-0.31-1.079-0.194-1.39,0.263l-0.782,1.146c-0.312,0.456-0.193,1.078,0.263,1.39C45.714,34.685,45.91,34.742,46.104,34.742z
		"/>
	<path d="M42.19,30.868l1.181,0.729c0.164,0.102,0.346,0.149,0.524,0.149c0.335,0,0.663-0.169,0.852-0.475
		c0.29-0.471,0.145-1.086-0.325-1.376l-1.181-0.729c-0.472-0.293-1.088-0.145-1.376,0.325C41.575,29.963,41.72,30.578,42.19,30.868z
		"/>
	<path d="M28.028,30.399l1.384,0.107c0.026,0.002,0.053,0.003,0.078,0.003c0.518,0,0.955-0.398,0.996-0.923
		c0.043-0.551-0.369-1.031-0.92-1.074l-1.384-0.107c-0.563-0.039-1.031,0.369-1.074,0.92S27.477,30.356,28.028,30.399z"/>
	<path d="M29.024,32.692c-0.53-0.145-1.081,0.173-1.225,0.707c-0.144,0.533,0.173,1.082,0.707,1.225l1.34,0.359
		c0.087,0.023,0.174,0.034,0.26,0.034c0.441,0,0.845-0.294,0.965-0.741c0.144-0.533-0.173-1.082-0.707-1.225L29.024,32.692z"/>
	<path d="M34.332,33.74c0.135,0.426,0.528,0.697,0.953,0.697c0.1,0,0.202-0.015,0.303-0.047l1.323-0.42
		c0.526-0.167,0.817-0.729,0.65-1.256c-0.166-0.525-0.725-0.819-1.256-0.65l-1.323,0.42C34.456,32.651,34.165,33.214,34.332,33.74z"
		/>
	<path d="M33.105,32.017c0.255,0,0.51-0.097,0.705-0.291l0.984-0.979c0.392-0.389,0.394-1.022,0.004-1.414s-1.022-0.395-1.414-0.004
		L32.4,30.308c-0.392,0.389-0.394,1.022-0.004,1.414C32.592,31.919,32.848,32.017,33.105,32.017z"/>
	<path d="M40.138,33.615c0.118,0.448,0.523,0.744,0.966,0.744c0.085,0,0.171-0.011,0.257-0.033c0.533-0.141,0.852-0.688,0.711-1.223
		l-0.354-1.342c-0.141-0.535-0.69-0.853-1.223-0.711c-0.533,0.141-0.852,0.688-0.711,1.223L40.138,33.615z"/>
	<path d="M36.813,28.904l1.384,0.108c0.026,0.002,0.053,0.003,0.079,0.003c0.517,0,0.955-0.397,0.996-0.922
		c0.043-0.551-0.368-1.032-0.919-1.075l-1.384-0.108c-0.544-0.043-1.032,0.367-1.075,0.919
		C35.851,28.38,36.262,28.861,36.813,28.904z"/>
	<path d="M24.228,20.568c0.146,0.513,0.484,0.938,0.952,1.197c0.302,0.168,0.634,0.253,0.969,0.253c0.185,0,0.37-0.025,0.552-0.078
		l2.884-0.826c0.513-0.147,0.938-0.485,1.197-0.953s0.322-1.008,0.175-1.521l-0.826-2.884c-0.147-0.513-0.485-0.938-0.953-1.197
		s-1.009-0.323-1.521-0.175l-2.884,0.826c-0.513,0.147-0.938,0.485-1.197,0.953s-0.322,1.008-0.175,1.521L24.228,20.568z
		 M28.208,16.307l0.826,2.884l-2.884,0.824l-0.826-2.882L28.208,16.307z M26.15,20.017L26.15,20.017"/>
	<path d="M16.034,25.017c2.206,0,4-1.794,4-4s-1.794-4-4-4s-4,1.794-4,4S13.828,25.017,16.034,25.017z M16.034,19.017
		c1.103,0,2,0.897,2,2s-0.897,2-2,2s-2-0.897-2-2S14.931,19.017,16.034,19.017z"/>
	<path d="M35.316,21.876c0.169,0.462,0.508,0.831,0.954,1.038c0.247,0.115,0.51,0.173,0.774,0.173c0.213,0,0.428-0.038,0.634-0.113
		l1.235-0.452c0.462-0.169,0.831-0.507,1.038-0.953c0.208-0.446,0.229-0.946,0.061-1.409l-2.171-5.934
		c-0.169-0.461-0.508-0.83-0.954-1.036c-0.445-0.208-0.945-0.229-1.408-0.06l-1.235,0.452c-0.462,0.169-0.831,0.508-1.038,0.954
		c-0.208,0.446-0.229,0.946-0.06,1.408L35.316,21.876z M36.018,15.062l2.061,5.635l-0.938,0.344l-2.062-5.635L36.018,15.062z"/>
	<path d="M50.034,41.017H19.019c-0.553,0-1,0.447-1,1s0.447,1,1,1h31.015c0.553,0,1-0.447,1-1S50.587,41.017,50.034,41.017z"/>
	<path d="M14.105,41.017h-4.071c-0.553,0-1,0.447-1,1s0.447,1,1,1h4.071c0.553,0,1-0.447,1-1S14.658,41.017,14.105,41.017z"/>
</g>
<g>
</g>
<g>
</g>
<g>
</g>
<g>
</g>
<g>
</g>
<g>
</g>
<g>
</g>
<g>
</g>
<g>
</g>
<g>
</g>
<g>
</g>
<g>
</g>
<g>
</g>
<g>
</g>
<g>
</g>
</svg>
