<?xml version="1.0" encoding="iso-8859-1"?>
<!-- Generator: Adobe Illustrator 18.0.0, SVG Export Plug-In . SVG Version: 6.00 Build 0)  -->
<!DOCTYPE svg PUBLIC "-//W3C//DTD SVG 1.1//EN" "http://www.w3.org/Graphics/SVG/1.1/DTD/svg11.dtd">
<svg version="1.1" id="Capa_1" xmlns="http://www.w3.org/2000/svg" xmlns:xlink="http://www.w3.org/1999/xlink" x="0px" y="0px"
	 viewBox="0 0 58.852 58.852" style="enable-background:new 0 0 58.852 58.852;" xml:space="preserve">
<g>
	<path d="M57.52,1.332C56.661,0.473,55.516,0,54.295,0c-1.222,0-2.367,0.473-3.226,1.332L45.56,9.563l-2.252-2.32
		c-1.131-1.131-3.119-1.126-4.238-0.005L7.064,38.831c-1.168,1.17-1.168,3.073,0.025,4.267l2.564,2.398l-8.17,5.449l-0.152,0.125
		C0.473,51.928,0,53.073,0,54.295c0,1.221,0.473,2.366,1.332,3.225c0.858,0.859,2.004,1.332,3.226,1.332
		c1.221,0,2.366-0.473,3.225-1.332l5.769-8.379l2.513,2.35c0.565,0.565,1.318,0.877,2.122,0.877s1.557-0.312,2.126-0.882
		l31.17-31.586c1.166-1.17,1.165-3.071,0.008-4.229l-2.173-2.238l8.061-5.534l0.141-0.117c0.859-0.858,1.332-2.004,1.332-3.225
		C58.852,3.336,58.379,2.19,57.52,1.332z M6.307,56.164c-0.967,0.908-2.619,0.883-3.561-0.059C2.265,55.624,2,54.981,2,54.295
		c0-0.656,0.241-1.272,0.683-1.746l8.294-5.53l0.954,0.953L6.307,56.164z M50.064,18.488L18.893,50.076
		c-0.373,0.375-1.014,0.398-1.438-0.023L8.48,41.66c-0.391-0.39-0.391-1.025-0.006-1.41L40.48,8.657
		c0.187-0.188,0.438-0.291,0.706-0.291s0.52,0.104,0.696,0.28l8.183,8.428C50.455,17.464,50.455,18.099,50.064,18.488z
		 M56.164,6.307l-8.192,5.624l-0.953-0.954l5.53-8.294c0.969-0.903,2.615-0.878,3.557,0.063c0.481,0.481,0.746,1.124,0.746,1.812
		C56.852,5.216,56.608,5.834,56.164,6.307z"/>
	<path d="M18.479,34.66c-0.391-0.391-1.023-0.391-1.414,0l-5,5c-0.391,0.391-0.391,1.023,0,1.414
		c0.195,0.195,0.451,0.293,0.707,0.293s0.512-0.098,0.707-0.293l5-5C18.87,35.684,18.87,35.051,18.479,34.66z"/>
	<path d="M24.479,34.66c-0.391-0.391-1.023-0.391-1.414,0l-8,8c-0.391,0.391-0.391,1.023,0,1.414
		c0.195,0.195,0.451,0.293,0.707,0.293s0.512-0.098,0.707-0.293l8-8C24.87,35.684,24.87,35.051,24.479,34.66z"/>
	<path d="M29.065,34.66l-11,11c-0.391,0.391-0.391,1.023,0,1.414c0.195,0.195,0.451,0.293,0.707,0.293s0.512-0.098,0.707-0.293
		l11-11c0.391-0.391,0.391-1.023,0-1.414S29.456,34.27,29.065,34.66z"/>
</g>
<g>
</g>
<g>
</g>
<g>
</g>
<g>
</g>
<g>
</g>
<g>
</g>
<g>
</g>
<g>
</g>
<g>
</g>
<g>
</g>
<g>
</g>
<g>
</g>
<g>
</g>
<g>
</g>
<g>
</g>
</svg>
