<?xml version="1.0" encoding="iso-8859-1"?>
<!-- Generator: Adobe Illustrator 18.0.0, SVG Export Plug-In . SVG Version: 6.00 Build 0)  -->
<!DOCTYPE svg PUBLIC "-//W3C//DTD SVG 1.1//EN" "http://www.w3.org/Graphics/SVG/1.1/DTD/svg11.dtd">
<svg version="1.1" id="Capa_1" xmlns="http://www.w3.org/2000/svg" xmlns:xlink="http://www.w3.org/1999/xlink" x="0px" y="0px"
	 viewBox="0 0 58 58" style="enable-background:new 0 0 58 58;" xml:space="preserve">
<path d="M54.72,21.013c-1.024-7.562-6.244-14.387-14.323-18.727c-0.377-0.202-0.759-0.392-1.146-0.566
	c-2.486-1.126-10.984-1.626-13.123-1.697L26.02,0.015C25.927,0.007,25.835,0,25.744,0c-0.054,0-0.109,0.005-0.163,0.006
	C25.408,0.002,25.247,0,25.113,0l-1.36,0.021l0.032,0.103c-0.063,0.008-0.127,0.016-0.189,0.024
	c-0.584,0.081-1.169,0.196-1.752,0.34c-0.018,0.005-0.037,0.006-0.056,0.011c-0.602,0.151-1.201,0.335-1.794,0.551
	c-4.961,1.809-9.102,4.831-12.043,8.574L7.944,9.627L7.777,9.844C7.656,10,7.551,10.164,7.435,10.323
	c-0.182,0.25-0.367,0.498-0.539,0.754c-0.187,0.278-0.359,0.562-0.533,0.845c-0.12,0.195-0.244,0.388-0.357,0.586
	c-0.192,0.335-0.367,0.677-0.54,1.019c-0.082,0.161-0.169,0.32-0.247,0.483c-0.176,0.37-0.334,0.746-0.489,1.122
	c-0.061,0.148-0.128,0.293-0.185,0.442c-0.149,0.386-0.278,0.778-0.404,1.17c-0.048,0.148-0.103,0.295-0.148,0.444
	c-0.116,0.391-0.212,0.786-0.305,1.182c-0.037,0.157-0.083,0.313-0.117,0.471c-0.086,0.404-0.149,0.812-0.211,1.22
	c-0.023,0.153-0.056,0.304-0.076,0.458c-0.071,0.549-0.12,1.101-0.147,1.656c-0.001,0.013-0.003,0.026-0.003,0.039
	c-0.024,0.519-0.023,1.041-0.004,1.564l0.026,1.297l0.058-0.029c0.292,2.911,1.228,5.843,2.767,8.612
	c0.967,1.741,1.826,3.382,2.576,4.91l0.328,0.684c1.396,2.912,2.346,5.338,2.823,7.208l0.105,0.411
	c0.191,0.845,0.276,1.558,0.234,2.108c-0.073,0.967-0.009,1.783,0.197,2.494c0.134,0.463,0.293,0.904,0.471,1.325
	c0.01,0.023,0.018,0.048,0.028,0.072c0.173,0.403,0.368,0.782,0.577,1.143c0.021,0.035,0.039,0.073,0.06,0.108
	c0.207,0.347,0.433,0.67,0.672,0.975c0.031,0.039,0.06,0.08,0.091,0.118c0.238,0.293,0.492,0.563,0.758,0.814
	c0.04,0.037,0.078,0.076,0.118,0.112c0.267,0.241,0.546,0.459,0.837,0.656c0.046,0.031,0.092,0.063,0.139,0.093
	c0.293,0.189,0.597,0.354,0.911,0.496c0.05,0.023,0.101,0.045,0.152,0.066c0.318,0.135,0.644,0.246,0.98,0.331
	c0.052,0.013,0.104,0.025,0.157,0.036c0.341,0.078,0.69,0.133,1.047,0.158c0.02,0.001,0.039,0.008,0.06,0.009l0.149,0
	C19.549,57.991,19.645,58,19.744,58c0.036,0,0.07-0.011,0.107-0.012L24.191,58c1.611,0,2.922-1.311,2.922-2.922v-7.931
	c0-0.857,0.19-1.637,0.551-2.252c1.055-1.804,0.87-3.37,0.656-5.184c-0.132-1.121-0.282-2.393-0.165-3.983
	c0.052-0.703,0.688-0.749,0.814-0.751c0.16-0.02,0.609,0.059,0.713,0.567c0.027,0.228,0.059,0.453,0.062,0.689l-1.026,7.003
	l-0.955,6.513h0l-0.318,2.17c-0.051,0.311-0.069,0.622-0.071,0.932c0,0.054-0.002,0.108-0.001,0.162
	c0.006,0.305,0.035,0.606,0.087,0.903c0.004,0.024,0.01,0.047,0.014,0.07c0.175,0.935,0.567,1.809,1.161,2.508
	C29.46,57.465,30.564,58,31.744,58c0.349,0,0.689-0.032,1.025-0.082L38.113,58c3.38,0,5.913-2.317,7.132-6.526
	c0.168-0.583,0.233-1.224,0.198-1.957c-0.111-2.408,2.275-8.065,6.548-15.521C54.332,29.913,55.301,25.303,54.72,21.013z
	 M42.49,36.177c-3.78,2.489-7.629,4.194-11.462,5.08l0.539-3.676c3.946-0.519,7.912-1.547,11.835-3.067
	C43.098,35.06,42.794,35.614,42.49,36.177z M32.482,55.931l-1.226-0.015c-0.319-0.088-0.61-0.258-0.863-0.489l0,0
	c-0.112-0.102-0.213-0.22-0.309-0.344c-0.069-0.089-0.127-0.187-0.186-0.284c-0.05-0.082-0.104-0.158-0.147-0.246
	c2.31-0.397,4.631-1.079,6.936-2.027C35.735,54.455,34.255,55.668,32.482,55.931z M37.445,49.61c0.007,0.141-0.003,0.26-0.007,0.389
	c-2.67,1.249-5.365,2.101-8.038,2.561c0.009-0.112,0.003-0.221,0.021-0.333l0.41-2.802c2.671-0.465,5.343-1.297,7.978-2.482
	C37.55,47.958,37.411,48.867,37.445,49.61z M38.651,44.327c-2.805,1.439-5.662,2.451-8.514,3.015l0.581-3.963
	c3.351-0.687,6.707-1.959,10.018-3.796C39.938,41.215,39.215,42.831,38.651,44.327z M28.662,30.118
	c-0.089-0.059-0.181-0.111-0.273-0.165c-0.086-0.05-0.17-0.102-0.258-0.147c-0.107-0.055-0.217-0.101-0.327-0.149
	c-0.079-0.034-0.156-0.072-0.236-0.102c-0.12-0.045-0.244-0.081-0.367-0.117c-0.075-0.022-0.149-0.05-0.225-0.068
	c-0.121-0.03-0.245-0.049-0.368-0.07c-0.082-0.014-0.163-0.034-0.246-0.044c-0.098-0.012-0.198-0.012-0.298-0.019
	c-0.107-0.007-0.214-0.02-0.322-0.02c-0.108,0-0.215,0.013-0.322,0.02c-0.099,0.006-0.2,0.007-0.298,0.019
	c-0.083,0.01-0.163,0.03-0.245,0.044c-0.124,0.021-0.248,0.04-0.37,0.07c-0.075,0.019-0.147,0.045-0.221,0.067
	c-0.125,0.037-0.249,0.072-0.371,0.118c-0.078,0.029-0.153,0.066-0.229,0.099c-0.112,0.048-0.225,0.096-0.334,0.152
	c-0.085,0.043-0.166,0.094-0.249,0.142c-0.095,0.055-0.191,0.11-0.283,0.171c-0.09,0.06-0.177,0.125-0.265,0.19
	c-0.079,0.059-0.157,0.116-0.233,0.179c-0.093,0.076-0.182,0.157-0.271,0.24c-0.066,0.061-0.131,0.121-0.194,0.185
	c-0.09,0.091-0.177,0.185-0.263,0.282c-0.057,0.065-0.113,0.13-0.168,0.198c-0.043,0.053-0.09,0.101-0.132,0.155
	c-0.36-0.629-0.552-1.329-0.552-2.049c0-2.481,2.243-4.5,5-4.5s5,2.019,5,4.5c0,0.72-0.191,1.419-0.552,2.049
	c-0.042-0.055-0.09-0.103-0.133-0.156c-0.054-0.066-0.109-0.131-0.165-0.194c-0.087-0.099-0.176-0.195-0.268-0.288
	c-0.061-0.061-0.123-0.119-0.186-0.177c-0.092-0.085-0.184-0.168-0.279-0.247c-0.073-0.06-0.148-0.115-0.223-0.171
	C28.847,30.248,28.756,30.18,28.662,30.118z M19.973,55.959c-0.062,0.008-0.121,0.019-0.229,0.041c-1.79,0-3.333-0.937-4.423-2.568
	c2.055,0.688,4.156,1.127,6.276,1.358c-0.085,0.141-0.164,0.286-0.27,0.41c-0.312,0.367-0.688,0.611-1.089,0.724L19.973,55.959z
	 M8.971,34.979c3.533,1.336,7.209,2.235,10.971,2.684l0.581,3.98c-4.234-0.672-7.679-2.228-9.963-3.536
	C10.047,37.05,9.51,35.999,8.971,34.979z M20.82,43.722l0.58,3.958c-2.679-0.333-5.322-1.066-7.881-2.186
	c0,0-0.001-0.004-0.002-0.006c-0.381-1.362-0.941-2.866-1.607-4.423C14.767,42.402,17.793,43.307,20.82,43.722z M21.701,49.72
	l0.368,2.524c0.032,0.198,0.033,0.394,0.036,0.591c-2.702-0.265-5.37-0.924-7.952-1.984c-0.124-0.467-0.165-1.026-0.113-1.721
	c0.029-0.388,0.008-0.823-0.043-1.283C16.509,48.817,19.09,49.445,21.701,49.72z M7.25,14.424c0.159-0.314,0.323-0.626,0.499-0.933
	c0.096-0.167,0.198-0.331,0.299-0.496c0.159-0.26,0.321-0.519,0.491-0.773c0.135-0.202,0.276-0.401,0.419-0.6
	c0.084-0.117,0.172-0.232,0.259-0.348C14.81,9.08,20.02,8.165,24.744,8.037V11.1c-5.389,0.141-11.394,1.292-17.849,4.067
	c0.052-0.113,0.096-0.229,0.15-0.341C7.109,14.691,7.182,14.558,7.25,14.424z M26.744,13.105c8.391,0.168,15.063,2.809,19.296,5.094
	c0.023,0.073,0.049,0.146,0.071,0.22c0.027,0.089,0.059,0.177,0.085,0.266c0.09,0.317,0.164,0.638,0.237,0.959
	c0.025,0.111,0.058,0.22,0.081,0.331c0.09,0.432,0.165,0.867,0.225,1.305c0,0,0,0.005,0.001,0.007
	c0.042,0.314,0.061,0.633,0.085,0.951c-4.152-2.21-11.162-5.026-20.08-5.201V13.105z M26.744,11.098v-3.07
	c6.248,0.126,11.549,1.61,15.58,3.295c1.041,1.307,1.897,2.666,2.587,4.065C40.49,13.294,34.272,11.243,26.744,11.098z
	 M5.234,21.159c0.02-0.186,0.035-0.373,0.061-0.558c0.052-0.378,0.121-0.752,0.196-1.125c0.023-0.113,0.038-0.228,0.063-0.341
	c0.098-0.446,0.216-0.887,0.345-1.325c6.853-3.239,13.203-4.549,18.846-4.703v3.944c-5.86,0.147-12.46,1.453-19.571,4.791
	C5.189,21.614,5.209,21.386,5.234,21.159z M44.923,31.728c-4.369,1.918-8.807,3.197-13.215,3.817
	c-0.002-0.022-0.006-0.042-0.008-0.064c-0.002-0.024-0.001-0.049-0.004-0.073c-0.003-0.029-0.013-0.056-0.017-0.084
	c-0.075-0.637-0.217-1.249-0.427-1.821c0.965-1.142,1.491-2.539,1.491-4.003c0-3.268-2.614-5.973-6-6.426v-4.034
	c9.24,0.188,16.318,3.339,20.098,5.493C46.694,26.955,46.046,29.41,44.923,31.728z M26.744,6.022V2.061
	c1.855,0.137,3.796,0.627,5.683,1.481c0.346,0.156,0.688,0.325,1.026,0.507c2.174,1.168,4.117,2.529,5.814,4.035
	C35.695,6.954,31.483,6.114,26.744,6.022z M20.679,2.929c1.053-0.384,2.126-0.652,3.188-0.799h0.001
	c0.004,0,0.009-0.001,0.013-0.001c0.287-0.038,0.575-0.053,0.862-0.073v3.977c-3.949,0.102-8.226,0.746-12.77,2.168
	C14.378,5.969,17.324,4.152,20.679,2.929z M5.152,24.079c7.136-3.499,13.752-4.875,19.591-5.029v4.024c-3.386,0.453-6,3.158-6,6.426
	c0,1.464,0.526,2.861,1.491,4.002c-0.242,0.663-0.402,1.377-0.462,2.125c-4.243-0.544-8.369-1.688-12.286-3.41
	C6.1,29.579,5.307,26.806,5.152,24.079z M26.161,35.582c-0.132,1.781,0.037,3.213,0.173,4.364c0.193,1.635,0.32,2.714-0.396,3.939
	c-0.539,0.921-0.824,2.049-0.824,3.262v7.931c0,0.509-0.413,0.922-0.922,0.922h-0.972c0.754-1.151,1.061-2.63,0.826-4.063
	l-0.299-2.041h0l-1.17-7.984h0l-0.59-4.025l0.002,0l-0.244-1.655c0.011-0.966,0.244-1.86,0.624-2.625
	c0.059-0.118,0.12-0.232,0.186-0.343c0.068-0.116,0.143-0.224,0.219-0.332c0.114-0.162,0.235-0.314,0.363-0.455
	c0.087-0.096,0.175-0.192,0.268-0.279c0.09-0.083,0.183-0.159,0.277-0.233c0.108-0.083,0.219-0.158,0.333-0.228
	c0.097-0.06,0.194-0.12,0.295-0.17c0.174-0.085,0.353-0.156,0.537-0.211c0.067-0.02,0.134-0.036,0.201-0.052
	c0.227-0.051,0.457-0.089,0.696-0.089c0.238,0,0.469,0.038,0.696,0.089c0.067,0.015,0.133,0.031,0.199,0.051
	c0.187,0.055,0.369,0.126,0.546,0.214c0.095,0.048,0.187,0.104,0.28,0.162c0.119,0.073,0.234,0.15,0.346,0.237
	c0.091,0.071,0.182,0.145,0.269,0.225c0.102,0.094,0.198,0.198,0.292,0.303c0.116,0.13,0.226,0.268,0.331,0.415
	c0.019,0.027,0.036,0.056,0.055,0.083C27.526,33.094,26.279,33.979,26.161,35.582z M50.256,33.001
	c-3.2,5.583-6.979,12.996-6.812,16.609c0.024,0.512-0.016,0.939-0.122,1.307C42.652,53.236,41.203,56,38.126,56l-1.491-0.018
	c1.161-1.113,2.07-2.645,2.61-4.509c0.168-0.583,0.233-1.224,0.198-1.956c-0.046-0.989,0.358-2.581,1.143-4.625
	c0.088-0.229,0.182-0.466,0.28-0.706c0.141-0.348,0.293-0.708,0.454-1.078c0.132-0.302,0.267-0.609,0.412-0.926
	c0.099-0.216,0.195-0.43,0.299-0.653c0.254-0.541,0.527-1.102,0.816-1.683c0.059-0.118,0.117-0.237,0.178-0.356
	c0.334-0.662,0.688-1.346,1.066-2.055c0.587-1.102,1.218-2.247,1.9-3.438c1.511-2.636,2.441-5.491,2.761-8.338l0.072,0.042
	l0.034-1.307c0.006-0.12,0.006-0.239,0.01-0.358l0.001-0.036c0.001-0.037-0.002-0.07-0.001-0.107c0.01-0.47,0.01-0.938-0.015-1.404
	c-0.024-0.506-0.068-0.996-0.132-1.475c-0.066-0.484-0.15-0.965-0.249-1.443c-0.035-0.168-0.082-0.333-0.121-0.5
	c-0.073-0.31-0.143-0.62-0.23-0.927c-0.048-0.168-0.106-0.334-0.159-0.502c-0.096-0.31-0.192-0.619-0.302-0.925
	c-0.045-0.124-0.097-0.247-0.145-0.37c-0.137-0.359-0.279-0.716-0.435-1.069c-0.025-0.056-0.053-0.111-0.078-0.167
	c-2.197-4.858-6.218-9.137-11.629-12.269c1.377,0.209,2.492,0.447,3.054,0.701c0.347,0.157,0.689,0.327,1.026,0.507
	c7.506,4.032,12.349,10.313,13.285,17.231C53.26,25.137,52.378,29.299,50.256,33.001z"/>
<g>
</g>
<g>
</g>
<g>
</g>
<g>
</g>
<g>
</g>
<g>
</g>
<g>
</g>
<g>
</g>
<g>
</g>
<g>
</g>
<g>
</g>
<g>
</g>
<g>
</g>
<g>
</g>
<g>
</g>
</svg>
