<?xml version="1.0" encoding="iso-8859-1"?>
<!-- Generator: Adobe Illustrator 18.0.0, SVG Export Plug-In . SVG Version: 6.00 Build 0)  -->
<!DOCTYPE svg PUBLIC "-//W3C//DTD SVG 1.1//EN" "http://www.w3.org/Graphics/SVG/1.1/DTD/svg11.dtd">
<svg version="1.1" id="Capa_1" xmlns="http://www.w3.org/2000/svg" xmlns:xlink="http://www.w3.org/1999/xlink" x="0px" y="0px"
	 viewBox="0 0 60 60" style="enable-background:new 0 0 60 60;" xml:space="preserve">
<g>
	<path d="M42.229,49.644c-0.282-0.385-0.282-0.902,0-1.287c0.669-0.914,0.915-2.034,0.693-3.155
		c-0.024-0.119-0.068-0.23-0.102-0.345C42.926,44.565,43,44.279,43,44v-0.353c0-1.756-0.39-3.527-1.158-5.263
		c-2.464-5.573-2.457-10.151,0.026-15.802C42.619,20.873,43,19.122,43,17.381V16c0-0.81-0.368-1.566-1.094-2.259
		C42.595,12.657,43,11.376,43,10c0-3.859-3.14-7-7-7h-3V0h-6v3h-3c-3.86,0-7,3.141-7,7c0,1.376,0.405,2.657,1.093,3.74
		C17.368,14.433,17,15.19,17,16v1.375c0,1.744,0.382,3.498,1.137,5.214c2.479,5.633,2.483,10.211,0.016,15.801
		C17.388,40.122,17,41.888,17,43.64V44c0,0.279,0.074,0.565,0.181,0.856c-0.034,0.115-0.079,0.226-0.102,0.345
		c-0.222,1.121,0.023,2.241,0.693,3.155c0.282,0.385,0.282,0.902,0,1.287c-0.631,0.861-0.87,1.906-0.711,2.962
		C17.028,52.751,17,52.906,17,53.084V60h26v-6.916c0-0.177-0.028-0.333-0.061-0.479C43.098,51.55,42.859,50.505,42.229,49.644z
		 M19.305,53.046c-0.115-0.186-0.203-0.391-0.252-0.612l-0.017-0.073c-0.095-0.548,0.025-1.091,0.35-1.535
		c0.188-0.257,0.328-0.536,0.427-0.825H23c0.552,0,1-0.447,1-1s-0.448-1-1-1h-3.187c-0.1-0.289-0.24-0.568-0.428-0.825
		c-0.334-0.457-0.457-1.02-0.344-1.585c0.021-0.105,0.054-0.207,0.093-0.306l0.022-0.052c0.005-0.011,0.012-0.02,0.016-0.031
		c0.059-0.133,0.141-0.249,0.224-0.363c0.311-0.401,0.78-0.693,1.315-0.795c0.041-0.006,0.081-0.015,0.122-0.018
		C20.931,44.012,21.03,44,21.131,44h17.737c0.101,0,0.2,0.012,0.298,0.025c0.041,0.004,0.081,0.012,0.122,0.018
		c0.535,0.102,1.004,0.393,1.315,0.795c0.083,0.114,0.165,0.23,0.224,0.363c0.005,0.01,0.012,0.02,0.016,0.031l0.022,0.052
		c0.039,0.099,0.072,0.2,0.093,0.306c0.112,0.565-0.01,1.128-0.344,1.585c-0.188,0.257-0.329,0.536-0.428,0.825H31
		c-0.552,0-1,0.447-1,1s0.448,1,1,1h9.187c0.1,0.289,0.24,0.568,0.428,0.825c0.324,0.443,0.444,0.986,0.349,1.535l-0.017,0.073
		c-0.05,0.221-0.137,0.427-0.252,0.612C40.318,53.618,39.625,54,38.869,54H21.131C20.375,54,19.682,53.618,19.305,53.046z M29,2h2v1
		h-2V2z M24,5h3h6h3c2.757,0,5,2.243,5,5c0,1.304-0.513,2.482-1.334,3.373c-0.079,0.086-0.158,0.171-0.242,0.251
		c-0.161,0.152-0.332,0.293-0.512,0.423c-0.086,0.062-0.174,0.12-0.263,0.176c-0.2,0.126-0.406,0.242-0.623,0.339
		c-0.072,0.032-0.147,0.059-0.221,0.088c-0.247,0.096-0.5,0.182-0.764,0.238c-0.038,0.008-0.078,0.012-0.116,0.019
		C36.625,14.963,36.317,15,36,15H24c-0.317,0-0.624-0.037-0.925-0.094c-0.039-0.007-0.078-0.011-0.117-0.019
		c-0.264-0.056-0.516-0.141-0.763-0.237c-0.074-0.029-0.149-0.056-0.222-0.088c-0.217-0.097-0.422-0.212-0.621-0.338
		c-0.09-0.057-0.179-0.116-0.266-0.178c-0.179-0.129-0.349-0.269-0.509-0.42c-0.085-0.081-0.165-0.168-0.245-0.255
		C19.512,12.48,19,11.302,19,10C19,7.243,21.243,5,24,5z M19.982,39.198c2.721-6.164,2.717-11.209-0.015-17.415
		C19.326,20.323,19,18.841,19,17.375V16c0-0.215,0.14-0.471,0.399-0.738c0.311,0.272,0.647,0.516,1.003,0.731
		c0.009,0.005,0.017,0.011,0.026,0.016c0.164,0.098,0.332,0.188,0.504,0.273c0.025,0.012,0.05,0.024,0.075,0.036
		c0.159,0.075,0.32,0.145,0.485,0.209c0.044,0.017,0.087,0.032,0.131,0.048c0.15,0.054,0.302,0.106,0.456,0.15
		c0.068,0.02,0.136,0.035,0.204,0.053c0.135,0.034,0.27,0.068,0.408,0.095c0.106,0.02,0.214,0.034,0.321,0.049
		c0.107,0.015,0.212,0.034,0.32,0.044C23.554,16.988,23.776,17,24,17h12c0.224,0,0.447-0.012,0.668-0.034
		c0.108-0.01,0.212-0.029,0.318-0.044c0.108-0.016,0.216-0.029,0.323-0.05c0.137-0.026,0.272-0.06,0.406-0.094
		c0.069-0.018,0.138-0.033,0.207-0.053c0.154-0.044,0.305-0.095,0.455-0.149c0.044-0.016,0.089-0.032,0.133-0.049
		c0.165-0.063,0.325-0.134,0.484-0.209c0.025-0.012,0.05-0.024,0.075-0.036c0.172-0.085,0.341-0.176,0.505-0.274
		c0.008-0.005,0.016-0.01,0.024-0.015c0.357-0.215,0.693-0.459,1.004-0.731C40.86,15.529,41,15.785,41,16v1.381
		c0,1.463-0.324,2.942-0.963,4.397c-2.735,6.225-2.742,11.27-0.024,17.416c0.486,1.097,0.794,2.205,0.921,3.306
		C40.354,42.179,39.691,42,39,42h-0.131H21.131H21c-0.691,0-1.354,0.179-1.935,0.501C19.191,41.401,19.498,40.294,19.982,39.198z
		 M41,58H19v-2.546C19.595,55.802,20.281,56,21,56h0.131h17.737H39c0.718,0,1.405-0.198,2-0.546V58z"/>
	<path d="M28.5,31h3c0.827,0,1.5,0.673,1.5,1.5S32.327,34,31.5,34H26v2h5.5c1.93,0,3.5-1.57,3.5-3.5S33.43,29,31.5,29h-3
		c-0.827,0-1.5-0.673-1.5-1.5s0.673-1.5,1.5-1.5H34v-2h-5.5c-1.93,0-3.5,1.57-3.5,3.5S26.57,31,28.5,31z"/>
</g>
<g>
</g>
<g>
</g>
<g>
</g>
<g>
</g>
<g>
</g>
<g>
</g>
<g>
</g>
<g>
</g>
<g>
</g>
<g>
</g>
<g>
</g>
<g>
</g>
<g>
</g>
<g>
</g>
<g>
</g>
</svg>
