<?xml version="1.0" encoding="iso-8859-1"?>
<!-- Generator: Adobe Illustrator 18.0.0, SVG Export Plug-In . SVG Version: 6.00 Build 0)  -->
<!DOCTYPE svg PUBLIC "-//W3C//DTD SVG 1.1//EN" "http://www.w3.org/Graphics/SVG/1.1/DTD/svg11.dtd">
<svg version="1.1" id="Capa_1" xmlns="http://www.w3.org/2000/svg" xmlns:xlink="http://www.w3.org/1999/xlink" x="0px" y="0px"
	 viewBox="0 0 58.801 58.801" style="enable-background:new 0 0 58.801 58.801;" xml:space="preserve">
<g>
	<path d="M15.028,50.801c-0.552,0-1,0.447-1,1v2c0,0.553,0.448,1,1,1s1-0.447,1-1v-2C16.028,51.248,15.58,50.801,15.028,50.801z"/>
	<path d="M15.028,38.801c0.552,0,1-0.447,1-1v-2c0-0.553-0.448-1-1-1s-1,0.447-1,1v2C14.028,38.354,14.476,38.801,15.028,38.801z"/>
	<path d="M12.907,44.094c0.195,0.195,0.451,0.293,0.707,0.293s0.512-0.098,0.708-0.293c0.39-0.391,0.39-1.024,0-1.414l-0.708-0.707
		c-0.391-0.391-1.024-0.391-1.415,0c-0.39,0.391-0.39,1.024,0,1.414L12.907,44.094z"/>
	<path d="M17.149,45.508c-0.391-0.391-1.023-0.391-1.414,0s-0.391,1.023,0,1.414l0.707,0.707c0.195,0.195,0.451,0.293,0.707,0.293
		s0.512-0.098,0.707-0.293c0.391-0.391,0.391-1.023,0-1.414L17.149,45.508z"/>
	<path d="M9.028,44.801c0-0.553-0.448-1-1-1h-2c-0.552,0-1,0.447-1,1s0.448,1,1,1h2C8.58,45.801,9.028,45.354,9.028,44.801z"/>
	<path d="M21.028,44.801c0,0.553,0.448,1,1,1h2c0.552,0,1-0.447,1-1s-0.448-1-1-1h-2C21.476,43.801,21.028,44.248,21.028,44.801z"/>
	<path d="M9.371,49.044l-1.414,1.414c-0.391,0.391-0.391,1.023,0,1.414c0.195,0.195,0.451,0.293,0.707,0.293
		s0.512-0.098,0.707-0.293l1.414-1.414c0.391-0.391,0.391-1.023,0-1.414S9.762,48.653,9.371,49.044z"/>
	<path d="M19.978,40.851c0.256,0,0.512-0.098,0.707-0.293l1.414-1.414c0.391-0.391,0.391-1.023,0-1.414s-1.023-0.391-1.414,0
		l-1.414,1.414c-0.391,0.391-0.391,1.023,0,1.414C19.466,40.753,19.722,40.851,19.978,40.851z"/>
	<path d="M9.371,37.729c-0.391-0.391-1.023-0.391-1.414,0s-0.391,1.023,0,1.414l1.414,1.414c0.195,0.195,0.451,0.293,0.707,0.293
		s0.512-0.098,0.707-0.293c0.391-0.391,0.391-1.023,0-1.414L9.371,37.729z"/>
	<path d="M20.685,49.044c-0.391-0.391-1.023-0.391-1.414,0s-0.391,1.023,0,1.414l1.414,1.414c0.195,0.195,0.451,0.293,0.707,0.293
		s0.512-0.098,0.707-0.293c0.391-0.391,0.391-1.023,0-1.414L20.685,49.044z"/>
	<path d="M16.442,41.973l-0.707,0.707c-0.391,0.391-0.391,1.023,0,1.414c0.195,0.195,0.451,0.293,0.707,0.293
		s0.512-0.098,0.707-0.293l0.707-0.707c0.391-0.391,0.391-1.023,0-1.414S16.833,41.582,16.442,41.973z"/>
	<path d="M14.322,45.508c-0.391-0.391-1.024-0.391-1.415,0l-0.708,0.707c-0.391,0.39-0.391,1.023,0,1.414
		c0.195,0.195,0.452,0.293,0.708,0.293s0.512-0.098,0.707-0.293l0.708-0.707C14.712,46.532,14.712,45.898,14.322,45.508z"/>
	<path d="M51.532,3.402c-0.391-0.391-1.024-0.391-1.415,0l-2.331,2.33c-0.39,0.391-0.39,1.024,0,1.414
		c0.195,0.195,0.451,0.293,0.707,0.293s0.512-0.098,0.708-0.293l2.33-2.33C51.923,4.427,51.923,3.793,51.532,3.402z"/>
	<path d="M46.688,9.66c0.391-0.391,0.391-1.023,0-1.414s-1.023-0.391-1.414,0L38.66,14.86c-0.391,0.391-0.391,1.023,0,1.414
		c0.195,0.195,0.451,0.293,0.707,0.293s0.512-0.098,0.707-0.293L46.688,9.66z"/>
	<path d="M42.067,17.11L39.7,19.477c-0.391,0.391-0.391,1.023,0,1.414c0.195,0.195,0.451,0.293,0.707,0.293s0.512-0.098,0.707-0.293
		l2.366-2.366c0.391-0.39,0.391-1.023,0-1.414C43.091,16.72,42.457,16.72,42.067,17.11z"/>
	<path d="M49.717,9.46l-4.821,4.821c-0.391,0.391-0.391,1.023,0,1.414c0.195,0.195,0.451,0.293,0.707,0.293s0.512-0.098,0.707-0.293
		l4.821-4.821c0.391-0.391,0.391-1.023,0-1.414S50.107,9.069,49.717,9.46z"/>
	<path d="M53.156,6.021l-1.189,1.189c-0.391,0.391-0.391,1.023,0,1.414c0.195,0.195,0.451,0.293,0.707,0.293
		s0.512-0.098,0.707-0.293l1.189-1.189c0.391-0.391,0.391-1.023,0-1.414S53.546,5.631,53.156,6.021z"/>
	<path d="M57.762,6.618c-0.009-0.223-0.144-2.241-2.242-4.338C55.299,2.045,53.3,0,51.145,0c-0.019,0-0.038,0-0.057,0l-0.197,0.004
		L50.71,0.081c-0.437,0.188-10.785,4.755-18.553,18.504l-0.139,0.247l0.01,0.283c0.008,0.21,0.151,2.028,1.934,3.996L23.439,33.635
		c-2.345-1.771-5.252-2.834-8.411-2.834c-7.72,0-14,6.28-14,14s6.28,14,14,14s14-6.28,14-14c0-3.841-1.557-7.324-4.07-9.856
		l10.48-10.479c0.826,0.612,1.985,1.268,3.206,1.268c0.02,0,0.04,0,0.059,0l0.196-0.004l0.181-0.077
		c0.437-0.188,10.785-4.754,18.553-18.504l0.139-0.247L57.762,6.618z M15.028,56.801c-6.617,0-12-5.383-12-12s5.383-12,12-12
		s12,5.383,12,12S21.645,56.801,15.028,56.801z M38.482,23.726c-1.062-0.106-2.339-1.209-2.763-1.65l-0.237-0.247
		c-0.178-0.193-0.327-0.381-0.464-0.565c0.07-0.042,0.144-0.075,0.204-0.135l2.604-2.604c0.391-0.391,0.391-1.023,0-1.414
		s-1.023-0.391-1.414,0l-2.313,2.313c-0.013-0.051-0.025-0.102-0.034-0.144C40.894,7.37,49.885,2.692,51.309,2.008
		c1.062,0.106,2.339,1.21,2.764,1.651l0.236,0.245c1.019,1.106,1.326,2.102,1.417,2.552C48.896,18.364,39.905,23.042,38.482,23.726z
		"/>
</g>
<g>
</g>
<g>
</g>
<g>
</g>
<g>
</g>
<g>
</g>
<g>
</g>
<g>
</g>
<g>
</g>
<g>
</g>
<g>
</g>
<g>
</g>
<g>
</g>
<g>
</g>
<g>
</g>
<g>
</g>
</svg>
