<?xml version="1.0" encoding="iso-8859-1"?>
<!-- Generator: Adobe Illustrator 18.0.0, SVG Export Plug-In . SVG Version: 6.00 Build 0)  -->
<!DOCTYPE svg PUBLIC "-//W3C//DTD SVG 1.1//EN" "http://www.w3.org/Graphics/SVG/1.1/DTD/svg11.dtd">
<svg version="1.1" id="Capa_1" xmlns="http://www.w3.org/2000/svg" xmlns:xlink="http://www.w3.org/1999/xlink" x="0px" y="0px"
	 viewBox="0 0 59 59" style="enable-background:new 0 0 59 59;" xml:space="preserve">
<g>
	<circle cx="29.5" cy="35" r="1"/>
	<circle cx="29.5" cy="39" r="1"/>
	<path d="M39.569,0.94C39.059,0.343,38.316,0,37.53,0H21.47c-0.786,0-1.529,0.343-2.039,0.941c-0.51,0.598-0.731,1.386-0.607,2.162
		l3.463,21.639C22.495,26.051,23.608,27,24.933,27H28.5v2.142c-1.721,0.447-3,1.999-3,3.858v22c0,2.206,1.794,4,4,4s4-1.794,4-4V33
		c0-1.859-1.279-3.411-3-3.858V27h3.567c1.324,0,2.438-0.949,2.646-2.257l3.463-21.64C40.3,2.327,40.079,1.539,39.569,0.94z
		 M31.5,33v22c0,1.103-0.897,2-2,2s-2-0.897-2-2V33c0-1.103,0.897-2,2-2S31.5,31.897,31.5,33z M38.202,2.787l-3.463,21.641
		C34.686,24.76,34.404,25,34.068,25h-9.135c-0.336,0-0.619-0.24-0.672-0.573l-3.463-21.64c-0.043-0.269,0.078-0.459,0.154-0.548
		C21.029,2.149,21.198,2,21.47,2h16.06c0.273,0,0.441,0.149,0.518,0.238C38.124,2.328,38.245,2.518,38.202,2.787z"/>
	<path d="M29.5,5c-0.553,0-1,0.447-1,1v15c0,0.553,0.447,1,1,1s1-0.447,1-1V6C30.5,5.447,30.053,5,29.5,5z"/>
	<path d="M34.585,5.069c-0.558-0.058-1.049,0.318-1.12,0.864L31.55,20.811c-0.07,0.548,0.316,1.049,0.864,1.12
		c0.044,0.005,0.087,0.008,0.129,0.008c0.496,0,0.926-0.368,0.991-0.872L35.45,6.189C35.52,5.642,35.133,5.141,34.585,5.069z"/>
	<path d="M24.457,5.069c-0.548,0.071-0.935,0.572-0.864,1.12l1.916,14.877c0.065,0.504,0.495,0.872,0.991,0.872
		c0.042,0,0.085-0.003,0.129-0.008c0.548-0.071,0.935-0.572,0.864-1.12L25.577,5.934C25.505,5.387,25.023,5.01,24.457,5.069z"/>
</g>
<g>
</g>
<g>
</g>
<g>
</g>
<g>
</g>
<g>
</g>
<g>
</g>
<g>
</g>
<g>
</g>
<g>
</g>
<g>
</g>
<g>
</g>
<g>
</g>
<g>
</g>
<g>
</g>
<g>
</g>
</svg>
