<?xml version="1.0" encoding="iso-8859-1"?>
<!-- Generator: Adobe Illustrator 18.0.0, SVG Export Plug-In . SVG Version: 6.00 Build 0)  -->
<!DOCTYPE svg PUBLIC "-//W3C//DTD SVG 1.1//EN" "http://www.w3.org/Graphics/SVG/1.1/DTD/svg11.dtd">
<svg version="1.1" id="Capa_1" xmlns="http://www.w3.org/2000/svg" xmlns:xlink="http://www.w3.org/1999/xlink" x="0px" y="0px"
	 viewBox="0 0 57.801 57.801" style="enable-background:new 0 0 57.801 57.801;" xml:space="preserve">
<g>
	<path d="M14.323,49.616c-0.391,0.391-0.391,1.023,0,1.414c0.195,0.195,0.451,0.293,0.707,0.293s0.512-0.098,0.707-0.293
		l11.961-11.962c0.391-0.391,0.391-1.023,0-1.414s-1.023-0.391-1.414,0L14.323,49.616z"/>
	<path d="M10.787,47.494c0.195,0.195,0.451,0.293,0.707,0.293s0.512-0.098,0.707-0.293l13.961-13.961
		c0.391-0.391,0.391-1.023,0-1.414s-1.023-0.391-1.414,0L10.787,46.08C10.397,46.471,10.397,47.104,10.787,47.494z"/>
	<path d="M20.627,30.583c-0.391-0.391-1.023-0.391-1.414,0L7.252,42.545c-0.391,0.391-0.391,1.023,0,1.414
		c0.195,0.195,0.451,0.293,0.707,0.293s0.512-0.098,0.707-0.293l11.961-11.962C21.018,31.606,21.018,30.974,20.627,30.583z"/>
	<path d="M51.277,3.402c-0.391-0.391-1.024-0.391-1.415,0l-2.331,2.33c-0.39,0.391-0.39,1.024,0,1.414
		c0.195,0.195,0.451,0.293,0.707,0.293s0.512-0.098,0.708-0.293l2.33-2.33C51.668,4.427,51.668,3.793,51.277,3.402z"/>
	<path d="M46.433,9.66c0.391-0.391,0.391-1.023,0-1.414s-1.023-0.391-1.414,0l-6.614,6.614c-0.391,0.391-0.391,1.023,0,1.414
		c0.195,0.195,0.451,0.293,0.707,0.293s0.512-0.098,0.707-0.293L46.433,9.66z"/>
	<path d="M41.813,17.109l-2.367,2.367c-0.39,0.391-0.39,1.024,0,1.414c0.195,0.195,0.451,0.293,0.707,0.293s0.512-0.098,0.708-0.293
		l2.365-2.365c0.391-0.391,0.391-1.023,0.001-1.415C42.836,16.721,42.203,16.72,41.813,17.109z"/>
	<path d="M49.461,9.46l-4.821,4.821c-0.391,0.391-0.391,1.023,0,1.414c0.195,0.195,0.451,0.293,0.707,0.293s0.512-0.098,0.707-0.293
		l4.821-4.821c0.391-0.391,0.391-1.023,0-1.414S49.852,9.069,49.461,9.46z"/>
	<path d="M52.9,6.021l-1.189,1.189c-0.391,0.391-0.391,1.023,0,1.414c0.195,0.195,0.451,0.293,0.707,0.293s0.512-0.098,0.707-0.293
		l1.189-1.189c0.391-0.391,0.391-1.023,0-1.414S53.29,5.631,52.9,6.021z"/>
	<path d="M57.507,6.618c-0.009-0.223-0.144-2.241-2.241-4.338C55.044,2.045,53.045,0,50.89,0c-0.019,0-0.038,0-0.057,0l-0.197,0.004
		l-0.181,0.077c-0.437,0.188-10.784,4.755-18.553,18.504l-0.139,0.247l0.01,0.283c0.008,0.208,0.148,1.985,1.872,3.927l-5.33,5.33
		l-3.535-3.535h0c-0.77-0.771-1.973-0.938-2.923-0.409l-1.533,0.851c-0.741,0.412-1.523,0.787-2.352,1.184
		c-1.991,0.955-4.05,1.941-5.629,3.521L1.535,40.79c-1.669,1.67-1.669,4.387,0,6.057l9.7,9.699c0.809,0.809,1.884,1.255,3.028,1.255
		s2.219-0.445,3.028-1.255l10.807-10.807c1.589-1.59,2.589-3.656,3.557-5.654c0.393-0.811,0.763-1.577,1.169-2.307l0.85-1.531
		c0.529-0.953,0.361-2.155-0.409-2.925l-3.536-3.536l5.377-5.377c0.829,0.627,2.023,1.324,3.283,1.324c0.02,0,0.04,0,0.059,0
		l0.196-0.004l0.181-0.077c0.437-0.188,10.784-4.754,18.553-18.504l0.139-0.247L57.507,6.618z M31.926,35.275l-0.85,1.532
		c-0.433,0.778-0.833,1.605-1.221,2.406c-0.895,1.849-1.82,3.761-3.17,5.111L15.878,55.132c-0.862,0.864-2.366,0.863-3.229,0
		l-9.7-9.699c-0.89-0.89-0.89-2.339,0-3.229l10.807-10.807c1.338-1.338,3.24-2.25,5.08-3.132c0.818-0.393,1.665-0.798,2.458-1.239
		l1.533-0.851c0.068-0.038,0.143-0.057,0.218-0.057c0.117,0,0.234,0.046,0.321,0.132l8.485,8.485
		C31.993,34.878,32.024,35.1,31.926,35.275z M38.227,23.726c-1.062-0.106-2.339-1.209-2.764-1.65l-0.237-0.247
		c-0.178-0.193-0.327-0.381-0.464-0.565c0.07-0.042,0.144-0.075,0.204-0.135l2.604-2.604c0.391-0.391,0.391-1.023,0-1.414
		s-1.023-0.391-1.414,0l-2.313,2.313c-0.013-0.051-0.025-0.102-0.034-0.144C40.639,7.37,49.63,2.692,51.054,2.008
		c1.062,0.106,2.339,1.21,2.764,1.651l0.237,0.247c1.018,1.104,1.325,2.1,1.417,2.55C48.641,18.364,39.65,23.042,38.227,23.726z"/>
</g>
<g>
</g>
<g>
</g>
<g>
</g>
<g>
</g>
<g>
</g>
<g>
</g>
<g>
</g>
<g>
</g>
<g>
</g>
<g>
</g>
<g>
</g>
<g>
</g>
<g>
</g>
<g>
</g>
<g>
</g>
</svg>
