<?xml version="1.0" encoding="iso-8859-1"?>
<!-- Generator: Adobe Illustrator 18.0.0, SVG Export Plug-In . SVG Version: 6.00 Build 0)  -->
<!DOCTYPE svg PUBLIC "-//W3C//DTD SVG 1.1//EN" "http://www.w3.org/Graphics/SVG/1.1/DTD/svg11.dtd">
<svg version="1.1" id="Capa_1" xmlns="http://www.w3.org/2000/svg" xmlns:xlink="http://www.w3.org/1999/xlink" x="0px" y="0px"
	 viewBox="0 0 41.227 41.227" style="enable-background:new 0 0 41.227 41.227;" xml:space="preserve">
<g>
	<path d="M39.884,21.937c-1.405-2.397-3.588-3.823-5.847-3.823c-0.014,0-0.029,0-0.043,0c-1.78-0.028-2.987-0.411-3.63-1.263
		c-0.643-0.852-0.633-2.003-0.54-2.737h3.236c1.622,0,2.941-1.319,2.941-2.941V8.055c0-1.622-1.319-2.941-2.941-2.941H7.943
		c-1.622,0-2.941,1.319-2.941,2.941v3.117c0,1.622,1.319,2.941,2.941,2.941h3.459c0.092,0.732,0.102,1.881-0.533,2.729
		c-0.643,0.858-1.913,1.289-3.636,1.271c-2.292-0.027-4.476,1.412-5.891,3.824c-1.686,2.877-1.792,6.313-0.276,8.967
		c1.304,2.283,4.352,4.987,11.415,5.189c0.14,0.006,0.266,0.02,0.416,0.02h0.328h13.706h1.073
		c7.603-0.023,10.807-2.846,12.156-5.209C41.676,28.251,41.57,24.815,39.884,21.937z M7.943,12.114c-0.52,0-0.941-0.422-0.941-0.941
		V8.055c0-0.52,0.422-0.941,0.941-0.941h25.117c0.52,0,0.941,0.422,0.941,0.941v3.117c0,0.52-0.422,0.941-0.941,0.941H30.35H10.878
		H7.943z M13.229,34.114c-0.313-0.001-0.608-0.012-0.903-0.022c-1.004-0.073-1.706-0.34-1.914-0.747
		c-0.213-0.417,0.021-1.163,0.624-1.995c0.868-1.198,1.998-3.2,3.091-5.136c1.048-1.856,2.131-3.775,2.91-4.855
		c1.018-1.409,2.307-2.206,3.629-2.243c0.032,0,0.064-0.001,0.097-0.001c1.299,0,2.604,0.73,3.687,2.067
		c0.737,0.909,1.807,2.652,2.842,4.338c1.09,1.775,2.217,3.612,3.073,4.672c0.448,0.556,1.143,1.613,0.74,2.454
		c-0.433,0.906-2.031,1.469-4.172,1.469H13.229z M38.424,29.913c-0.77,1.348-2.351,2.877-5.56,3.666
		c0.013-0.025,0.033-0.047,0.045-0.073c0.375-0.785,0.745-2.425-0.991-4.573c-0.774-0.958-1.867-2.738-2.924-4.461
		c-1.117-1.819-2.172-3.539-2.991-4.551c-1.471-1.815-3.326-2.808-5.239-2.808c-0.051,0-0.103,0.001-0.154,0.002
		c-1.959,0.055-3.805,1.146-5.194,3.071c-0.845,1.171-1.907,3.052-3.031,5.043c-1.065,1.888-2.167,3.84-2.968,4.945
		c-0.884,1.219-1.223,2.403-1.009,3.414c-3.238-0.786-4.83-2.323-5.603-3.676c-1.389-2.432-0.773-5.192,0.265-6.965
		c1.042-1.777,2.581-2.835,4.122-2.835c0.038,0,0.085,0,0.128,0c2.39,0,4.122-0.696,5.152-2.072
		c0.962-1.285,1.043-2.849,0.944-3.928h14.397c-0.099,1.079-0.018,2.643,0.944,3.928c1.03,1.376,2.763,2.072,5.152,2.072
		c0.043,0,0.089,0.001,0.128,0c1.541,0,3.08,1.058,4.121,2.835C39.197,24.721,39.813,27.482,38.424,29.913z"/>
	<circle cx="21.225" cy="23.114" r="1"/>
	<circle cx="18.225" cy="26.114" r="1"/>
	<circle cx="23.225" cy="28.114" r="1"/>
</g>
<g>
</g>
<g>
</g>
<g>
</g>
<g>
</g>
<g>
</g>
<g>
</g>
<g>
</g>
<g>
</g>
<g>
</g>
<g>
</g>
<g>
</g>
<g>
</g>
<g>
</g>
<g>
</g>
<g>
</g>
</svg>
