<?xml version="1.0" encoding="iso-8859-1"?>
<!-- Generator: Adobe Illustrator 18.0.0, SVG Export Plug-In . SVG Version: 6.00 Build 0)  -->
<!DOCTYPE svg PUBLIC "-//W3C//DTD SVG 1.1//EN" "http://www.w3.org/Graphics/SVG/1.1/DTD/svg11.dtd">
<svg version="1.1" id="Capa_1" xmlns="http://www.w3.org/2000/svg" xmlns:xlink="http://www.w3.org/1999/xlink" x="0px" y="0px"
	 viewBox="0 0 59 59" style="enable-background:new 0 0 59 59;" xml:space="preserve">
<g>
	<path d="M30.5,29.142V21.88c3.434-0.743,6-5.248,6-10.88c0-6.168-3.075-11-7-11s-7,4.832-7,11c0,5.632,2.566,10.137,6,10.88v7.262
		c-1.72,0.447-3,1.999-3,3.858v22c0,2.206,1.794,4,4,4s4-1.794,4-4V33C33.5,31.141,32.22,29.589,30.5,29.142z M24.5,11
		c0-4.879,2.29-9,5-9s5,4.121,5,9s-2.29,9-5,9S24.5,15.879,24.5,11z M31.5,55c0,1.103-0.897,2-2,2s-2-0.897-2-2V33
		c0-1.103,0.897-2,2-2s2,0.897,2,2V55z"/>
	<circle cx="29.5" cy="35" r="1"/>
	<circle cx="29.5" cy="39" r="1"/>
</g>
<g>
</g>
<g>
</g>
<g>
</g>
<g>
</g>
<g>
</g>
<g>
</g>
<g>
</g>
<g>
</g>
<g>
</g>
<g>
</g>
<g>
</g>
<g>
</g>
<g>
</g>
<g>
</g>
<g>
</g>
</svg>
