<?xml version="1.0" encoding="iso-8859-1"?>
<!-- Generator: Adobe Illustrator 18.0.0, SVG Export Plug-In . SVG Version: 6.00 Build 0)  -->
<!DOCTYPE svg PUBLIC "-//W3C//DTD SVG 1.1//EN" "http://www.w3.org/Graphics/SVG/1.1/DTD/svg11.dtd">
<svg version="1.1" id="Capa_1" xmlns="http://www.w3.org/2000/svg" xmlns:xlink="http://www.w3.org/1999/xlink" x="0px" y="0px"
	 viewBox="0 0 60 60" style="enable-background:new 0 0 60 60;" xml:space="preserve">
<path d="M54.966,28.376l1.228-6.876h-2.78l-7.885-7.885c-0.719-0.719-1.675-1.115-2.692-1.115H34c0-2.206-1.794-4-4-4s-4,1.794-4,4
	h-8.837c-1.017,0-1.973,0.396-2.692,1.115L6.586,21.5h-2.78l1.233,6.903C3.646,27.205,1.901,26.5,0,26.5v2
	c2.92,0,5.293,2.144,6.003,5.304l2.046,11.455C8.029,45.339,8,45.415,8,45.5c0,0.21,0.08,0.395,0.191,0.556l0.417,2.336
	C8.929,50.192,10.49,51.5,12.32,51.5h35.36c1.83,0,3.391-1.308,3.712-3.108l2.588-14.491c0.708-3.214,3.1-5.401,6.02-5.401v-2
	C58.086,26.5,56.349,27.189,54.966,28.376z M47.586,18.5H12.414l1-1h33.172L47.586,18.5z M30,10.5c1.103,0,2,0.897,2,2h-4
	C28,11.397,28.897,10.5,30,10.5z M17.163,14.5H26h8h8.837c0.482,0,0.937,0.188,1.278,0.529l0.471,0.471H15.414l0.471-0.471
	C16.226,14.688,16.68,14.5,17.163,14.5z M10.414,20.5h39.172l1,1H9.414L10.414,20.5z M49.423,48.04
	c-0.151,0.846-0.884,1.46-1.743,1.46H12.32c-0.859,0-1.592-0.614-1.743-1.46l-0.275-1.54H19c0.552,0,1-0.447,1-1s-0.448-1-1-1H9.944
	l-0.357-2H16c0.552,0,1-0.447,1-1s-0.448-1-1-1H9.23l-0.362-2.027C8.913,38.48,8.953,38.5,9,38.5h5c0.552,0,1-0.447,1-1
	s-0.448-1-1-1H9c-0.169,0-0.322,0.053-0.461,0.127l-0.42-2.353c-0.039-0.289-0.09-0.572-0.152-0.85L6.194,23.5h47.611l-1.781,9.973
	c-0.053,0.243-0.096,0.493-0.133,0.745L49.423,48.04z"/>
<g>
</g>
<g>
</g>
<g>
</g>
<g>
</g>
<g>
</g>
<g>
</g>
<g>
</g>
<g>
</g>
<g>
</g>
<g>
</g>
<g>
</g>
<g>
</g>
<g>
</g>
<g>
</g>
<g>
</g>
</svg>
