<?xml version="1.0" encoding="iso-8859-1"?>
<!-- Generator: Adobe Illustrator 18.0.0, SVG Export Plug-In . SVG Version: 6.00 Build 0)  -->
<!DOCTYPE svg PUBLIC "-//W3C//DTD SVG 1.1//EN" "http://www.w3.org/Graphics/SVG/1.1/DTD/svg11.dtd">
<svg version="1.1" id="Capa_1" xmlns="http://www.w3.org/2000/svg" xmlns:xlink="http://www.w3.org/1999/xlink" x="0px" y="0px"
	 viewBox="0 0 59 59" style="enable-background:new 0 0 59 59;" xml:space="preserve">
<g>
	<circle cx="13" cy="24.533" r="1"/>
	<circle cx="17" cy="26.533" r="1"/>
	<circle cx="22" cy="28.533" r="1"/>
	<circle cx="10" cy="27.533" r="1"/>
	<circle cx="14" cy="29.533" r="1"/>
	<circle cx="18" cy="32.533" r="1"/>
	<circle cx="23" cy="33.533" r="1"/>
	<circle cx="27" cy="29.533" r="1"/>
	<circle cx="28" cy="34.533" r="1"/>
	<circle cx="50" cy="22.533" r="1"/>
	<circle cx="46" cy="24.533" r="1"/>
	<circle cx="42" cy="26.533" r="1"/>
	<circle cx="37" cy="28.533" r="1"/>
	<circle cx="49" cy="27.533" r="1"/>
	<circle cx="45" cy="29.533" r="1"/>
	<circle cx="41" cy="32.533" r="1"/>
	<circle cx="37" cy="33.533" r="1"/>
	<circle cx="32" cy="29.533" r="1"/>
	<circle cx="17" cy="22.533" r="1"/>
	<circle cx="22" cy="24.533" r="1"/>
	<circle cx="9" cy="22.533" r="1"/>
	<circle cx="27" cy="24.533" r="1"/>
	<circle cx="42" cy="22.533" r="1"/>
	<circle cx="37" cy="24.533" r="1"/>
	<circle cx="32" cy="24.533" r="1"/>
	<circle cx="33" cy="34.533" r="1"/>
	<path d="M56.51,16.148c-0.175-0.077-0.373-0.167-0.584-0.267c0.008-0.273,0.021-0.546,0.021-0.821v-0.148c0,0,0,0,0,0v0
		c0-4.107-10.197-6.5-21.559-7.034c-1.623-0.076-3.27-0.115-4.915-0.115s-3.291,0.038-4.915,0.115C13.196,8.411,3,10.804,3,14.911v0
		c0,0,0,0,0,0v0.149c0,0.284,0.013,0.565,0.021,0.848c-0.191,0.09-0.37,0.17-0.531,0.24C0,17.244,0,17.889,0,25.795
		c0,2.837,1.267,4.191,2.33,4.829c0.778,0.467,1.705,0.698,2.688,0.698c0.991,0,2.037-0.25,3.045-0.719
		c3.932,5.401,9.854,9.261,16.68,10.498c-2.298,1.587-3.809,4.227-3.809,7.213v0.045c0,2.671,6.762,2.879,8.834,2.879
		s8.833-0.208,8.833-2.924c0-3.038-1.562-5.72-3.927-7.297c6.636-1.328,12.38-5.145,16.222-10.432
		c1.021,0.482,2.082,0.738,3.086,0.738c0.982,0,1.909-0.231,2.688-0.698c1.063-0.638,2.33-1.992,2.33-4.829
		C59,17.889,59,17.244,56.51,16.148z M53.946,14.911c-0.001,2.1-9.535,5.149-24.474,5.149S5.002,17.011,5,14.911
		c0.001-2.1,9.534-5.149,24.473-5.149S53.945,12.812,53.946,14.911z M3.358,28.909C2.457,28.369,2,27.321,2,25.795
		c0-7.001,0.004-7.239,1.172-7.761c0.445,3.959,1.764,7.655,3.763,10.892C5.627,29.452,4.273,29.458,3.358,28.909z M36.599,48.161
		c-0.557,0.403-2.958,1.077-6.83,1.077c-3.875,0-6.277-0.675-6.832-1.077c0.082-3.669,3.115-6.628,6.832-6.628
		C33.471,41.533,36.494,44.469,36.599,48.161z M44.869,34.065c-0.169-0.313-0.488-0.532-0.869-0.532c-0.552,0-1,0.448-1,1
		c0,0.277,0.113,0.528,0.295,0.709c-0.745,0.512-1.519,0.983-2.32,1.411C40.981,36.612,41,36.575,41,36.533c0-0.552-0.448-1-1-1
		s-1,0.448-1,1c0,0.365,0.205,0.67,0.497,0.844c-1.131,0.51-2.306,0.936-3.52,1.271C35.981,38.609,36,38.574,36,38.533
		c0-0.552-0.448-1-1-1s-1,0.448-1,1c0,0.204,0.076,0.383,0.181,0.541c-1.333,0.261-2.705,0.409-4.105,0.444
		C30.591,39.477,31,39.058,31,38.533c0-0.552-0.448-1-1-1s-1,0.448-1,1c0,0.531,0.418,0.956,0.941,0.988
		c-0.156,0.003-0.311,0.012-0.469,0.012c-1.281,0-2.54-0.1-3.769-0.291C25.886,39.061,26,38.81,26,38.533c0-0.552-0.448-1-1-1
		s-1,0.448-1,1c0,0.14,0.03,0.273,0.082,0.394c-1.094-0.247-2.162-0.564-3.196-0.953C20.954,37.839,21,37.693,21,37.533
		c0-0.552-0.448-1-1-1c-0.436,0-0.796,0.282-0.934,0.671c-1.185-0.559-2.318-1.209-3.39-1.943C15.873,35.078,16,34.822,16,34.533
		c0-0.552-0.448-1-1-1c-0.392,0-0.724,0.231-0.887,0.56c-4.85-3.922-8.173-9.653-8.938-16.159
		c4.299,2.719,14.343,4.126,24.298,4.126s20-1.408,24.299-4.126C53.009,24.424,49.7,30.144,44.869,34.065z M55.642,28.909
		c-0.926,0.555-2.299,0.545-3.619,0.001c1.997-3.239,3.314-6.938,3.755-10.899C56.997,18.551,57,18.693,57,25.795
		C57,27.321,56.543,28.369,55.642,28.909z"/>
</g>
<g>
</g>
<g>
</g>
<g>
</g>
<g>
</g>
<g>
</g>
<g>
</g>
<g>
</g>
<g>
</g>
<g>
</g>
<g>
</g>
<g>
</g>
<g>
</g>
<g>
</g>
<g>
</g>
<g>
</g>
</svg>
