<?xml version="1.0" encoding="iso-8859-1"?>
<!-- Generator: Adobe Illustrator 18.0.0, SVG Export Plug-In . SVG Version: 6.00 Build 0)  -->
<!DOCTYPE svg PUBLIC "-//W3C//DTD SVG 1.1//EN" "http://www.w3.org/Graphics/SVG/1.1/DTD/svg11.dtd">
<svg version="1.1" id="Capa_1" xmlns="http://www.w3.org/2000/svg" xmlns:xlink="http://www.w3.org/1999/xlink" x="0px" y="0px"
	 viewBox="0 0 55.972 55.972" style="enable-background:new 0 0 55.972 55.972;" xml:space="preserve">
<g>
	<path d="M55.972,24.343c0-5.514-4.486-10-10-10c-2.008,0-3.934,0.603-5.597,1.732c-3.336-3.314-7.46-5.632-11.912-6.427
		c0.621-0.772,1.009-1.739,1.009-2.805c0-2.481-2.019-4.5-4.5-4.5s-4.5,2.019-4.5,4.5c0,1.08,0.398,2.058,1.034,2.835
		c-4.43,0.823-8.619,3.165-12.103,6.816l-2.835-2.529c-1.302-1.161-3.228-1.418-4.683-0.623c-1.056,0.574-1.735,1.541-1.863,2.652
		c-0.125,1.084,0.287,2.137,1.13,2.889c2.247,2.006,3.038,4.96,2.063,7.71c-0.227,0.641-0.419,1.286-0.598,1.932l-0.005,0.001
		l-0.019,0.077c-0.288,1.059-0.497,2.123-0.652,3.188c-0.049,0.329-0.094,0.656-0.13,0.983c-0.029,0.272-0.058,0.544-0.078,0.817
		c-0.05,0.637-0.084,1.271-0.084,1.896c0,4.905,1.458,9.619,4.217,13.632c0.239,0.348,0.503,0.679,0.788,0.993
		c1.996,2.195,5.055,3.519,8.27,3.519h20.273c3.214,0,6.273-1.323,8.269-3.519c0.285-0.314,0.549-0.645,0.788-0.993
		c2.759-4.012,4.218-8.726,4.218-13.632c0-0.488-0.017-0.974-0.043-1.457C52.851,32.922,55.972,28.984,55.972,24.343z
		 M46.182,31.802c-1.132-0.117-2.183-0.602-2.988-1.407c-2.627-2.627-6.843-2.725-9.588-0.293l-0.341,0.293
		c-0.091,0.091-0.197,0.157-0.293,0.239V16.343h-7v-4.971C35.718,11.913,44.505,21.034,46.182,31.802z M18.972,30.917
		c1.879-0.961,4.237-0.679,5.808,0.892c1.323,1.323,3.081,2.052,4.95,2.052c0.421,0,0.836-0.038,1.242-0.111v9.593h-12V30.917z
		 M26.194,30.395c-1.949-1.949-4.773-2.503-7.222-1.667V18.343h12v13.338C29.316,32.104,27.488,31.688,26.194,30.395z M24.972,4.343
		c1.379,0,2.5,1.121,2.5,2.5s-1.121,2.5-2.5,2.5s-2.5-1.121-2.5-2.5S23.593,4.343,24.972,4.343z M2.484,17.39
		c-0.352-0.313-0.524-0.738-0.476-1.167c0.054-0.463,0.35-0.862,0.833-1.126c0.261-0.142,0.565-0.21,0.881-0.21
		c0.535,0,1.099,0.198,1.515,0.569l3.488,3.113c0.45,0.402,1.152,0.365,1.563-0.088c3.842-4.294,8.664-6.786,13.684-7.102v4.964h-7
		v13.465c-0.123,0.095-0.248,0.189-0.366,0.294l-0.341,0.293c-0.945,0.945-2.201,1.466-3.535,1.466
		c-1.335,0-2.591-0.521-3.536-1.466c-1.204-1.204-2.769-1.901-4.441-2.011c0.114-0.375,0.215-0.751,0.347-1.124
		C6.352,23.729,5.349,19.948,2.484,17.39z M42.606,47.985c-0.193,0.281-0.406,0.549-0.638,0.802
		c-1.619,1.773-4.123,2.842-6.771,2.842H14.923c-2.269,0-4.433-0.785-6.024-2.126c-0.242-0.204-0.466-0.424-0.68-0.652
		c-0.021-0.022-0.046-0.041-0.066-0.063c-0.231-0.253-0.445-0.521-0.638-0.802c-2.528-3.678-3.865-8-3.865-12.499
		c0-0.575,0.034-1.152,0.077-1.729c0.016-0.207,0.031-0.413,0.053-0.621c0.044-0.44,0.106-0.879,0.174-1.318
		c0.063-0.393,0.138-0.788,0.221-1.184c0.019-0.09,0.04-0.18,0.06-0.27c0.013-0.001,0.027-0.001,0.041-0.001
		c1.319,0,2.568,0.509,3.505,1.446c1.323,1.323,3.081,2.052,4.95,2.052c1.553,0,3.028-0.508,4.242-1.438v12.92h16V33.06
		c0.497-0.261,0.968-0.578,1.396-0.958l0.34-0.293c1.949-1.949,5.122-1.949,7.071,0c1.236,1.236,2.883,1.946,4.627,2.019
		c0.001,0.016,0.003,0.033,0.004,0.049c0.04,0.55,0.062,1.089,0.062,1.609C46.472,39.986,45.135,44.307,42.606,47.985z
		 M48.254,32.003c-0.662-5.354-2.827-10.603-6.065-14.702c1.161-0.63,2.451-0.958,3.783-0.958c4.411,0,8,3.589,8,8
		C53.972,27.944,51.624,31.015,48.254,32.003z"/>
	<circle cx="24.972" cy="41.343" r="1"/>
	<circle cx="28.972" cy="35.343" r="1"/>
	<circle cx="20.972" cy="35.343" r="1"/>
	<circle cx="24.972" cy="35.343" r="1"/>
	<circle cx="26.972" cy="38.343" r="1"/>
	<circle cx="22.972" cy="38.343" r="1"/>
</g>
<g>
</g>
<g>
</g>
<g>
</g>
<g>
</g>
<g>
</g>
<g>
</g>
<g>
</g>
<g>
</g>
<g>
</g>
<g>
</g>
<g>
</g>
<g>
</g>
<g>
</g>
<g>
</g>
<g>
</g>
</svg>
