<?xml version="1.0" encoding="iso-8859-1"?>
<!-- Generator: Adobe Illustrator 18.0.0, SVG Export Plug-In . SVG Version: 6.00 Build 0)  -->
<!DOCTYPE svg PUBLIC "-//W3C//DTD SVG 1.1//EN" "http://www.w3.org/Graphics/SVG/1.1/DTD/svg11.dtd">
<svg version="1.1" id="Capa_1" xmlns="http://www.w3.org/2000/svg" xmlns:xlink="http://www.w3.org/1999/xlink" x="0px" y="0px"
	 viewBox="0 0 55.333 55.333" style="enable-background:new 0 0 55.333 55.333;" xml:space="preserve">
<g>
	<path d="M28.667,25.475v-7.392c2.595-1.256,4-7.19,4-10.416c0-4.299-2.196-7.667-5-7.667s-5,3.368-5,7.667
		c0,3.226,1.405,9.16,4,10.416v7.392c-1.72,0.447-3,1.999-3,3.858v22c0,2.206,1.794,4,4,4s4-1.794,4-4v-22
		C31.667,27.474,30.387,25.922,28.667,25.475z M24.667,7.667c0-3.34,1.581-5.667,3-5.667s3,2.327,3,5.667
		c0,4.075-1.957,8.666-3,8.666S24.667,11.742,24.667,7.667z M29.667,51.333c0,1.103-0.897,2-2,2s-2-0.897-2-2v-22
		c0-1.103,0.897-2,2-2s2,0.897,2,2V51.333z"/>
	<circle cx="27.666" cy="31.333" r="1"/>
	<circle cx="27.666" cy="35.333" r="1"/>
</g>
<g>
</g>
<g>
</g>
<g>
</g>
<g>
</g>
<g>
</g>
<g>
</g>
<g>
</g>
<g>
</g>
<g>
</g>
<g>
</g>
<g>
</g>
<g>
</g>
<g>
</g>
<g>
</g>
<g>
</g>
</svg>
