<?xml version="1.0" encoding="iso-8859-1"?>
<!-- Generator: Adobe Illustrator 18.0.0, SVG Export Plug-In . SVG Version: 6.00 Build 0)  -->
<!DOCTYPE svg PUBLIC "-//W3C//DTD SVG 1.1//EN" "http://www.w3.org/Graphics/SVG/1.1/DTD/svg11.dtd">
<svg version="1.1" id="Capa_1" xmlns="http://www.w3.org/2000/svg" xmlns:xlink="http://www.w3.org/1999/xlink" x="0px" y="0px"
	 viewBox="0 0 55.19 55.19" style="enable-background:new 0 0 55.19 55.19;" xml:space="preserve">
<path d="M54.238,5.205c1.072-1.072,1.251-2.766,0.415-3.94c-0.517-0.724-1.318-1.181-2.2-1.254
	c-0.891-0.072-1.748,0.242-2.371,0.866L27.88,23.079c-1.124,1.125-2.853,1.438-4.301,0.779c-1.734-0.788-3.299-1.872-4.65-3.223
	l-4.964-4.965c-0.415-0.413-1.005-0.594-1.581-0.487c-0.58,0.109-1.068,0.497-1.307,1.037c-0.251,0.569-0.348,1.214-0.304,1.854
	c-1.082-0.091-2.166,0.235-2.941,1.011c-0.748,0.748-1.077,1.818-0.997,2.884c-0.032-0.003-0.064-0.005-0.097-0.007
	c-1.094-0.063-2.08,0.297-2.795,1.012c-0.775,0.775-1.108,1.863-1.011,2.941c-0.64-0.044-1.284,0.052-1.854,0.304
	c-0.541,0.238-0.929,0.727-1.037,1.307c-0.108,0.575,0.074,1.167,0.488,1.582l10.798,10.798l0.611-0.242
	c1.08-0.431,2.273-0.223,3.066,0.566c0.753,0.759,0.963,1.949,0.532,3.032l-0.242,0.611l10.799,10.799
	c0.336,0.335,0.787,0.519,1.253,0.519c0.109,0,0.219-0.011,0.328-0.031c0.58-0.108,1.068-0.496,1.307-1.036
	c0.251-0.57,0.348-1.215,0.304-1.854c1.085,0.097,2.166-0.235,2.941-1.011c0.75-0.75,1.079-1.824,0.996-2.893
	c1.067,0.08,2.143-0.245,2.893-0.996c0.775-0.775,1.108-1.863,1.011-2.941c0.639,0.042,1.282-0.052,1.852-0.304
	c0.542-0.238,0.93-0.727,1.039-1.307c0.108-0.575-0.073-1.166-0.488-1.582l-4.964-4.963c-1.35-1.35-2.434-2.915-3.223-4.651
	c-0.658-1.446-0.345-3.175,0.779-4.3L54.238,5.205z M51.496,2.29c0.208-0.207,0.5-0.307,0.791-0.287
	c0.174,0.015,0.499,0.089,0.737,0.422c0.271,0.382,0.184,0.981-0.2,1.365l-8.399,8.399l-1.414-1.414L51.496,2.29z M4.12,28.454
	l1.414-1.414c-0.739-0.74-0.824-2.005-0.177-2.652c0.649-0.647,1.913-0.562,2.651,0.177l1.414-1.414
	c-0.74-0.74-0.824-2.004-0.177-2.651s1.911-0.563,2.652,0.177l1.414-1.414c-0.448-0.448-0.649-1.264-0.506-1.921l1.82,1.82
	L4.019,29.768l-1.82-1.82C2.854,27.802,3.671,28.005,4.12,28.454z M35.939,41.888l-1.414,1.414c0.739,0.74,0.824,2.005,0.177,2.652
	c-0.648,0.647-1.913,0.563-2.651-0.177l-1.414,1.414c0.354,0.354,0.575,0.859,0.605,1.387c0.018,0.295-0.016,0.852-0.429,1.265
	c-0.647,0.646-1.911,0.562-2.652-0.177l-1.414,1.414c0.448,0.448,0.649,1.264,0.506,1.921l-1.82-1.82L36.04,40.574l1.82,1.82
	C37.205,42.539,36.389,42.337,35.939,41.888z M29.522,32.448c0.888,1.956,2.108,3.718,3.629,5.238l1.475,1.474L24.019,49.768
	l-6.414-6.414c0.413-1.644-0.024-3.371-1.224-4.577c-1.169-1.162-2.893-1.596-4.535-1.182l-6.414-6.414L16.04,20.574l1.474,1.475
	c1.522,1.521,3.284,2.742,5.237,3.629c2.199,1.001,4.83,0.526,6.542-1.186L41.597,12.19l1.414,1.414L30.708,25.907
	C28.997,27.619,28.52,30.247,29.522,32.448z"/>
<g>
</g>
<g>
</g>
<g>
</g>
<g>
</g>
<g>
</g>
<g>
</g>
<g>
</g>
<g>
</g>
<g>
</g>
<g>
</g>
<g>
</g>
<g>
</g>
<g>
</g>
<g>
</g>
<g>
</g>
</svg>
