<?xml version="1.0" encoding="iso-8859-1"?>
<!-- Generator: Adobe Illustrator 18.0.0, SVG Export Plug-In . SVG Version: 6.00 Build 0)  -->
<!DOCTYPE svg PUBLIC "-//W3C//DTD SVG 1.1//EN" "http://www.w3.org/Graphics/SVG/1.1/DTD/svg11.dtd">
<svg version="1.1" id="Capa_1" xmlns="http://www.w3.org/2000/svg" xmlns:xlink="http://www.w3.org/1999/xlink" x="0px" y="0px"
	 viewBox="0 0 54 54" style="enable-background:new 0 0 54 54;" xml:space="preserve">
<g>
	<circle cx="19.5" cy="27.5" r="1.5"/>
	<circle cx="22" cy="39.09" r="1"/>
	<circle cx="28" cy="32" r="1"/>
	<circle cx="31" cy="46.09" r="1"/>
	<circle cx="23.5" cy="47.59" r="1.5"/>
	<circle cx="35.5" cy="38.59" r="1.5"/>
	<path d="M35.832,11.537l-0.331-0.288c-0.647-0.775-0.213-5.272,0.529-6.925c0.393-0.304,0.632-0.67,0.702-1.094
		c0.013-0.052,0.023-0.102,0.027-0.156C36.761,3.049,36.772,3.026,36.772,3c0-0.047-0.019-0.088-0.023-0.133
		c-0.007-0.052-0.012-0.102-0.027-0.153C36.203,0.208,29.033,0,26.772,0c-2.267,0-9.469,0.21-9.953,2.735
		c-0.006,0.021-0.007,0.042-0.011,0.064c-0.01,0.068-0.035,0.13-0.035,0.201c0,0.036,0.015,0.067,0.018,0.102
		c0.003,0.028,0.009,0.053,0.014,0.081c0.06,0.463,0.329,0.853,0.765,1.177c0.852,1.677,1.591,6.119,1.026,6.883l-0.327,0.28
		C16.17,13.314,13,16.023,13,21v23.791C13,49.869,17.131,54,22.209,54h9.582C36.869,54,41,49.869,41,44.791V21
		C41,16.032,37.89,13.327,35.832,11.537z M26.772,2c3.949,0,6.572,0.56,7.616,1c-1.044,0.44-3.667,1-7.616,1S20.2,3.44,19.156,3
		C20.2,2.56,22.823,2,26.772,2z M19.567,13.043l0.332-0.285c0.631-0.543,0.912-1.573,0.861-3.149
		c-0.039-1.207-0.298-2.813-0.719-4.243C22.42,5.93,25.445,6,26.772,6c1.356,0,4.482-0.076,6.882-0.675
		c-0.282,1.219-0.415,2.499-0.448,3.353c-0.079,2.065,0.244,3.432,0.962,4.062l0.352,0.307c1.823,1.586,4.048,3.531,4.42,6.947
		c-2.327,5.359-5.847,6.332-7.273,6.495c-2.3,0.247-4.446-2.161-5.844-4.239c-3.087-4.59-7.484-4.706-10.434-3.826
		C16.174,15.948,18.014,14.37,19.567,13.043z M31.791,52h-9.582C18.234,52,15,48.766,15,44.791V21c0-0.104,0.009-0.201,0.012-0.302
		c1.513-0.649,5.995-2.028,9.151,2.667c2.297,3.417,4.695,5.145,7.137,5.145c0.197,0,0.396-0.011,0.594-0.034
		c1.425-0.163,4.522-0.953,7.106-4.525v20.841C39,48.766,35.766,52,31.791,52z"/>
</g>
<g>
</g>
<g>
</g>
<g>
</g>
<g>
</g>
<g>
</g>
<g>
</g>
<g>
</g>
<g>
</g>
<g>
</g>
<g>
</g>
<g>
</g>
<g>
</g>
<g>
</g>
<g>
</g>
<g>
</g>
</svg>
