<?xml version="1.0" encoding="iso-8859-1"?>
<!-- Generator: Adobe Illustrator 18.0.0, SVG Export Plug-In . SVG Version: 6.00 Build 0)  -->
<!DOCTYPE svg PUBLIC "-//W3C//DTD SVG 1.1//EN" "http://www.w3.org/Graphics/SVG/1.1/DTD/svg11.dtd">
<svg version="1.1" id="Capa_1" xmlns="http://www.w3.org/2000/svg" xmlns:xlink="http://www.w3.org/1999/xlink" x="0px" y="0px"
	 viewBox="0 0 57.481 57.481" style="enable-background:new 0 0 57.481 57.481;" xml:space="preserve">
<path d="M56.657,2.65l-1.673-1.673c-1.061-1.063-2.923-1.061-3.983,0L34.463,17.514l1.974,1.974l-5.805,5.805
	c-0.096,0.013-0.192,0.032-0.288,0.048c-5.771-1.332-13.068,1.937-22.283,9.994c-1.53,1.339-3.293,2.912-4.852,4.65
	c-4.015,4.475-4.302,11.094-0.641,14.755c1.719,1.715,4.088,2.562,6.582,2.561c2.817,0,5.793-1.08,8.166-3.208
	c1.731-1.553,3.307-3.319,4.647-4.854c3.297-3.773,5.763-7.254,7.538-10.64c1.179-2.247,1.956-4.287,2.375-6.238
	c0.243-1.134,0.356-2.229,0.338-3.254l-0.003-0.25c-0.004-0.774-0.046-1.502-0.209-2.108l5.848-5.847l2.27,2.27L56.657,6.634
	c0.53-0.531,0.823-1.238,0.823-1.992S57.189,3.18,56.657,2.65z M3.812,52.056c0.033-0.243,0.082-0.497,0.165-0.766
	c0.657-2.135,2.231-4.457,4.684-6.91c1.317-1.343,2.74-2.73,4.479-4.365c3.638-3.416,6.676-6.022,9.562-8.202l0.304-0.229
	c1.275-0.964,2.713-2.052,4.181-2.902L3.812,52.056z M28.53,30.166c-0.652,1.094-1.408,2.153-2.06,3.061l-0.109,0.151
	c-2.548,3.55-5.444,6.808-7.683,9.25c-1.907,2.08-3.712,3.959-5.518,5.745c-1.482,1.467-2.776,2.546-4.072,3.394
	c-1.626,1.065-2.938,1.651-3.921,1.762L28.53,30.166z M4.698,41.321c1.484-1.656,3.194-3.181,4.68-4.48
	c6.528-5.708,11.939-8.892,16.388-9.632c-1.414,0.859-2.76,1.867-3.966,2.78l-0.303,0.229c-2.944,2.224-6.035,4.874-9.726,8.341
	c-1.76,1.653-3.202,3.059-4.531,4.415c-2.496,2.496-4.167,4.923-4.996,7.225C1.518,47.368,2.36,43.926,4.698,41.321z M27.731,37.67
	c-1.701,3.245-4.08,6.599-7.272,10.252c-1.302,1.49-2.829,3.203-4.478,4.682c-2.596,2.327-6.022,3.172-8.846,2.462
	c1.118-0.425,2.184-1.059,3.049-1.625c1.41-0.924,2.803-2.082,4.383-3.646c1.829-1.809,3.656-3.711,5.586-5.815
	c2.276-2.483,5.224-5.8,7.833-9.436l0.108-0.15c0.588-0.819,1.256-1.751,1.875-2.742c-0.019,0.098-0.025,0.19-0.046,0.288
	C29.541,33.711,28.824,35.585,27.731,37.67z M41.804,13.001l4.243,1.414l-0.541,0.541l-4.243-1.414L41.804,13.001z M37.291,17.514
	l2.392-2.392l4.243,1.414l-3.806,3.806L37.291,17.514z M55.243,5.219l-7.616,7.616l-4.243-1.414l9.031-9.03
	c0.305-0.308,0.848-0.307,1.154,0l1.673,1.673c0.153,0.153,0.237,0.358,0.237,0.578C55.481,4.861,55.397,5.066,55.243,5.219z"/>
<g>
</g>
<g>
</g>
<g>
</g>
<g>
</g>
<g>
</g>
<g>
</g>
<g>
</g>
<g>
</g>
<g>
</g>
<g>
</g>
<g>
</g>
<g>
</g>
<g>
</g>
<g>
</g>
<g>
</g>
</svg>
