<?xml version="1.0" encoding="iso-8859-1"?>
<!-- Generator: Adobe Illustrator 18.0.0, SVG Export Plug-In . SVG Version: 6.00 Build 0)  -->
<!DOCTYPE svg PUBLIC "-//W3C//DTD SVG 1.1//EN" "http://www.w3.org/Graphics/SVG/1.1/DTD/svg11.dtd">
<svg version="1.1" id="Capa_1" xmlns="http://www.w3.org/2000/svg" xmlns:xlink="http://www.w3.org/1999/xlink" x="0px" y="0px"
	 viewBox="0 0 488.583 488.583" style="enable-background:new 0 0 488.583 488.583;" xml:space="preserve">
<g>
	<path d="M314.294,296.3c0,3.324,2.697,6.022,6.021,6.022h17.614c3.325,0,6.022-2.697,6.022-6.022v-31.213h-29.658V296.3z"/>
	<path d="M121.56,306.194c2.452,1.762,5.871,1.206,7.632-1.246c1.77-2.452,1.197-5.871-1.238-7.641
		c-2.459-1.753-5.879-1.189-7.648,1.247C118.552,301.004,119.099,304.433,121.56,306.194z"/>
	<path d="M470.446,453.705h-4.103V162.873c-5.084,1.388-10.321,2.181-15.605,2.181c-6.666,0-13.155-1.15-19.265-3.245v239.808
		h-5.896c0.851-3.475,0.699-7.233-0.674-10.829l-43.692-114.481c-3.094-8.092-10.67-11.218-19.535-11.218c-1.361,0-5.411,0-5.411,0
		v48.224v61.6h21.382l0.096-5.333l12.226,32.037h-12.274l-0.048-13.923h-14.56v13.923h-67.978v-13.923h-14.465v13.923H268.23
		l12.417-32.528v5.824h21.327v-61.688v-48.136c0,0-4.081,0-5.442,0c-10.862,0-16.449,3.126-19.534,11.218l-43.7,114.481
		c-1.373,3.596-1.525,7.355-0.674,10.829h-10.53V160.515c-4.134-1.698-8.014-3.848-11.631-6.386
		c-9.751,6.807-21.494,10.916-34.26,10.916c-2,0-4.015-0.094-5.975-0.292c-10.425-1.04-20.042-4.92-28.389-10.783
		c-9.829,6.911-21.636,11.084-34.299,11.084c-3.831,0-7.744-0.389-11.758-1.165c-8.443-1.684-16.059-5.135-22.691-9.8
		c-9.863,6.888-21.709,10.965-34.212,10.965c-5.728,0-11.416-0.849-16.852-2.444v291.087h-3.889c-4.624,0-9.06,1.841-12.328,5.111
		c-3.269,3.268-5.11,7.703-5.11,12.328c0,9.632,7.808,17.439,17.439,17.439h3.889v0.009h200.066h209.381h34.87h4.103
		c4.625,0,9.06-1.841,12.33-5.11c3.267-3.268,5.108-7.704,5.108-12.33C487.885,461.512,480.079,453.705,470.446,453.705z
		 M185.127,194.314c3.046-1.635,6.87-0.484,8.505,2.579c1.643,3.055,0.476,6.864-2.586,8.505c-3.046,1.635-6.855,0.484-8.506-2.577
		C180.906,199.766,182.073,195.949,185.127,194.314z M176.075,236.247c3.046-1.635,6.87-0.484,8.504,2.579
		c1.643,3.055,0.477,6.862-2.587,8.504c-3.047,1.635-6.854,0.484-8.505-2.579C171.854,241.697,173.02,237.881,176.075,236.247z
		 M171.758,279.988c2.072,3.855,0.611,8.672-3.245,10.75c-3.871,2.064-8.695,0.603-10.767-3.261
		c-2.062-3.864-0.603-8.681,3.27-10.743C164.879,274.656,169.688,276.107,171.758,279.988z M153.193,210.016
		c3.735-2.007,8.378-0.587,10.368,3.143c2.008,3.737,0.605,8.37-3.132,10.378c-3.737,1.991-8.378,0.595-10.379-3.15
		C148.058,216.665,149.464,212.016,153.193,210.016z M137.809,249.639c3.737-2.007,8.378-0.587,10.37,3.143
		c2.007,3.735,0.603,8.37-3.134,10.377c-3.737,1.992-8.378,0.596-10.378-3.149C132.675,256.289,134.08,251.638,137.809,249.639z
		 M186.396,340.35l-74.469,84.228c-1.927,2.174-8.694,7.386-16.543,8.149c-7.156,0.696-14.026-2.722-16.439-4.451L51.906,408.83
		c-3.277-2.356-5.523-5.499-7.26-8.887c-3.729-7.26-4.062-16.051,0.27-23.556l56.142-97.407c2.142-3.721,5.724-6.546,9.957-7.26
		c5.475-0.923,10.497,1.387,12.066,2.515c15.204,10.928,60.807,43.725,60.807,43.725c3.484,2.507,5.744,6.371,6.229,10.64
		C190.594,332.869,189.245,337.137,186.396,340.35z M199.171,281.32c-3.047,1.635-6.855,0.484-8.506-2.579
		c-1.634-3.055-0.468-6.87,2.587-8.505c3.047-1.634,6.87-0.484,8.505,2.579C203.399,275.87,202.233,279.677,199.171,281.32z"/>
	<path d="M107.135,348.347c-3.198-2.301-7.656-1.571-9.957,1.627c-1.453,2.006-1.571,4.475-0.762,6.633l-27.316,0.69L54.81,382.092
		c-3.429,5.95-1.809,13.456,3.76,17.471l27.04,19.439c2.285,1.641,4.968,2.507,7.768,2.507c3.825,0,7.466-1.635,9.996-4.499
		l54.785-61.958l-48.485,1.222C110.595,353.409,109.706,350.189,107.135,348.347z M79.39,374.697
		c2.309-3.198,6.768-3.936,9.965-1.626c3.196,2.301,3.927,6.759,1.626,9.958c-2.294,3.198-6.753,3.927-9.965,1.618
		C77.827,382.37,77.089,377.903,79.39,374.697z M92.092,406.394c-1.754,2.443-5.172,3.014-7.632,1.252
		c-2.46-1.778-3.016-5.188-1.262-7.648c1.778-2.452,5.19-3.014,7.657-1.238C93.29,400.515,93.853,403.942,92.092,406.394z
		 M105.889,398.151c-1.143,1.602-3.372,1.96-4.966,0.815c-1.604-1.15-1.976-3.388-0.817-4.99c1.15-1.586,3.372-1.96,4.974-0.809
		C106.684,394.317,107.047,396.547,105.889,398.151z M111.555,369.104c1.689-2.342,4.951-2.881,7.299-1.191
		c2.34,1.698,2.879,4.951,1.189,7.299c-1.682,2.35-4.943,2.881-7.299,1.191C110.388,374.721,109.865,371.452,111.555,369.104z"/>
	<path d="M132.469,346.349c3.895,2.792,9.306,1.911,12.107-1.976c2.801-3.896,1.905-9.299-1.976-12.099
		c-3.887-2.793-9.314-1.913-12.099,1.966C127.7,338.136,128.573,343.547,132.469,346.349z"/>
	<path d="M29.047,137.864c3.277,0.977,6.586,1.444,9.838,1.444c14.774,0,28.428-9.624,32.871-24.509l1.802-6.038
		c1.23,10.949,7.632,20.612,17.224,26.009c3.079,1.729,6.379,3.141,10.029,3.87c2.262,0.453,4.516,0.668,6.745,0.668
		c16.034,0,30.371-11.298,33.624-27.627l0.834-4.174c0.848,11.647,7.529,21.891,17.439,27.428c3.991,2.229,8.474,3.713,13.306,4.197
		c1.159,0.112,2.31,0.168,3.443,0.168c17.422,0,32.355-13.219,34.117-30.921l0.253-2.546c0.317,12.503,7.323,23.239,17.575,28.975
		c4.949,2.777,10.575,4.492,16.66,4.492c6.087,0,11.712-1.715,16.67-4.492c10.251-5.744,17.272-16.494,17.575-29.014l0.253,2.585
		c1.77,17.702,16.687,30.921,34.117,30.921c1.134,0,2.285-0.056,3.443-0.168c4.833-0.484,9.316-1.968,13.307-4.197
		c9.9-5.53,16.574-15.765,17.438-27.396l0.825,4.142c3.253,16.329,17.59,27.627,33.624,27.627c2.221,0,4.483-0.215,6.745-0.668
		c3.649-0.729,6.958-2.142,10.029-3.87c9.6-5.396,15.994-15.06,17.224-26.009l1.802,6.038c4.442,14.893,18.088,24.509,32.87,24.509
		c3.253,0,6.561-0.468,9.839-1.444c18.16-5.428,28.491-24.548,23.064-42.709l-21.699-72.653C457.941,9.148,445.668,0,431.736,0
		H57.888C43.956,0,31.681,9.148,27.69,22.494L5.983,95.155C0.556,113.316,10.879,132.436,29.047,137.864z"/>
	<ellipse cx="329.1" cy="205.11" rx="37.813" ry="44.125"/>
	<circle cx="101.709" cy="316.422" r="9.332"/>
</g>
<g>
</g>
<g>
</g>
<g>
</g>
<g>
</g>
<g>
</g>
<g>
</g>
<g>
</g>
<g>
</g>
<g>
</g>
<g>
</g>
<g>
</g>
<g>
</g>
<g>
</g>
<g>
</g>
<g>
</g>
</svg>
