<?xml version="1.0" encoding="iso-8859-1"?>
<!-- Generator: Adobe Illustrator 18.0.0, SVG Export Plug-In . SVG Version: 6.00 Build 0)  -->
<!DOCTYPE svg PUBLIC "-//W3C//DTD SVG 1.1//EN" "http://www.w3.org/Graphics/SVG/1.1/DTD/svg11.dtd">
<svg version="1.1" id="Capa_1" xmlns="http://www.w3.org/2000/svg" xmlns:xlink="http://www.w3.org/1999/xlink" x="0px" y="0px"
	 viewBox="0 0 488.15 488.15" style="enable-background:new 0 0 488.15 488.15;" xml:space="preserve">
<g>
	<path d="M147.27,215.995c0,2.999,2.428,5.427,5.419,5.427h15.845c2.991,0,5.419-2.428,5.419-5.427v-28.062H147.27V215.995z"/>
	<path d="M160.576,173.676c18.908,0,34.212-17.512,34.212-39.117c0-21.604-15.305-39.122-34.212-39.122
		c-18.867,0-34.187,17.518-34.187,39.122C126.388,156.164,141.709,173.676,160.576,173.676z"/>
	<path d="M463.247,62.059c18.461-5.523,28.941-24.953,23.438-43.398l0-0.002c-2.547-8.531-10.394-14.377-19.296-14.377H20.763
		c-8.903,0-16.75,5.846-19.296,14.377l0,0.002c-5.508,18.445,4.98,37.875,23.438,43.398c3.125,0.93,6.273,1.324,9.394,1.379v394.207
		c0,14.48,11.742,26.223,26.23,26.223h367.785c14.48,0,26.223-11.742,26.223-26.223l-0.684-394.207
		C456.978,63.384,460.13,62.989,463.247,62.059z M66.573,43.009c0.651-1.42,1.254-2.849,1.714-4.389l1.833-6.133
		c1.246,11.124,7.744,20.931,17.487,26.413c3.126,1.753,6.482,3.198,10.188,3.936c2.309,0.46,4.593,0.683,6.854,0.683
		c16.289,0,30.856-11.481,34.157-28.072l0.849-4.269c0.865,11.838,7.641,22.263,17.726,27.896c4.046,2.262,8.599,3.776,13.503,4.269
		c1.175,0.112,2.348,0.159,3.506,0.159c17.685,0,32.855-13.417,34.649-31.403l0.253-2.587c0.325,12.685,7.442,23.595,17.852,29.427
		c5.03,2.824,10.75,4.563,16.931,4.563s11.901-1.738,16.932-4.563c10.409-5.832,17.526-16.742,17.851-29.427l0.255,2.587
		c1.8,17.986,16.962,31.403,34.656,31.403c1.159,0,2.324-0.047,3.499-0.159c4.904-0.492,9.465-2.007,13.511-4.269
		c10.078-5.634,16.86-16.059,17.726-27.896l0.848,4.269c3.3,16.599,17.859,28.072,34.157,28.072c2.252,0,4.544-0.223,6.846-0.683
		c3.714-0.738,7.061-2.182,10.196-3.936c9.743-5.483,16.241-15.289,17.479-26.413l1.833,6.133c0.459,1.54,1.071,2.969,1.721,4.389
		v248.908h-16.217V115.271c0-9.902-8.053-17.955-17.955-17.955H271.107c-9.902,0-17.947,8.053-17.947,17.955v124.081l-15.646,1.89
		l-31.856-46.63c-3.903-5.736-10.806-8.132-17.193-6.68c-1.189,0.278-2.292,0.913-3.435,1.459v33.221v58.308h19.288v-30.079
		l11.711,17.146c3.079,4.506,8.173,7.156,13.552,7.156c0.65,0,1.31-0.04,1.959-0.119l21.621-2.611v19.503H94.279l22.739-37.037
		v26.041h19.177v-57.284v-34.292c-1.246-0.611-2.515-1.134-3.832-1.412c-6.577-1.357-13.567,1.293-17.28,7.346l-48.509,79.024
		V43.009z M361.825,291.917v-28.261c0-3.332-2.713-6.046-6.054-6.046h-12.6c-3.347,0-6.053,2.713-6.053,6.046v28.261h-11.688
		v-32.102c0-3.348-2.714-6.053-6.053-6.053h-18.495c-3.333,0-6.055,2.705-6.055,6.053v32.102H269.29v-21.486
		c8.862-1.214,15.17-9.275,14.083-18.185c-0.547-4.618-3.032-8.497-6.498-11.083h112.354v50.754H361.825z M389.229,160.479h-39.758
		v-15.82c0-3.341-2.714-6.053-6.053-6.053H330.31c-3.339,0-6.053,2.712-6.053,6.053v15.82h-14.116v-25.403
		c0-3.341-2.713-6.046-6.052-6.046h-12.608c-3.349,0-6.054,2.705-6.054,6.046v25.403H269.29v-45.208
		c0-0.991,0.824-1.809,1.817-1.809h116.306c0.999,0,1.816,0.817,1.816,1.809V160.479z M269.29,176.61h119.939v48.414h-9.164v-30.443
		c0-3.341-2.705-6.054-6.053-6.054h-18.487c-3.349,0-6.054,2.713-6.054,6.054v30.443h-8.744v-30.443
		c0-3.341-2.706-6.054-6.045-6.054H316.18c-3.333,0-6.039,2.713-6.039,6.054v30.443H269.29V176.61z M309.222,406.177
		c-16.75,29.879-48.478,48.437-82.8,48.437c-12.924,0-25.54-2.61-37.497-7.751c-44.772-19.295-67.599-68.893-53.096-115.363
		c1.682-5.378,5.578-9.829,10.751-12.234c2.634-1.206,5.435-1.809,8.331-1.809c2.744,0,5.394,0.539,7.91,1.618L299.7,378.05
		c5.174,2.237,9.204,6.594,11.014,11.956C312.53,395.37,311.983,401.273,309.222,406.177z M312.475,350.59
		c-0.611,3.601-4.007,6.028-7.618,5.417c-3.594-0.603-5.989-4.014-5.411-7.6c0.611-3.603,5.634-15.773,9.244-15.178
		C312.285,333.833,313.078,346.996,312.475,350.59z M329.613,389.458c2.466-2.681,13.329-10.155,16.018-7.704
		c2.69,2.477-3.817,13.948-6.283,16.631c-2.468,2.69-6.633,2.872-9.322,0.397C327.335,396.322,327.169,392.149,329.613,389.458z
		 M345.925,432.771c-3.324,1.492-11.283-9.021-12.783-12.362c-1.499-3.316-0.007-7.211,3.309-8.711
		c3.323-1.492,7.236-0.016,8.719,3.316C346.671,418.331,349.256,431.263,345.925,432.771z M342.18,346.361
		c-2.642-2.515-2.706-6.68-0.191-9.314c1.104-1.144,3.856-3.096,6.76-4.802c3.809-2.221,7.926-3.966,9.426-2.538
		c0.515,0.493,0.427,1.516,0.333,2.538c-0.405,4.254-4.959,11.823-6.99,13.934C348.987,348.821,344.798,348.907,342.18,346.361z
		 M375.749,411.096c-1.61,3.269-14.447,0.277-17.725-1.326c-3.277-1.61-4.641-5.554-3.039-8.822
		c1.602-3.286,5.562-4.634,8.838-3.039C367.101,399.512,377.351,407.809,375.749,411.096z"/>
	<path d="M299.248,393.878c-0.705-2.111-2.285-3.823-4.34-4.712l-12.083-5.196c-4.825,11.194-12.648,20.12-22.064,26.468
		l-17.408-43.471l-34.512-14.868l-42.854,17.048c-1.745-11.051-0.642-22.699,4.119-33.735l-12.077-5.213
		c-0.991-0.429-2.055-0.643-3.118-0.643c-1.127,0-2.254,0.239-3.293,0.723c-2.031,0.936-3.571,2.689-4.229,4.808
		c-12.48,39.98,7.013,83.729,46.319,100.66c10.679,4.593,21.787,6.768,32.713,6.768c29.316,0,57.331-15.654,72.248-42.249
		C299.757,398.314,299.97,396.005,299.248,393.878z M168.422,378.843l53.024-21.112l-23.977,55.69
		C183.284,405.77,173.2,393.299,168.422,378.843z M206.523,417.426l24.032-55.784l21.454,53.596
		C238.069,421.647,221.922,422.742,206.523,417.426z"/>
</g>
<g>
</g>
<g>
</g>
<g>
</g>
<g>
</g>
<g>
</g>
<g>
</g>
<g>
</g>
<g>
</g>
<g>
</g>
<g>
</g>
<g>
</g>
<g>
</g>
<g>
</g>
<g>
</g>
<g>
</g>
</svg>
