<?xml version="1.0" encoding="iso-8859-1"?>
<!-- Generator: Adobe Illustrator 18.0.0, SVG Export Plug-In . SVG Version: 6.00 Build 0)  -->
<!DOCTYPE svg PUBLIC "-//W3C//DTD SVG 1.1//EN" "http://www.w3.org/Graphics/SVG/1.1/DTD/svg11.dtd">
<svg version="1.1" id="Capa_1" xmlns="http://www.w3.org/2000/svg" xmlns:xlink="http://www.w3.org/1999/xlink" x="0px" y="0px"
	 viewBox="0 0 488.591 488.591" style="enable-background:new 0 0 488.591 488.591;" xml:space="preserve">
<g>
	<path d="M424.894,382.63l-0.84-146.995l23.119,13.646l5.523,43.487c1.063,8.394,8.219,14.528,16.47,14.528
		c0.698,0,1.397-0.041,2.11-0.135c9.109-1.151,15.553-9.475,14.394-18.583l-6.538-51.563c-0.634-5.094-3.617-9.609-8.029-12.219
		c0,0-71.549-44.851-84.133-44.851c-21.375,0-31.166,12.662-34.99,30.823l-13.187,34.006l-53.808,9.735
		c-9.03,1.634-15.027,10.282-13.393,19.32c1.459,8.037,8.457,13.662,16.342,13.662c0.985,0,1.969-0.087,2.984-0.261l58.966-10.671
		v54.316l-23.168,40.352c-1.745,3.024-2.648,6.451-2.648,9.935v87.48c0,11.021,8.934,19.947,19.946,19.947
		c11.012,0,19.945-8.926,19.945-19.947v-82.165l20.598-35.87h0.445v42.582c0,6.608,3.268,12.781,8.727,16.495l59.918,40.727
		c3.444,2.332,7.348,3.451,11.203,3.451c6.379,0,12.646-3.055,16.517-8.735c6.191-9.109,3.826-21.517-5.283-27.707L424.894,382.63z"
		/>
	<path d="M371.689,166.092c19.138,0,34.641-17.741,34.641-39.615c0-21.882-15.503-39.623-34.641-39.623
		c-19.105,0-34.624,17.741-34.624,39.623C337.065,148.352,352.584,166.092,371.689,166.092z"/>
	<path d="M256.17,442.89h-9.648V221.679c-11.855,0-23.072-3.864-32.402-10.378c-6.285,4.412-13.506,7.689-21.52,9.283
		c-3.68,0.73-7.393,1.095-11.107,1.095c-2.459,0-4.84-0.27-7.22-0.586v43.565H67.781v-45.47c-5.157,1.571-10.584,2.483-16.249,2.483
		c-5.665,0-11.092-0.912-16.249-2.483v45.47H2.785v32.498h32.498v70.082H2.785v121.353H256.17c12.613,0,22.85-10.227,22.85-22.851
		C279.019,453.117,268.783,442.89,256.17,442.89z M174.272,348.974c0,10.092-8.171,18.264-18.264,18.264H67.781v-70.082h106.491
		V348.974z"/>
	<path d="M18.875,168.021l0.238-2.413c0.443,17.567,14.742,31.689,32.419,31.689c17.677,0,31.975-14.122,32.419-31.689l0.238,2.413
		c1.666,16.764,15.804,29.276,32.307,29.276c1.064,0,2.159-0.047,3.253-0.157c15.948-1.587,27.976-14.481,29.118-29.936l0.779,3.942
		c3.076,15.464,16.661,26.159,31.846,26.159c2.096,0,4.238-0.206,6.379-0.635c14.234-2.84,24.28-14.598,25.803-28.301l1.715,5.73
		c4.204,14.099,17.12,23.207,31.115,23.207c3.08,0,6.221-0.443,9.316-1.365c17.201-5.141,26.975-23.246,21.834-40.439L231.191,0
		H2.785v192.863C11.512,187.8,17.796,178.827,18.875,168.021z"/>
</g>
<g>
</g>
<g>
</g>
<g>
</g>
<g>
</g>
<g>
</g>
<g>
</g>
<g>
</g>
<g>
</g>
<g>
</g>
<g>
</g>
<g>
</g>
<g>
</g>
<g>
</g>
<g>
</g>
<g>
</g>
</svg>
