<?xml version="1.0" encoding="iso-8859-1"?>
<!-- Generator: Adobe Illustrator 18.0.0, SVG Export Plug-In . SVG Version: 6.00 Build 0)  -->
<!DOCTYPE svg PUBLIC "-//W3C//DTD SVG 1.1//EN" "http://www.w3.org/Graphics/SVG/1.1/DTD/svg11.dtd">
<svg version="1.1" id="Capa_1" xmlns="http://www.w3.org/2000/svg" xmlns:xlink="http://www.w3.org/1999/xlink" x="0px" y="0px"
	 viewBox="0 0 485.941 485.941" style="enable-background:new 0 0 485.941 485.941;" xml:space="preserve">
<g>
	<path d="M177.031,130.524c0,3.261,2.649,5.903,5.903,5.903h17.264c3.254,0,5.902-2.642,5.902-5.903V98.986
		c-9.124-0.016-19.771,0.008-29.069,0.063V130.524z"/>
	<path d="M247.661,278.21c-2,0-3.619,0.944-3.619,2.103c0,1.158,1.619,2.103,3.619,2.103c2.015,0,3.649-0.944,3.649-2.103
		C251.311,279.154,249.676,278.21,247.661,278.21z"/>
	<path d="M222.255,276.107c-2.015,0-3.633,0.944-3.633,2.103c0,1.159,1.618,2.103,3.633,2.103c2.016,0,3.634-0.944,3.634-2.103
		C225.889,277.051,224.271,276.107,222.255,276.107z"/>
	<path d="M257.435,289.103c-2.016,0-3.649,0.944-3.649,2.103c0,1.167,1.634,2.103,3.649,2.103c2,0,3.618-0.936,3.618-2.103
		C261.053,290.047,259.435,289.103,257.435,289.103z"/>
	<path d="M271.366,278.21c-1.998,0-3.617,0.944-3.617,2.103c0,1.158,1.619,2.103,3.617,2.103c2,0,3.651-0.944,3.651-2.103
		C275.018,279.154,273.366,278.21,271.366,278.21z"/>
	<path d="M205.817,291.206c-2.017,0-3.636,0.944-3.636,2.103c0,1.159,1.619,2.103,3.636,2.103c2.015,0,3.633-0.944,3.633-2.103
		C209.449,292.15,207.831,291.206,205.817,291.206z"/>
	<path d="M244.042,303.44c-1.998,0-3.633,0.944-3.633,2.102c0,1.159,1.635,2.103,3.633,2.103c2,0,3.619-0.944,3.619-2.103
		C247.661,304.384,246.042,303.44,244.042,303.44z"/>
	<path d="M283.792,291.206c-2.015,0-3.633,0.944-3.633,2.103c0,1.159,1.618,2.103,3.633,2.103c2.016,0,3.634-0.944,3.634-2.103
		C287.426,292.15,285.808,291.206,283.792,291.206z"/>
	<path d="M233.919,286.238c-2.43,0-4.411,1.111-4.411,2.484c0,1.372,1.981,2.483,4.411,2.483c2.411,0,4.379-1.111,4.379-2.483
		C238.298,287.35,236.33,286.238,233.919,286.238z"/>
	<path d="M218.177,99.041V201.28h20.311v-36.115l14.71,20.587c2.793,3.913,7.076,6.514,11.838,7.205l35.164,5.086l-3.063,6.046
		c-1.635,3.229-0.334,7.172,2.888,8.813c0.952,0.476,1.968,0.707,2.967,0.707c2.396,0,4.697-1.318,5.857-3.602l5.918-11.703
		c6.332-1.935,11.346-7.211,12.361-14.185c0.43-2.912-0.096-5.666-0.999-8.26l19.39-38.322c6.889,0.571,13.728-2.943,17.044-9.481
		l8.647-17.074c0.46-0.905,0.54-1.952,0.223-2.92c-0.318-0.96-1-1.761-1.904-2.222l-24.39-12.337
		c-1.888-0.96-4.188-0.198-5.142,1.682l-8.647,17.082c-3.302,6.538-2.08,14.139,2.459,19.343l-17.249,34.077
		c-1.412-0.619-2.776-1.332-4.379-1.563l-34.641-5.015l-37.72-52.793c-3.109-4.364-7.855-6.672-12.804-7.117
		C226.747,99.129,223.287,99.073,218.177,99.041z"/>
	<path d="M191.566,84.117c20.311,0,36.767-18.835,36.767-42.059C228.332,18.836,211.877,0,191.566,0s-36.767,18.836-36.767,42.059
		C154.799,65.282,171.254,84.117,191.566,84.117z"/>
	<path d="M422.289,223.592H238.488v-9.784h-11.251v9.784h-71.343v-9.784h-11.251v9.784h-23.088c1.65-1.445,3.142-3.096,4.205-5.174
		l18.883-37.196v20.058h20.295V99.169c-5.901,0.087-9.964,0.198-10.346,0.341c-5.252,0.96-10.061,3.975-12.663,9.077l-47.651,93.853
		c-3.761,7.403-1.539,15.979,4.507,21.153H63.652c-12.377,0-22.406,10.027-22.406,22.406V446.04
		c0,12.377,10.029,22.406,22.406,22.406h20.297c2.252,10.005,11.154,17.496,21.834,17.496c10.679,0,19.582-7.491,21.835-17.496
		h230.708c2.254,10.005,11.154,17.496,21.835,17.496c10.679,0,19.58-7.491,21.834-17.496h20.295
		c12.379,0,22.406-10.029,22.406-22.406V245.998C444.696,233.619,434.668,223.592,422.289,223.592z M241.218,271.315
		c37.862,0,68.996,23.898,72.945,54.571H168.272C172.223,295.213,203.357,271.315,241.218,271.315z M184.917,340.531
		c4.125,4.134,11.457,4.125,15.615,0.008c9.061-9.069,23.834-9.044,32.878-0.008c4.158,4.19,11.441,4.174,15.614,0.008
		c9.045-9.052,23.803-9.077,32.879,0.008c4.174,4.15,11.441,4.142,15.614-0.008c9.046-9.069,23.817-9.069,32.88,0
		c2.379,2.388,2.379,6.261,0,8.641c-2.381,2.395-6.285,2.395-8.649,0c-4.173-4.142-11.425-4.142-15.598,0
		c-9.076,9.107-23.834,9.083-32.88,0.015c-4.316-4.316-11.315-4.292-15.613-0.015c-4.379,4.403-10.219,6.815-16.439,6.823
		c-6.22,0-12.06-2.419-16.455-6.823c-4.285-4.277-11.283-4.293-15.6,0c-8.711,8.75-24.184,8.735-32.895,0
		c-4.285-4.277-11.281-4.293-15.599,0c-2.379,2.395-6.251,2.395-8.632,0c-2.396-2.38-2.396-6.253,0-8.641
		C161.115,331.471,175.872,331.495,184.917,340.531z M298.408,429.672H184.029c-8.156-8.482-13.678-18.797-15.487-30.095h145.352
		C312.085,410.875,306.564,421.19,298.408,429.672z M327.954,390.842H154.483c-6.776,0-12.267-5.497-12.267-12.273
		c0-6.768,5.49-12.258,12.267-12.258h173.472c6.775,0,12.266,5.49,12.266,12.258C340.22,385.345,334.73,390.842,327.954,390.842z"/>
</g>
<g>
</g>
<g>
</g>
<g>
</g>
<g>
</g>
<g>
</g>
<g>
</g>
<g>
</g>
<g>
</g>
<g>
</g>
<g>
</g>
<g>
</g>
<g>
</g>
<g>
</g>
<g>
</g>
<g>
</g>
</svg>
