<?xml version="1.0" encoding="iso-8859-1"?>
<!-- Generator: Adobe Illustrator 18.0.0, SVG Export Plug-In . SVG Version: 6.00 Build 0)  -->
<!DOCTYPE svg PUBLIC "-//W3C//DTD SVG 1.1//EN" "http://www.w3.org/Graphics/SVG/1.1/DTD/svg11.dtd">
<svg version="1.1" id="Capa_1" xmlns="http://www.w3.org/2000/svg" xmlns:xlink="http://www.w3.org/1999/xlink" x="0px" y="0px"
	 viewBox="0 0 487.028 487.028" style="enable-background:new 0 0 487.028 487.028;" xml:space="preserve">
<g>
	<path d="M100.737,96.82c23.374,0,42.321-21.676,42.321-48.406C143.058,21.676,124.111,0,100.737,0
		C77.372,0,58.425,21.676,58.425,48.414C58.425,75.144,77.372,96.82,100.737,96.82z"/>
	<path d="M288.466,96.82c23.374,0,42.321-21.676,42.321-48.406C330.787,21.676,311.84,0,288.466,0
		c-23.366,0-42.313,21.676-42.313,48.414C246.153,75.144,265.1,96.82,288.466,96.82z"/>
	<path d="M359.041,306.381c0-6.406-4.571-11.741-10.629-12.931c-0.806-0.165-1.64-0.252-2.494-0.252c-0.01,0-0.02,0.001-0.03,0.001
		c-0.01,0-0.02-0.001-0.03-0.001c-7.281,0-13.183,5.902-13.183,13.183c0,0.277,0.025,0.548,0.042,0.821H359
		C359.017,306.929,359.041,306.658,359.041,306.381z"/>
	<path d="M479.8,321.314c-1.928-1.417-4.307-2.085-6.7-2.085h-65.288v-12.187h13.178h14.518h38.134
		c4.197-2.856,7.011-7.471,7.171-12.682c0.24-7.832-5.225-14.13-12.473-15.84c3.77-1.984,7.197-3.674,9.816-4.912
		c3.482-1.643,5.712-5.149,5.712-9.005v-7.34c0-3.402-1.745-6.568-4.618-8.394c-2.863-1.825-6.474-2.054-9.553-0.618
		c-11.266,5.26-22.343,17.621-30.974,29.284c-0.713-0.072-1.34-0.421-2.078-0.421c-1.23,0-2.286,0.5-3.46,0.699
		c-1.992-6.608-7.896-11.521-15.162-11.521c-3.935,0-7.419,1.579-10.211,3.927v-10.139c0.634-0.333,1.324-0.5,1.936-0.905
		c9.371-6.165,11.972-18.756,5.799-28.126l-71.106-108.032c-4.759-7.228-10.999-8.56-21.286-8.56H252.47
		c-9.956,0-17.796,2.951-21.589,11.52l-36.274,82.181l-36.276-82.181c-3.792-8.578-10.415-11.52-21.596-11.52H64.542
		c-10.911,0-19.216,4.062-22.208,13.701L3.727,252.441c-3.324,10.711,2.658,22.087,13.377,25.42c2,0.619,4.031,0.922,6.03,0.922
		c8.656,0,16.685-5.587,19.391-14.298l4.3-13.846l0.397,212.016c0,13.304,10.651,24.114,23.895,24.369
		c13.666,0.264,24.852-11.248,24.852-24.917V325.069h9.751v137.038c0,13.67,11.187,25.182,24.855,24.917
		c13.243-0.256,23.892-11.065,23.892-24.369l0.398-243.926c4.223,9.571,12.402,29.277,17.979,42.798
		c3.537,8.575,11.849,14.209,21.124,14.323l0,0c9.415,0.115,17.962-5.48,21.623-14.154c2.38-5.641,4.708-11.137,5.38-12.659
		L205.746,322.3c-0.928,4.467,0.206,9.116,3.085,12.663c2.881,3.539,7.205,5.593,11.776,5.593h14.241v121.55
		c0,13.668,11.186,25.18,24.852,24.917c13.243-0.254,23.896-11.064,23.896-24.369V340.556h9.751v121.55
		c0,13.668,11.186,25.18,24.852,24.917c13.243-0.254,23.895-11.064,23.895-24.369V397.27c-20.358-15.051-35.06-37.545-38.884-63.925
		c-0.96-6.617,1.007-13.314,5.37-18.335c3.639-4.218,8.675-6.833,14.12-7.603c-0.015-0.34-0.027-0.682-0.027-1.025
		c0-12.805,10.381-23.186,23.186-23.186c2.519,0,4.942,0.407,7.213,1.15c2.099-3.627,4.894-6.785,8.334-9.157l-15.948-76.755
		l36.164,54.944c2.477,3.76,6.03,6.284,9.943,7.736v13.011v17.09c-2.667-5.188-7.92-8.846-14.163-8.846
		c-6.18,0-11.536,3.49-14.227,8.599c3.65,4.097,5.871,9.495,5.871,15.414c0,0.222-0.011,0.441-0.017,0.661h21.614h0.921v12.187
		h-65.592c-3.133,0-6.116,1.365-8.164,3.737c-2.056,2.364-2.992,5.515-2.54,8.617c5.983,41.256,41.503,72.954,84.42,72.954
		c42.915,0,78.436-31.697,84.419-72.954C484.673,327.693,483.083,323.726,479.8,321.314z"/>
</g>
<g>
</g>
<g>
</g>
<g>
</g>
<g>
</g>
<g>
</g>
<g>
</g>
<g>
</g>
<g>
</g>
<g>
</g>
<g>
</g>
<g>
</g>
<g>
</g>
<g>
</g>
<g>
</g>
<g>
</g>
</svg>
