<?xml version="1.0" encoding="iso-8859-1"?>
<!-- Generator: Adobe Illustrator 18.0.0, SVG Export Plug-In . SVG Version: 6.00 Build 0)  -->
<!DOCTYPE svg PUBLIC "-//W3C//DTD SVG 1.1//EN" "http://www.w3.org/Graphics/SVG/1.1/DTD/svg11.dtd">
<svg version="1.1" id="Capa_1" xmlns="http://www.w3.org/2000/svg" xmlns:xlink="http://www.w3.org/1999/xlink" x="0px" y="0px"
	 viewBox="0 0 488.484 488.484" style="enable-background:new 0 0 488.484 488.484;" xml:space="preserve">
<g>
	<path d="M95.491,173.753c18.852,0,34.116-17.487,34.116-39.043c0-21.566-15.265-39.051-34.116-39.051
		c-18.867,0-34.131,17.485-34.131,39.051C61.36,156.266,76.624,173.753,95.491,173.753z"/>
	<path d="M142.08,197.626c-2.761-6.648-9.394-10.329-16.153-9.908c-0.08-0.008-2.396-0.008-6.063-0.017v93.083h19.201h1.951h5.635
		l2.38,11.465h-3.269h-6.697h-4.792v36.029c0,6.038-4.888,10.924-10.917,10.924H67.657c-6.027,0-10.916-4.886-10.916-10.924v-36.029
		h-4.824h-6.712h-3.271l2.381-11.465h5.635h1.967h19.2v-93.083c-3.665,0.008-5.997,0.008-6.077,0.017
		c-6.792-0.413-13.408,3.261-16.153,9.908L6.946,299.025c-3.459,8.362,0.523,17.939,8.871,21.398
		c2.047,0.848,4.174,1.245,6.268,1.245c6.428,0,12.521-3.807,15.139-10.124l1.475-3.57l-9.902,47.644
		c-0.746,3.602,0.16,7.354,2.494,10.211c2.314,2.857,5.807,4.514,9.488,4.514h11.455v97.742c0,10.853,8.809,19.66,19.662,19.66
		s19.661-8.807,19.661-19.66v-97.742h7.87v98.48c0,10.854,8.807,19.661,19.661,19.661s19.659-8.807,19.659-19.661v-98.48h11.474
		c3.683,0,7.173-1.657,9.489-4.514c2.332-2.856,3.236-6.601,2.491-10.211l-9.854-47.454l1.396,3.379
		c2.618,6.316,8.711,10.124,15.139,10.124c2.094,0,4.221-0.396,6.269-1.245c8.347-3.46,12.329-13.037,8.87-21.398L142.08,197.626z"
		/>
	<path d="M82.178,215.986c0,2.992,2.428,5.411,5.411,5.411h15.805c2.984,0,5.412-2.419,5.412-5.411v-28.292
		c-8.348,0-18.281,0-26.628,0V215.986z"/>
	<path d="M217.011,169.897L475.376,63.604l0.285-0.119c-22.166-47.319-102.999-81.785-173.169-52.921
		c-70.17,28.873-103.334,110.237-85.783,159.46L217.011,169.897z"/>
	<path d="M480.899,77.037L222.532,183.33c3.967,9.647,13.282,15.471,23.088,15.471c3.174,0,6.38-0.603,9.49-1.88
		c9.52-3.919,15.327-13.067,15.456-22.755c4.665,4.577,10.98,7.164,17.518,7.164c3.142,0,6.363-0.603,9.457-1.88
		c9.554-3.919,15.329-13.043,15.473-22.731c4.649,4.569,10.965,7.156,17.501,7.156c3.144,0,6.363-0.603,9.474-1.88
		c9.523-3.919,15.314-13.051,15.456-22.739c4.649,4.578,10.965,7.164,17.518,7.164c3.157,0,6.362-0.603,9.474-1.88
		c9.521-3.927,15.328-13.067,15.456-22.741c4.648,4.571,10.964,7.15,17.501,7.15c3.159,0,6.38-0.603,9.49-1.88
		c9.506-3.92,15.313-13.053,15.44-22.741c4.665,4.579,10.981,7.166,17.517,7.166c3.176,0,6.38-0.603,9.49-1.882
		C480.058,104.378,486.15,89.786,480.899,77.037z"/>
	<path d="M257.475,354.35c-1.858,0-2.761,0.262-3.11,0.388c-1.285,2.397-1.143,7.054,1.189,11.917
		c2.65-4.475,5.459-8.22,8.283-11.496C261.616,354.699,259.409,354.35,257.475,354.35z"/>
	<path d="M301.207,381.817c-4.095-7.728-8.903-12.759-12.553-15.844c-3.696,3.102-8.521,8.132-12.63,15.932
		c3.617,0.919,7.744,1.531,12.63,1.531C293.21,383.436,297.335,382.778,301.207,381.817z"/>
	<path d="M319.917,354.262c-1.969,0-4.206,0.358-6.492,0.842c2.857,3.284,5.682,7.06,8.347,11.568
		c2.222-4.816,2.364-9.473,1.079-12.06C322.486,354.485,321.629,354.262,319.917,354.262z"/>
	<path d="M319.694,266.249c0.648-0.65,1.095-1.349,1.665-2.023c1.175-1.356,2.221-2.722,3.063-4.126
		c-2.793-0.858-5.3-1.238-7.521-1.405c-1.159,1.207-2.095,2.397-2.761,3.555l-0.017,0.024c0,0,0,0,0.017,0
		c-0.969,1.673-1.396,3.228-1.602,4.696c0.236,1.302,0.553,2.658,0.998,4.103C315.505,269.899,317.566,268.376,319.694,266.249z"/>
	<path d="M288.86,264.226c1.176-1.356,2.222-2.722,3.063-4.126c-2.793-0.858-5.301-1.238-7.521-1.405
		c-1.159,1.207-2.095,2.397-2.761,3.555l-0.016,0.024c0,0,0,0,0.016,0c-0.969,1.673-1.397,3.228-1.603,4.696
		c0.237,1.302,0.554,2.658,1,4.103c1.968-1.175,4.029-2.698,6.156-4.825C287.845,265.599,288.29,264.9,288.86,264.226z"/>
	<path d="M403.923,386.586V232.053l-28.865-71.32c-0.699,0.041-1.38,0.206-2.095,0.206c-3.046,0-6.077-0.355-9.013-1.054
		c-1.223,1.943-2.951,3.49-4.49,5.188l27.547,66.98h-17.074h-3.889c-2.411-2.571-5.331-4.442-8.537-5.284
		c-1.745-0.468-5.866-0.605-9.664,1.594c-1.182,0.685-2.38,1.596-3.586,2.818c-0.253,0.262-0.459,0.603-0.713,0.873h-4.078h-2.031
		h-3.889c-2.412-2.571-5.332-4.442-8.537-5.284c-1.746-0.468-4.316-0.361-6.584,0.239c-0.016,0.004-3.303,0.836-6.666,4.173
		c-0.258,0.256-0.459,0.603-0.713,0.873h-4.078h-2.031h-3.889c-2.412-2.571-5.332-4.442-8.537-5.284
		c-1.746-0.468-5.24-0.873-9.664,1.594c-1.193,0.666-2.381,1.596-3.586,2.818c-0.253,0.262-0.459,0.603-0.713,0.873h-4.078h-46.59
		h-15.9h-0.016v98.557h0.127v126.827c0,6.688,2.967,13.043,8.094,17.336c5.125,4.3,11.885,6.109,18.47,4.951l89.37-15.813
		c9.949,14.814,26.834,24.573,46.002,24.573c30.594,0,55.395-24.803,55.395-55.388C429.422,413.537,419.235,396.44,403.923,386.586z
		 M227.88,244.628h39.527h2.936h0.428c-0.633,1.42-1.142,2.697-1.522,3.698c-0.999,0.38-2.269,0.895-3.696,1.531
		c-0.049,0.024-0.112,0.055-0.159,0.08c-4.142,1.849-9.507,4.689-13.202,8.394c-1.333,1.333-2.301,2.65-3.047,3.919l-0.016,0.024
		c0,0,0,0,0.016,0c-2.095,3.625-2.064,6.895-1.476,9.234c1.618,6.553,7.489,11.972,15.327,14.17c2.65,0.746,5.364,1.032,8.078,1
		c-1.904-3.372-3.38-6.633-4.412-9.759c-0.412-0.08-0.825-0.166-1.143-0.253c-4.458-1.238-8.293-4.192-8.742-7.387
		c-0.066-0.468-0.115-2.611,2.473-4.801c0.998-0.843,6.793-4.482,7.857-5.013c-0.302,6.935,0.92,17.121,8.139,28.356
		c1.398,2.19,4.302,2.81,6.46,1.412c0.302-0.182,0.556-0.388,0.792-0.626c1.525-1.524,1.825-3.952,0.619-5.84
		c-6.219-9.704-7.028-18.313-6.695-23.636c0.079-1.318,0.223-2.389,0.38-3.27c4.444-0.785,14.837-1.404,26.898,6.332
		c1.873,1.206,4.301,0.889,5.84-0.627c0.237-0.23,0.443-0.492,0.619-0.793c1.396-2.166,0.793-5.07-1.397-6.475
		c-11.249-7.22-21.438-8.425-28.372-8.131c0.254-0.517,0.571-1.016,0.842-1.541h13.186c1.096,0.286,2.237,0.691,3.365,1.071
		c3.156,1.048,6.441,2.523,9.837,4.444c0.032-1.849-0.286-3.682-0.618-5.515h3.109c0.35,2.111,0.762,4.213,0.683,6.349
		c-0.015,0.292-0.142,0.586-0.157,0.88c1.332,0.928,2.204,2.213,2.744,3.633c5.363-0.206,13.568,0.762,22.818,6.704
		c1.873,1.206,4.301,0.889,5.84-0.627c0.237-0.23,0.443-0.492,0.619-0.793c1.396-2.166,0.793-5.07-1.397-6.475
		c-11.249-7.22-21.438-8.425-28.372-8.131c0.254-0.517,0.572-1.016,0.842-1.541h13.185c1.095,0.286,2.237,0.691,3.365,1.071
		c3.156,1.048,6.441,2.523,9.837,4.444c0.032-1.849-0.286-3.682-0.619-5.515h3.11c0.35,2.111,0.762,4.213,0.683,6.349
		c-0.015,0.292-0.142,0.586-0.157,0.88c1.332,0.928,2.204,2.213,2.744,3.633c5.363-0.206,13.568,0.762,22.818,6.704
		c1.873,1.206,4.301,0.889,5.84-0.627c0.237-0.23,0.443-0.492,0.619-0.793c1.396-2.166,0.793-5.07-1.397-6.475
		c-11.249-7.22-21.438-8.425-28.372-8.131c0.255-0.517,0.571-1.016,0.841-1.541h13.187c1.096,0.286,2.237,0.691,3.365,1.071
		c3.157,1.048,6.441,2.523,9.838,4.444c0.031-1.849-0.287-3.682-0.619-5.515h3.109h12.568v59.784H227.88V244.628z M332.294,397.051
		c-0.318,4.491-2.968,8.347-7.047,10.338c-0.889,0.437-1.714,0.977-2.73,1.199c-0.903,0.198-1.825,0.284-2.714,0.284
		c-3.221,0-6.173-1.3-8.473-3.388c-6.951,2.159-14.52,3.388-22.677,3.388c-8.14,0-15.71-1.236-22.643-3.419
		c-2.316,2.103-5.268,3.419-8.489,3.419c-0.903,0-1.825-0.086-2.727-0.284c-6.699-1.461-10.902-7.959-9.713-14.655
		c-4.412-3.848-8.204-8.307-11.107-13.48c-7.395-13.147-7.871-28.134-1.238-39.107c2.809-4.642,9.76-12.434,24.739-12.434
		c11.234,0,23.658,4.452,31.18,7.665c7.538-3.253,20.027-7.75,31.263-7.75c15.09,0,21.992,7.957,24.77,12.702
		c6.553,11.235,5.934,26.374-1.619,39.527c-2.855,4.968-6.538,9.267-10.807,12.988C332.419,395.058,332.373,396.059,332.294,397.051
		z M374.026,468.79c-19.677,0-35.688-16.01-35.688-35.694c0-19.686,16.011-35.696,35.688-35.696
		c19.693,0,35.703,16.01,35.703,35.696C409.73,452.78,393.72,468.79,374.026,468.79z"/>
	<path d="M374.026,420.362c-7.014,0-12.727,5.704-12.727,12.734c0,7.029,5.713,12.734,12.727,12.734
		c7.045,0,12.742-5.705,12.742-12.734C386.769,426.065,381.071,420.362,374.026,420.362z"/>
	<path d="M303.302,386.458c-4.522,1.222-9.33,2.064-14.647,2.064c-5.696,0-10.536-0.738-14.725-1.888
		c-1.556,3.641-2.983,7.593-3.999,12.234c-0.159,0.721-0.539,1.31-0.809,1.968c6.06,1.745,12.486,2.951,19.532,2.951
		c7.061,0,13.472-1.197,19.535-2.926c-0.271-0.667-0.651-1.263-0.81-1.992C306.349,394.147,304.889,390.148,303.302,386.458z"/>
	<path d="M340.274,344.09c-1.475-2.554-4.031-5.293-7.871-7.315c0.016-0.022,0.033-0.055,0.047-0.08
		c-0.649-0.341-1.506-0.539-2.235-0.824c-0.952-0.382-1.826-0.803-2.905-1.072c-2.158-0.539-4.569-0.887-7.393-0.887
		c-8.538,0-18.061,2.942-24.994,5.617c-2.459,0.952-4.634,1.872-6.269,2.609c-1.585-0.713-3.649-1.594-6.014-2.499
		c-0.079-0.032-0.19-0.063-0.27-0.096c-6.903-2.642-16.36-5.538-24.897-5.538c-3.079,0-5.697,0.382-7.998,0.999
		c-0.017,0.008-0.048,0-0.064,0.008c0,0,0,0.008,0.016,0.016c-6.585,1.77-10.299,5.586-12.346,8.95
		c-5.697,9.402-5.174,22.414,1.332,33.974c2.207,3.911,4.984,7.371,8.158,10.45c1.682-6.079,3.744-11.521,6.141-16.321
		c-0.365-0.563-0.746-1.15-1.016-1.618c-3.697-6.555-4.125-14.392-1.779-18.155c0.783-1.257,3.293-3.097,7.556-3.037
		c3.122,0.043,14.028,2.601,15.868,3.22c-8.33,7.648-18.661,20.779-23.295,42.035c-0.904,4.126,1.713,8.188,5.824,9.077
		c0.555,0.127,1.094,0.182,1.633,0.182c3.508,0,6.666-2.436,7.459-6.006c3.998-18.352,12.98-29.198,19.502-34.95
		c1.604-1.42,3.016-2.491,4.205-3.323c6.029,4.22,18.709,15.495,23.675,38.273c0.794,3.57,3.952,6.006,7.458,6.006
		c0.539,0,1.079-0.055,1.635-0.182c4.109-0.889,6.729-4.951,5.84-9.077c-4.648-21.286-14.996-34.417-23.327-42.066
		c1.825-0.619,3.745-1.111,5.667-1.62c3.568-0.928,7.125-1.665,10.299-1.665c1.379,0,2.474,0.119,3.363,0.31
		c0.555,0.11,0.919,0.276,1.316,0.435c1.634,0.627,2.285,1.468,2.507,1.857c2.81,4.808,2.127,12.496-1.683,19.137
		c-0.236,0.397-0.619,0.683-0.872,1.071c2.428,4.833,4.507,10.323,6.206,16.456c3.046-2.951,5.774-6.212,7.901-9.925
		C345.306,366.941,345.923,353.754,340.274,344.09z"/>
	<path d="M331.118,276.802c-0.158,0.159-0.237,0.333-0.397,0.492c-2.49,2.491-5.141,4.546-7.855,6.308
		c1.588,0.84,3.286,1.564,5.126,2.078c2.65,0.746,5.363,1.032,8.077,1c-1.904-3.372-3.38-6.633-4.412-9.759
		C331.468,276.881,331.294,276.84,331.118,276.802z"/>
	<path d="M359.841,261.202c-1.43,2.493-3.142,4.943-5.459,7.252c-2.477,2.477-4.887,4.254-7.205,5.579
		c0.906,2.262,1.999,4.593,3.57,7.046c0.238,0.38,0.333,0.801,0.509,1.206c3.396-1.872,6.696-4.133,9.759-7.197
		c3.062-3.061,5.332-6.371,7.203-9.751c-0.396-0.174-0.825-0.261-1.205-0.507C364.522,263.227,362.141,262.123,359.841,261.202z"/>
	<path d="M341.671,265.416c-0.904,0.365-1.842,0.531-2.809,0.556c-1.381,2.609-3.095,5.117-5.11,7.568
		c1.238,4.436,3.253,9.259,6.49,14.281c1.397,2.19,4.302,2.81,6.459,1.412c0.302-0.182,0.556-0.388,0.793-0.626
		c1.524-1.524,1.825-3.952,0.619-5.84C343.941,276.245,342.259,270.287,341.671,265.416z"/>
	<path d="M298.62,276.802c-0.158,0.159-0.237,0.333-0.396,0.492c-2.49,2.491-5.141,4.546-7.855,6.308
		c1.588,0.84,3.286,1.564,5.125,2.078c2.65,0.746,5.364,1.032,8.078,1c-1.904-3.372-3.38-6.633-4.412-9.759
		C298.97,276.881,298.796,276.84,298.62,276.802z"/>
	<path d="M335.72,265.336c-0.396-0.174-0.825-0.261-1.205-0.507c-2.491-1.602-4.871-2.706-7.172-3.627
		c-1.43,2.493-3.144,4.943-5.459,7.252c-2.477,2.477-4.888,4.254-7.205,5.579c0.905,2.262,1.999,4.593,3.57,7.046
		c0.239,0.38,0.334,0.801,0.509,1.206c3.396-1.872,6.696-4.133,9.759-7.197C331.579,272.026,333.849,268.716,335.72,265.336z"/>
	<path d="M309.172,265.416c-0.903,0.365-1.841,0.531-2.808,0.556c-1.381,2.609-3.096,5.117-5.11,7.568
		c1.238,4.436,3.253,9.259,6.49,14.281c1.397,2.19,4.302,2.81,6.46,1.412c0.301-0.182,0.555-0.388,0.792-0.626
		c1.524-1.524,1.825-3.952,0.618-5.84C311.442,276.245,309.761,270.287,309.172,265.416z"/>
	<path d="M303.222,265.336c-0.396-0.174-0.825-0.261-1.205-0.507c-2.491-1.602-4.871-2.706-7.172-3.627
		c-1.43,2.493-3.143,4.943-5.459,7.252c-2.477,2.477-4.887,4.254-7.205,5.579c0.905,2.262,1.999,4.593,3.57,7.046
		c0.238,0.38,0.333,0.801,0.508,1.206c3.396-1.872,6.697-4.133,9.76-7.197C299.08,272.026,301.351,268.716,303.222,265.336z"/>
</g>
<g>
</g>
<g>
</g>
<g>
</g>
<g>
</g>
<g>
</g>
<g>
</g>
<g>
</g>
<g>
</g>
<g>
</g>
<g>
</g>
<g>
</g>
<g>
</g>
<g>
</g>
<g>
</g>
<g>
</g>
</svg>
