<?xml version="1.0" encoding="iso-8859-1"?>
<!-- Generator: Adobe Illustrator 18.0.0, SVG Export Plug-In . SVG Version: 6.00 Build 0)  -->
<!DOCTYPE svg PUBLIC "-//W3C//DTD SVG 1.1//EN" "http://www.w3.org/Graphics/SVG/1.1/DTD/svg11.dtd">
<svg version="1.1" id="Capa_1" xmlns="http://www.w3.org/2000/svg" xmlns:xlink="http://www.w3.org/1999/xlink" x="0px" y="0px"
	 viewBox="0 0 490.412 490.412" style="enable-background:new 0 0 490.412 490.412;" xml:space="preserve">
<g>
	<path d="M241.388,188.568c17.994,0,32.577-16.701,32.577-37.282c0-20.589-14.583-37.282-32.577-37.282
		c-18.011,0-32.594,16.692-32.594,37.282C208.794,171.867,223.377,188.568,241.388,188.568z"/>
	<path d="M366.842,172.033c18.994,0,34.418-17.637,34.418-39.393c0-21.754-15.424-39.393-34.418-39.393
		c-19.042,0-34.449,17.639-34.449,39.393C332.393,154.396,347.8,172.033,366.842,172.033z"/>
	<path d="M488.678,358.184c-1.999-3.094-5.428-4.96-9.108-4.96h-34.085v-33.258c6.03-4.167,8.95-11.782,6.332-18.995l-6.666-18.423
		c14.425-0.421,26.04-12.218,26.04-26.746V27.665c0-14.79-12.028-26.825-26.815-26.825H26.817C12.027,0.84,0,12.875,0,27.665
		v228.137c0,14.79,12.027,26.826,26.817,26.826H154.81l13.235-31.959H31.959V32.798h407.274v217.871H433.6l-19.502-53.857
		c-2.684-7.465-9.238-10.417-17.773-10.417h-37.83h-19.738c-7.891,0-13.378,0.944-17.313,6.721l-32.069,46.955l-27.801-3.349
		c-9.269-1.063-17.297,5.38-18.392,14.433c-1.095,9.061,5.363,17.295,14.424,18.382l37.766,4.555
		c0.668,0.08,1.335,0.119,1.984,0.119c5.411,0,10.552-2.665,13.647-7.203l6.537-9.561l5.284,12.789v0.579l0.047,30.491l-8.68-20.945
		c-4.855,3.601-10.679,5.759-16.836,5.759c-1.126,0-2.269-0.063-3.412-0.206l-37.767-4.553
		c-15.582-1.88-26.705-16.042-24.816-31.634c1.889-15.591,15.852-26.817,31.641-24.825l20.613,2.483l5.395-7.902l-3.142-7.601
		c-2.46-5.919-8.141-9.109-14.124-9.196h-60.6c-6.045,0.031-11.775,3.229-14.249,9.196l-40.053,96.804
		c-3.3,7.99,0.509,17.129,8.474,20.43c1.951,0.817,3.982,1.191,5.982,1.191c6.142,0,11.965-3.635,14.456-9.663l1.413-3.412
		l-9.458,45.494c-0.714,3.435,0.159,7.021,2.38,9.743c2.207,2.73,5.538,4.316,9.061,4.316h10.934v93.314
		c0,10.362,8.412,18.772,18.773,18.772c10.36,0,18.771-8.411,18.771-18.772v-93.314h7.521v94.02c0,10.362,8.41,18.771,18.771,18.771
		c10.362,0,18.773-8.409,18.773-18.771v-94.02h10.948c3.507,0,6.839-1.586,9.06-4.316c2.222-2.722,3.095-6.3,2.381-9.743
		l-9.409-45.313l1.333,3.23c2.49,6.028,8.315,9.663,14.456,9.663c1.999,0,4.03-0.374,5.981-1.191
		c2.174-0.903,3.968-2.292,5.46-3.927l0.206,144.552c0,10.958,8.885,19.835,19.835,19.835c10.949,0,19.835-8.877,19.835-19.835
		V357.779h7.918v111.958c0,10.958,8.887,19.835,19.836,19.835c10.948,0,19.835-8.877,19.835-19.835v-44.462h46.493
		c4.253,0,8.125-2.499,9.87-6.388l22.725-50.357C490.962,365.174,490.678,361.278,488.678,358.184z M429.234,353.224h-18.866
		l0.333-68.74l10.045,27.737c1.539,4.252,4.713,7.315,8.488,9.124V353.224z"/>
	<path d="M71.058,210.459c3.031,0,6.046-1.15,8.363-3.46l100.843-100.843c4.617-4.616,4.617-12.107,0-16.724
		c-4.635-4.618-12.093-4.618-16.725,0L62.695,190.274c-4.617,4.618-4.617,12.107,0,16.725
		C65.013,209.308,68.027,210.459,71.058,210.459z"/>
	<path d="M117.979,110.163c0-18.597-15.138-33.728-33.735-33.728c-18.598,0-33.719,15.131-33.719,33.728
		c0,18.591,15.121,33.72,33.719,33.72C102.842,143.883,117.979,128.754,117.979,110.163z M66.773,110.163
		c0-9.639,7.839-17.479,17.471-17.479c9.648,0,17.486,7.84,17.486,17.479c0,9.633-7.838,17.471-17.486,17.471
		C74.612,127.634,66.773,119.796,66.773,110.163z"/>
	<path d="M156.953,219.544c18.597,0,33.736-15.131,33.736-33.728c0-18.591-15.14-33.72-33.736-33.72
		c-18.598,0-33.721,15.129-33.721,33.72C123.232,204.412,138.355,219.544,156.953,219.544z M156.953,168.345
		c9.646,0,17.487,7.838,17.487,17.471c0,9.64-7.841,17.479-17.487,17.479c-9.633,0-17.471-7.839-17.471-17.479
		C139.482,176.183,147.32,168.345,156.953,168.345z"/>
</g>
<g>
</g>
<g>
</g>
<g>
</g>
<g>
</g>
<g>
</g>
<g>
</g>
<g>
</g>
<g>
</g>
<g>
</g>
<g>
</g>
<g>
</g>
<g>
</g>
<g>
</g>
<g>
</g>
<g>
</g>
</svg>
