<?xml version="1.0" encoding="iso-8859-1"?>
<!-- Generator: Adobe Illustrator 18.0.0, SVG Export Plug-In . SVG Version: 6.00 Build 0)  -->
<!DOCTYPE svg PUBLIC "-//W3C//DTD SVG 1.1//EN" "http://www.w3.org/Graphics/SVG/1.1/DTD/svg11.dtd">
<svg version="1.1" id="Capa_1" xmlns="http://www.w3.org/2000/svg" xmlns:xlink="http://www.w3.org/1999/xlink" x="0px" y="0px"
	 viewBox="0 0 487.481 487.481" style="enable-background:new 0 0 487.481 487.481;" xml:space="preserve">
<g>
	<path d="M146.673,97.047c23.373,0,42.321-21.676,42.321-48.406c0-26.738-18.948-48.414-42.321-48.414
		c-23.366,0-42.313,21.676-42.313,48.414C104.36,75.371,123.307,97.047,146.673,97.047z"/>
	<path d="M176.909,114.43v115.315h33.213l-9.172-44.153l56.293,69.622c4.014,4.957,9.886,7.537,15.812,7.537
		c4.483,0,8.997-1.476,12.759-4.514c8.719-7.054,10.076-19.843,3.022-28.571l-87.355-108.031
		c-4.197-5.181-10.409-7.411-16.599-7.172C184.756,114.446,181.678,114.439,176.909,114.43z"/>
	<path d="M194.769,243.963v44.684c0,7.481-6.061,13.544-13.543,13.544h-69.051c-7.481,0-13.543-6.063-13.543-13.544v-44.684h-18.36
		l-16.32,78.563c-0.928,4.467,0.206,9.117,3.087,12.663c2.879,3.539,7.203,5.595,11.774,5.595h14.242v121.185
		c0,13.464,10.908,24.374,24.374,24.374c13.464,0,24.374-10.91,24.374-24.374V340.783h9.751V462.88
		c0,13.464,10.908,24.374,24.374,24.374c13.464,0,24.373-10.91,24.373-24.374V340.783h14.241c4.57,0,8.895-2.056,11.774-5.595
		c2.881-3.545,4.015-8.196,3.087-12.663l-16.321-78.563H194.769z"/>
	<path d="M130.193,149.412c0,3.706,3,6.704,6.705,6.704h19.598c3.705,0,6.704-2.998,6.704-6.704v-34.997
		c-10.37-0.008-22.628-0.008-33.007,0V149.412z"/>
	<path d="M83.232,229.745h33.252V114.43c-4.794,0.008-7.896,0.016-8.022,0.032c-6.189-0.238-12.393,1.991-16.59,7.172L4.517,229.666
		c-7.052,8.728-5.697,21.517,3.024,28.571c3.76,3.039,8.274,4.514,12.757,4.514c5.928,0,11.798-2.579,15.813-7.537l56.292-69.622
		L83.232,229.745z"/>
	<path d="M484.332,280.658c-2.871-3.737-7.315-5.927-12.028-5.927l-224.393-0.484c-8.337,0-15.099,6.761-15.099,15.099
		c0,8.339,6.761,15.099,15.099,15.099h29.388l38.275,112.816c2.983,9.085,10.188,15.789,18.994,18.455
		c-2.951,3.205-4.847,7.402-4.847,12.099c0,9.941,8.053,18.002,18.002,18.002c9.941,0,18.002-8.061,18.002-18.002
		c0-4.125-1.627-7.744-3.95-10.775h32.292c-2.325,3.031-3.952,6.649-3.952,10.775c0,9.941,8.053,18.002,18.002,18.002
		c9.941,0,18.002-8.061,18.002-18.002c0-4.125-1.626-7.744-3.95-10.775h6.625c7.505,0,13.59-6.085,13.59-13.59
		c0-7.505-6.085-13.592-13.59-13.592h-85.902c-0.683,0-1.287-0.435-1.5-1.085l-6.682-20.328h115.458
		c6.878,0,12.9-4.626,14.669-11.284l22.136-83.362C488.181,289.243,487.204,284.388,484.332,280.658z"/>
</g>
<g>
</g>
<g>
</g>
<g>
</g>
<g>
</g>
<g>
</g>
<g>
</g>
<g>
</g>
<g>
</g>
<g>
</g>
<g>
</g>
<g>
</g>
<g>
</g>
<g>
</g>
<g>
</g>
<g>
</g>
</svg>
