<?xml version="1.0" encoding="iso-8859-1"?>
<!-- Generator: Adobe Illustrator 18.0.0, SVG Export Plug-In . SVG Version: 6.00 Build 0)  -->
<!DOCTYPE svg PUBLIC "-//W3C//DTD SVG 1.1//EN" "http://www.w3.org/Graphics/SVG/1.1/DTD/svg11.dtd">
<svg version="1.1" id="Capa_1" xmlns="http://www.w3.org/2000/svg" xmlns:xlink="http://www.w3.org/1999/xlink" x="0px" y="0px"
	 viewBox="0 0 479.437 479.437" style="enable-background:new 0 0 479.437 479.437;" xml:space="preserve">
<g>
	<g>
		<path d="M410.328,12.438c-1.261-2.951-4.156-4.855-7.354-4.855c-117.25,0-209.842,0-326.448,0c-3.214,0-6.102,1.904-7.362,4.855
			L5.474,161.218l-5.003,12.486c-0.346,0.862-0.521,1.79-0.459,2.717c1.162,17.355,15.123,33.584,32.653,33.584
			c10.519,0,19.794-5.022,25.888-12.687c1.667,2.103,3.556,3.99,5.673,5.633c5.617,4.356,12.568,7.054,20.192,7.054
			c10.529,0,19.813-5.022,25.898-12.687c1.665,2.103,3.562,3.99,5.672,5.633c5.626,4.356,12.575,7.054,20.216,7.054
			c10.521,0,19.804-5.022,25.881-12.687c1.674,2.094,3.562,3.982,5.681,5.633c5.609,4.356,12.575,7.054,20.201,7.054
			c10.528,0,19.811-5.022,25.888-12.687c1.668,2.094,3.556,3.982,5.697,5.633c5.595,4.356,12.553,7.054,20.201,7.054
			c7.632,0,14.575-2.697,20.185-7.054c2.125-1.643,4.021-3.539,5.688-5.633c6.086,7.665,15.368,12.687,25.88,12.687
			c7.648,0,14.6-2.697,20.209-7.054c2.127-1.643,4.023-3.539,5.688-5.633c6.077,7.665,15.36,12.687,25.882,12.687
			c7.632,0,14.598-2.697,20.199-7.054c2.127-1.643,4.015-3.539,5.688-5.633c6.079,7.665,15.369,12.687,25.874,12.687
			c7.64,0,14.591-2.697,20.217-7.054c2.109-1.643,4.006-3.531,5.673-5.633c6.085,7.665,15.368,12.687,25.896,12.687
			c17.213,0,30.988-15.674,32.567-32.688c0.132-1.43-0.089-2.871-0.622-4.205l-4.754-11.895L410.328,12.438z M32.665,193.994
			c-6.569,0-12.307-3.729-15.178-9.163h30.355C44.954,190.265,39.241,193.994,32.665,193.994z M54.554,160.813l-2.57,7.998h-0.729
			H19.629l3.435-7.998L81.801,23.602h16.82L54.554,160.813z M84.418,193.994c-4.919,0-9.347-2.086-12.487-5.419
			c-1.048-1.126-1.96-2.38-2.683-3.744h3.784h26.572C96.724,190.265,91.004,193.994,84.418,193.994z M104.834,160.813l-1.714,7.998
			h-0.096h-31.64h-1.143l0.364-1.158l2.207-6.839L116.87,23.602h17.344L104.834,160.813z M136.204,193.994
			c-4.927,0-9.377-2.086-12.512-5.427c-1.046-1.126-1.959-2.373-2.672-3.736h3.784h26.579
			C148.503,190.265,142.774,193.994,136.204,193.994z M155.032,160.813l-0.856,7.998h-28.571h-4.673l1.706-7.998l29.38-137.212h17.7
			L155.032,160.813z M187.967,193.994c-4.912,0-9.371-2.086-12.497-5.427c-1.047-1.126-1.951-2.38-2.673-3.736h3.768h26.581
			C200.264,190.265,194.545,193.994,187.967,193.994z M205.136,160.813v7.998h-27.753h-5.656l0.856-7.998l14.678-137.212h17.876
			V160.813z M252.241,188.567c-3.125,3.341-7.569,5.427-12.487,5.427c-4.927,0-9.379-2.086-12.512-5.427
			c-1.048-1.126-1.945-2.38-2.666-3.736h3.768h22.788h3.793C254.2,186.194,253.297,187.449,252.241,188.567z M256.907,160.813v7.998
			h-6.578h-21.177h-6.57v-7.998V23.602h34.325V160.813z M304.012,188.567c-3.126,3.341-7.577,5.427-12.505,5.427
			c-6.576,0-12.289-3.729-15.177-9.163h26.595h3.76C305.963,186.187,305.066,187.441,304.012,188.567z M302.107,168.811h-27.753
			v-7.998V23.602h17.884l14.678,137.212l0.864,7.998H302.107z M355.781,188.567c-3.126,3.341-7.569,5.427-12.496,5.427
			c-6.578,0-12.291-3.729-15.179-9.163h26.579h3.777C357.732,186.194,356.837,187.441,355.781,188.567z M353.869,168.811h-28.563
			l-0.848-7.998L309.764,23.602h17.699l29.374,137.212l1.713,7.998H353.869z M376.362,168.811l-1.721-7.998L345.268,23.602h17.336
			l44.074,137.212l2.198,6.839l0.366,1.158h-1.144h-31.632H376.362z M407.559,188.567c-3.133,3.341-7.585,5.427-12.512,5.427
			c-6.569,0-12.281-3.729-15.178-9.163h26.588h3.777C409.518,186.194,408.607,187.441,407.559,188.567z M427.498,168.811
			l-2.579-7.998L380.862,23.602h16.819l58.745,137.212l3.427,7.998h-31.617H427.498z M446.832,193.994
			c-6.577,0-12.305-3.729-15.178-9.163h30.357C459.123,190.265,453.402,193.994,446.832,193.994z"/>
	</g>
	<path d="M450.506,442.975h-3.682V218.01c-9.854,0-18.787-3.625-25.888-9.41c-7.086,5.793-16.035,9.41-25.89,9.41
		c-9.853,0-18.787-3.617-25.874-9.41c-7.093,5.793-16.034,9.41-25.888,9.41c-9.855,0-18.789-3.617-25.882-9.416
		c-7.101,5.799-16.042,9.416-25.897,9.416c-9.845,0-18.779-3.617-25.88-9.41c-7.101,5.793-16.028,9.41-25.873,9.41
		c-9.855,0-18.789-3.625-25.898-9.416c-7.092,5.791-16.026,9.416-25.888,9.416c-9.855,0-18.789-3.625-25.881-9.416
		c-7.092,5.791-16.027,9.416-25.881,9.416c-9.846,0-18.795-3.617-25.888-9.41c-7.101,5.793-16.043,9.41-25.898,9.41
		c-9.845,0-18.772-3.617-25.865-9.41c-7.101,5.793-16.042,9.41-25.888,9.41v224.965h-3.691c-7.974,0-14.448,6.465-14.448,14.432
		c0,7.99,6.475,14.447,14.448,14.447h421.531c7.981,0,14.449-6.458,14.449-14.447C464.955,449.44,458.488,442.975,450.506,442.975z
		 M325.663,312.039h39.987v36.369h-29.482c-5.808,0-10.505-4.696-10.505-10.503V312.039z M381.662,312.039h39.987v25.865
		c0,5.808-4.69,10.503-10.505,10.503h-29.483V312.039z M411.145,259.656c5.815,0,10.505,4.698,10.505,10.497v25.874h-39.987v-36.371
		H411.145z M325.663,270.153c0-5.799,4.697-10.497,10.505-10.497h29.482v36.371h-39.987V270.153z M57.831,312.039h39.988v36.369
		H68.337c-5.809,0-10.505-4.696-10.505-10.503V312.039z M113.839,312.039h39.995v25.865c0,5.808-4.712,10.503-10.505,10.503h-29.49
		V312.039z M143.329,259.656c5.793,0,10.505,4.698,10.505,10.497v25.874h-39.995v-36.371H143.329z M57.831,270.153
		c0-5.799,4.696-10.497,10.505-10.497h29.482v36.371H57.831V270.153z M179.645,442.975v-189.57c0-7.967,6.465-14.432,14.438-14.432
		h91.323c7.965,0,14.431,6.465,14.431,14.432v189.57H179.645z"/>
	<path d="M287.477,323.868l-2.213-23.525c-0.16-1.633-0.96-3.149-2.229-4.204c-1.279-1.056-2.904-1.557-4.555-1.397l-13.122,1.238
		l-21.352-21.343c-1.563-1.555-4.102-1.555-5.665,0l-26.357,26.386l-11.496,1.075c-1.643,0.166-3.159,0.959-4.206,2.236
		c-1.063,1.271-1.555,2.906-1.403,4.547l2.221,23.509c0.333,3.427,3.355,5.942,6.784,5.618l77.984-7.363
		C285.286,330.327,287.809,327.295,287.477,323.868z M224.506,299.716l16.667-16.589l13.821,13.828L224.506,299.716z"/>
</g>
<g>
</g>
<g>
</g>
<g>
</g>
<g>
</g>
<g>
</g>
<g>
</g>
<g>
</g>
<g>
</g>
<g>
</g>
<g>
</g>
<g>
</g>
<g>
</g>
<g>
</g>
<g>
</g>
<g>
</g>
</svg>
