<?xml version="1.0" encoding="iso-8859-1"?>
<!-- Generator: Adobe Illustrator 18.0.0, SVG Export Plug-In . SVG Version: 6.00 Build 0)  -->
<!DOCTYPE svg PUBLIC "-//W3C//DTD SVG 1.1//EN" "http://www.w3.org/Graphics/SVG/1.1/DTD/svg11.dtd">
<svg version="1.1" id="Capa_1" xmlns="http://www.w3.org/2000/svg" xmlns:xlink="http://www.w3.org/1999/xlink" x="0px" y="0px"
	 viewBox="0 0 486.996 486.996" style="enable-background:new 0 0 486.996 486.996;" xml:space="preserve">
<g>
	<path d="M472.636,122.157h-58.094c-6.633-1.372-13.664,1.285-17.408,7.395l-11.457,18.654c6.253,2.855,11.393,7.655,14.139,14.265
		l41.94,101.397c6.013,14.543-0.921,31.284-15.473,37.314c-3.094,1.286-6.347,2.007-9.696,2.15l4.016,19.32
		c1.492,7.244-0.316,14.669-4.966,20.358c-4.063,5.015-9.886,8.022-16.218,8.735V405.5c0,10.957,8.887,19.836,19.834,19.836
		c10.949,0,19.836-8.879,19.836-19.836V293.542h7.918V405.5c0,10.957,8.887,19.836,19.836,19.836s19.835-8.879,19.835-19.836
		l0.318-268.982C486.996,128.583,480.567,122.157,472.636,122.157z"/>
	<path d="M442.944,107.796c19.043,0,34.45-17.637,34.45-39.393c0-21.754-15.407-39.393-34.45-39.393
		c-18.993,0-34.416,17.638-34.416,39.393C408.528,90.16,423.951,107.796,442.944,107.796z"/>
	<path d="M376.077,104.21c0-21.564-15.266-39.051-34.117-39.051c-18.868,0-34.133,17.487-34.133,39.051
		c0,21.558,15.265,39.045,34.133,39.045C360.811,143.255,376.077,125.767,376.077,104.21z"/>
	<path d="M400.212,281.045c2.619,6.316,8.713,10.124,15.139,10.124c2.095,0,4.221-0.396,6.268-1.246
		c8.348-3.46,12.33-13.035,8.87-21.398L388.55,167.128c-2.57-6.196-8.522-9.537-14.79-9.624h-63.472
		c-6.333,0.032-12.347,3.379-14.934,9.624l-41.938,101.397c-3.46,8.363,0.523,17.939,8.87,21.398
		c2.046,0.85,4.173,1.246,6.268,1.246c6.426,0,12.52-3.809,15.138-10.124l1.478-3.57l-9.902,47.646
		c-0.746,3.601,0.157,7.354,2.49,10.211c2.317,2.855,5.808,4.514,9.49,4.514h11.457v97.74c0,10.854,8.807,19.661,19.659,19.661
		c10.854,0,19.661-8.807,19.661-19.661v-97.74h7.871v98.478c0,10.854,8.807,19.662,19.66,19.662
		c10.855,0,19.661-8.807,19.661-19.662v-98.478h11.472c3.683,0,7.173-1.659,9.49-4.514c2.333-2.857,3.236-6.602,2.49-10.211
		l-9.854-47.455L400.212,281.045z"/>
</g>
<g>
	<path d="M102.223,140.445c19.041,0,34.449-17.637,34.449-39.393c0-21.755-15.408-39.393-34.449-39.393
		c-18.995,0-34.419,17.637-34.419,39.393C67.804,122.808,83.228,140.445,102.223,140.445z"/>
	<path d="M77.675,154.806h-3.856c-8.417,0-13.662,1.302-17.407,7.395L2.442,250.11c-4.775,7.783-2.331,17.955,5.444,22.732
		c2.697,1.657,5.681,2.451,8.633,2.451c5.553,0,10.979-2.808,14.106-7.886l27.736-45.185v26.214h19.313V154.806z"/>
	<path d="M94.289,188.518h15.947c3.016,0,5.459-2.443,5.459-5.458v-28.254H88.829v28.254
		C88.829,186.075,91.273,188.518,94.289,188.518z"/>
	<path d="M213.46,205.577v-19.748h6.775c2.809,0,5.078-2.27,5.078-5.078v-33.847c0-9.91-8.03-17.947-17.947-17.947
		c-9.918,0-17.947,8.037-17.947,17.947v33.847c0,2.808,2.268,5.078,5.078,5.078h6.775v20.05l-21.582,2.601l-32.068-46.953
		c-3.936-5.784-8.365-6.721-17.313-6.721h-3.459v93.63h19.422v-30.285l11.791,17.265c3.094,4.538,8.219,7.205,13.645,7.205
		c0.651,0,1.318-0.039,1.984-0.119l37.766-4.555c9.062-1.095,15.52-9.322,14.425-18.382
		C225.044,212.551,219.98,207.164,213.46,205.577z"/>
	<path d="M131.689,289.155c0,4.569-3.696,8.274-8.266,8.274H81.229c-4.57,0-8.268-3.705-8.268-8.274v-29.151h-14.6l0.335,178.145
		c0,10.957,8.885,19.836,19.835,19.836c10.949,0,19.836-8.879,19.836-19.836V326.192h7.918v111.957
		c0,10.957,8.885,19.836,19.835,19.836c10.948,0,19.835-8.879,19.835-19.836l0.316-178.145h-14.583V289.155z"/>
</g>
<g>
</g>
<g>
</g>
<g>
</g>
<g>
</g>
<g>
</g>
<g>
</g>
<g>
</g>
<g>
</g>
<g>
</g>
<g>
</g>
<g>
</g>
<g>
</g>
<g>
</g>
<g>
</g>
<g>
</g>
</svg>
