<?xml version="1.0" encoding="iso-8859-1"?>
<!-- Generator: Adobe Illustrator 18.0.0, SVG Export Plug-In . SVG Version: 6.00 Build 0)  -->
<!DOCTYPE svg PUBLIC "-//W3C//DTD SVG 1.1//EN" "http://www.w3.org/Graphics/SVG/1.1/DTD/svg11.dtd">
<svg version="1.1" id="Capa_1" xmlns="http://www.w3.org/2000/svg" xmlns:xlink="http://www.w3.org/1999/xlink" x="0px" y="0px"
	 viewBox="0 0 487.853 487.853" style="enable-background:new 0 0 487.853 487.853;" xml:space="preserve">
<g>
	<path d="M91.329,203.022c0,3.102,2.507,5.618,5.611,5.618h16.398c3.102,0,5.609-2.516,5.609-5.618v-29.046H91.329V203.022z"/>
	<path d="M135.397,299.93v12.193c0,4.698-3.809,8.506-8.506,8.506h-17.614h-8.147H83.523c-4.698,0-8.506-3.809-8.506-8.506v-12.963
		v-17.011H59.998l0.341,182.397c0,11.275,9.132,20.399,20.399,20.399c11.265,0,20.391-9.124,20.391-20.399V350.199h8.147v115.124
		c0,11.257,9.132,20.391,20.391,20.391c11.275,0,20.399-9.134,20.399-20.391l0.333-183.176h-15.003V299.93z"/>
	<path d="M59.998,270.256h19.867V210.94v-35.506v-1.459h-3.976c-8.302,0-14.042,1.332-17.89,7.609L2.515,271.97
		c-4.911,8.004-2.412,18.47,5.586,23.381c2.777,1.698,5.838,2.515,8.878,2.515c5.711,0,11.282-2.887,14.494-8.108l28.524-46.47
		V270.256z"/>
	<path d="M105.104,159.21c19.574,0,35.418-18.129,35.418-40.504c0-22.373-15.844-40.502-35.418-40.502
		c-19.535,0-35.394,18.129-35.394,40.502C69.71,141.08,85.569,159.21,105.104,159.21z"/>
	<path d="M178.582,264.154l38.829-4.69c9.322-1.118,15.963-9.583,14.837-18.899c-1.118-9.33-9.696-15.93-18.899-14.843
		l-28.587,3.443l-32.981-48.279c-4.047-5.935-9.916-6.911-17.789-6.911h-3.57v1.508v34.395v60.378H150.4v-31.141l12.115,17.757
		c3.189,4.657,8.466,7.401,14.028,7.401C177.217,264.273,177.907,264.234,178.582,264.154z"/>
	<path d="M232.526,142.429h175.043c11.329,0,20.516-9.188,20.516-20.518V51.235c0-10.648-8.202-19.105-18.581-20.129V2.138h-16.249
		v28.579H246.823V2.138h-16.249v28.976c-10.37,1.024-18.566,9.482-18.566,20.121v70.677
		C212.008,133.242,221.195,142.429,232.526,142.429z"/>
	<path d="M486.703,334.426l-18.423-38.608c-4.229-8.838-13.155-14.471-22.961-14.471h-10.505
		c6.793,7.91,10.679,16.678,10.679,24.968c0,22.311-24.539,22.311-37.711,22.311c-3.078,0-6.323-0.049-9.694-0.112
		c-3.555-0.064-7.26-0.118-11.06-0.118c-3.793,0-7.489,0.055-11.037,0.118c-3.357,0.057-6.602,0.112-9.679,0.112
		c-11.846,0-32.705-0.159-36.863-16.337c-2.706-1.126-5.474-2.301-8.402-3.665c-5.624,13.568-24.801,13.711-35.964,13.711
		c-3.071,0-6.324-0.049-9.688-0.104c-3.563-0.056-7.26-0.11-11.06-0.11c-3.801,0-7.505,0.055-11.061,0.11
		c-3.372,0.055-6.625,0.104-9.694,0.104c-13.172,0-37.711,0-37.711-22.295c0-6.077,2.109-12.457,6.022-18.693h-2.532
		c-9.79,0-18.724,5.633-22.945,14.471l-18.431,38.608c-1.745,3.665-1.492,7.973,0.666,11.41c2.174,3.435,5.951,5.513,10.013,5.513
		h24.78v123.582c0,5.951,4.823,10.783,10.781,10.783c5.959,0,10.783-4.833,10.783-10.783V351.35h204.668v123.582
		c0,5.951,4.832,10.783,10.791,10.783c5.95,0,10.781-4.833,10.781-10.783V351.35h24.778c4.062,0,7.848-2.078,10.006-5.513
		C488.194,342.4,488.448,338.092,486.703,334.426z"/>
	<path d="M228.551,274.69c-2.452,2.094-4.571,4.332-6.451,6.657c-4.919,6.077-7.879,12.702-7.879,18.693
		c0,12.297,12.044,13.94,29.357,13.94c6.322,0,13.345-0.214,20.755-0.214c7.395,0,14.424,0.214,20.748,0.214
		c14.574,0,25.293-1.246,28.373-8.934c-0.239-0.11-0.461-0.223-0.706-0.333l-2.546-1.222l-1.357-0.65l-4.054-1.929
		c-3.913-1.809-7.673-3.482-11.306-5.094l-1.365-0.602l-1.659-0.754c-8.219-3.68-15.972-7.473-21.732-12.06
		c-0.809,6.467-1.999,11.157-1.999,11.157c-0.175-6.633-1.722-12.179-3.762-16.995c-0.102-0.143-0.286-0.262-0.388-0.413
		c-1.167-1.714-1.943-3.5-2.54-5.325c-1.999-3.331-4.141-6.275-6.196-8.466c-6.141,1.238-11.846,3.508-16.923,6.443
		c5.887,9.283,5.625,25.048,5.625,25.048C239.794,283.664,233.39,277.841,228.551,274.69z"/>
	<path d="M387.027,320.043c7.403,0,14.432,0.229,20.755,0.229c17.314,0,29.357-1.649,29.357-13.956
		c0-8.155-5.355-17.494-13.956-24.968c-0.46-0.397-0.905-0.793-1.374-1.175c-1.118,9.332-5.768,18.621-5.768,18.621
		c2.325-12.352-2.65-21.398-5.895-25.793c-0.095-0.047-0.207-0.063-0.309-0.11c-3.046,0.413-6.054,0.833-9.354,1.23l-8.268,1.038
		l-0.079,0.008c0.476,12.401-2.705,24.667-2.705,24.667c-0.262-9.814-3.355-17.399-7.005-23.287
		c-1.412,0.215-2.928,0.421-4.308,0.642l-1.722,0.263l-1.04,0.149c-2.84,0.429-5.109,0.715-7.426,1.016
		c1.158,4.332,1.864,8.689,1.849,12.941c-0.033,5.554-0.905,10.108-2.667,13.885c-3.547,7.673-10.084,11.893-18.407,11.893
		c-1.88,0-3.911-0.262-6.054-0.689c5.174,2.983,13.457,3.625,23.661,3.625C372.633,320.272,379.631,320.043,387.027,320.043z"/>
	<path d="M336.931,306.364c4.411,1.618,8.37,2.618,11.773,2.618c4.8,0,8.49-1.992,10.83-7.045c1.388-2.983,1.864-6.609,1.889-10.45
		c0.016-3.8-0.793-7.869-2.015-12.011c-0.674,0.047-1.484,0.15-2.119,0.182c-1.063,0.047-2.111,0.08-3.119,0.08
		c-1.293,0-2.452-0.119-3.641-0.207c-3.658,3.944-6.974,6.713-6.974,6.713c1.706-2.373,2.84-4.737,3.746-7.062
		c-14.267-2.158-17.845-11.854-18.63-17.598c-0.008-0.088,0.008-0.19,0-0.278c-4.53,8.386-9.696,14.71-9.696,14.71
		c5.934-13.758,4.015-25.89,1.412-33.736c-4.308-1.023-8.617-1.499-12.853-1.499c-1.753,0-3.49,0.087-5.213,0.239
		c1.445,10.901-5.427,25.095-5.427,25.095c1.802-10.401-1.564-18.376-4.649-23.262c-11.188,3.118-20.16,9.457-23.636,16.962
		c-0.118,0.23-0.079,0.42-0.174,0.658c-1.738,4.214-1.152,7.761,1.039,10.958c3.897,5.689,13.004,10.297,24.406,15.415
		c0.523,0.237,1.071,0.476,1.603,0.713c4.101,1.833,8.361,3.713,12.822,5.776c1.888,0.881,3.672,1.737,5.49,2.61
		C322.443,300.087,330.218,303.904,336.931,306.364z"/>
	<path d="M417.477,222.96c0.175,9.403-3.157,19.224-3.157,19.224c0.628-12.551-5.562-20.827-9.371-24.729
		c-5.149-1.618-10.631-2.499-16.336-2.499c-0.967,0-1.919,0.023-2.888,0.071c4.571,13.86,2.38,31.831,2.38,31.831
		c-2.452-14.772-10.615-23.953-17.05-29.133c-5.911,2.054-11.242,5.086-15.869,8.695c7.101,8.386,9.005,24.048,9.005,24.048
		c-4.126-9.727-11.266-14.622-16.502-17.066c-4.745,5.325-7.943,11.179-9.577,16.844c-1.03,3.555-1.594,7.046-1.159,10.212
		c0.977,7.03,5.586,9.878,12.489,10.663c1.475,0.175,3.055,0.261,4.728,0.261c0.889,0,1.794-0.023,2.714-0.071
		c5.07-0.253,10.846-0.991,17.209-1.968c0.911-0.135,1.786-0.253,2.722-0.405c3.752-0.578,7.616-1.173,11.662-1.729
		c0.93-0.135,1.786-0.231,2.691-0.341c26.149-3.427,47.287-4.015,45.073-20.105C435.067,238.258,427.863,229.259,417.477,222.96z"/>
</g>
<g>
</g>
<g>
</g>
<g>
</g>
<g>
</g>
<g>
</g>
<g>
</g>
<g>
</g>
<g>
</g>
<g>
</g>
<g>
</g>
<g>
</g>
<g>
</g>
<g>
</g>
<g>
</g>
<g>
</g>
</svg>
