<?xml version="1.0" encoding="iso-8859-1"?>
<!-- Generator: Adobe Illustrator 18.0.0, SVG Export Plug-In . SVG Version: 6.00 Build 0)  -->
<!DOCTYPE svg PUBLIC "-//W3C//DTD SVG 1.1//EN" "http://www.w3.org/Graphics/SVG/1.1/DTD/svg11.dtd">
<svg version="1.1" id="Capa_1" xmlns="http://www.w3.org/2000/svg" xmlns:xlink="http://www.w3.org/1999/xlink" x="0px" y="0px"
	 viewBox="0 0 488.308 488.308" style="enable-background:new 0 0 488.308 488.308;" xml:space="preserve">
<g>
	<path d="M106.599,123.799c19.851,0,35.94-18.391,35.94-41.083c0-22.684-16.09-41.075-35.94-41.075
		c-19.805,0-35.895,18.392-35.895,41.075C70.705,105.408,86.795,123.799,106.599,123.799z"/>
	<path d="M137.336,278.88c0,4.768-3.856,8.631-8.633,8.631H84.717c-4.776,0-8.633-3.864-8.633-8.631v-30.396H60.851l0.348,185.007
		c0,11.425,9.267,20.684,20.692,20.684c11.425,0,20.692-9.259,20.692-20.684V317.003h8.234v117.266
		c0,11.425,9.27,20.684,20.693,20.684c11.425,0,20.691-9.259,20.691-20.684l0.334-185.785h-15.201V278.88z"/>
	<path d="M60.851,236.424h20.152v-97.907c-3.889,0-6.364,0.008-6.443,0.017c-6.141-0.374-12.297,2.34-15.74,7.965l-56.27,91.679
		c-4.983,8.108-2.443,18.724,5.682,23.707c2.808,1.721,5.918,2.546,8.996,2.546c5.792,0,11.458-2.92,14.711-8.227l28.912-47.106
		V236.424z"/>
	<path d="M92.635,168.246c0,3.141,2.539,5.689,5.681,5.689h16.631c3.141,0,5.695-2.547,5.695-5.689V138.54
		c-8.838-0.015-19.247-0.023-28.007-0.023V168.246z"/>
	<path d="M439.657,323.166v-50.055c0-6.197-5.03-11.218-11.22-11.218H276.974c-6.188,0-11.218,5.021-11.218,11.218v82.079v49.287
		v41.121c0,5.165,4.189,9.355,9.347,9.355c5.173,0,9.362-4.189,9.362-9.355v-41.121h71.485
		c7.553,28.951,33.705,50.476,64.997,50.476c37.147,0,67.36-30.222,67.36-67.377C488.308,356.958,467.664,331.34,439.657,323.166z
		 M391.957,345.517l17.867,30.951l-30.959-17.867C382.404,353.484,386.847,349.048,391.957,345.517z M374.898,365.685l30.897,17.836
		h-35.594C370.71,377.175,372.281,371.169,374.898,365.685z M370.201,391.646h35.577l-30.864,17.829
		C372.295,403.993,370.71,397.985,370.201,391.646z M378.881,416.559l30.959-17.884l-17.867,30.96
		C386.847,426.104,382.42,421.67,378.881,416.559z M416.887,438.291c-6.334-0.507-12.331-2.07-17.821-4.689l17.821-30.863V438.291z
		 M416.887,372.422l-17.821-30.872c5.475-2.618,11.474-4.189,17.821-4.698V372.422z M471.139,378.532
		c0.301,1.626,0.38,3.308,0.507,4.982h-35.545l25.373-14.654l5.475-3.159C468.887,369.733,470.329,374.002,471.139,378.532z
		 M449.907,345.517c5.11,3.539,9.553,7.975,13.092,13.092l-7.458,4.308l-23.501,13.568l13.567-23.501L449.907,345.517z
		 M425.011,336.853c1.665,0.135,3.347,0.207,4.965,0.5c4.539,0.817,8.808,2.269,12.839,4.197l-3.157,5.474l-14.646,25.365V336.853z
		 M425.011,438.291v-35.528l17.804,30.839C437.34,436.213,431.342,437.784,425.011,438.291z M449.907,429.627L432.04,398.66
		l30.959,17.875C459.46,421.654,455.017,426.088,449.907,429.627z M466.949,409.451l-30.831-17.812h35.528
		C471.139,397.971,469.568,403.968,466.949,409.451z"/>
	<path d="M282.101,240.597c2.428,4.499,7.14,7.299,12.25,7.299h112.029c5.11,0,9.822-2.8,12.25-7.299l8.41-15.52
		c1.333-2.452,1.27-5.427-0.158-7.831c-1.285-2.174-3.57-3.427-6.061-3.674c-0.588-38.473-31.848-69.502-70.456-69.502
		c-38.622,0-69.882,31.037-70.471,69.502c-2.475,0.262-4.759,1.508-6.046,3.674c-1.427,2.403-1.489,5.378-0.157,7.831
		L282.101,240.597z M350.365,160.32c29.644,0,53.748,23.906,54.62,53.055H296.16C296.859,184.019,320.836,160.32,350.365,160.32z"/>
	<path d="M263.519,115.968c0-7.76-5.681-14.051-12.694-14.051c-0.159,0-0.313,0.019-0.464,0.049c1.078-1.663,1.711-3.641,1.711-5.77
		c0-4.207-2.451-7.832-5.997-9.553c0.71-2.063,1.195-4.277,1.195-6.695c0-8.656-5.046-15.543-11.425-16.329
		c1.332-1.849,2.285-3.872,2.285-6.157c0-3.792-2.199-7.067-5.494-9.377c1.018-1.508,1.613-3.325,1.613-5.282
		c0-5.218-4.23-9.448-9.449-9.448c-5.217,0-9.447,4.23-9.447,9.448c0,1.002,0.159,1.967,0.447,2.874
		c-5.303,0.596-9.426,5.091-9.426,10.553c0,0.559,0.056,1.104,0.139,1.639c-8.745,1.059-15.606,7.704-15.606,16.063
		c0,4.158,1.825,7.855,4.569,10.759c-3,3.015-4.904,7.196-4.904,11.87c0,2.515,0.636,4.84,1.604,6.974
		c-2.094,2.213-3.412,5.3-3.412,8.751c0,3.333,1.223,6.34,3.189,8.545c-1.301,1.659-2.236,3.476-2.236,5.515
		c0,2.502,1.191,4.778,3.117,6.663c-1.746,1.893-2.822,4.415-2.822,7.193c0,0.736,0.075,1.454,0.218,2.147
		c-2.384,2.433-3.894,5.646-3.894,9.257c0,7.57,6.363,13.703,14.219,13.703c2.967,0,5.57-1.087,7.855-2.586
		c0.709,0.419,1.438,0.821,2.224,1.167c1.146,3.787,4.352,6.672,8.313,7.371v19.676l-31.547,3.816l-33.449-48.961
		c-3.443-5.029-9.078-7.355-14.742-7.195c-0.109-0.016-2.807-0.024-6.934-0.032v97.86h20.264v-31.586l12.299,18.002
		c3.236,4.737,8.584,7.522,14.232,7.522c0.682,0,1.381-0.047,2.063-0.127l37.814-4.563v15.099c0,3.365,2.729,6.093,6.093,6.093
		c3.364,0,6.094-2.728,6.094-6.093v-21c3.206-3.571,5.047-8.323,4.428-13.464c-0.429-3.61-2.191-6.626-4.428-9.172v-26.682
		c5.382-0.155,9.76-4.303,10.265-9.59c0.256,0.049,0.514,0.092,0.796,0.092c9.156,0,16.582-5.172,16.582-11.559
		c0-1.801-0.713-3.452-1.761-4.974c3.824-2.017,6.506-5.27,6.506-9.14c0-3.38-2.016-6.324-5.063-8.379
		C261.457,124.33,263.519,120.49,263.519,115.968z"/>
</g>
<g>
</g>
<g>
</g>
<g>
</g>
<g>
</g>
<g>
</g>
<g>
</g>
<g>
</g>
<g>
</g>
<g>
</g>
<g>
</g>
<g>
</g>
<g>
</g>
<g>
</g>
<g>
</g>
<g>
</g>
</svg>
