<?xml version="1.0" encoding="iso-8859-1"?>
<!-- Generator: Adobe Illustrator 18.0.0, SVG Export Plug-In . SVG Version: 6.00 Build 0)  -->
<!DOCTYPE svg PUBLIC "-//W3C//DTD SVG 1.1//EN" "http://www.w3.org/Graphics/SVG/1.1/DTD/svg11.dtd">
<svg version="1.1" id="Capa_1" xmlns="http://www.w3.org/2000/svg" xmlns:xlink="http://www.w3.org/1999/xlink" x="0px" y="0px"
	 viewBox="0 0 479.135 479.135" style="enable-background:new 0 0 479.135 479.135;" xml:space="preserve">
<g>
	<path d="M333.344,142.549c19.043,0,34.449-17.638,34.449-39.393c0-21.756-15.406-39.393-34.449-39.393
		c-18.995,0-34.418,17.637-34.418,39.393C298.926,124.911,314.349,142.549,333.344,142.549z"/>
	<path d="M362.811,291.257c0,4.571-3.698,8.276-8.268,8.276H312.35c-4.57,0-8.268-3.705-8.268-8.276v-29.149h-14.534l-0.333,176.788
		c0,10.957,8.885,19.836,19.835,19.836c10.948,0,19.835-8.879,19.835-19.836l0.603-111.712h7.918v111.688
		c0,10.957,8.887,19.836,19.835,19.836c10.948,0,19.835-8.879,19.835-19.836l0.254-176.764h-14.518V291.257z"/>
	<path d="M319.951,185.162c0,3.016,2.444,5.459,5.459,5.459h15.945c3.017,0,5.461-2.444,5.461-5.459v-28.784
		c-8.522-0.032-18.297-0.024-26.865,0.023V185.162z"/>
	<path d="M289.531,250.54h19.264v-94.035c-5.759,0.08-9.711,0.19-10.092,0.333c-4.475,0.801-8.6,3.292-11.172,7.466l-53.967,87.909
		c-4.777,7.783-2.333,17.955,5.441,22.731c2.698,1.659,5.682,2.452,8.633,2.452c5.555,0,10.982-2.808,14.107-7.886l27.738-45.185
		L289.531,250.54z"/>
	<circle cx="438.17" cy="124.086" r="3.618"/>
	<path d="M459.305,130.624c2.316,0,4.19-1.872,4.19-4.189c0-2.317-1.874-4.189-4.19-4.189c-2.315,0-4.188,1.872-4.188,4.189
		C455.117,128.752,456.989,130.624,459.305,130.624z"/>
	<path d="M448.263,118.946c2.664,0,4.822-2.159,4.822-4.824c0-2.666-2.158-4.824-4.822-4.824c-2.667,0-4.825,2.158-4.825,4.824
		C443.438,116.786,445.596,118.946,448.263,118.946z"/>
	<path d="M478.188,165.153c-0.633-0.809-1.665-1.087-2.664-1.285c0.332-0.825,0.539-1.714,0.539-2.65
		c0-3.999-3.236-7.235-7.235-7.235c-0.096,0-0.176,0.047-0.27,0.055c0.08-0.452,0.27-0.857,0.27-1.324
		c0-2.364-1.143-4.387-2.825-5.785c1.65-0.969,2.825-2.689,2.825-4.753c0-3.086-2.507-5.585-5.587-5.585
		c-1.016,0-1.904,0.341-2.728,0.809c-1.351-3.229-4.525-5.507-8.253-5.507c-1.236,0-2.412,0.255-3.49,0.707
		c-0.223-0.357-0.414-0.723-0.699-1.032c0.303,0.063,0.492,0.325,0.795,0.325c2.158,0,3.902-1.745,3.902-3.903
		s-1.744-3.903-3.902-3.903c-2.16,0-3.905,1.745-3.905,3.903c0,0.667,0.413,1.159,0.698,1.706c-1.015-0.508-2.141-0.85-3.363-0.85
		c-2.698,0-4.951,1.461-6.349,3.547c-0.03-0.033-0.094-0.056-0.126-0.088c0.126-0.556,0.333-1.087,0.333-1.682
		c0-3.943-3.189-7.141-7.14-7.141c-3.952,0-7.142,3.198-7.142,7.141c0,2.086,0.921,3.919,2.35,5.229
		c-0.239,0.729-0.462,1.476-0.462,2.285c0,0.722,0.223,1.381,0.413,2.047c-2.538,1.627-4.315,4.34-4.315,7.577
		c0,0.492,0.206,0.905,0.285,1.373c-1.793,0.919-3.046,2.72-3.046,4.863c0,0.746,0.157,1.459,0.427,2.111
		c-2.585,1.522-4.41,4.22-4.41,7.442c0,0.301,0.144,0.554,0.174,0.848c-0.523,0.278-1.19,0.278-1.555,0.754
		c-0.825,1.032-1.126,2.381-0.842,3.666l9.426,40.623l-9.504,1.143l-32.07-46.954c-2.682-3.936-6.791-6.252-11.172-6.919
		c-0.332-0.112-4.109-0.19-9.6-0.255v94.084h19.376l0.047-30.285l11.79,17.265c3.094,4.539,8.221,7.205,13.648,7.205
		c0.649,0,1.315-0.041,1.981-0.12l37.766-4.553c4.635-0.556,8.538-3.007,11.157-6.459h6.839c1.999,0,3.744-1.388,4.205-3.347
		l14.249-61.426C479.315,167.534,479.014,166.185,478.188,165.153z"/>
	<path d="M239.34,65.295c1.762-2.419,2.254-5.538,1.334-8.386l-10.188-31.395c-1.254-3.858-4.84-6.467-8.902-6.467H51.033
		c-4.063,0-7.648,2.609-8.903,6.467L31.943,56.908c-0.922,2.849-0.429,5.967,1.332,8.386c1.762,2.419,4.57,3.856,7.569,3.856h8.521
		v250.457c5.793-1.429,11.76-2.405,17.994-2.405c41.654,0,75.534,33.871,75.534,75.509c0,5.824-0.809,11.441-2.063,16.891h63.711
		v41.131c0,5.166,4.189,9.354,9.362,9.354c5.157,0,9.347-4.189,9.347-9.354v-41.131v-49.278V69.151h8.521
		C234.77,69.151,237.578,67.714,239.34,65.295z M204.541,267.519H68.074V69.151h58.586v34.95v0.254h0.078
		c0.445,4.229,11.537,7.618,25.233,7.618c13.692,0,24.786-3.388,25.229-7.618h0.079v-0.254v-34.95h27.262V267.519z"/>
	<path d="M67.473,325.335c-0.033,0-0.064-0.016-0.098-0.016c-9.297,0-18.152,1.896-26.213,5.309C16.994,340.87,0,364.848,0,392.712
		c0,37.155,30.213,67.376,67.359,67.376c37.166,0,67.41-30.222,67.41-67.376C134.77,355.595,104.588,325.398,67.473,325.335z
		 M38.4,350.66l4.302,7.458l13.565,23.501l-23.484-13.568l-7.458-4.3C28.848,358.634,33.292,354.199,38.4,350.66z M17.185,383.659
		c0.81-4.524,2.252-8.791,4.174-12.822l5.474,3.165l25.372,14.647H16.678C16.805,386.976,16.884,385.285,17.185,383.659z
		 M16.661,396.774h35.544l-30.846,17.813C18.741,409.104,17.17,403.104,16.661,396.774z M25.31,421.671l30.957-17.876L38.4,434.762
		C33.292,431.223,28.848,426.789,25.31,421.671z M63.298,443.426c-6.331-0.509-12.329-2.078-17.804-4.698l17.804-30.831V443.426z
		 M63.298,341.988v35.537l-14.63-25.357l-3.174-5.482c4.047-1.937,8.315-3.388,12.854-4.206c1.603-0.294,3.284-0.366,4.95-0.501
		V341.988z M109.443,363.736l-30.959,17.868l17.867-30.951C101.462,354.183,105.904,358.619,109.443,363.736z M71.422,341.988
		c6.349,0.509,12.346,2.078,17.82,4.698l-17.82,30.872V341.988z M71.422,443.426v-35.553l17.82,30.864
		C83.752,441.348,77.754,442.918,71.422,443.426z M96.336,434.771l-17.868-30.96l30.96,17.875
		C105.889,426.804,101.462,431.239,96.336,434.771z M113.395,414.611l-30.879-17.829h35.592
		C117.599,403.121,116.029,409.126,113.395,414.611z M82.516,388.657l30.895-17.837c2.619,5.482,4.188,11.49,4.697,17.837H82.516z"
		/>
	<path d="M110.252,178.49c2.809,0,5.078-2.276,5.078-5.078c0-2.802-2.27-5.078-5.078-5.078c-2.81,0-5.078,2.276-5.078,5.078
		C105.174,176.214,107.442,178.49,110.252,178.49z"/>
	<path d="M126.898,183.902c1.65,0,2.967-1.325,2.967-2.959c0-1.635-1.316-2.959-2.967-2.959c-1.619,0-2.951,1.324-2.951,2.959
		C123.947,182.577,125.279,183.902,126.898,183.902z"/>
	<path d="M176.223,217.452c-1.355-1.082-3.004-1.807-4.862-1.807c-1.786,0-3.403,0.654-4.729,1.666
		c-0.175-0.767-0.553-1.453-1.075-2.004c2.865-0.916,4.947-3.599,4.947-6.771c0-3.927-3.189-7.109-7.109-7.109
		c-3.055,0-5.543,1.969-6.541,4.681c-0.467-0.174-0.967-0.282-1.494-0.282c-0.444,0-0.864,0.087-1.268,0.212
		c-0.068-3.024-2.535-5.455-5.576-5.455c-2.166,0-4.041,1.236-4.966,3.04c0.002-0.018,0.009-0.033,0.009-0.051
		c0-0.879-0.204-1.694-0.463-2.48c3.703-0.085,6.68-3.107,6.68-6.831c0-3.777-3.062-6.84-6.839-6.84c-3.778,0-6.84,3.063-6.84,6.84
		c0,0.399,0.042,0.788,0.107,1.167c-0.319-0.085-0.631-0.188-0.976-0.188c-2.744,0-5.045,1.404-6.57,3.443l-0.016-0.008
		c0.716-0.985,1.223-2.127,1.223-3.435c0-3.269-2.65-5.919-5.918-5.919c-0.346,0-0.649,0.103-0.962,0.184
		c0.227-1.609-0.396-3.287-1.8-4.314c-1.686-1.235-3.93-1.123-5.496,0.108c-1.793-2.168-4.381-3.634-7.421-3.634
		c-1.761,0-3.333,0.595-4.759,1.412c0.967-1.499,1.664-3.173,1.664-5.092c0-5.333-4.314-9.649-9.648-9.649
		c-0.404,0-0.756,0.137-1.133,0.226c0.092-0.573,0.152-1.156,0.152-1.755c0-6.07-4.92-10.991-10.99-10.991
		c-0.021,0-0.042,0.004-0.063,0.004c-0.025,0-0.049-0.004-0.073-0.004c-1.683,0-3.221,0.429-4.649,1.095v0.013v97.909h115.093
		v-15.526v-3.801v-5.776c-1.079-0.881-2.398-1.476-3.903-1.476c-0.825,0-1.618,0.182-2.334,0.476
		c-0.072-0.494-0.276-0.912-0.497-1.324c1.642-1.367,2.688-3.425,2.688-5.729c0-4.117-3.338-7.454-7.454-7.454
		C179.814,214.223,177.567,215.503,176.223,217.452z"/>
	<path d="M174.233,198.961c0,2.618,2.127,4.745,4.744,4.745c2.602,0,4.73-2.127,4.73-4.745c0-2.611-2.128-4.729-4.73-4.729
		C176.36,194.233,174.233,196.35,174.233,198.961z"/>
	<path d="M87.83,155.815c4.253,0,7.695-3.451,7.695-7.704c0-4.253-3.442-7.704-7.695-7.704c-4.269,0-7.711,3.451-7.711,7.704
		C80.119,152.363,83.562,155.815,87.83,155.815z"/>
	<path d="M113.299,162.615c4.492,0,8.125-3.635,8.125-8.124c0-4.491-3.633-8.124-8.125-8.124c-4.49,0-8.125,3.633-8.125,8.124
		C105.174,158.98,108.809,162.615,113.299,162.615z"/>
	<path d="M144.242,171.016c2.316,0,4.205-1.88,4.205-4.204c0-2.317-1.889-4.197-4.205-4.197c-2.316,0-4.205,1.88-4.205,4.197
		C140.037,169.136,141.926,171.016,144.242,171.016z"/>
</g>
<g>
</g>
<g>
</g>
<g>
</g>
<g>
</g>
<g>
</g>
<g>
</g>
<g>
</g>
<g>
</g>
<g>
</g>
<g>
</g>
<g>
</g>
<g>
</g>
<g>
</g>
<g>
</g>
<g>
</g>
</svg>
