<?xml version="1.0" encoding="iso-8859-1"?>
<!-- Generator: Adobe Illustrator 18.0.0, SVG Export Plug-In . SVG Version: 6.00 Build 0)  -->
<!DOCTYPE svg PUBLIC "-//W3C//DTD SVG 1.1//EN" "http://www.w3.org/Graphics/SVG/1.1/DTD/svg11.dtd">
<svg version="1.1" id="Capa_1" xmlns="http://www.w3.org/2000/svg" xmlns:xlink="http://www.w3.org/1999/xlink" x="0px" y="0px"
	 viewBox="0 0 487.472 487.472" style="enable-background:new 0 0 487.472 487.472;" xml:space="preserve">
<g>
	<path d="M137.085,124.629c19.042,0,34.449-17.637,34.449-39.393c0-21.756-15.407-39.393-34.449-39.393
		c-18.994,0-34.417,17.637-34.417,39.393C102.669,106.992,118.091,124.629,137.085,124.629z"/>
	<path d="M123.693,167.244c0,3.014,2.443,5.458,5.458,5.458h15.948c3.015,0,5.458-2.444,5.458-5.458v-28.706
		c-8.6-0.096-18.327-0.127-26.864-0.096V167.244z"/>
	<path d="M486.79,39.337C486.79,17.614,469.175,0,447.452,0H39.893C18.17,0,0.556,17.614,0.556,39.337l0.127,393.23
		c0,12.377,10.028,22.406,22.405,22.406h17.804v22.136c0,5.728,4.635,10.362,10.362,10.362h21.264
		c5.728,0,10.362-4.634,10.362-10.362v-22.136h321.838v22.136c0,5.728,4.635,10.362,10.362,10.362h21.264
		c5.728,0,10.361-4.634,10.361-10.362v-22.136h17.805c12.377,0,22.405-10.029,22.405-22.406L486.79,39.337z M445.929,373.173H41.669
		c-4.49,0-8.125-3.633-8.125-8.125c0-4.49,3.635-8.125,8.125-8.125h404.26c4.49,0,8.125,3.635,8.125,8.125
		C454.054,369.54,450.419,373.173,445.929,373.173z M70.994,242.618l22.232-36.213v36.213H70.994z M454.292,242.618h-24.946v-90.41
		c0-2.428-1.966-4.387-4.379-4.387h-7.426V98.89c0-4.134-3.349-7.489-7.49-7.489c-4.141,0-7.49,3.355-7.49,7.489v48.931h-7.426
		c-2.412,0-4.38,1.96-4.38,4.387v20.597h23.93v52.221h-23.93v17.591H369.65c-1.016-3.182-6.586-5.642-14.075-6.357V208.7
		c6.396-1.81,11.171-7.443,11.171-14.41v-30.657c0-2.427-1.968-4.387-4.379-4.387h-21.709c-2.41,0-4.379,1.96-4.379,4.387v30.657
		c0,6.966,4.777,12.6,11.172,14.41v27.562c-7.49,0.715-13.076,3.175-14.092,6.357H181.136v-40.283l11.789,17.265
		c3.096,4.539,8.221,7.205,13.648,7.205c0.649,0,1.316-0.039,1.984-0.119l37.766-4.555c0.364-0.047,0.649-0.27,1.016-0.333
		c2.602,2.887,6.268,4.775,10.456,4.775h5.237c1.063,3.261,4.015,5.666,7.632,5.666h24.374c4.491,0,8.124-3.635,8.124-8.116v-11.482
		c7.411-1.173,13.187-7.323,13.187-15.05c0-2.856-0.81-5.611-2.269-7.975c0.096-0.619,0.143-1.253,0.143-1.888
		c0-0.889-0.096-1.753-0.27-2.587c1.556-2.657,2.396-5.673,2.396-8.83c0-9.616-7.585-17.487-17.089-17.963
		c-0.667-0.547-1.382-1.038-2.127-1.467c-1.905-5.785-7.363-9.974-13.773-9.974c-5.855,0-10.901,3.484-13.188,8.482
		c-2.777,1.777-4.808,4.593-5.537,7.894c-3.776,2.832-6.174,7.315-6.174,12.362c0,1.428,0.223,2.84,0.652,4.212h-1.318
		c-6.053,0-11.074,3.851-13.111,9.183l-30.129,3.622l-32.069-46.953c-2.301-3.364-5.696-5.427-9.347-6.427
		c-0.476-0.239-4.951-0.429-11.426-0.572v101.334h-49.175V138.53c-6.142,0.08-10.395,0.223-10.821,0.413
		c-4.191,0.953-8.015,3.491-10.442,7.442l-53.968,87.909c-1.602,2.611-2.11,5.468-2.157,8.325h-2.095V39.337
		c0-3.768,3.061-6.839,6.839-6.839h407.559c3.776,0,6.84,3.071,6.84,6.839V242.618z M260.748,203.749
		c-0.477-3.896-2.397-7.133-4.984-9.679c0-1.12,0.905-2.025,2.031-2.025h2.89c0.539,0.977,1.126,1.904,1.855,2.746v19.597h-4.412
		C260.081,211.293,261.223,207.66,260.748,203.749z M266.586,175.646c0-3.896,3.016-6.99,6.824-7.331
		c-0.444-0.699-0.952-1.39-0.952-2.285c0-2.491,2.015-4.516,4.523-4.516c0.016,0,0.016,0,0.016,0c0-0.031-0.016-0.064-0.016-0.094
		c0-3.531,2.856-6.388,6.379-6.388c3.507,0,6.378,2.857,6.378,6.388c0,0.603-0.19,1.15-0.348,1.706
		c0.11-0.008,0.221-0.071,0.348-0.071c2.746,0,5.047,1.602,6.222,3.878c0.793-0.206,1.539-0.482,2.396-0.482
		c5.443,0,9.869,4.41,9.869,9.861c0,3.284-1.696,6.053-4.173,7.847c1.175,0.848,2.048,2.015,2.048,3.57
		c0,1.444-0.729,2.611-1.777,3.467c2.301,1.254,3.902,3.594,3.902,6.395c0,4.093-3.316,7.401-7.409,7.401
		c-4.063,0-7.379-3.308-7.379-7.401c0-0.866,0.223-1.659,0.492-2.421c-0.175,0.008-0.318,0.096-0.492,0.096
		c-3.649,0-6.648-2.348-7.791-5.586c-0.778,0.327-1.635,0.517-2.54,0.517c-0.919,0-1.792-0.19-2.585-0.523
		c-1.461,1.633-3.539,2.705-5.903,2.705c-4.428,0-8.03-3.594-8.03-8.03c0-1.682,0.635-3.149,1.523-4.435
		C267.205,178.692,266.586,177.273,266.586,175.646z"/>
</g>
<g>
</g>
<g>
</g>
<g>
</g>
<g>
</g>
<g>
</g>
<g>
</g>
<g>
</g>
<g>
</g>
<g>
</g>
<g>
</g>
<g>
</g>
<g>
</g>
<g>
</g>
<g>
</g>
<g>
</g>
</svg>
